<?xml version="1.0" standalone="no"?>
<!DOCTYPE svg PUBLIC "-//W3C//DTD SVG 1.1//EN" "http://www.w3.org/Graphics/SVG/1.1/DTD/svg11.dtd" >
<svg xmlns="http://www.w3.org/2000/svg" xmlns:xlink="http://www.w3.org/1999/xlink" version="1.1">
<metadata>
Created by FontForge 20170731 at Fri Apr  7 10:27:48 2017
 By Aleksey,,,
Copyright (c) 2017 by Artegra. All rights reserved.
</metadata>
<defs>
<font id="ArtegraSans-Black" horiz-adv-x="1335" >
  <font-face 
    font-family="ArtegraSans-Black"
    font-weight="900"
    font-stretch="normal"
    units-per-em="2048"
    panose-1="2 0 9 3 5 0 0 2 0 4"
    ascent="1522"
    descent="-526"
    x-height="1046"
    cap-height="1434"
    bbox="-260 -911 3446 2278"
    underline-thickness="102"
    underline-position="-307"
    unicode-range="U+000D-FE65"
  />
<missing-glyph horiz-adv-x="922" 
 />
    <glyph glyph-name="ff" unicode="ff" horiz-adv-x="1729" 
d="M758 1213q-84 0 -110.5 -37t-26.5 -130h353q0 87 13 158.5t44.5 136.5t82 109t130 70t183.5 26q169 0 302 -45l-99 -274q-62 16 -116 16q-85 0 -111 -41t-26 -156h278v-303h-278v-743h-403v743h-353v-743h-403v743h-188v303h188q0 78 12.5 144.5t45 128t82.5 104t130 68
t183 25.5q169 0 302 -45l-99 -274q-62 16 -116 16z" />
    <glyph glyph-name="fi" unicode="fi" horiz-adv-x="1469" 
d="M623 1046h756v-1046h-403v743h-353v-743h-403v743h-190v303h190q0 108 32.5 195.5t101.5 157t188 108t281 38.5q328 0 533 -149l-213 -231q-45 30 -116.5 53.5t-156.5 23.5q-136 0 -191.5 -48t-55.5 -148z" />
    <glyph glyph-name="fl" unicode="fl" horiz-adv-x="1535" 
d="M976 415v328h-353v-743h-403v743h-190v303h190q0 108 32.5 195.5t101.5 157t188 108t281 38.5q194 0 333 -47t223 -117v-940q0 -31 0.5 -45t4 -36t11 -31.5t22 -17.5t36.5 -8h32v-303h-132q-75 0 -134.5 13.5t-98.5 33.5t-67 54.5t-42.5 66t-22.5 79t-10 82.5t-2 86z
M870 1242q-136 0 -191.5 -48t-55.5 -148h353v185q-46 11 -106 11z" />
    <glyph glyph-name="ffi" unicode="ffi" horiz-adv-x="2223" 
d="M1377 1046h756v-1046h-403v743h-353v-743h-403v743h-353v-743h-403v743h-188v303h188q0 78 12.5 144.5t45 128t82.5 104t130 68t183 25.5q169 0 302 -45l-99 -274q-62 16 -116 16q-84 0 -110.5 -37t-26.5 -130h353q0 108 32.5 195.5t101.5 157t188 108t281 38.5
q328 0 533 -149l-213 -231q-116 77 -273 77q-136 0 -191.5 -48t-55.5 -148z" />
    <glyph glyph-name="ffl" unicode="ffl" horiz-adv-x="2289" 
d="M1730 415v328h-353v-743h-403v743h-353v-743h-403v743h-188v303h188q0 78 12.5 144.5t45 128t82.5 104t130 68t183 25.5q169 0 302 -45l-99 -274q-62 16 -116 16q-84 0 -110.5 -37t-26.5 -130h353q0 108 32.5 195.5t101.5 157t188 108t281 38.5q194 0 333 -47t223 -117
v-940q0 -31 0.5 -45t4 -36t11 -31.5t22 -17.5t36.5 -8h32v-303h-132q-75 0 -134.5 13.5t-98.5 33.5t-67 54.5t-42.5 66t-22.5 79t-10 82.5t-2 86zM1624 1242q-136 0 -191.5 -48t-55.5 -148h353v185q-46 11 -106 11z" />
    <glyph glyph-name=".notdef" horiz-adv-x="922" 
 />
    <glyph glyph-name=".null" horiz-adv-x="0" 
 />
    <glyph glyph-name="nonmarkingreturn" unicode="&#xd;" horiz-adv-x="922" 
 />
    <glyph glyph-name="null" horiz-adv-x="0" 
 />
    <glyph glyph-name="null" horiz-adv-x="0" 
 />
    <glyph glyph-name="space" unicode=" " horiz-adv-x="573" 
 />
    <glyph glyph-name="exclam" unicode="!" horiz-adv-x="693" 
d="M160 482l-30 952h433l-30 -952h-373zM136 190q0 87 61.5 148.5t148.5 61.5t148.5 -61.5t61.5 -148.5t-61.5 -148.5t-148.5 -61.5t-148.5 61.5t-61.5 148.5z" />
    <glyph glyph-name="quotedbl" unicode="&#x22;" horiz-adv-x="998" 
d="M91 927l-21 507h393l-20 -507h-352zM556 927l-21 507h393l-20 -507h-352z" />
    <glyph glyph-name="numbersign" unicode="#" horiz-adv-x="1741" 
d="M1041 1191l39 243h417l-39 -243h213v-365h-272l-35 -218h213v-365h-271l-39 -243h-417l39 243h-188l-39 -243h-418l39 243h-213v365h271l35 218h-212v365h271l39 243h418l-39 -243h188zM794 826l-35 -218h188l35 218h-188z" />
    <glyph glyph-name="dollar" unicode="$" horiz-adv-x="1374" 
d="M1278 1329l-191 -285q-182 78 -388 78q-77 0 -125.5 -24.5t-48.5 -77.5q0 -28 13.5 -48t45 -34.5t63 -23t88.5 -20.5q115 -24 201 -51.5t160 -66.5t120 -87.5t72 -115.5t26 -151q0 -104 -34.5 -185t-98.5 -134.5t-147.5 -85.5t-187.5 -46v-211h-282v205q-305 24 -504 180
l191 285q186 -118 398 -118q119 0 178.5 22.5t59.5 87.5q0 52 -55 78t-179 51q-284 59 -419.5 176t-135.5 293q0 87 27 160.5t81.5 134t146 100.5t211.5 53v206h282v-208q252 -28 432 -137z" />
    <glyph glyph-name="uni0025" unicode="%" horiz-adv-x="1960" 
d="M357 0l802 1434h445l-802 -1434h-445zM839 1080q0 -162 -109 -273.5t-275 -111.5t-275.5 111.5t-109.5 273.5q0 161 109.5 272.5t275.5 111.5t275 -111t109 -273zM544 1080q0 38 -24 63.5t-65 25.5t-65 -25.5t-24 -63.5t24 -63.5t65 -25.5t65 25.5t24 63.5zM1890 355
q0 -162 -109 -273.5t-275 -111.5t-275.5 111.5t-109.5 273.5q0 161 109.5 272.5t275.5 111.5t275 -111t109 -273zM1595 355q0 38 -24 63.5t-65 25.5t-65 -25.5t-24 -63.5t24 -63.5t65 -25.5t65 25.5t24 63.5z" />
    <glyph glyph-name="ampersand" unicode="&#x26;" horiz-adv-x="1744" 
d="M756 1474q218 0 358.5 -108.5t140.5 -273.5q0 -60 -22 -118.5t-54.5 -103.5t-80.5 -89.5t-89.5 -74.5t-91.5 -62q16 -18 27 -28t26.5 -23t35.5 -32q59 59 137 166l320 -220q-66 -104 -162 -213q95 -75 289 -198q61 -39 154 -96h-628q-15 9 -85 57q-136 -97 -414 -97
q-97 0 -179 13.5t-151 43.5t-116.5 75t-74 110.5t-26.5 147.5q0 73 20 134t59 109.5t83 84.5t106 75q-99 123 -99 299q0 132 70 229t186 145t261 48zM493 376q0 -33 28.5 -48.5t92.5 -15.5q55 0 90 21q-73 57 -142 133q-36 -22 -52.5 -42t-16.5 -48zM832 1054q0 29 -20 48.5
t-56 19.5q-40 0 -67 -21t-27 -69q0 -61 42 -124q67 39 97.5 73t30.5 73z" />
    <glyph glyph-name="quotesingle" unicode="'" horiz-adv-x="533" 
d="M91 927l-21 507h393l-20 -507h-352z" />
    <glyph glyph-name="parenleft" unicode="(" horiz-adv-x="918" 
d="M528 580q0 -312 170 -488q75 -76 170 -111l-155 -358q-174 61 -312 187q-63 57 -115.5 127t-98 164t-71.5 216.5t-26 262.5q0 139 26 261.5t71.5 216.5t98 164t115.5 127q137 125 312 188l155 -358q-95 -35 -170 -111q-170 -176 -170 -488z" />
    <glyph glyph-name="parenright" unicode=")" horiz-adv-x="918" 
d="M390 580q0 312 -170 488q-75 76 -170 111l155 358q174 -63 311 -188q312 -284 312 -769q0 -486 -312 -770q-138 -126 -311 -187l-155 358q95 35 170 111q170 176 170 488z" />
    <glyph glyph-name="asterisk" unicode="*" horiz-adv-x="1128" 
d="M360 1434h408l-16 -222l214 78l112 -392l-213 -46l142 -161l-324 -247l-119 181l-119 -181l-324 247l141 161l-212 46l112 392l213 -77z" />
    <glyph glyph-name="plus" unicode="+" horiz-adv-x="1230" 
d="M1160 854v-352h-353v-339h-385v339h-352v352h352v339h385v-339h353z" />
    <glyph glyph-name="comma" unicode="," horiz-adv-x="760" 
d="M50 -278l211 542h429l-249 -542h-391z" />
    <glyph glyph-name="hyphen" unicode="-" horiz-adv-x="978" 
d="M70 436v283h838v-283h-838z" />
    <glyph glyph-name="period" unicode="." horiz-adv-x="560" 
d="M70 190q0 87 61.5 148.5t148.5 61.5t148.5 -61.5t61.5 -148.5t-61.5 -148.5t-148.5 -61.5t-148.5 61.5t-61.5 148.5z" />
    <glyph glyph-name="slash" unicode="/" horiz-adv-x="1253" 
d="M70 0l660 1434h453l-659 -1434h-454z" />
    <glyph glyph-name="zero" unicode="0" horiz-adv-x="1472" 
d="M1422 717q0 -352 -176.5 -554.5t-509.5 -202.5t-509.5 202.5t-176.5 554.5t176.5 554.5t509.5 202.5t509.5 -202.5t176.5 -554.5zM999 717q0 205 -61.5 305t-201.5 100t-201.5 -100t-61.5 -305t61.5 -305t201.5 -100t201.5 100t61.5 305z" />
    <glyph glyph-name="one" unicode="1" horiz-adv-x="898" 
d="M253 763l-253 272l453 399h355v-1434h-423v879z" />
    <glyph glyph-name="two" unicode="2" horiz-adv-x="1311" 
d="M431 947l-361 129q22 57 49.5 106.5t76.5 105.5t108.5 95t148 65t192.5 26q263 0 420.5 -123t157.5 -351q0 -128 -59 -224t-181 -201l-258 -223h516v-352h-1166v281l590 511q70 63 102.5 111.5t32.5 96.5q0 122 -155 122q-133 0 -214 -175z" />
    <glyph glyph-name="three" unicode="3" horiz-adv-x="1340" 
d="M50 280l375 126q74 -94 234 -94q218 0 218 120q0 77 -95.5 102t-314.5 25v343q49 0 78.5 0.5t68.5 2t62.5 5t51 9t43 14.5t30 21.5t20.5 29.5t6 39q0 99 -168 99q-46 0 -83 -10.5t-62.5 -31.5t-35 -31t-23.5 -29l-375 126q11 25 23 46.5t37 57t54 63.5t76 59.5
t100.5 52.5t128.5 35t160 14q123 0 228 -26t187 -77t129 -135.5t47 -192.5q0 -202 -198 -298q100 -32 169 -116t69 -217q0 -218 -167.5 -338t-463.5 -114q-239 4 -384 83t-225 237z" />
    <glyph glyph-name="four" unicode="4" horiz-adv-x="1403" 
d="M1177 0h-423v251h-684v314l719 869h388v-833h176v-350h-176v-251zM530 601h224v272z" />
    <glyph glyph-name="five" unicode="5" horiz-adv-x="1410" 
d="M1224 1434v-352h-628l-8 -141q58 8 112 8q640 0 640 -496q0 -493 -660 -493q-388 0 -590 193l252 254q151 -95 338 -95q113 0 165 33t52 108q0 73 -45 108.5t-152 35.5q-211 0 -411 -42q-86 -17 -158 -42l54 921h1039z" />
    <glyph glyph-name="six" unicode="6" horiz-adv-x="1404" 
d="M1202 1395l-158 -309q-70 29 -149 36t-149.5 -6.5t-124.5 -54t-71 -102.5q54 27 156 27q298 0 463 -134t165 -379t-165 -379t-463 -134q-563 0 -628 513q-15 158 0 293.5t54.5 236.5t98.5 182t132.5 134t157.5 88t172.5 48t178 10.5t172.5 -21t158 -49.5zM911 473
q0 79 -53.5 120t-151.5 41t-151.5 -41t-53.5 -120t53.5 -120t151.5 -41t151.5 41t53.5 120z" />
    <glyph glyph-name="seven" unicode="7" horiz-adv-x="1231" 
d="M70 1082v352h1091v-298l-547 -1136h-443l530 1082h-631z" />
    <glyph glyph-name="eight" unicode="8" horiz-adv-x="1354" 
d="M677 -40q-188 0 -327 49.5t-219.5 155.5t-80.5 260q0 118 56 197.5t147 118.5q-76 34 -123 107.5t-47 178.5q0 201 151 324t443 123t443 -123t151 -324q0 -105 -47 -178.5t-123 -107.5q91 -39 147 -118.5t56 -197.5q0 -154 -80.5 -260t-219.5 -155.5t-327 -49.5zM677 312
q102 0 153 31.5t51 101.5t-51 101.5t-153 31.5t-153 -31.5t-51 -101.5t51 -101.5t153 -31.5zM848 1007q0 61 -42.5 88t-128.5 27t-128.5 -27t-42.5 -88t42.5 -88t128.5 -27t128.5 27t42.5 88z" />
    <glyph glyph-name="nine" unicode="9" horiz-adv-x="1404" 
d="M202 39l158 309q70 -29 149 -36t149.5 6.5t124.5 54t71 102.5q-54 -27 -156 -27q-298 0 -463 134t-165 379t165 379t463 134q281 0 438.5 -129.5t189.5 -383.5q15 -158 0 -293.5t-54.5 -236.5t-98.5 -182t-132.5 -134t-157.5 -88t-172.5 -48t-178 -10.5t-172.5 21
t-158 49.5zM493 961q0 -79 53.5 -120t151.5 -41t151.5 41t53.5 120t-53.5 120t-151.5 41t-151.5 -41t-53.5 -120z" />
    <glyph glyph-name="colon" unicode=":" horiz-adv-x="560" 
d="M70 190q0 87 61.5 148.5t148.5 61.5t148.5 -61.5t61.5 -148.5t-61.5 -148.5t-148.5 -61.5t-148.5 61.5t-61.5 148.5zM70 856q0 87 61.5 148.5t148.5 61.5t148.5 -61.5t61.5 -148.5t-61.5 -148.5t-148.5 -61.5t-148.5 61.5t-61.5 148.5z" />
    <glyph glyph-name="semicolon" unicode=";" horiz-adv-x="680" 
d="M184 856q0 87 61.5 148.5t148.5 61.5t148.5 -61.5t61.5 -148.5t-61.5 -148.5t-148.5 -61.5t-148.5 61.5t-61.5 148.5zM-30 -278l211 542h429l-249 -542h-391z" />
    <glyph glyph-name="less" unicode="&#x3c;" horiz-adv-x="1106" 
d="M70 802l946 496v-421l-406 -190l406 -190v-421l-946 496v230z" />
    <glyph glyph-name="equal" unicode="=" horiz-adv-x="1070" 
d="M1000 622v-352h-930v352h930zM1000 1086v-352h-930v352h930z" />
    <glyph glyph-name="greater" unicode="&#x3e;" horiz-adv-x="1106" 
d="M90 1298l946 -496v-230l-946 -496v421l406 190l-406 190v421z" />
    <glyph glyph-name="question" unicode="?" horiz-adv-x="1284" 
d="M380 1001l-330 182q20 32 45.5 63t77.5 75t113.5 75.5t155.5 54.5t201 23q277 0 434 -125.5t157 -320.5q0 -63 -18.5 -119.5t-61 -111.5t-124 -96.5t-195.5 -61.5v-157h-423v362q194 2 296.5 40.5t102.5 123.5q0 53 -45 83.5t-123 30.5q-151 0 -263 -121zM413 190
q0 87 61.5 148.5t148.5 61.5t148.5 -61.5t61.5 -148.5t-61.5 -148.5t-148.5 -61.5t-148.5 61.5t-61.5 148.5z" />
    <glyph glyph-name="at" unicode="@" horiz-adv-x="1680" 
d="M1285 385q-80 0 -151 44t-85 100q-19 -83 -93.5 -142.5t-182.5 -59.5q-47 0 -93.5 11.5t-93 41t-80 73.5t-50.5 115t-9 159q10 90 46 160.5t81.5 111t101.5 66.5t100 34.5t84 8.5q164 0 299 -69q-15 -188 -19 -312q-2 -69 25 -107.5t80 -38.5q60 0 93 36t33 100
q0 121 -41 220t-112.5 164.5t-168.5 101t-209 35.5t-209 -35.5t-168.5 -101t-112.5 -164.5t-41 -220t41 -220t112.5 -164.5t168.5 -101t209 -35.5q259 0 450 116l169 -169q-239 -173 -619 -173q-166 0 -311 54.5t-251 151t-167 237t-61 304.5t61 304t167 237t251.5 151.5
t310.5 54.5t310.5 -54.5t251.5 -151.5t167 -237t61 -304q0 -152 -88.5 -242t-256.5 -90zM663 716q-23 -193 122 -193q68 0 106 53t52 166l19 166q-46 18 -95.5 14t-91.5 -23t-72.5 -66.5t-39.5 -116.5z" />
    <glyph glyph-name="A" unicode="A" horiz-adv-x="1602" 
d="M536 232l-90 -232h-446l587 1434h428l587 -1434h-446l-90 232h-530zM801 915l-140 -361h280z" />
    <glyph glyph-name="B" unicode="B" horiz-adv-x="1479" 
d="M846 0h-756v1434h741q549 0 549 -395q0 -85 -60.5 -168t-162.5 -111q79 -27 135 -66.5t84.5 -85.5t40.5 -89t12 -90q0 -62 -15.5 -119.5t-57 -115t-105 -99.5t-167.5 -68.5t-238 -26.5zM513 331h333q173 0 173 121t-173 121h-333v-242zM513 874h318q75 0 109 33t34 81
t-34 81t-109 33h-318v-228z" />
    <glyph glyph-name="C" unicode="C" horiz-adv-x="1483" 
d="M477 717q0 -63 12 -120.5t39.5 -110t68.5 -91t102 -61t137 -22.5q78 0 143.5 11t117.5 33t81 38.5t70 43.5l205 -272q-48 -43 -98.5 -75t-124 -64t-174 -49.5t-220.5 -17.5q-157 0 -287 38.5t-221.5 107t-154.5 164t-93 208t-30 239.5t30 239.5t93 208t154.5 164
t221.5 107t287 38.5q120 0 220.5 -17.5t174 -49.5t124 -64t98.5 -75l-205 -272q-41 27 -70 43.5t-81 38.5t-117.5 33t-143.5 11q-76 0 -137 -22.5t-102 -61t-68.5 -91t-39.5 -110t-12 -120.5z" />
    <glyph glyph-name="D" unicode="D" horiz-adv-x="1515" 
d="M1465 717q0 -125 -24.5 -230t-81 -196.5t-142 -155t-213.5 -99.5t-290 -36h-624v1434h624q162 0 290 -36t213.5 -100t142 -155t81 -196.5t24.5 -229.5zM513 1082v-730h201q168 0 247 90.5t79 274.5t-79 274.5t-247 90.5h-201z" />
    <glyph glyph-name="E" unicode="E" horiz-adv-x="1310" 
d="M513 897h669v-343h-669v-202h727v-352h-1150v1434h1140v-352h-717v-185z" />
    <glyph glyph-name="F" unicode="F" horiz-adv-x="1300" 
d="M513 843h669v-343h-669v-500h-423v1434h1140v-352h-717v-239z" />
    <glyph glyph-name="G" unicode="G" horiz-adv-x="1538" 
d="M836 1474q208 0 357 -47.5t275 -138.5l-201 -268q-192 102 -431 102q-76 0 -137 -22.5t-102 -61t-68.5 -91t-39.5 -110t-12 -120.5t12 -120.5t39.5 -110t68.5 -91t102 -61t137 -22.5q141 0 230 43v203h-250v313h626v-742q-134 -97 -278 -133t-328 -36q-157 0 -287 38.5
t-221.5 107t-154.5 164t-93 208t-30 239.5t30 239.5t93 208t154.5 164t221.5 107t287 38.5z" />
    <glyph glyph-name="H" unicode="H" horiz-adv-x="1558" 
d="M1045 906v528h423v-1434h-423v554h-532v-554h-423v1434h423v-528h532z" />
    <glyph glyph-name="I" unicode="I" horiz-adv-x="603" 
d="M90 0v1434h423v-1434h-423z" />
    <glyph glyph-name="J" unicode="J" horiz-adv-x="1264" 
d="M30 343l376 100q54 -131 175 -131q170 0 170 187v935h423v-935q0 -140 -40 -244t-116 -168.5t-180 -95.5t-237 -31q-478 0 -571 383z" />
    <glyph glyph-name="K" unicode="K" horiz-adv-x="1518" 
d="M513 948l490 486h508l-602 -597l609 -837h-481l-407 560l-117 -116v-444h-423v1434h423v-486z" />
    <glyph glyph-name="L" unicode="L" horiz-adv-x="1250" 
d="M513 1434v-1082h687v-352h-1110v1434h423z" />
    <glyph glyph-name="M" unicode="M" horiz-adv-x="1940" 
d="M815 0l-302 777v-777h-423v1434h566l314 -811l315 811h565v-1434h-423v777l-302 -777h-310z" />
    <glyph glyph-name="N" unicode="N" horiz-adv-x="1573" 
d="M90 0v1434h495l475 -807v807h423v-1434h-495l-475 807v-807h-423z" />
    <glyph glyph-name="O" unicode="O" horiz-adv-x="1672" 
d="M836 1474q157 0 287 -38.5t221.5 -107t154.5 -164t93 -208t30 -239.5t-30 -239.5t-93 -208t-154.5 -164t-221.5 -107t-287 -38.5t-287 38.5t-221.5 107t-154.5 164t-93 208t-30 239.5t30 239.5t93 208t154.5 164t221.5 107t287 38.5zM836 1122q-76 0 -137 -22.5t-102 -61
t-68.5 -91t-39.5 -110t-12 -120.5t12 -120.5t39.5 -110t68.5 -91t102 -61t137 -22.5t137 22.5t102 61t68.5 91t39.5 110t12 120.5t-12 120.5t-39.5 110t-68.5 91t-102 61t-137 22.5z" />
    <glyph glyph-name="P" unicode="P" horiz-adv-x="1441" 
d="M743 1081h-230v-372h230q102 0 151.5 50t49.5 136t-49.5 136t-151.5 50zM513 0h-423v1434h653q301 0 464.5 -141t163.5 -398t-163.5 -398t-464.5 -141h-230v-356z" />
    <glyph glyph-name="Q" unicode="Q" horiz-adv-x="1672" 
d="M836 1474q157 0 287 -38.5t221.5 -107t154.5 -164t93 -208t30 -239.5q0 -365 -228 -571l217 -234h-402l-79 88q-139 -40 -294 -40q-157 0 -287 38.5t-221.5 107t-154.5 164t-93 208t-30 239.5t30 239.5t93 208t154.5 164t221.5 107t287 38.5zM836 1122q-76 0 -137 -22.5
t-102 -61t-68.5 -91t-39.5 -110t-12 -120.5t12 -120.5t39.5 -110t68.5 -91t102 -61t137 -22.5h19l-184 209h377l69 -76q78 108 78 272q0 63 -12 120.5t-39.5 110t-68.5 91t-102 61t-137 22.5z" />
    <glyph glyph-name="R" unicode="R" horiz-adv-x="1434" 
d="M513 0h-423v1434h633q144 0 259 -28t204 -87.5t137 -159.5t48 -236q0 -67 -18.5 -126.5t-47.5 -101.5t-67.5 -77t-74 -56t-71.5 -35l292 -527h-455l-246 443h-170v-443zM723 1081h-210v-316h210q116 0 168.5 37t52.5 121q0 83 -53 120.5t-168 37.5z" />
    <glyph glyph-name="S" unicode="S" horiz-adv-x="1314" 
d="M1248 1329l-191 -285q-182 78 -388 78q-77 0 -125.5 -24.5t-48.5 -77.5q0 -28 13.5 -48t45 -34.5t63 -23t88.5 -20.5q115 -24 201 -51.5t160 -66.5t120 -87.5t72 -115.5t26 -151q0 -100 -33 -179.5t-91 -131.5t-140.5 -86.5t-176 -49.5t-204.5 -15q-370 0 -609 185
l191 285q186 -118 398 -118q119 0 178.5 22.5t59.5 87.5q0 52 -55 78t-179 51q-284 59 -419.5 176t-135.5 293q0 96 33.5 176.5t101.5 143.5t182 98.5t264 35.5q355 0 599 -145z" />
    <glyph glyph-name="T" unicode="T" horiz-adv-x="1421" 
d="M30 1434h1361v-352h-469v-1082h-423v1082h-469v352z" />
    <glyph glyph-name="U" unicode="U" horiz-adv-x="1542" 
d="M771 -40q-681 0 -681 701v773h423v-773q0 -71 5.5 -120.5t21.5 -95.5t44 -73.5t75 -43.5t112 -16t112 16t75 43.5t44 73.5t21.5 95.5t5.5 120.5v773h423v-773q0 -701 -681 -701z" />
    <glyph glyph-name="V" unicode="V" horiz-adv-x="1562" 
d="M446 1434l335 -915l335 915h446l-567 -1434h-428l-567 1434h446z" />
    <glyph glyph-name="W" unicode="W" horiz-adv-x="2070" 
d="M1248 0l-213 741l-213 -741h-322l-500 1434h444l226 -755l217 755h296l217 -755l226 755h444l-500 -1434h-322z" />
    <glyph glyph-name="X" unicode="X" horiz-adv-x="1531" 
d="M1039 745l492 -745h-467l-299 453l-298 -453h-467l492 745l-452 689h467l258 -401l259 401h467z" />
    <glyph glyph-name="Y" unicode="Y" horiz-adv-x="1544" 
d="M458 1434l314 -490l314 490h458l-560 -865v-569h-424v569l-560 865h458z" />
    <glyph glyph-name="Z" unicode="Z" horiz-adv-x="1405" 
d="M681 352h654v-352h-1265v209l653 873h-633v352h1245v-209z" />
    <glyph glyph-name="bracketleft" unicode="[" horiz-adv-x="866" 
d="M543 1082v-1157h243v-352h-666v1861h666v-352h-243z" />
    <glyph glyph-name="backslash" unicode="\" horiz-adv-x="1236" 
d="M533 1434l623 -1434h-454l-622 1434h453z" />
    <glyph glyph-name="bracketright" unicode="]" horiz-adv-x="866" 
d="M323 -75v1157h-243v352h666v-1861h-666v352h243z" />
    <glyph glyph-name="asciicircum" unicode="^" horiz-adv-x="1262" 
d="M762 1434l430 -624h-345l-216 270l-216 -270h-345l430 624h262z" />
    <glyph glyph-name="underscore" unicode="_" horiz-adv-x="1519" 
d="M70 -532v283h1379v-283h-1379z" />
    <glyph glyph-name="grave" unicode="`" horiz-adv-x="804" 
d="M503 1434l251 -310h-390l-314 310h453z" />
    <glyph glyph-name="a" unicode="a" horiz-adv-x="1248" 
d="M50 323q0 110 62.5 187.5t168 114.5t224 49.5t250.5 2.5q0 44 -11 66.5t-52 36t-122 13.5q-166 0 -315 -56l-129 246q179 93 482 93q147 0 247 -22t169.5 -74.5t101.5 -139.5t32 -217v-623h-403v121q-83 -145 -319 -145q-178 0 -282 93t-104 254zM453 344q0 -85 115 -85
q50 0 88.5 14.5t58.5 37t30 45.5t10 44v55q-46 6 -99 3t-98 -11.5t-75 -35.5t-30 -67z" />
    <glyph glyph-name="b" unicode="b" horiz-adv-x="1430" 
d="M90 0v1516h403v-595q112 155 334 155q258 0 405.5 -148.5t147.5 -404.5t-147.5 -404.5t-405.5 -148.5q-222 0 -334 155v-125h-403zM735 773q-110 0 -176 -69.5t-66 -180.5q0 -112 66 -181t176 -69t176 69t66 181q0 111 -66 180.5t-176 69.5z" />
    <glyph glyph-name="c" unicode="c" horiz-adv-x="1193" 
d="M453 523q0 -118 68 -184t179 -66q154 0 273 89l190 -226q-156 -166 -463 -166q-300 0 -475 146t-175 407t175 407t475 146q307 0 463 -166l-190 -226q-128 89 -273 89q-111 0 -179 -66t-68 -184z" />
    <glyph glyph-name="d" unicode="d" horiz-adv-x="1430" 
d="M1340 1516v-1516h-403v125q-112 -155 -334 -155q-258 0 -405.5 148.5t-147.5 404.5t147.5 404.5t405.5 148.5q222 0 334 -155v595h403zM695 773q-110 0 -176 -69.5t-66 -180.5q0 -112 66 -181t176 -69t176 69t66 181q0 111 -66 180.5t-176 69.5z" />
    <glyph glyph-name="e" unicode="e" horiz-adv-x="1257" 
d="M639 -30q-151 0 -267.5 46.5t-185 125.5t-102.5 175.5t-34 205.5q0 111 38 209.5t109.5 176t185.5 122.5t256 45q288 0 434 -184.5t132 -515.5h-752q0 -41 60 -77t175 -36q158 0 280 69l187 -215q-191 -147 -516 -147zM453 630h372q0 59 -48 106t-138 47t-138 -47
t-48 -106z" />
    <glyph glyph-name="f" unicode="f" horiz-adv-x="973" 
d="M758 1243q-85 0 -111 -41t-26 -156h278v-303h-278v-743h-403v743h-188v303h188q0 87 13 158.5t44.5 136.5t82 109t130 70t183.5 26q169 0 302 -45l-99 -274q-62 16 -116 16z" />
    <glyph glyph-name="g" unicode="g" horiz-adv-x="1430" 
d="M937 1046h403v-1046q-2 -119 -37 -212t-94 -153.5t-143.5 -99t-179.5 -54t-208 -13.5q-366 6 -555 132l147 253q159 -82 368 -82q138 0 218.5 56t80.5 173v125q-112 -155 -334 -155q-258 0 -405.5 148.5t-147.5 404.5t147.5 404.5t405.5 148.5q222 0 334 -155v125z
M695 273q110 0 176 69t66 181q0 111 -66 180.5t-176 69.5t-176 -69.5t-66 -180.5q0 -112 66 -181t176 -69z" />
    <glyph glyph-name="h" unicode="h" 
d="M493 579v-579h-403v1516h403v-577q36 66 115 101.5t168 35.5q230 0 349.5 -133.5t119.5 -363.5v-579h-403v579q0 96 -42 145t-133 49t-132.5 -49t-41.5 -145z" />
    <glyph glyph-name="i" unicode="i" horiz-adv-x="583" 
d="M90 0v1046h403v-1046h-403zM95 1344q0 81 57.5 138.5t138.5 57.5t138.5 -57.5t57.5 -138.5t-57.5 -138.5t-138.5 -57.5t-138.5 57.5t-57.5 138.5z" />
    <glyph glyph-name="j" unicode="j" horiz-adv-x="605" 
d="M-210 -475l96 269q59 -23 111 -23q28 0 48.5 9.5t32.5 29.5t19.5 38.5t10.5 50t3.5 50t0.5 51.5v1046h403v-1046q0 -532 -440 -532q-163 0 -285 57zM117 1344q0 81 57.5 138.5t138.5 57.5t138.5 -57.5t57.5 -138.5t-57.5 -138.5t-138.5 -57.5t-138.5 57.5t-57.5 138.5z
" />
    <glyph glyph-name="k" unicode="k" horiz-adv-x="1310" 
d="M493 747l318 299h496l-479 -451l482 -595h-457l-286 354l-74 -68v-286h-403v1516h403v-769z" />
    <glyph glyph-name="l" unicode="l" horiz-adv-x="649" 
d="M90 415v1101h403v-1075q0 -31 0.5 -45t4 -36t11 -31.5t22 -17.5t36.5 -8h32v-303h-132q-75 0 -134.5 13.5t-98.5 33.5t-67 54.5t-42.5 66t-22.5 79t-10 82.5t-2 86z" />
    <glyph glyph-name="m" unicode="m" horiz-adv-x="1945" 
d="M90 0v1046h403v-99q30 59 98 94t164 35q229 0 332 -154q53 70 143.5 112t205.5 42q203 0 311 -131t108 -353v-592h-403v622q0 65 -32 108t-106 43q-75 0 -107.5 -43t-32.5 -108v-622h-403v622q0 65 -32 108t-107 43t-107 -43t-32 -108v-622h-403z" />
    <glyph glyph-name="n" unicode="n" 
d="M493 579v-579h-403v1046h403v-107q36 66 115 101.5t168 35.5q230 0 349.5 -133.5t119.5 -363.5v-579h-403v579q0 96 -42 145t-133 49t-132.5 -49t-41.5 -145z" />
    <glyph glyph-name="o" unicode="o" horiz-adv-x="1400" 
d="M700 -30q-300 0 -475 146t-175 407t175 407t475 146t475 -146t175 -407t-175 -407t-475 -146zM700 273q111 0 179 66t68 184t-68 184t-179 66t-179 -66t-68 -184t68 -184t179 -66z" />
    <glyph glyph-name="p" unicode="p" horiz-adv-x="1430" 
d="M90 -532v1578h403v-125q112 155 334 155q258 0 405.5 -148.5t147.5 -404.5t-147.5 -404.5t-405.5 -148.5q-222 0 -334 155v-657h-403zM735 273q110 0 176 69t66 181q0 111 -66 180.5t-176 69.5t-176 -69.5t-66 -180.5q0 -112 66 -181t176 -69z" />
    <glyph glyph-name="q" unicode="q" horiz-adv-x="1430" 
d="M1340 1046v-1578h-403v657q-112 -155 -334 -155q-258 0 -405.5 148.5t-147.5 404.5t147.5 404.5t405.5 148.5q222 0 334 -155v125h403zM695 273q110 0 176 69t66 181q0 111 -66 180.5t-176 69.5t-176 -69.5t-66 -180.5q0 -112 66 -181t176 -69z" />
    <glyph glyph-name="r" unicode="r" horiz-adv-x="1054" 
d="M1054 1001l-172 -285q-103 57 -215 57q-174 0 -174 -204v-569h-403v1046h403v-107q36 66 115 101.5t168 35.5q166 0 278 -75z" />
    <glyph glyph-name="s" unicode="s" horiz-adv-x="1095" 
d="M1024 967l-147 -255q-142 61 -303 61q-52 0 -75 -9t-23 -35q0 -33 110 -56l12 -3q90 -18 155.5 -36.5t127.5 -48t100 -66.5t61 -91t23 -123q0 -76 -30 -135.5t-79.5 -96.5t-121 -60.5t-147 -33t-163.5 -9.5q-128 0 -262.5 31.5t-231.5 97.5l147 255q157 -81 337 -81
q148 0 148 60q0 25 -30 37t-104 27q-232 47 -343.5 126t-111.5 222q0 158 121 244.5t340 86.5q304 0 490 -109z" />
    <glyph glyph-name="t" unicode="t" horiz-adv-x="971" 
d="M30 743v303h184v298h403v-298h270v-303h-270v-283q0 -110 27 -153.5t103 -43.5q55 0 115 21l79 -262q-119 -52 -262 -52q-132 0 -222.5 30.5t-143.5 94t-76 151.5t-23 214v283h-184z" />
    <glyph glyph-name="u" unicode="u" 
d="M842 467v579h403v-1046h-403v107q-36 -66 -115.5 -101.5t-167.5 -35.5q-230 0 -349.5 133t-119.5 364v579h403v-579q0 -96 42 -145t133 -49t132.5 49t41.5 145z" />
    <glyph glyph-name="v" unicode="v" horiz-adv-x="1252" 
d="M1252 1046l-418 -1046h-416l-418 1046h421l205 -613l205 613h421z" />
    <glyph glyph-name="w" unicode="w" horiz-adv-x="1800" 
d="M1046 0l-146 475l-146 -475h-386l-368 1046h421l164 -584l179 584h272l179 -584l164 584h421l-368 -1046h-386z" />
    <glyph glyph-name="x" unicode="x" horiz-adv-x="1303" 
d="M384 543l-354 503h448l173 -251l174 251h448l-355 -503l385 -543h-448l-204 291l-213 -291h-438z" />
    <glyph glyph-name="y" unicode="y" horiz-adv-x="1252" 
d="M1252 1046l-557 -1328q-26 -58 -58 -100t-80 -77.5t-117 -54t-158 -18.5q-148 0 -272 54l114 280q64 -31 119 -31q36 0 62 10.5t45.5 34.5t32 48t28.5 65l27 71l-438 1046h411l215 -603l215 603h411z" />
    <glyph glyph-name="z" unicode="z" horiz-adv-x="1165" 
d="M70 0v173l482 570h-456v303h999v-175l-482 -568h482v-303h-1025z" />
    <glyph glyph-name="braceleft" unicode="{" horiz-adv-x="951" 
d="M501 525q98 -42 153.5 -137.5t55.5 -234.5q0 -151 41.5 -206.5t129.5 -55.5v-365q-69 0 -130.5 7.5t-124 26t-114 47.5t-97 75t-76.5 105t-49 140.5t-18 179.5q0 70 -16.5 118.5t-47.5 74t-62.5 36.5t-75.5 16v346q44 5 75.5 16t62.5 36.5t47.5 74t16.5 118.5
q0 98 18 179.5t49 140.5t76.5 105t97 75t114 47.5t124 26t130.5 7.5v-365q-88 0 -129.5 -55.5t-41.5 -206.5q0 -139 -55.5 -234.5t-153.5 -137.5z" />
    <glyph glyph-name="bar" unicode="|" horiz-adv-x="603" 
d="M90 -532v1966h423v-1966h-423z" />
    <glyph glyph-name="braceright" unicode="}" horiz-adv-x="951" 
d="M450 525q-98 42 -153.5 137.5t-55.5 234.5q0 151 -41.5 206.5t-129.5 55.5v365q69 0 130.5 -7.5t124 -26t114 -47.5t97 -75t76.5 -105t49 -140.5t18 -179.5q0 -70 16.5 -118.5t47.5 -74t62.5 -36.5t75.5 -16v-346q-44 -5 -75.5 -16t-62.5 -36.5t-47.5 -74t-16.5 -118.5
q0 -98 -18 -179.5t-49 -140.5t-76.5 -105t-97 -75t-114 -47.5t-124 -26t-130.5 -7.5v365q88 0 129.5 55.5t41.5 206.5q0 139 55.5 234.5t153.5 137.5z" />
    <glyph glyph-name="asciitilde" unicode="~" horiz-adv-x="1470" 
d="M807 892q43 -43 74.5 -64.5t66.5 -21.5q40 0 61.5 37t21.5 74h369q0 -64 -12 -127.5t-43.5 -130t-78.5 -117t-124 -83t-174 -32.5q-103 0 -174 35.5t-131 92.5q-43 43 -74.5 64.5t-66.5 21.5q-40 0 -61.5 -37t-21.5 -74h-369q0 64 12 127.5t43 130.5t78.5 117t124.5 82.5
t174 32.5q103 0 174 -35.5t131 -92.5z" />
    <glyph glyph-name="uni00A0" unicode="&#xa0;" horiz-adv-x="573" 
 />
    <glyph glyph-name="exclamdown" unicode="&#xa1;" horiz-adv-x="613" 
d="M90 -532l30 952h373l30 -952h-433zM96 712q0 87 61.5 148.5t148.5 61.5t148.5 -61.5t61.5 -148.5t-61.5 -148.5t-148.5 -61.5t-148.5 61.5t-61.5 148.5z" />
    <glyph glyph-name="cent" unicode="&#xa2;" horiz-adv-x="1193" 
d="M453 523q0 -118 68 -184t179 -66q154 0 273 89l190 -226q-115 -124 -323 -156v-250h-346v261q-209 44 -326.5 182.5t-117.5 349.5q0 212 117 349t327 183v261h346v-250q208 -32 323 -156l-190 -226q-128 89 -273 89q-111 0 -179 -66t-68 -184z" />
    <glyph glyph-name="sterling" unicode="&#xa3;" horiz-adv-x="1485" 
d="M70 547v343h142v26q0 269 171.5 413.5t470.5 144.5q402 0 561 -331l-322 -151q-27 42 -53 67.5t-73.5 44t-112.5 18.5q-219 0 -219 -206q0 -18 1 -26h366v-343h-287v-17q0 -81 -44 -136q-20 -27 -44 -42h728v-352h-1192v299q35 26 64 63q65 83 65 174v11h-222z" />
    <glyph glyph-name="currency" unicode="&#xa4;" horiz-adv-x="1272" 
d="M466 601l-151 -151l-244 245l150 150q-70 173 0 343l-151 151l244 244l152 -152q170 68 340 -1l153 152l243 -244l-152 -153q33 -81 33 -169t-33 -169l152 -152l-244 -245l-152 152q-169 -70 -340 -1zM541 1112q-39 -39 -39.5 -95.5t39.5 -94.5q39 -39 95 -39t95 39
t38.5 94t-38.5 96q-41 39 -95 39t-95 -39z" />
    <glyph glyph-name="yen" unicode="&#xa5;" horiz-adv-x="1544" 
d="M260 50v246h300v27h-300v246h300l-560 865h458l314 -490l314 490h458l-560 -865h300v-246h-300v-27h300v-246h-300v-50h-424v50h-300z" />
    <glyph glyph-name="brokenbar" unicode="&#xa6;" horiz-adv-x="603" 
d="M90 555v879h423v-879h-423zM90 -532v879h423v-879h-423z" />
    <glyph glyph-name="section" unicode="&#xa7;" horiz-adv-x="1410" 
d="M124 1020q0 96 33.5 176.5t101.5 143.5t182 98.5t264 35.5q343 0 597 -165l-189 -281q-192 94 -388 94q-77 0 -125.5 -24.5t-48.5 -77.5q0 -28 13.5 -48t45 -34.5t63 -23t88.5 -20.5q115 -24 201 -51.5t160 -66.5t120 -87.5t72 -115.5t26 -151q0 -206 -150 -325
q96 -107 96 -255q0 -96 -33.5 -176.5t-101.5 -143.5t-182 -98.5t-264 -35.5q-347 0 -597 165l189 281q184 -94 388 -94q174 0 174 102q0 28 -13.5 48t-45 34.5t-63 23t-88.5 20.5q-145 30 -246 66.5t-179 91t-116 132.5t-38 182q0 206 150 325q-96 105 -96 255zM913 422
q0 27 -14.5 46.5t-47.5 34t-68 24t-95 22.5q-191 -6 -191 -109q0 -52 54 -78.5t171 -49.5q191 6 191 110z" />
    <glyph glyph-name="dieresis" unicode="&#xa8;" horiz-adv-x="1023" 
d="M70 1344q0 81 57.5 138.5t138.5 57.5t138.5 -57.5t57.5 -138.5t-57.5 -138.5t-138.5 -57.5t-138.5 57.5t-57.5 138.5zM561 1344q0 81 57.5 138.5t138.5 57.5t138.5 -57.5t57.5 -138.5t-57.5 -138.5t-138.5 -57.5t-138.5 57.5t-57.5 138.5z" />
    <glyph glyph-name="copyright" unicode="&#xa9;" horiz-adv-x="1614" 
d="M662 717q0 -77 41 -124.5t115 -47.5q61 0 104 14t85 50l115 -162q-122 -119 -304 -119q-170 0 -282.5 108t-112.5 281t112.5 281t282.5 108q182 0 304 -119l-115 -162q-43 36 -85.5 50t-103.5 14q-74 0 -115 -47.5t-41 -124.5zM50 717q0 206 101.5 380t275.5 275.5
t380 101.5t380 -101.5t275.5 -275.5t101.5 -380t-101.5 -380t-275.5 -275.5t-380 -101.5t-380 101.5t-275.5 275.5t-101.5 380zM330 717q0 -197 140 -337t337 -140t337 140t140 337t-140 337t-337 140t-337 -140t-140 -337z" />
    <glyph glyph-name="ordfeminine" unicode="&#xaa;" horiz-adv-x="669" 
d="M334 1274q-94 0 -174 -31l-77 157q101 52 251 52q176 0 245.5 -67t69.5 -223v-376h-198v68q-25 -42 -73 -61t-97 -19q-125 0 -193 59t-68 162q0 69 38 118t102 73.5t137 32.5t154 2q0 28 -22 40.5t-95 12.5zM221 1005q0 -53 80 -53q64 0 107 38.5t43 85.5
q-230 12 -230 -71z" />
    <glyph glyph-name="guillemotleft" unicode="&#xab;" horiz-adv-x="1684" 
d="M70 795l742 579v-481l-281 -200l281 -200v-481l-742 579v204zM852 795l742 579v-481l-281 -200l281 -200v-481l-742 579v204z" />
    <glyph glyph-name="logicalnot" unicode="&#xac;" horiz-adv-x="1150" 
d="M70 508v386h1010v-663h-423v277h-587z" />
    <glyph glyph-name="uni00AD" unicode="&#xad;" horiz-adv-x="957" 
d="M70 531v304h817v-304h-817z" />
    <glyph glyph-name="registered" unicode="&#xae;" horiz-adv-x="1180" 
d="M532 713h-138v454h234q89 0 135.5 -43t46.5 -119q0 -104 -89 -138l86 -154h-148l-76 139h-51v-139zM628 1044h-96v-78h96q44 0 44 39t-44 39zM50 934q0 147 72.5 271t196.5 196.5t271 72.5t271 -72.5t196.5 -196.5t72.5 -271t-72.5 -271t-196.5 -196.5t-271 -72.5
t-271 72.5t-196.5 196.5t-72.5 271zM225 934q0 -152 106.5 -258.5t258.5 -106.5t259 106.5t107 258.5t-107 259t-259 107t-258.5 -107t-106.5 -259z" />
    <glyph glyph-name="overscore" unicode="&#xaf;" horiz-adv-x="1030" 
d="M50 1131v303h930v-303h-930z" />
    <glyph glyph-name="degree" unicode="&#xb0;" horiz-adv-x="615" 
d="M0 1166q0 128 89.5 218t217.5 90t218 -90t90 -218t-90 -217.5t-218 -89.5t-217.5 89.5t-89.5 217.5zM223 1166q0 -35 24.5 -59.5t59.5 -24.5t59.5 24.5t24.5 59.5t-24.5 59.5t-59.5 24.5t-59.5 -24.5t-24.5 -59.5z" />
    <glyph glyph-name="plusminus" unicode="&#xb1;" horiz-adv-x="1230" 
d="M1160 1126v-352h-353v-339h-385v339h-352v352h352v339h385v-339h353zM1160 352v-352h-1090v352h1090z" />
    <glyph glyph-name="twosuperior" unicode="&#xb2;" horiz-adv-x="558" 
d="M174 1199l-154 82q7 20 23 44.5t44 53t76 47t106 18.5q124 0 192.5 -55.5t68.5 -145.5q0 -64 -25.5 -108t-78.5 -90l-87 -72h199v-177h-507v139l250 209q27 23 38.5 40t11.5 41q0 42 -62 42q-33 0 -58.5 -20.5t-36.5 -47.5z" />
    <glyph glyph-name="threesuperior" unicode="&#xb3;" horiz-adv-x="571" 
d="M20 910l147 89q39 -46 106 -46q80 0 80 48q0 31 -31.5 37.5t-137.5 6.5v144h33.5t33 1.5t34 4.5t25.5 7.5t20.5 13t6.5 20.5q0 41 -64 41q-62 0 -91 -44l-147 89q73 122 238 122q117 0 189.5 -46.5t72.5 -137.5q0 -48 -27.5 -82.5t-68.5 -47.5q112 -39 112 -147
q0 -94 -78.5 -145.5t-199.5 -51.5q-182 0 -253 124z" />
    <glyph glyph-name="acute" unicode="&#xb4;" horiz-adv-x="804" 
d="M50 1124l251 310h453l-314 -310h-390z" />
    <glyph glyph-name="mu" unicode="&#xb5;" horiz-adv-x="1472" 
d="M736 -30q-166 0 -243 137v-639h-403v1578h403v-449q0 -160 62.5 -242t180.5 -82t180.5 82t62.5 242v449h403v-1046h-403v107q-77 -137 -243 -137z" />
    <glyph glyph-name="paragraph" unicode="&#xb6;" horiz-adv-x="1833" 
d="M1763 1434v-352h-150v-1082h-423v1082h-66v-1082h-423v416h-49q-144 0 -257.5 42t-183 114t-105.5 162t-36 191t36 191t105.5 162t183 114t257.5 42h1111zM701 1082h-49q-79 0 -119 -44.5t-40 -112.5t40 -112.5t119 -44.5h49v314z" />
    <glyph glyph-name="middot" unicode="&#xb7;" horiz-adv-x="532" 
d="M70 757q0 81 57.5 138.5t138.5 57.5t138.5 -57.5t57.5 -138.5t-57.5 -138.5t-138.5 -57.5t-138.5 57.5t-57.5 138.5z" />
    <glyph glyph-name="cedilla" unicode="&#xb8;" horiz-adv-x="759" 
d="M50 -565l60 179q31 -10 78 -18t103.5 -11.5t97.5 12t45 51.5q3 31 -26.5 47t-81 16t-99.5 -4.5t-101 -11.5q-3 -1 -4 -1l119 369h253l-58 -189q132 0 207 -58t64 -175q-10 -97 -75.5 -159.5t-161 -82.5t-205.5 -11t-215 47z" />
    <glyph glyph-name="onesuperior" unicode="&#xb9;" horiz-adv-x="435" 
d="M145 1091l-125 139l240 204h155v-638h-198v355z" />
    <glyph glyph-name="ordmasculine" unicode="&#xba;" horiz-adv-x="744" 
d="M372 776q-157 0 -254.5 93t-97.5 241t97.5 241t254.5 93t254.5 -93t97.5 -241t-97.5 -241t-254.5 -93zM372 953q78 0 120.5 41t42.5 116t-42.5 116t-120.5 41t-120.5 -41t-42.5 -116t42.5 -116t120.5 -41z" />
    <glyph glyph-name="guillemotright" unicode="&#xbb;" horiz-adv-x="1684" 
d="M872 1374l742 -579v-204l-742 -579v481l281 200l-281 200v481zM90 1374l742 -579v-204l-742 -579v481l281 200l-281 200v481z" />
    <glyph glyph-name="onequarter" unicode="&#xbc;" horiz-adv-x="1571" 
d="M213 1060l-143 149l245 225h198v-721h-216v422zM224 0l823 1434h309l-823 -1434h-309zM1399 0h-216v113h-342v172l339 436h219v-404h102v-204h-102v-113zM1080 317h103v133z" />
    <glyph glyph-name="onehalf" unicode="&#xbd;" horiz-adv-x="1640" 
d="M224 0l823 1434h309l-823 -1434h-309zM1157 457l-192 66q33 94 110.5 156t195.5 62q131 0 212.5 -64t81.5 -183q0 -114 -125 -208l-106 -82h236v-204h-586v166l282 218q45 34 64 55t19 45q0 53 -78 53q-74 0 -114 -80zM213 1060l-143 149l245 225h198v-721h-216v422z" />
    <glyph glyph-name="threequarters" unicode="&#xbe;" horiz-adv-x="1666" 
d="M319 0l823 1434h309l-823 -1434h-309zM1494 0h-216v113h-342v172l339 436h219v-404h102v-204h-102v-113zM1175 317h103v133zM70 844l179 96q49 -43 132 -43q111 0 111 44q0 27 -54.5 34.5t-169.5 7.5v184q99 0 153 8t54 35q0 40 -94 40q-73 0 -112 -43l-179 96
q32 59 106 105t185 46q141 0 225.5 -53.5t84.5 -156.5q0 -112 -102 -158q119 -42 119 -167q0 -111 -89 -168.5t-238 -57.5q-118 0 -196 43.5t-115 107.5z" />
    <glyph glyph-name="questiondown" unicode="&#xbf;" horiz-adv-x="1124" 
d="M824 -99l330 -182q-20 -32 -45.5 -63t-77.5 -75t-113.5 -75.5t-155.5 -54.5t-201 -23q-277 0 -434 125.5t-157 320.5q0 63 18.5 119.5t61 111.5t124 96.5t195.5 61.5v157h423v-362q-196 -4 -297.5 -41t-101.5 -123q0 -53 45 -83.5t123 -30.5q156 0 263 121zM791 712
q0 -87 -61.5 -148.5t-148.5 -61.5t-148.5 61.5t-61.5 148.5t61.5 148.5t148.5 61.5t148.5 -61.5t61.5 -148.5z" />
    <glyph glyph-name="Agrave" unicode="&#xc0;" horiz-adv-x="1602" 
d="M536 232l-90 -232h-446l587 1434h428l587 -1434h-446l-90 232h-530zM801 915l-140 -361h280zM745 1846l251 -310h-390l-314 310h453z" />
    <glyph glyph-name="Aacute" unicode="&#xc1;" horiz-adv-x="1602" 
d="M536 232l-90 -232h-446l587 1434h428l587 -1434h-446l-90 232h-530zM801 915l-140 -361h280zM609 1536l251 310h453l-314 -310h-390z" />
    <glyph glyph-name="Acircumflex" unicode="&#xc2;" horiz-adv-x="1602" 
d="M536 232l-90 -232h-446l587 1434h428l587 -1434h-446l-90 232h-530zM801 915l-140 -361h280zM954 1827l311 -291h-318l-146 99l-146 -99h-318l311 291h306z" />
    <glyph glyph-name="Atilde" unicode="&#xc3;" horiz-adv-x="1602" 
d="M536 232l-90 -232h-446l587 1434h428l587 -1434h-446l-90 232h-530zM801 915l-140 -361h280zM773 1590q-3 3 -15 13.5t-17 13.5t-15.5 9t-21 8t-24.5 2q-40 0 -63 -39q-9 -18 -12 -39h-275q11 100 50 174q36 75 107 125t178 50q100 0 165 -54q19 -17 26.5 -23.5
t26.5 -14.5t40 -8q42 0 63 39q9 16 12 39h275q-11 -98 -50 -175q-90 -174 -285 -174q-100 0 -165 54z" />
    <glyph glyph-name="Adieresis" unicode="&#xc4;" horiz-adv-x="1602" 
d="M536 232l-90 -232h-446l587 1434h428l587 -1434h-446l-90 232h-530zM801 915l-140 -361h280zM360 1732q0 81 57.5 138.5t138.5 57.5t138.5 -57.5t57.5 -138.5t-57.5 -138.5t-138.5 -57.5t-138.5 57.5t-57.5 138.5zM851 1732q0 81 57.5 138.5t138.5 57.5t138.5 -57.5
t57.5 -138.5t-57.5 -138.5t-138.5 -57.5t-138.5 57.5t-57.5 138.5z" />
    <glyph glyph-name="Aring" unicode="&#xc5;" horiz-adv-x="1602" 
d="M536 232l-90 -232h-446l587 1434h428l587 -1434h-446l-90 232h-530zM801 915l-140 -361h280zM538 1799q0 109 77 186t186 77t186 -77t77 -186t-77 -186t-186 -77t-186 77t-77 186zM728 1799q0 -30 21.5 -51.5t51.5 -21.5t51.5 21.5t21.5 51.5t-21.5 51.5t-51.5 21.5
t-51.5 -21.5t-21.5 -51.5z" />
    <glyph glyph-name="AE" unicode="&#xc6;" horiz-adv-x="2344" 
d="M1557 897h659v-343h-659v-202h717v-352h-1140v272h-461l-179 -272h-494l964 1434h1300v-352h-707v-185zM1134 972l-229 -348h229v348z" />
    <glyph glyph-name="Ccedilla" unicode="&#xc7;" horiz-adv-x="1483" 
d="M519 -565l60 179q31 -10 78 -18t103.5 -11.5t97.5 12t45 51.5q3 31 -26.5 47t-81 16t-99.5 -4.5t-101 -11.5q-3 -1 -4 -1l89 277q-157 22 -279 88.5t-197.5 166t-114.5 224t-39 267.5q0 127 30 239.5t93 208t154.5 164t221.5 107t287 38.5q120 0 220.5 -17.5t174 -49.5
t124 -64t98.5 -75l-205 -272q-41 27 -70 43.5t-81 38.5t-117.5 33t-143.5 11q-76 0 -137 -22.5t-102 -61t-68.5 -91t-39.5 -110t-12 -120.5t12 -120.5t39.5 -110t68.5 -91t102 -61t137 -22.5q78 0 143.5 11t117.5 33t81 38.5t70 43.5l205 -272q-94 -82 -215 -136t-306 -67
l-27 -89q132 0 207 -58t64 -175q-10 -97 -75.5 -159.5t-161 -82.5t-205.5 -11t-215 47z" />
    <glyph glyph-name="Egrave" unicode="&#xc8;" horiz-adv-x="1310" 
d="M513 897h669v-343h-669v-202h727v-352h-1150v1434h1140v-352h-717v-185zM644 1846l251 -310h-390l-314 310h453z" />
    <glyph glyph-name="Eacute" unicode="&#xc9;" horiz-adv-x="1310" 
d="M513 897h669v-343h-669v-202h727v-352h-1150v1434h1140v-352h-717v-185zM441 1536l251 310h453l-314 -310h-390z" />
    <glyph glyph-name="Ecircumflex" unicode="&#xca;" horiz-adv-x="1310" 
d="M513 897h669v-343h-669v-202h727v-352h-1150v1434h1140v-352h-717v-185zM808 1827l311 -291h-318l-146 99l-146 -99h-318l311 291h306z" />
    <glyph glyph-name="Edieresis" unicode="&#xcb;" horiz-adv-x="1310" 
d="M513 897h669v-343h-669v-202h727v-352h-1150v1434h1140v-352h-717v-185zM219 1732q0 81 57.5 138.5t138.5 57.5t138.5 -57.5t57.5 -138.5t-57.5 -138.5t-138.5 -57.5t-138.5 57.5t-57.5 138.5zM710 1732q0 81 57.5 138.5t138.5 57.5t138.5 -57.5t57.5 -138.5
t-57.5 -138.5t-138.5 -57.5t-138.5 57.5t-57.5 138.5z" />
    <glyph glyph-name="Igrave" unicode="&#xcc;" horiz-adv-x="604" 
d="M91 0v1434h423v-1434h-423zM243 1846l251 -310h-390l-314 310h453z" />
    <glyph glyph-name="Iacute" unicode="&#xcd;" horiz-adv-x="629" 
d="M90 0v1434h423v-1434h-423zM105 1536l251 310h453l-314 -310h-390z" />
    <glyph glyph-name="Icircumflex" unicode="&#xce;" horiz-adv-x="808" 
d="M193 0v1434h423v-1434h-423zM557 1827l311 -291h-318l-146 99l-146 -99h-318l311 291h306z" />
    <glyph glyph-name="Idieresis" unicode="&#xcf;" horiz-adv-x="883" 
d="M230 0v1434h423v-1434h-423zM0 1732q0 81 57.5 138.5t138.5 57.5t138.5 -57.5t57.5 -138.5t-57.5 -138.5t-138.5 -57.5t-138.5 57.5t-57.5 138.5zM491 1732q0 81 57.5 138.5t138.5 57.5t138.5 -57.5t57.5 -138.5t-57.5 -138.5t-138.5 -57.5t-138.5 57.5t-57.5 138.5z" />
    <glyph glyph-name="Eth" unicode="&#xd0;" horiz-adv-x="1626" 
d="M0 541v352h201v541h624q162 0 290 -36t213.5 -100t142 -155t81 -196.5t24.5 -229.5q0 -125 -24.5 -230t-81 -196.5t-142 -155t-213.5 -99.5t-290 -36h-624v541h-201zM624 541v-189h201q168 0 247 90.5t79 274.5t-79 274.5t-247 90.5h-201v-189h264v-352h-264z" />
    <glyph glyph-name="Ntilde" unicode="&#xd1;" horiz-adv-x="1573" 
d="M90 0v1434h495l475 -807v807h423v-1434h-495l-475 807v-807h-423zM758 1590q-3 3 -15 13.5t-17 13.5t-15.5 9t-21 8t-24.5 2q-40 0 -63 -39q-9 -18 -12 -39h-275q11 100 50 174q36 75 107 125t178 50q100 0 165 -54q19 -17 26.5 -23.5t26.5 -14.5t40 -8q42 0 63 39
q9 16 12 39h275q-11 -98 -50 -175q-90 -174 -285 -174q-100 0 -165 54z" />
    <glyph glyph-name="Ograve" unicode="&#xd2;" horiz-adv-x="1672" 
d="M836 1474q157 0 287 -38.5t221.5 -107t154.5 -164t93 -208t30 -239.5t-30 -239.5t-93 -208t-154.5 -164t-221.5 -107t-287 -38.5t-287 38.5t-221.5 107t-154.5 164t-93 208t-30 239.5t30 239.5t93 208t154.5 164t221.5 107t287 38.5zM836 1122q-76 0 -137 -22.5t-102 -61
t-68.5 -91t-39.5 -110t-12 -120.5t12 -120.5t39.5 -110t68.5 -91t102 -61t137 -22.5t137 22.5t102 61t68.5 91t39.5 110t12 120.5t-12 120.5t-39.5 110t-68.5 91t-102 61t-137 22.5zM796 1846l251 -310h-390l-314 310h453z" />
    <glyph glyph-name="Oacute" unicode="&#xd3;" horiz-adv-x="1672" 
d="M836 1474q157 0 287 -38.5t221.5 -107t154.5 -164t93 -208t30 -239.5t-30 -239.5t-93 -208t-154.5 -164t-221.5 -107t-287 -38.5t-287 38.5t-221.5 107t-154.5 164t-93 208t-30 239.5t30 239.5t93 208t154.5 164t221.5 107t287 38.5zM836 1122q-76 0 -137 -22.5t-102 -61
t-68.5 -91t-39.5 -110t-12 -120.5t12 -120.5t39.5 -110t68.5 -91t102 -61t137 -22.5t137 22.5t102 61t68.5 91t39.5 110t12 120.5t-12 120.5t-39.5 110t-68.5 91t-102 61t-137 22.5zM633 1536l251 310h453l-314 -310h-390z" />
    <glyph glyph-name="Ocircumflex" unicode="&#xd4;" horiz-adv-x="1672" 
d="M836 1474q157 0 287 -38.5t221.5 -107t154.5 -164t93 -208t30 -239.5t-30 -239.5t-93 -208t-154.5 -164t-221.5 -107t-287 -38.5t-287 38.5t-221.5 107t-154.5 164t-93 208t-30 239.5t30 239.5t93 208t154.5 164t221.5 107t287 38.5zM836 1122q-76 0 -137 -22.5t-102 -61
t-68.5 -91t-39.5 -110t-12 -120.5t12 -120.5t39.5 -110t68.5 -91t102 -61t137 -22.5t137 22.5t102 61t68.5 91t39.5 110t12 120.5t-12 120.5t-39.5 110t-68.5 91t-102 61t-137 22.5zM989 1827l311 -291h-318l-146 99l-146 -99h-318l311 291h306z" />
    <glyph glyph-name="Otilde" unicode="&#xd5;" horiz-adv-x="1672" 
d="M836 1474q157 0 287 -38.5t221.5 -107t154.5 -164t93 -208t30 -239.5t-30 -239.5t-93 -208t-154.5 -164t-221.5 -107t-287 -38.5t-287 38.5t-221.5 107t-154.5 164t-93 208t-30 239.5t30 239.5t93 208t154.5 164t221.5 107t287 38.5zM836 1122q-76 0 -137 -22.5t-102 -61
t-68.5 -91t-39.5 -110t-12 -120.5t12 -120.5t39.5 -110t68.5 -91t102 -61t137 -22.5t137 22.5t102 61t68.5 91t39.5 110t12 120.5t-12 120.5t-39.5 110t-68.5 91t-102 61t-137 22.5zM807 1590q-3 3 -15 13.5t-17 13.5t-15.5 9t-21 8t-24.5 2q-40 0 -63 -39q-9 -18 -12 -39
h-275q11 100 50 174q36 75 107 125t178 50q100 0 165 -54q19 -17 26.5 -23.5t26.5 -14.5t40 -8q42 0 63 39q9 16 12 39h275q-11 -98 -50 -175q-90 -174 -285 -174q-100 0 -165 54z" />
    <glyph glyph-name="Odieresis" unicode="&#xd6;" horiz-adv-x="1672" 
d="M836 1474q157 0 287 -38.5t221.5 -107t154.5 -164t93 -208t30 -239.5t-30 -239.5t-93 -208t-154.5 -164t-221.5 -107t-287 -38.5t-287 38.5t-221.5 107t-154.5 164t-93 208t-30 239.5t30 239.5t93 208t154.5 164t221.5 107t287 38.5zM836 1122q-76 0 -137 -22.5t-102 -61
t-68.5 -91t-39.5 -110t-12 -120.5t12 -120.5t39.5 -110t68.5 -91t102 -61t137 -22.5t137 22.5t102 61t68.5 91t39.5 110t12 120.5t-12 120.5t-39.5 110t-68.5 91t-102 61t-137 22.5zM395 1732q0 81 57.5 138.5t138.5 57.5t138.5 -57.5t57.5 -138.5t-57.5 -138.5
t-138.5 -57.5t-138.5 57.5t-57.5 138.5zM886 1732q0 81 57.5 138.5t138.5 57.5t138.5 -57.5t57.5 -138.5t-57.5 -138.5t-138.5 -57.5t-138.5 57.5t-57.5 138.5z" />
    <glyph glyph-name="multiply" unicode="&#xd7;" horiz-adv-x="1230" 
d="M70 973l249 248l296 -296l296 296l249 -248l-297 -297l297 -296l-248 -249l-297 297l-297 -297l-248 249l296 296z" />
    <glyph glyph-name="Oslash" unicode="&#xd8;" horiz-adv-x="1672" 
d="M836 1474q88 0 183 -15l18 36h367l-77 -155q146 -99 220.5 -261.5t74.5 -361.5q0 -127 -30 -239.5t-93 -208t-154.5 -164t-221.5 -107t-287 -38.5q-89 0 -184 15l-17 -36h-367l76 155q-146 100 -220 262t-74 361q0 127 30 239.5t93 208t154.5 164t221.5 107t287 38.5z
M836 1122q-76 0 -137 -22.5t-102 -61t-68.5 -91t-39.5 -110t-12 -120.5q0 -139 57 -240l318 644q-2 0 -8 0.5t-8 0.5zM819 312h17q76 0 137 22.5t102 61t68.5 91t39.5 110t12 120.5q0 136 -57 240z" />
    <glyph glyph-name="Ugrave" unicode="&#xd9;" horiz-adv-x="1542" 
d="M771 -40q-681 0 -681 701v773h423v-773q0 -71 5.5 -120.5t21.5 -95.5t44 -73.5t75 -43.5t112 -16t112 16t75 43.5t44 73.5t21.5 95.5t5.5 120.5v773h423v-773q0 -701 -681 -701zM726 1846l251 -310h-390l-314 310h453z" />
    <glyph glyph-name="Uacute" unicode="&#xda;" horiz-adv-x="1542" 
d="M771 -40q-681 0 -681 701v773h423v-773q0 -71 5.5 -120.5t21.5 -95.5t44 -73.5t75 -43.5t112 -16t112 16t75 43.5t44 73.5t21.5 95.5t5.5 120.5v773h423v-773q0 -701 -681 -701zM566 1536l251 310h453l-314 -310h-390z" />
    <glyph glyph-name="Ucircumflex" unicode="&#xdb;" horiz-adv-x="1542" 
d="M771 -40q-681 0 -681 701v773h423v-773q0 -71 5.5 -120.5t21.5 -95.5t44 -73.5t75 -43.5t112 -16t112 16t75 43.5t44 73.5t21.5 95.5t5.5 120.5v773h423v-773q0 -701 -681 -701zM924 1827l311 -291h-318l-146 99l-146 -99h-318l311 291h306z" />
    <glyph glyph-name="Udieresis" unicode="&#xdc;" horiz-adv-x="1542" 
d="M771 -40q-681 0 -681 701v773h423v-773q0 -71 5.5 -120.5t21.5 -95.5t44 -73.5t75 -43.5t112 -16t112 16t75 43.5t44 73.5t21.5 95.5t5.5 120.5v773h423v-773q0 -701 -681 -701zM330 1732q0 81 57.5 138.5t138.5 57.5t138.5 -57.5t57.5 -138.5t-57.5 -138.5t-138.5 -57.5
t-138.5 57.5t-57.5 138.5zM821 1732q0 81 57.5 138.5t138.5 57.5t138.5 -57.5t57.5 -138.5t-57.5 -138.5t-138.5 -57.5t-138.5 57.5t-57.5 138.5z" />
    <glyph glyph-name="Yacute" unicode="&#xdd;" horiz-adv-x="1544" 
d="M458 1434l314 -490l314 490h458l-560 -865v-569h-424v569l-560 865h458zM566 1536l251 310h453l-314 -310h-390z" />
    <glyph glyph-name="Thorn" unicode="&#xde;" horiz-adv-x="1326" 
d="M90 0v1434h423v-244h208q274 0 414.5 -129.5t140.5 -343.5t-140.5 -343.5t-414.5 -129.5h-208v-244h-423zM721 838h-208v-242h208q62 0 97 30t35 91t-35 91t-97 30z" />
    <glyph glyph-name="germandbls" unicode="&#xdf;" horiz-adv-x="1472" 
d="M493 861v-861h-403v861q0 92 14 169t37.5 134.5t59.5 103.5t74 76.5t88 53.5t94 35.5t99.5 19.5t98 9t94.5 2q126 0 237.5 -27t198.5 -78t137.5 -133t50.5 -185q0 -108 -62.5 -190.5t-152.5 -111.5q112 -32 188 -123t76 -217q0 -100 -31 -176t-82.5 -123.5t-129 -77
t-161 -41t-186.5 -11.5q-133 0 -251 42v307q119 -46 251 -46q104 0 145.5 39.5t41.5 116.5q0 85 -54.5 121.5t-155.5 36.5h-165v303h161q90 2 127.5 31t37.5 100q0 63 -53.5 101.5t-167.5 38.5q-60 0 -101 -10.5t-79 -40.5t-57 -92t-19 -157z" />
    <glyph glyph-name="agrave" unicode="&#xe0;" horiz-adv-x="1248" 
d="M50 323q0 110 62.5 187.5t168 114.5t224 49.5t250.5 2.5q0 44 -11 66.5t-52 36t-122 13.5q-166 0 -315 -56l-129 246q179 93 482 93q147 0 247 -22t169.5 -74.5t101.5 -139.5t32 -217v-623h-403v121q-83 -145 -319 -145q-178 0 -282 93t-104 254zM453 344q0 -85 115 -85
q50 0 88.5 14.5t58.5 37t30 45.5t10 44v55q-46 6 -99 3t-98 -11.5t-75 -35.5t-30 -67zM593 1434l251 -310h-390l-314 310h453z" />
    <glyph glyph-name="aacute" unicode="&#xe1;" horiz-adv-x="1248" 
d="M50 323q0 110 62.5 187.5t168 114.5t224 49.5t250.5 2.5q0 44 -11 66.5t-52 36t-122 13.5q-166 0 -315 -56l-129 246q179 93 482 93q147 0 247 -22t169.5 -74.5t101.5 -139.5t32 -217v-623h-403v121q-83 -145 -319 -145q-178 0 -282 93t-104 254zM453 344q0 -85 115 -85
q50 0 88.5 14.5t58.5 37t30 45.5t10 44v55q-46 6 -99 3t-98 -11.5t-75 -35.5t-30 -67zM401 1124l251 310h453l-314 -310h-390z" />
    <glyph glyph-name="acircumflex" unicode="&#xe2;" horiz-adv-x="1248" 
d="M50 323q0 110 62.5 187.5t168 114.5t224 49.5t250.5 2.5q0 44 -11 66.5t-52 36t-122 13.5q-166 0 -315 -56l-129 246q179 93 482 93q147 0 247 -22t169.5 -74.5t101.5 -139.5t32 -217v-623h-403v121q-83 -145 -319 -145q-178 0 -282 93t-104 254zM453 344q0 -85 115 -85
q50 0 88.5 14.5t58.5 37t30 45.5t10 44v55q-46 6 -99 3t-98 -11.5t-75 -35.5t-30 -67zM767 1434l311 -291h-318l-146 99l-146 -99h-318l311 291h306z" />
    <glyph glyph-name="atilde" unicode="&#xe3;" horiz-adv-x="1248" 
d="M50 323q0 110 62.5 187.5t168 114.5t224 49.5t250.5 2.5q0 44 -11 66.5t-52 36t-122 13.5q-166 0 -315 -56l-129 246q179 93 482 93q147 0 247 -22t169.5 -74.5t101.5 -139.5t32 -217v-623h-403v121q-83 -145 -319 -145q-178 0 -282 93t-104 254zM453 344q0 -85 115 -85
q50 0 88.5 14.5t58.5 37t30 45.5t10 44v55q-46 6 -99 3t-98 -11.5t-75 -35.5t-30 -67zM629 1217q-3 3 -15 13.5t-17 13.5t-15.5 9t-21 8t-24.5 2q-40 0 -63 -39q-9 -18 -12 -39h-275q11 100 50 174q36 75 107 125t178 50q100 0 165 -54q19 -17 26.5 -23.5t26.5 -14.5t40 -8
q42 0 63 39q9 17 12 39h275q-11 -98 -50 -175q-90 -174 -285 -174q-100 0 -165 54z" />
    <glyph glyph-name="adieresis" unicode="&#xe4;" horiz-adv-x="1248" 
d="M50 323q0 110 62.5 187.5t168 114.5t224 49.5t250.5 2.5q0 44 -11 66.5t-52 36t-122 13.5q-166 0 -315 -56l-129 246q179 93 482 93q147 0 247 -22t169.5 -74.5t101.5 -139.5t32 -217v-623h-403v121q-83 -145 -319 -145q-178 0 -282 93t-104 254zM453 344q0 -85 115 -85
q50 0 88.5 14.5t58.5 37t30 45.5t10 44v55q-46 6 -99 3t-98 -11.5t-75 -35.5t-30 -67zM209 1344q0 81 57.5 138.5t138.5 57.5t138.5 -57.5t57.5 -138.5t-57.5 -138.5t-138.5 -57.5t-138.5 57.5t-57.5 138.5zM700 1344q0 81 57.5 138.5t138.5 57.5t138.5 -57.5t57.5 -138.5
t-57.5 -138.5t-138.5 -57.5t-138.5 57.5t-57.5 138.5z" />
    <glyph glyph-name="aring" unicode="&#xe5;" horiz-adv-x="1248" 
d="M50 323q0 110 62.5 187.5t168 114.5t224 49.5t250.5 2.5q0 44 -11 66.5t-52 36t-122 13.5q-166 0 -315 -56l-129 246q179 93 482 93q147 0 247 -22t169.5 -74.5t101.5 -139.5t32 -217v-623h-403v121q-83 -145 -319 -145q-178 0 -282 93t-104 254zM453 344q0 -85 115 -85
q50 0 88.5 14.5t58.5 37t30 45.5t10 44v55q-46 6 -99 3t-98 -11.5t-75 -35.5t-30 -67zM389 1387q0 109 77 186t186 77t186 -77t77 -186t-77 -186t-186 -77t-186 77t-77 186zM579 1387q0 -30 21.5 -51.5t51.5 -21.5t51.5 21.5t21.5 51.5t-21.5 51.5t-51.5 21.5t-51.5 -21.5
t-21.5 -51.5z" />
    <glyph glyph-name="ae" unicode="&#xe6;" horiz-adv-x="1962" 
d="M1344 -30q-242 0 -391 115q-81 -48 -177.5 -74t-157 -30.5t-142.5 -4.5q-206 0 -316 91.5t-110 255.5q0 110 62.5 187.5t168 114.5t224 49.5t250.5 2.5q0 44 -11 66.5t-52 36t-122 13.5q-166 0 -315 -56l-129 246q179 93 482 93q273 0 400 -85q143 85 336 85
q288 0 434 -184.5t132 -515.5h-752q0 -41 60 -77t175 -36q158 0 280 69l187 -215q-191 -147 -516 -147zM453 344q0 -85 115 -85q50 0 88.5 14.5t58.5 37t30 45.5t10 44v55q-46 6 -99 3t-98 -11.5t-75 -35.5t-30 -67zM1158 630h372q0 59 -48 106t-138 47t-138 -47t-48 -106z
" />
    <glyph glyph-name="ccedilla" unicode="&#xe7;" horiz-adv-x="1193" 
d="M349 -565l60 179q31 -10 78 -18t103.5 -11.5t97.5 12t45 51.5q2 16 -4.5 28.5t-23 19t-34.5 11t-46.5 4.5t-50 -0.5t-54.5 -4t-51 -6t-48 -6.5l94 293q-219 40 -342 179.5t-123 356.5q0 261 175 407t475 146q307 0 463 -166l-190 -226q-128 89 -273 89q-111 0 -179 -66
t-68 -184t68 -184t179 -66q154 0 273 89l190 -226q-138 -147 -398 -164l-30 -98q132 0 207 -58t64 -175q-10 -97 -75.5 -159.5t-161 -82.5t-205.5 -11t-215 47z" />
    <glyph glyph-name="egrave" unicode="&#xe8;" horiz-adv-x="1257" 
d="M639 -30q-151 0 -267.5 46.5t-185 125.5t-102.5 175.5t-34 205.5q0 111 38 209.5t109.5 176t185.5 122.5t256 45q288 0 434 -184.5t132 -515.5h-752q0 -41 60 -77t175 -36q158 0 280 69l187 -215q-191 -147 -516 -147zM453 630h372q0 59 -48 106t-138 47t-138 -47
t-48 -106zM596 1434l251 -310h-390l-314 310h453z" />
    <glyph glyph-name="eacute" unicode="&#xe9;" horiz-adv-x="1257" 
d="M639 -30q-151 0 -267.5 46.5t-185 125.5t-102.5 175.5t-34 205.5q0 111 38 209.5t109.5 176t185.5 122.5t256 45q288 0 434 -184.5t132 -515.5h-752q0 -41 60 -77t175 -36q158 0 280 69l187 -215q-191 -147 -516 -147zM453 630h372q0 59 -48 106t-138 47t-138 -47
t-48 -106zM428 1124l251 310h453l-314 -310h-390z" />
    <glyph glyph-name="ecircumflex" unicode="&#xea;" horiz-adv-x="1257" 
d="M639 -30q-151 0 -267.5 46.5t-185 125.5t-102.5 175.5t-34 205.5q0 111 38 209.5t109.5 176t185.5 122.5t256 45q288 0 434 -184.5t132 -515.5h-752q0 -41 60 -77t175 -36q158 0 280 69l187 -215q-191 -147 -516 -147zM453 630h372q0 59 -48 106t-138 47t-138 -47
t-48 -106zM789 1434l311 -291h-318l-146 99l-146 -99h-318l311 291h306z" />
    <glyph glyph-name="edieresis" unicode="&#xeb;" horiz-adv-x="1257" 
d="M639 -30q-151 0 -267.5 46.5t-185 125.5t-102.5 175.5t-34 205.5q0 111 38 209.5t109.5 176t185.5 122.5t256 45q288 0 434 -184.5t132 -515.5h-752q0 -41 60 -77t175 -36q158 0 280 69l187 -215q-191 -147 -516 -147zM453 630h372q0 59 -48 106t-138 47t-138 -47
t-48 -106zM195 1344q0 81 57.5 138.5t138.5 57.5t138.5 -57.5t57.5 -138.5t-57.5 -138.5t-138.5 -57.5t-138.5 57.5t-57.5 138.5zM686 1344q0 81 57.5 138.5t138.5 57.5t138.5 -57.5t57.5 -138.5t-57.5 -138.5t-138.5 -57.5t-138.5 57.5t-57.5 138.5z" />
    <glyph glyph-name="igrave" unicode="&#xec;" horiz-adv-x="711" 
d="M218 0v1046h403v-1046h-403zM363 1434l251 -310h-390l-314 310h453z" />
    <glyph glyph-name="iacute" unicode="&#xed;" horiz-adv-x="800" 
d="M90 0v1046h403v-1046h-403zM96 1124l251 310h453l-314 -310h-390z" />
    <glyph glyph-name="icircumflex" unicode="&#xee;" horiz-adv-x="808" 
d="M203 0v1046h403v-1046h-403zM557 1434l311 -291h-318l-146 99l-146 -99h-318l311 291h306z" />
    <glyph glyph-name="idieresis" unicode="&#xef;" horiz-adv-x="823" 
d="M210 0v1046h403v-1046h-403zM-30 1344q0 81 57.5 138.5t138.5 57.5t138.5 -57.5t57.5 -138.5t-57.5 -138.5t-138.5 -57.5t-138.5 57.5t-57.5 138.5zM461 1344q0 81 57.5 138.5t138.5 57.5t138.5 -57.5t57.5 -138.5t-57.5 -138.5t-138.5 -57.5t-138.5 57.5t-57.5 138.5z
" />
    <glyph glyph-name="eth" unicode="&#xf0;" horiz-adv-x="1399" 
d="M936 921q-35 167 -236 277l-91 -115l-222 176l33 42q-55 13 -100 20l81 347q150 -32 257 -68l111 140l222 -176l-69 -87q407 -250 407 -774q0 -159 -35 -285t-95 -209t-145 -137.5t-179 -78t-203 -23.5q-295 0 -458.5 148t-163.5 405q0 252 153 402.5t399 150.5
q222 0 334 -155zM695 273q110 0 176 69t66 181q0 111 -66 180.5t-176 69.5t-176 -69.5t-66 -180.5q0 -112 66 -181t176 -69z" />
    <glyph glyph-name="ntilde" unicode="&#xf1;" 
d="M493 579v-579h-403v1046h403v-107q36 66 115 101.5t168 35.5q230 0 349.5 -133.5t119.5 -363.5v-579h-403v579q0 96 -42 145t-133 49t-132.5 -49t-41.5 -145zM639 1217q-3 3 -15 13.5t-17 13.5t-15.5 9t-21 8t-24.5 2q-40 0 -63 -39q-9 -18 -12 -39h-275q11 100 50 174
q36 75 107 125t178 50q100 0 165 -54q19 -17 26.5 -23.5t26.5 -14.5t40 -8q42 0 63 39q9 17 12 39h275q-11 -98 -50 -175q-90 -174 -285 -174q-100 0 -165 54z" />
    <glyph glyph-name="ograve" unicode="&#xf2;" horiz-adv-x="1400" 
d="M700 -30q-300 0 -475 146t-175 407t175 407t475 146t475 -146t175 -407t-175 -407t-475 -146zM700 273q111 0 179 66t68 184t-68 184t-179 66t-179 -66t-68 -184t68 -184t179 -66zM648 1434l251 -310h-390l-314 310h453z" />
    <glyph glyph-name="oacute" unicode="&#xf3;" horiz-adv-x="1400" 
d="M700 -30q-300 0 -475 146t-175 407t175 407t475 146t475 -146t175 -407t-175 -407t-475 -146zM700 273q111 0 179 66t68 184t-68 184t-179 66t-179 -66t-68 -184t68 -184t179 -66zM504 1124l251 310h453l-314 -310h-390z" />
    <glyph glyph-name="ocircumflex" unicode="&#xf4;" horiz-adv-x="1400" 
d="M700 -30q-300 0 -475 146t-175 407t175 407t475 146t475 -146t175 -407t-175 -407t-475 -146zM700 273q111 0 179 66t68 184t-68 184t-179 66t-179 -66t-68 -184t68 -184t179 -66zM853 1434l311 -291h-318l-146 99l-146 -99h-318l311 291h306z" />
    <glyph glyph-name="otilde" unicode="&#xf5;" horiz-adv-x="1400" 
d="M700 -30q-300 0 -475 146t-175 407t175 407t475 146t475 -146t175 -407t-175 -407t-475 -146zM700 273q111 0 179 66t68 184t-68 184t-179 66t-179 -66t-68 -184t68 -184t179 -66zM672 1217q-3 3 -15 13.5t-17 13.5t-15.5 9t-21 8t-24.5 2q-40 0 -63 -39q-9 -18 -12 -39
h-275q11 100 50 174q36 75 107 125t178 50q100 0 165 -54q19 -17 26.5 -23.5t26.5 -14.5t40 -8q42 0 63 39q9 17 12 39h275q-11 -98 -50 -175q-90 -174 -285 -174q-100 0 -165 54z" />
    <glyph glyph-name="odieresis" unicode="&#xf6;" horiz-adv-x="1400" 
d="M700 -30q-300 0 -475 146t-175 407t175 407t475 146t475 -146t175 -407t-175 -407t-475 -146zM700 273q111 0 179 66t68 184t-68 184t-179 66t-179 -66t-68 -184t68 -184t179 -66zM259 1324q0 81 57.5 138.5t138.5 57.5t138.5 -57.5t57.5 -138.5t-57.5 -138.5
t-138.5 -57.5t-138.5 57.5t-57.5 138.5zM750 1324q0 81 57.5 138.5t138.5 57.5t138.5 -57.5t57.5 -138.5t-57.5 -138.5t-138.5 -57.5t-138.5 57.5t-57.5 138.5z" />
    <glyph glyph-name="divide" unicode="&#xf7;" horiz-adv-x="1110" 
d="M70 502v352h970v-352h-970zM341 1128q0 88 63 151t151 63t151 -63t63 -151t-63 -151t-151 -63t-151 63t-63 151zM341 228q0 88 63 151t151 63t151 -63t63 -151t-63 -151t-151 -63t-151 63t-63 151z" />
    <glyph glyph-name="oslash" unicode="&#xf8;" horiz-adv-x="1400" 
d="M700 -30q-59 0 -113 6l-18 -37h-312l57 117q-264 143 -264 467q0 261 175 407t475 146q59 0 113 -6l18 37h312l-58 -117q265 -144 265 -467q0 -261 -175 -407t-475 -146zM947 523q0 75 -28 128l-185 -377q97 10 155 75t58 174zM453 523q0 -74 28 -129l185 377
q-97 -10 -155 -75t-58 -173z" />
    <glyph glyph-name="ugrave" unicode="&#xf9;" 
d="M842 467v579h403v-1046h-403v107q-36 -66 -115.5 -101.5t-167.5 -35.5q-230 0 -349.5 133t-119.5 364v579h403v-579q0 -96 42 -145t133 -49t132.5 49t41.5 145zM615 1434l251 -310h-390l-314 310h453z" />
    <glyph glyph-name="uacute" unicode="&#xfa;" 
d="M842 467v579h403v-1046h-403v107q-36 -66 -115.5 -101.5t-167.5 -35.5q-230 0 -349.5 133t-119.5 364v579h403v-579q0 -96 42 -145t133 -49t132.5 49t41.5 145zM469 1124l251 310h453l-314 -310h-390z" />
    <glyph glyph-name="ucircumflex" unicode="&#xfb;" 
d="M842 467v579h403v-1046h-403v107q-36 -66 -115.5 -101.5t-167.5 -35.5q-230 0 -349.5 133t-119.5 364v579h403v-579q0 -96 42 -145t133 -49t132.5 49t41.5 145zM822 1434l311 -291h-318l-146 99l-146 -99h-318l311 291h306z" />
    <glyph glyph-name="udieresis" unicode="&#xfc;" 
d="M842 467v579h403v-1046h-403v107q-36 -66 -115.5 -101.5t-167.5 -35.5q-230 0 -349.5 133t-119.5 364v579h403v-579q0 -96 42 -145t133 -49t132.5 49t41.5 145zM227 1344q0 81 57.5 138.5t138.5 57.5t138.5 -57.5t57.5 -138.5t-57.5 -138.5t-138.5 -57.5t-138.5 57.5
t-57.5 138.5zM718 1344q0 81 57.5 138.5t138.5 57.5t138.5 -57.5t57.5 -138.5t-57.5 -138.5t-138.5 -57.5t-138.5 57.5t-57.5 138.5z" />
    <glyph glyph-name="yacute" unicode="&#xfd;" horiz-adv-x="1252" 
d="M1252 1046l-557 -1328q-26 -58 -58 -100t-80 -77.5t-117 -54t-158 -18.5q-148 0 -272 54l114 280q64 -31 119 -31q36 0 62 10.5t45.5 34.5t32 48t28.5 65l27 71l-438 1046h411l215 -603l215 603h411zM429 1124l251 310h453l-314 -310h-390z" />
    <glyph glyph-name="thorn" unicode="&#xfe;" horiz-adv-x="1430" 
d="M90 -532v2048h403v-595q112 155 334 155q258 0 405.5 -148.5t147.5 -404.5t-147.5 -404.5t-405.5 -148.5q-222 0 -334 155v-657h-403zM735 773q-110 0 -176 -69.5t-66 -180.5q0 -112 66 -181t176 -69t176 69t66 181q0 111 -66 180.5t-176 69.5z" />
    <glyph glyph-name="ydieresis" unicode="&#xff;" horiz-adv-x="1252" 
d="M1252 1046l-557 -1328q-26 -58 -58 -100t-80 -77.5t-117 -54t-158 -18.5q-148 0 -272 54l114 280q64 -31 119 -31q36 0 62 10.5t45.5 34.5t32 48t28.5 65l27 71l-438 1046h411l215 -603l215 603h411zM185 1344q0 81 57.5 138.5t138.5 57.5t138.5 -57.5t57.5 -138.5
t-57.5 -138.5t-138.5 -57.5t-138.5 57.5t-57.5 138.5zM676 1344q0 81 57.5 138.5t138.5 57.5t138.5 -57.5t57.5 -138.5t-57.5 -138.5t-138.5 -57.5t-138.5 57.5t-57.5 138.5z" />
    <glyph glyph-name="Amacron" unicode="&#x100;" horiz-adv-x="1602" 
d="M536 232l-90 -232h-446l587 1434h428l587 -1434h-446l-90 232h-530zM801 915l-140 -361h280zM336 1536v303h930v-303h-930z" />
    <glyph glyph-name="amacron" unicode="&#x101;" horiz-adv-x="1248" 
d="M50 323q0 110 62.5 187.5t168 114.5t224 49.5t250.5 2.5q0 44 -11 66.5t-52 36t-122 13.5q-166 0 -315 -56l-129 246q179 93 482 93q147 0 247 -22t169.5 -74.5t101.5 -139.5t32 -217v-623h-403v121q-83 -145 -319 -145q-178 0 -282 93t-104 254zM453 344q0 -85 115 -85
q50 0 88.5 14.5t58.5 37t30 45.5t10 44v55q-46 6 -99 3t-98 -11.5t-75 -35.5t-30 -67zM183 1171v303h930v-303h-930z" />
    <glyph glyph-name="Abreve" unicode="&#x102;" horiz-adv-x="1602" 
d="M536 232l-90 -232h-446l587 1434h428l587 -1434h-446l-90 232h-530zM801 915l-140 -361h280zM801 1744q130 0 162 78h252q-7 -38 -21 -73t-45.5 -75.5t-74.5 -69.5t-114 -48.5t-159 -19.5t-159 19.5t-114 48.5t-74.5 69.5t-45.5 75.5t-21 73h252q32 -78 162 -78z" />
    <glyph glyph-name="abreve" unicode="&#x103;" horiz-adv-x="1248" 
d="M50 323q0 110 62.5 187.5t168 114.5t224 49.5t250.5 2.5q0 44 -11 66.5t-52 36t-122 13.5q-166 0 -315 -56l-129 246q179 93 482 93q147 0 247 -22t169.5 -74.5t101.5 -139.5t32 -217v-623h-403v121q-83 -145 -319 -145q-178 0 -282 93t-104 254zM453 344q0 -85 115 -85
q50 0 88.5 14.5t58.5 37t30 45.5t10 44v55q-46 6 -99 3t-98 -11.5t-75 -35.5t-30 -67zM649 1356q130 0 162 78h252q-7 -38 -21 -73t-45.5 -75.5t-74.5 -69.5t-114 -48.5t-159 -19.5t-159 19.5t-114 48.5t-74.5 69.5t-45.5 75.5t-21 73h252q32 -78 162 -78z" />
    <glyph glyph-name="Aogonek" unicode="&#x104;" horiz-adv-x="1654" 
d="M1015 1434l587 -1434q-40 -18 -70.5 -46t-45.5 -59t-13 -61.5t20 -53.5t59.5 -35t101.5 -6v-271q-106 -14 -192 1.5t-137 52.5t-83.5 87.5t-36.5 108t9 111t49 99.5t86 72h-193l-90 232h-530l-90 -232h-446l587 1434h428zM801 915l-140 -361h280z" />
    <glyph glyph-name="aogonek" unicode="&#x105;" horiz-adv-x="1300" 
d="M1158 623v-623q-40 -18 -70.5 -46t-45.5 -59t-13 -61.5t20 -53.5t59.5 -35t101.5 -6v-271q-106 -14 -192 1.5t-137 52.5t-83.5 87.5t-36.5 108t9 111t49 99.5t86 72h-150v121q-83 -145 -319 -145q-178 0 -282 93t-104 254q0 110 62.5 187.5t168 114.5t224 49.5t250.5 2.5
q0 44 -11 66.5t-52 36t-122 13.5q-166 0 -315 -56l-129 246q179 93 482 93q147 0 247 -22t169.5 -74.5t101.5 -139.5t32 -217zM453 344q0 -85 115 -85q50 0 88.5 14.5t58.5 37t30 45.5t10 44v55q-46 6 -99 3t-98 -11.5t-75 -35.5t-30 -67z" />
    <glyph glyph-name="Cacute" unicode="&#x106;" horiz-adv-x="1483" 
d="M477 717q0 -63 12 -120.5t39.5 -110t68.5 -91t102 -61t137 -22.5q78 0 143.5 11t117.5 33t81 38.5t70 43.5l205 -272q-48 -43 -98.5 -75t-124 -64t-174 -49.5t-220.5 -17.5q-157 0 -287 38.5t-221.5 107t-154.5 164t-93 208t-30 239.5t30 239.5t93 208t154.5 164
t221.5 107t287 38.5q120 0 220.5 -17.5t174 -49.5t124 -64t98.5 -75l-205 -272q-41 27 -70 43.5t-81 38.5t-117.5 33t-143.5 11q-76 0 -137 -22.5t-102 -61t-68.5 -91t-39.5 -110t-12 -120.5zM637 1536l251 310h453l-314 -310h-390z" />
    <glyph glyph-name="cacute" unicode="&#x107;" horiz-adv-x="1230" 
d="M453 523q0 -118 68 -184t179 -66q154 0 273 89l190 -226q-156 -166 -463 -166q-300 0 -475 146t-175 407t175 407t475 146q307 0 463 -166l-190 -226q-128 89 -273 89q-111 0 -179 -66t-68 -184zM496 1124l251 310h453l-314 -310h-390z" />
    <glyph glyph-name="Ccircumflex" unicode="&#x108;" horiz-adv-x="1483" 
d="M982 1827l311 -291h-318l-146 99l-146 -99h-318l311 291h306zM477 717q0 -63 12 -120.5t39.5 -110t68.5 -91t102 -61t137 -22.5q78 0 143.5 11t117.5 33t81 38.5t70 43.5l205 -272q-48 -43 -98.5 -75t-124 -64t-174 -49.5t-220.5 -17.5q-157 0 -287 38.5t-221.5 107
t-154.5 164t-93 208t-30 239.5t30 239.5t93 208t154.5 164t221.5 107t287 38.5q120 0 220.5 -17.5t174 -49.5t124 -64t98.5 -75l-205 -272q-41 27 -70 43.5t-81 38.5t-117.5 33t-143.5 11q-76 0 -137 -22.5t-102 -61t-68.5 -91t-39.5 -110t-12 -120.5z" />
    <glyph glyph-name="ccircumflex" unicode="&#x109;" horiz-adv-x="1193" 
d="M453 523q0 -118 68 -184t179 -66q154 0 273 89l190 -226q-156 -166 -463 -166q-300 0 -475 146t-175 407t175 407t475 146q307 0 463 -166l-190 -226q-128 89 -273 89q-111 0 -179 -66t-68 -184zM825 1434l311 -291h-318l-146 99l-146 -99h-318l311 291h306z" />
    <glyph glyph-name="Cdotaccent" unicode="&#x10a;" horiz-adv-x="1483" 
d="M477 717q0 -63 12 -120.5t39.5 -110t68.5 -91t102 -61t137 -22.5q78 0 143.5 11t117.5 33t81 38.5t70 43.5l205 -272q-48 -43 -98.5 -75t-124 -64t-174 -49.5t-220.5 -17.5q-157 0 -287 38.5t-221.5 107t-154.5 164t-93 208t-30 239.5t30 239.5t93 208t154.5 164
t221.5 107t287 38.5q120 0 220.5 -17.5t174 -49.5t124 -64t98.5 -75l-205 -272q-41 27 -70 43.5t-81 38.5t-117.5 33t-143.5 11q-76 0 -137 -22.5t-102 -61t-68.5 -91t-39.5 -110t-12 -120.5zM649 1732q0 81 57.5 138.5t138.5 57.5t138.5 -57.5t57.5 -138.5t-57.5 -138.5
t-138.5 -57.5t-138.5 57.5t-57.5 138.5z" />
    <glyph glyph-name="cdotaccent" unicode="&#x10b;" horiz-adv-x="1193" 
d="M453 523q0 -118 68 -184t179 -66q154 0 273 89l190 -226q-156 -166 -463 -166q-300 0 -475 146t-175 407t175 407t475 146q307 0 463 -166l-190 -226q-128 89 -273 89q-111 0 -179 -66t-68 -184zM512 1344q0 81 57.5 138.5t138.5 57.5t138.5 -57.5t57.5 -138.5
t-57.5 -138.5t-138.5 -57.5t-138.5 57.5t-57.5 138.5z" />
    <glyph glyph-name="Ccaron" unicode="&#x10c;" horiz-adv-x="1483" 
d="M477 717q0 -63 12 -120.5t39.5 -110t68.5 -91t102 -61t137 -22.5q78 0 143.5 11t117.5 33t81 38.5t70 43.5l205 -272q-48 -43 -98.5 -75t-124 -64t-174 -49.5t-220.5 -17.5q-157 0 -287 38.5t-221.5 107t-154.5 164t-93 208t-30 239.5t30 239.5t93 208t154.5 164
t221.5 107t287 38.5q120 0 220.5 -17.5t174 -49.5t124 -64t98.5 -75l-205 -272q-41 27 -70 43.5t-81 38.5t-117.5 33t-143.5 11q-76 0 -137 -22.5t-102 -61t-68.5 -91t-39.5 -110t-12 -120.5zM1300 1827l-311 -291h-306l-311 291h318l146 -99l146 99h318z" />
    <glyph glyph-name="ccaron" unicode="&#x10d;" horiz-adv-x="1193" 
d="M453 523q0 -118 68 -184t179 -66q154 0 273 89l190 -226q-156 -166 -463 -166q-300 0 -475 146t-175 407t175 407t475 146q307 0 463 -166l-190 -226q-128 89 -273 89q-111 0 -179 -66t-68 -184zM1145 1434l-311 -291h-306l-311 291h318l146 -99l146 99h318z" />
    <glyph glyph-name="Dcaron" unicode="&#x10e;" horiz-adv-x="1515" 
d="M1465 717q0 -125 -24.5 -230t-81 -196.5t-142 -155t-213.5 -99.5t-290 -36h-624v1434h624q162 0 290 -36t213.5 -100t142 -155t81 -196.5t24.5 -229.5zM513 1082v-730h201q168 0 247 90.5t79 274.5t-79 274.5t-247 90.5h-201zM1074 1827l-311 -291h-306l-311 291h318
l146 -99l146 99h318z" />
    <glyph glyph-name="dcaron" unicode="&#x10f;" horiz-adv-x="1731" 
d="M1340 1516v-1516h-403v125q-112 -155 -334 -155q-258 0 -405.5 148.5t-147.5 404.5t147.5 404.5t405.5 148.5q222 0 334 -155v595h403zM695 773q-110 0 -176 -69.5t-66 -180.5q0 -112 66 -181t176 -69t176 69t66 181q0 111 -66 180.5t-176 69.5zM1371 974l211 542h429
l-249 -542h-391z" />
    <glyph glyph-name="Dcroat" unicode="&#x110;" horiz-adv-x="1627" 
d="M0 541v352h202v541h624q162 0 290 -36t213.5 -100t142 -155t81 -196.5t24.5 -229.5q0 -125 -24.5 -230t-81 -196.5t-142 -155t-213.5 -99.5t-290 -36h-624v541h-202zM625 541v-189h201q168 0 247 90.5t79 274.5t-79 274.5t-247 90.5h-201v-189h253v-352h-253z" />
    <glyph glyph-name="dslash" unicode="&#x111;" horiz-adv-x="1490" 
d="M1340 1112v-1112h-403v125q-112 -155 -334 -155q-258 0 -405.5 148.5t-147.5 404.5t147.5 404.5t405.5 148.5q222 0 334 -155v191h-305v303h305v101h403v-101h180v-303h-180zM695 773q-110 0 -176 -69.5t-66 -180.5q0 -112 66 -181t176 -69t176 69t66 181
q0 111 -66 180.5t-176 69.5z" />
    <glyph glyph-name="Emacron" unicode="&#x112;" horiz-adv-x="1310" 
d="M513 897h669v-343h-669v-202h727v-352h-1150v1434h1140v-352h-717v-185zM185 1536v303h930v-303h-930z" />
    <glyph glyph-name="emacron" unicode="&#x113;" horiz-adv-x="1257" 
d="M639 -30q-151 0 -267.5 46.5t-185 125.5t-102.5 175.5t-34 205.5q0 111 38 209.5t109.5 176t185.5 122.5t256 45q288 0 434 -184.5t132 -515.5h-752q0 -41 60 -77t175 -36q158 0 280 69l187 -215q-191 -147 -516 -147zM453 630h372q0 59 -48 106t-138 47t-138 -47
t-48 -106zM171 1171v303h930v-303h-930z" />
    <glyph glyph-name="Ebreve" unicode="&#x114;" horiz-adv-x="1310" 
d="M513 897h669v-343h-669v-202h727v-352h-1150v1434h1140v-352h-717v-185zM660 1744q130 0 162 78h252q-7 -38 -21 -73t-45.5 -75.5t-74.5 -69.5t-114 -48.5t-159 -19.5t-159 19.5t-114 48.5t-74.5 69.5t-45.5 75.5t-21 73h252q32 -78 162 -78z" />
    <glyph glyph-name="ebreve" unicode="&#x115;" horiz-adv-x="1257" 
d="M639 -30q-151 0 -267.5 46.5t-185 125.5t-102.5 175.5t-34 205.5q0 111 38 209.5t109.5 176t185.5 122.5t256 45q288 0 434 -184.5t132 -515.5h-752q0 -41 60 -77t175 -36q158 0 280 69l187 -215q-191 -147 -516 -147zM453 630h372q0 59 -48 106t-138 47t-138 -47
t-48 -106zM636 1356q130 0 162 78h252q-7 -38 -21 -73t-45.5 -75.5t-74.5 -69.5t-114 -48.5t-159 -19.5t-159 19.5t-114 48.5t-74.5 69.5t-45.5 75.5t-21 73h252q32 -78 162 -78z" />
    <glyph glyph-name="Edotaccent" unicode="&#x116;" horiz-adv-x="1310" 
d="M513 897h669v-343h-669v-202h727v-352h-1150v1434h1140v-352h-717v-185zM464 1732q0 81 57.5 138.5t138.5 57.5t138.5 -57.5t57.5 -138.5t-57.5 -138.5t-138.5 -57.5t-138.5 57.5t-57.5 138.5z" />
    <glyph glyph-name="edotaccent" unicode="&#x117;" horiz-adv-x="1257" 
d="M639 -30q-151 0 -267.5 46.5t-185 125.5t-102.5 175.5t-34 205.5q0 111 38 209.5t109.5 176t185.5 122.5t256 45q288 0 434 -184.5t132 -515.5h-752q0 -41 60 -77t175 -36q158 0 280 69l187 -215q-191 -147 -516 -147zM453 630h372q0 59 -48 106t-138 47t-138 -47
t-48 -106zM440 1344q0 81 57.5 138.5t138.5 57.5t138.5 -57.5t57.5 -138.5t-57.5 -138.5t-138.5 -57.5t-138.5 57.5t-57.5 138.5z" />
    <glyph glyph-name="Eogonek" unicode="&#x118;" horiz-adv-x="1362" 
d="M1240 352v-352q-40 -18 -70.5 -46t-45.5 -59t-13 -61.5t20 -53.5t59.5 -35t101.5 -6v-271q-106 -14 -192 1.5t-137 52.5t-83.5 87.5t-36.5 108t9 111t49 99.5t86 72h-897v1434h1140v-352h-717v-185h669v-343h-669v-202h727z" />
    <glyph glyph-name="eogonek" unicode="&#x119;" horiz-adv-x="1257" 
d="M50 523q0 111 38 209.5t109.5 176t185.5 122.5t256 45q288 0 434 -184.5t132 -515.5h-752q0 -41 60 -77t175 -36q158 0 280 69l187 -215q-107 -83 -247 -117q-40 -18 -70 -46t-45 -59t-13 -61.5t20 -53.5t60 -35t101 -6v-271q-116 -15 -206.5 4.5t-141.5 62.5t-78.5 102
t-24.5 120t29 118t72 96q-116 3 -211 35.5t-159 84.5t-108 122t-63.5 147.5t-19.5 162.5zM453 630h372q0 59 -48 106t-138 47t-138 -47t-48 -106z" />
    <glyph glyph-name="Ecaron" unicode="&#x11a;" horiz-adv-x="1310" 
d="M513 897h669v-343h-669v-202h727v-352h-1150v1434h1140v-352h-717v-185zM1124 1827l-311 -291h-306l-311 291h318l146 -99l146 99h318z" />
    <glyph glyph-name="ecaron" unicode="&#x11b;" horiz-adv-x="1257" 
d="M639 -30q-151 0 -267.5 46.5t-185 125.5t-102.5 175.5t-34 205.5q0 111 38 209.5t109.5 176t185.5 122.5t256 45q288 0 434 -184.5t132 -515.5h-752q0 -41 60 -77t175 -36q158 0 280 69l187 -215q-191 -147 -516 -147zM453 630h372q0 59 -48 106t-138 47t-138 -47
t-48 -106zM1100 1434l-311 -291h-306l-311 291h318l146 -99l146 99h318z" />
    <glyph glyph-name="Gcircumflex" unicode="&#x11c;" horiz-adv-x="1538" 
d="M836 1474q208 0 357 -47.5t275 -138.5l-201 -268q-192 102 -431 102q-76 0 -137 -22.5t-102 -61t-68.5 -91t-39.5 -110t-12 -120.5t12 -120.5t39.5 -110t68.5 -91t102 -61t137 -22.5q141 0 230 43v203h-250v313h626v-742q-134 -97 -278 -133t-328 -36q-157 0 -287 38.5
t-221.5 107t-154.5 164t-93 208t-30 239.5t30 239.5t93 208t154.5 164t221.5 107t287 38.5zM969 1827l311 -291h-318l-146 99l-146 -99h-318l311 291h306z" />
    <glyph glyph-name="gcircumflex" unicode="&#x11d;" horiz-adv-x="1430" 
d="M937 1046h403v-1046q-2 -119 -37 -212t-94 -153.5t-143.5 -99t-179.5 -54t-208 -13.5q-366 6 -555 132l147 253q159 -82 368 -82q138 0 218.5 56t80.5 173v125q-112 -155 -334 -155q-258 0 -405.5 148.5t-147.5 404.5t147.5 404.5t405.5 148.5q222 0 334 -155v125z
M695 273q110 0 176 69t66 181q0 111 -66 180.5t-176 69.5t-176 -69.5t-66 -180.5q0 -112 66 -181t176 -69zM848 1434l311 -291h-318l-146 99l-146 -99h-318l311 291h306z" />
    <glyph glyph-name="Gbreve" unicode="&#x11e;" horiz-adv-x="1538" 
d="M836 1474q208 0 357 -47.5t275 -138.5l-201 -268q-192 102 -431 102q-76 0 -137 -22.5t-102 -61t-68.5 -91t-39.5 -110t-12 -120.5t12 -120.5t39.5 -110t68.5 -91t102 -61t137 -22.5q141 0 230 43v203h-250v313h626v-742q-134 -97 -278 -133t-328 -36q-157 0 -287 38.5
t-221.5 107t-154.5 164t-93 208t-30 239.5t30 239.5t93 208t154.5 164t221.5 107t287 38.5zM829 1743q130 0 162 78h252q-7 -38 -21 -73t-45.5 -75.5t-74.5 -69.5t-114 -48.5t-159 -19.5t-159 19.5t-114 48.5t-74.5 69.5t-45.5 75.5t-21 73h252q32 -78 162 -78z" />
    <glyph glyph-name="gbreve" unicode="&#x11f;" horiz-adv-x="1430" 
d="M937 1046h403v-1046q-2 -119 -37 -212t-94 -153.5t-143.5 -99t-179.5 -54t-208 -13.5q-366 6 -555 132l147 253q159 -82 368 -82q138 0 218.5 56t80.5 173v125q-112 -155 -334 -155q-258 0 -405.5 148.5t-147.5 404.5t147.5 404.5t405.5 148.5q222 0 334 -155v125z
M695 273q110 0 176 69t66 181q0 111 -66 180.5t-176 69.5t-176 -69.5t-66 -180.5q0 -112 66 -181t176 -69zM695 1356q130 0 162 78h252q-7 -38 -21 -73t-45.5 -75.5t-74.5 -69.5t-114 -48.5t-159 -19.5t-159 19.5t-114 48.5t-74.5 69.5t-45.5 75.5t-21 73h252
q32 -78 162 -78z" />
    <glyph glyph-name="Gdotaccent" unicode="&#x120;" horiz-adv-x="1538" 
d="M836 1474q208 0 357 -47.5t275 -138.5l-201 -268q-192 102 -431 102q-76 0 -137 -22.5t-102 -61t-68.5 -91t-39.5 -110t-12 -120.5t12 -120.5t39.5 -110t68.5 -91t102 -61t137 -22.5q141 0 230 43v203h-250v313h626v-742q-134 -97 -278 -133t-328 -36q-157 0 -287 38.5
t-221.5 107t-154.5 164t-93 208t-30 239.5t30 239.5t93 208t154.5 164t221.5 107t287 38.5zM632 1732q0 81 57.5 138.5t138.5 57.5t138.5 -57.5t57.5 -138.5t-57.5 -138.5t-138.5 -57.5t-138.5 57.5t-57.5 138.5z" />
    <glyph glyph-name="gdotaccent" unicode="&#x121;" horiz-adv-x="1430" 
d="M937 1046h403v-1046q-2 -119 -37 -212t-94 -153.5t-143.5 -99t-179.5 -54t-208 -13.5q-366 6 -555 132l147 253q159 -82 368 -82q138 0 218.5 56t80.5 173v125q-112 -155 -334 -155q-258 0 -405.5 148.5t-147.5 404.5t147.5 404.5t405.5 148.5q222 0 334 -155v125z
M695 273q110 0 176 69t66 181q0 111 -66 180.5t-176 69.5t-176 -69.5t-66 -180.5q0 -112 66 -181t176 -69zM499 1344q0 81 57.5 138.5t138.5 57.5t138.5 -57.5t57.5 -138.5t-57.5 -138.5t-138.5 -57.5t-138.5 57.5t-57.5 138.5z" />
    <glyph glyph-name="Gcommaaccent" unicode="&#x122;" horiz-adv-x="1538" 
d="M836 1474q208 0 357 -47.5t275 -138.5l-201 -268q-192 102 -431 102q-76 0 -137 -22.5t-102 -61t-68.5 -91t-39.5 -110t-12 -120.5t12 -120.5t39.5 -110t68.5 -91t102 -61t137 -22.5q141 0 230 43v203h-250v313h626v-742q-134 -97 -278 -133t-328 -36q-157 0 -287 38.5
t-221.5 107t-154.5 164t-93 208t-30 239.5t30 239.5t93 208t154.5 164t221.5 107t287 38.5zM491 -532l153 424h399l-191 -424h-361z" />
    <glyph glyph-name="gcommaaccent" unicode="&#x123;" horiz-adv-x="1430" 
d="M937 1046h403v-1046q-2 -119 -37 -212t-94 -153.5t-143.5 -99t-179.5 -54t-208 -13.5q-366 6 -555 132l147 253q159 -82 368 -82q138 0 218.5 56t80.5 173v125q-112 -155 -334 -155q-258 0 -405.5 148.5t-147.5 404.5t147.5 404.5t405.5 148.5q222 0 334 -155v125z
M695 273q110 0 176 69t66 181q0 111 -66 180.5t-176 69.5t-176 -69.5t-66 -180.5q0 -112 66 -181t176 -69zM1014 1555l-153 -424h-399l191 424h361z" />
    <glyph glyph-name="Hcircumflex" unicode="&#x124;" horiz-adv-x="1558" 
d="M1045 906v528h423v-1434h-423v554h-532v-554h-423v1434h423v-528h532zM932 1827l311 -291h-318l-146 99l-146 -99h-318l311 291h306z" />
    <glyph glyph-name="hcircumflex" unicode="&#x125;" 
d="M493 579v-579h-403v1516h403v-577q36 66 115 101.5t168 35.5q230 0 349.5 -133.5t119.5 -363.5v-579h-403v579q0 96 -42 145t-133 49t-132.5 -49t-41.5 -145zM820 1827l311 -291h-318l-146 99l-146 -99h-318l311 291h306z" />
    <glyph glyph-name="Hbar" unicode="&#x126;" horiz-adv-x="1844" 
d="M30 1006v292h203v136h423v-136h532v136h423v-136h203v-292h-203v-1006h-423v554h-532v-554h-423v1006h-203zM656 906h532v100h-532v-100z" />
    <glyph glyph-name="hbar" unicode="&#x127;" horiz-adv-x="1395" 
d="M553 579v-579h-403v1112h-180v303h180v101h403v-101h305v-303h-305v-173q36 66 115 101.5t168 35.5q230 0 349.5 -133.5t119.5 -363.5v-579h-403v579q0 96 -42 145t-133 49t-132.5 -49t-41.5 -145z" />
    <glyph glyph-name="Itilde" unicode="&#x128;" horiz-adv-x="763" 
d="M170 0v1434h423v-1434h-423zM353 1590q-3 3 -15 13.5t-17 13.5t-15.5 9t-21 8t-24.5 2q-40 0 -63 -39q-9 -18 -12 -39h-275q11 100 50 174q36 75 107 125t178 50q100 0 165 -54q19 -17 26.5 -23.5t26.5 -14.5t40 -8q42 0 63 39q9 16 12 39h275q-11 -98 -50 -175
q-90 -174 -285 -174q-100 0 -165 54z" />
    <glyph glyph-name="itilde" unicode="&#x129;" horiz-adv-x="783" 
d="M363 1217q-3 3 -15 13.5t-17 13.5t-15.5 9t-21 8t-24.5 2q-40 0 -63 -39q-9 -18 -12 -39h-275q11 100 50 174q36 75 107 125t178 50q100 0 165 -54q19 -17 26.5 -23.5t26.5 -14.5t40 -8q42 0 63 39q9 17 12 39h275q-11 -98 -50 -175q-90 -174 -285 -174q-100 0 -165 54z
M190 0v1046h403v-1046h-403z" />
    <glyph glyph-name="uni012A" unicode="&#x12a;" horiz-adv-x="810" 
d="M194 0v1434h423v-1434h-423zM-60 1536v303h930v-303h-930z" />
    <glyph glyph-name="imacron" unicode="&#x12b;" horiz-adv-x="710" 
d="M155 0v1046h403v-1046h-403zM-110 1171v303h930v-303h-930z" />
    <glyph glyph-name="Ibreve" unicode="&#x12c;" horiz-adv-x="648" 
d="M113 0v1434h423v-1434h-423zM324 1744q130 0 162 78h252q-7 -38 -21 -73t-45.5 -75.5t-74.5 -69.5t-114 -48.5t-159 -19.5t-159 19.5t-114 48.5t-74.5 69.5t-45.5 75.5t-21 73h252q32 -78 162 -78z" />
    <glyph glyph-name="uni012D" unicode="&#x12d;" horiz-adv-x="708" 
d="M153 0v1046h403v-1046h-403zM354 1356q130 0 162 78h252q-7 -38 -21 -73t-45.5 -75.5t-74.5 -69.5t-114 -48.5t-159 -19.5t-159 19.5t-114 48.5t-74.5 69.5t-45.5 75.5t-21 73h252q32 -78 162 -78z" />
    <glyph glyph-name="Iogonek" unicode="&#x12e;" horiz-adv-x="655" 
d="M513 1434v-1434q-40 -18 -70.5 -46t-45.5 -59t-13 -61.5t20 -53.5t59.5 -35t101.5 -6v-271q-106 -14 -192 1.5t-137 52.5t-83.5 87.5t-36.5 108t9 111t49 99.5t86 72h-170v1434h423z" />
    <glyph glyph-name="iogonek" unicode="&#x12f;" horiz-adv-x="635" 
d="M493 1046v-1046q-40 -18 -70.5 -46t-45.5 -59t-13 -61.5t20 -53.5t59.5 -35t101.5 -6v-271q-106 -14 -192 1.5t-137 52.5t-83.5 87.5t-36.5 108t9 111t49 99.5t86 72h-150v1046h403zM95 1344q0 81 57.5 138.5t138.5 57.5t138.5 -57.5t57.5 -138.5t-57.5 -138.5
t-138.5 -57.5t-138.5 57.5t-57.5 138.5z" />
    <glyph glyph-name="Idot" unicode="&#x130;" horiz-adv-x="603" 
d="M90 0v1434h423v-1434h-423zM105 1732q0 81 57.5 138.5t138.5 57.5t138.5 -57.5t57.5 -138.5t-57.5 -138.5t-138.5 -57.5t-138.5 57.5t-57.5 138.5z" />
    <glyph glyph-name="dotlessi" unicode="&#x131;" horiz-adv-x="583" 
d="M90 0v1046h403v-1046h-403z" />
    <glyph glyph-name="IJ" unicode="&#x132;" horiz-adv-x="1863" 
d="M90 0v1434h423v-1434h-423zM629 343l376 100q54 -131 175 -131q170 0 170 187v935h423v-935q0 -140 -40 -244t-116 -168.5t-180 -95.5t-237 -31q-478 0 -571 383z" />
    <glyph glyph-name="ij" unicode="&#x133;" horiz-adv-x="1203" 
d="M90 0v1046h403v-1046h-403zM95 1344q0 81 57.5 138.5t138.5 57.5t138.5 -57.5t57.5 -138.5t-57.5 -138.5t-138.5 -57.5t-138.5 57.5t-57.5 138.5zM388 -475l96 269q59 -23 111 -23q28 0 48.5 9.5t32.5 29.5t19.5 38.5t10.5 50t3.5 50t0.5 51.5v1046h403v-1046
q0 -532 -440 -532q-163 0 -285 57zM715 1344q0 81 57.5 138.5t138.5 57.5t138.5 -57.5t57.5 -138.5t-57.5 -138.5t-138.5 -57.5t-138.5 57.5t-57.5 138.5z" />
    <glyph glyph-name="Jcircumflex" unicode="&#x134;" horiz-adv-x="1282" 
d="M30 343l376 100q54 -131 175 -131q170 0 170 187v935h423v-935q0 -140 -40 -244t-116 -168.5t-180 -95.5t-237 -31q-478 0 -571 383zM1121 1827l311 -291h-318l-146 99l-146 -99h-318l311 291h306z" />
    <glyph glyph-name="jcircumflex" unicode="&#x135;" horiz-adv-x="772" 
d="M521 1434l311 -291h-318l-146 99l-146 -99h-318l311 291h306zM-150 -475l96 269q59 -23 111 -23q28 0 48.5 9.5t32.5 29.5t19.5 38.5t10.5 50t3.5 50t0.5 51.5v1046h403v-1046q0 -532 -440 -532q-163 0 -285 57z" />
    <glyph glyph-name="Kcommaaccent" unicode="&#x136;" horiz-adv-x="1518" 
d="M513 948l490 486h508l-602 -597l609 -837h-481l-407 560l-117 -116v-444h-423v1434h423v-486zM397 -532l153 424h399l-191 -424h-361z" />
    <glyph glyph-name="kcommaaccent" unicode="&#x137;" horiz-adv-x="1310" 
d="M493 747l318 299h496l-479 -451l482 -595h-457l-286 354l-74 -68v-286h-403v1516h403v-769zM314 -532l153 424h399l-191 -424h-361z" />
    <glyph glyph-name="kgreenlandic" unicode="&#x138;" horiz-adv-x="1474" 
d="M1347 1434v-352q-128 0 -233.5 -62.5t-256.5 -205.5q66 -48 122.5 -95t131 -123.5t135.5 -158.5t122.5 -196.5t105.5 -240.5h-466q-67 180 -180.5 325.5t-238.5 224.5l-76 -74v-476h-423v1434h423v-491q106 106 174.5 171t142.5 126.5t128 93.5t118.5 57.5t127.5 34
t143 8.5z" />
    <glyph glyph-name="Lacute" unicode="&#x139;" horiz-adv-x="1250" 
d="M513 1434v-1082h687v-352h-1110v1434h423zM107 1536l251 310h453l-314 -310h-390z" />
    <glyph glyph-name="lacute" unicode="&#x13a;" horiz-adv-x="620" 
d="M90 415v1101h403v-1075q0 -31 0.5 -45t4 -36t11 -31.5t22 -17.5t36.5 -8h32v-303h-132q-75 0 -134.5 13.5t-98.5 33.5t-67 54.5t-42.5 66t-22.5 79t-10 82.5t-2 86zM96 1596l251 310h453l-314 -310h-390z" />
    <glyph glyph-name="Lcommaaccent" unicode="&#x13b;" horiz-adv-x="1250" 
d="M513 1434v-1082h687v-352h-1110v1434h423zM307 -532l153 424h399l-191 -424h-361z" />
    <glyph glyph-name="lcommaaccent" unicode="&#x13c;" horiz-adv-x="721" 
d="M162 415v1101h403v-1075q0 -31 0.5 -45t4 -36t11 -31.5t22 -17.5t36.5 -8h32v-303h-132q-75 0 -134.5 13.5t-98.5 33.5t-67 54.5t-42.5 66t-22.5 79t-10 82.5t-2 86zM90 -532l153 424h399l-191 -424h-361z" />
    <glyph glyph-name="Lcaron" unicode="&#x13d;" horiz-adv-x="1259" 
d="M513 1434v-1082h687v-352h-1110v1434h423zM569 892l211 542h429l-249 -542h-391z" />
    <glyph glyph-name="lcaron" unicode="&#x13e;" horiz-adv-x="1133" 
d="M90 415v1101h403v-1075q0 -31 0.5 -45t4 -36t11 -31.5t22 -17.5t36.5 -8h32v-303h-132q-75 0 -134.5 13.5t-98.5 33.5t-67 54.5t-42.5 66t-22.5 79t-10 82.5t-2 86zM523 974l211 542h429l-249 -542h-391z" />
    <glyph glyph-name="Ldot" unicode="&#x13f;" horiz-adv-x="1250" 
d="M513 1434v-1082h687v-352h-1110v1434h423zM660 757q0 81 57.5 138.5t138.5 57.5t138.5 -57.5t57.5 -138.5t-57.5 -138.5t-138.5 -57.5t-138.5 57.5t-57.5 138.5z" />
    <glyph glyph-name="ldot" unicode="&#x140;" horiz-adv-x="984" 
d="M90 415v1101h403v-1075q0 -31 0.5 -45t4 -36t11 -31.5t22 -17.5t36.5 -8h32v-303h-132q-75 0 -134.5 13.5t-98.5 33.5t-67 54.5t-42.5 66t-22.5 79t-10 82.5t-2 86zM562 757q0 81 57.5 138.5t138.5 57.5t138.5 -57.5t57.5 -138.5t-57.5 -138.5t-138.5 -57.5t-138.5 57.5
t-57.5 138.5z" />
    <glyph glyph-name="Lslash" unicode="&#x141;" horiz-adv-x="1386" 
d="M649 655v-303h687v-352h-1110v428l-226 -121v407l226 121v599h423v-372l226 121v-406z" />
    <glyph glyph-name="lslash" unicode="&#x142;" horiz-adv-x="835" 
d="M0 407v367l216 116v626h403v-409l216 116v-366l-216 -117v-299q0 -31 0.5 -45t4 -36t11 -31.5t22 -17.5t36.5 -8h32v-303h-132q-75 0 -134.5 13.5t-98.5 33.5t-67 54.5t-42.5 66t-22.5 79t-10 82.5t-2 86v108z" />
    <glyph glyph-name="Nacute" unicode="&#x143;" horiz-adv-x="1633" 
d="M120 0v1434h495l475 -807v807h423v-1434h-495l-475 807v-807h-423zM573 1536l251 310h453l-314 -310h-390z" />
    <glyph glyph-name="nacute" unicode="&#x144;" 
d="M493 579v-579h-403v1046h403v-107q36 66 115 101.5t168 35.5q230 0 349.5 -133.5t119.5 -363.5v-579h-403v579q0 96 -42 145t-133 49t-132.5 -49t-41.5 -145zM428 1124l251 310h453l-314 -310h-390z" />
    <glyph glyph-name="Ncommaaccent" unicode="&#x145;" horiz-adv-x="1573" 
d="M90 0v1434h495l475 -807v807h423v-1434h-495l-475 807v-807h-423zM462 -532l153 424h399l-191 -424h-361z" />
    <glyph glyph-name="ncommaaccent" unicode="&#x146;" 
d="M493 579v-579h-403v1046h403v-107q36 66 115 101.5t168 35.5q230 0 349.5 -133.5t119.5 -363.5v-579h-403v579q0 96 -42 145t-133 49t-132.5 -49t-41.5 -145zM319 -532l153 424h399l-191 -424h-361z" />
    <glyph glyph-name="Ncaron" unicode="&#x147;" horiz-adv-x="1633" 
d="M120 0v1434h495l475 -807v807h423v-1434h-495l-475 807v-807h-423zM1280 1827l-311 -291h-306l-311 291h318l146 -99l146 99h318z" />
    <glyph glyph-name="ncaron" unicode="&#x148;" 
d="M493 579v-579h-403v1046h403v-107q36 66 115 101.5t168 35.5q230 0 349.5 -133.5t119.5 -363.5v-579h-403v579q0 96 -42 145t-133 49t-132.5 -49t-41.5 -145zM1131 1434l-311 -291h-306l-311 291h318l146 -99l146 99h318z" />
    <glyph glyph-name="napostrophe" unicode="&#x149;" horiz-adv-x="1702" 
d="M860 579v-579h-403v1046h403v-107q36 66 115 101.5t168 35.5q230 0 349.5 -133.5t119.5 -363.5v-579h-403v579q0 96 -42 145t-133 49t-132.5 -49t-41.5 -145zM90 1092l153 424h399l-191 -424h-361z" />
    <glyph glyph-name="Eng" unicode="&#x14a;" horiz-adv-x="1573" 
d="M90 0v1434h495l475 -807v807h423v-1434q-4 -532 -523 -532q-79 0 -143.5 9t-131 32t-124.5 67t-106 110l290 215q70 -81 165 -81q86 0 118 47.5t32 132.5h-72l-475 807v-807h-423z" />
    <glyph glyph-name="eng" unicode="&#x14b;" 
d="M520 -475l96 269q59 -23 111 -23q28 0 48.5 9.5t32.5 29.5t19.5 38.5t10.5 50t3.5 50t0.5 51.5v579q0 96 -42 145t-133 49t-132.5 -49t-41.5 -145v-579h-403v1046h403v-107q36 66 115 101.5t168 35.5q230 0 349.5 -133.5t119.5 -363.5v-579q0 -532 -440 -532
q-163 0 -285 57z" />
    <glyph glyph-name="Omacron" unicode="&#x14c;" horiz-adv-x="1672" 
d="M836 1474q157 0 287 -38.5t221.5 -107t154.5 -164t93 -208t30 -239.5t-30 -239.5t-93 -208t-154.5 -164t-221.5 -107t-287 -38.5t-287 38.5t-221.5 107t-154.5 164t-93 208t-30 239.5t30 239.5t93 208t154.5 164t221.5 107t287 38.5zM836 1122q-76 0 -137 -22.5t-102 -61
t-68.5 -91t-39.5 -110t-12 -120.5t12 -120.5t39.5 -110t68.5 -91t102 -61t137 -22.5t137 22.5t102 61t68.5 91t39.5 110t12 120.5t-12 120.5t-39.5 110t-68.5 91t-102 61t-137 22.5zM371 1536v303h930v-303h-930z" />
    <glyph glyph-name="omacron" unicode="&#x14d;" horiz-adv-x="1400" 
d="M700 -30q-300 0 -475 146t-175 407t175 407t475 146t475 -146t175 -407t-175 -407t-475 -146zM700 273q111 0 179 66t68 184t-68 184t-179 66t-179 -66t-68 -184t68 -184t179 -66zM236 1171v303h930v-303h-930z" />
    <glyph glyph-name="Obreve" unicode="&#x14e;" horiz-adv-x="1672" 
d="M836 1474q157 0 287 -38.5t221.5 -107t154.5 -164t93 -208t30 -239.5t-30 -239.5t-93 -208t-154.5 -164t-221.5 -107t-287 -38.5t-287 38.5t-221.5 107t-154.5 164t-93 208t-30 239.5t30 239.5t93 208t154.5 164t221.5 107t287 38.5zM836 1122q-76 0 -137 -22.5t-102 -61
t-68.5 -91t-39.5 -110t-12 -120.5t12 -120.5t39.5 -110t68.5 -91t102 -61t137 -22.5t137 22.5t102 61t68.5 91t39.5 110t12 120.5t-12 120.5t-39.5 110t-68.5 91t-102 61t-137 22.5zM836 1744q130 0 162 78h252q-7 -38 -21 -73t-45.5 -75.5t-74.5 -69.5t-114 -48.5
t-159 -19.5t-159 19.5t-114 48.5t-74.5 69.5t-45.5 75.5t-21 73h252q32 -78 162 -78z" />
    <glyph glyph-name="obreve" unicode="&#x14f;" horiz-adv-x="1400" 
d="M700 -30q-300 0 -475 146t-175 407t175 407t475 146t475 -146t175 -407t-175 -407t-475 -146zM700 273q111 0 179 66t68 184t-68 184t-179 66t-179 -66t-68 -184t68 -184t179 -66zM700 1356q130 0 162 78h252q-7 -38 -21 -73t-45.5 -75.5t-74.5 -69.5t-114 -48.5
t-159 -19.5t-159 19.5t-114 48.5t-74.5 69.5t-45.5 75.5t-21 73h252q32 -78 162 -78z" />
    <glyph glyph-name="Ohungarumlaut" unicode="&#x150;" horiz-adv-x="1672" 
d="M836 1474q157 0 287 -38.5t221.5 -107t154.5 -164t93 -208t30 -239.5t-30 -239.5t-93 -208t-154.5 -164t-221.5 -107t-287 -38.5t-287 38.5t-221.5 107t-154.5 164t-93 208t-30 239.5t30 239.5t93 208t154.5 164t221.5 107t287 38.5zM836 1122q-76 0 -137 -22.5t-102 -61
t-68.5 -91t-39.5 -110t-12 -120.5t12 -120.5t39.5 -110t68.5 -91t102 -61t137 -22.5t137 22.5t102 61t68.5 91t39.5 110t12 120.5t-12 120.5t-39.5 110t-68.5 91t-102 61t-137 22.5zM482 1536l91 342h349l-149 -342h-291zM886 1536l91 342h349l-149 -342h-291z" />
    <glyph glyph-name="ohungarumlaut" unicode="&#x151;" horiz-adv-x="1400" 
d="M700 -30q-300 0 -475 146t-175 407t175 407t475 146t475 -146t175 -407t-175 -407t-475 -146zM700 273q111 0 179 66t68 184t-68 184t-179 66t-179 -66t-68 -184t68 -184t179 -66zM357 1174l91 342h349l-149 -342h-291zM761 1174l91 342h349l-149 -342h-291z" />
    <glyph glyph-name="OE" unicode="&#x152;" horiz-adv-x="2338" 
d="M1128 1434h1130v-352h-707v-185h659v-343h-659v-202h717v-352h-1139q-129 -40 -293 -40q-157 0 -287 38.5t-221.5 107t-154.5 164t-93 208t-30 239.5t30 239.5t93 208t154.5 164t221.5 107t287 38.5q163 0 292 -40zM836 1122q-76 0 -137 -22.5t-102 -61t-68.5 -91
t-39.5 -110t-12 -120.5t12 -120.5t39.5 -110t68.5 -91t102 -61t137 -22.5q198 0 292 148v514q-96 148 -292 148z" />
    <glyph glyph-name="oe" unicode="&#x153;" horiz-adv-x="2154" 
d="M1536 -30q-244 0 -396 119q-169 -119 -440 -119q-300 0 -475 146t-175 407t175 407t475 146q272 0 444 -123q155 123 392 123q288 0 434 -184.5t132 -515.5h-752q0 -41 60 -77t175 -36q158 0 280 69l187 -215q-191 -147 -516 -147zM700 273q111 0 179 66t68 184t-68 184
t-179 66t-179 -66t-68 -184t68 -184t179 -66zM1350 630h372q0 59 -48 106t-138 47t-138 -47t-48 -106z" />
    <glyph glyph-name="Racute" unicode="&#x154;" horiz-adv-x="1434" 
d="M513 0h-423v1434h633q144 0 259 -28t204 -87.5t137 -159.5t48 -236q0 -67 -18.5 -126.5t-47.5 -101.5t-67.5 -77t-74 -56t-71.5 -35l292 -527h-455l-246 443h-170v-443zM723 1081h-210v-316h210q116 0 168.5 37t52.5 121q0 83 -53 120.5t-168 37.5zM436 1536l251 310h453
l-314 -310h-390z" />
    <glyph glyph-name="racute" unicode="&#x155;" horiz-adv-x="1054" 
d="M1054 1001l-172 -285q-103 57 -215 57q-174 0 -174 -204v-569h-403v1046h403v-107q36 66 115 101.5t168 35.5q166 0 278 -75zM320 1124l251 310h453l-314 -310h-390z" />
    <glyph glyph-name="Rcommaaccent" unicode="&#x156;" horiz-adv-x="1434" 
d="M513 0h-423v1434h633q144 0 259 -28t204 -87.5t137 -159.5t48 -236q0 -67 -18.5 -126.5t-47.5 -101.5t-67.5 -77t-74 -56t-71.5 -35l292 -527h-455l-246 443h-170v-443zM723 1081h-210v-316h210q116 0 168.5 37t52.5 121q0 83 -53 120.5t-168 37.5zM351 -532l153 424h399
l-191 -424h-361z" />
    <glyph glyph-name="rcommaaccent" unicode="&#x157;" horiz-adv-x="1083" 
d="M1083 1001l-172 -285q-103 57 -215 57q-174 0 -174 -204v-569h-403v1046h403v-107q36 66 115 101.5t168 35.5q165 0 278 -75zM-30 -532l153 424h399l-191 -424h-361z" />
    <glyph glyph-name="Rcaron" unicode="&#x158;" horiz-adv-x="1434" 
d="M513 0h-423v1434h633q144 0 259 -28t204 -87.5t137 -159.5t48 -236q0 -67 -18.5 -126.5t-47.5 -101.5t-67.5 -77t-74 -56t-71.5 -35l292 -527h-455l-246 443h-170v-443zM723 1081h-210v-316h210q116 0 168.5 37t52.5 121q0 83 -53 120.5t-168 37.5zM1128 1827l-311 -291
h-306l-311 291h318l146 -99l146 99h318z" />
    <glyph glyph-name="rcaron" unicode="&#x159;" horiz-adv-x="1054" 
d="M1054 1001l-172 -285q-103 57 -215 57q-174 0 -174 -204v-569h-403v1046h403v-107q36 66 115 101.5t168 35.5q166 0 278 -75zM1041 1434l-311 -291h-306l-311 291h318l146 -99l146 99h318z" />
    <glyph glyph-name="Sacute" unicode="&#x15a;" horiz-adv-x="1314" 
d="M1248 1329l-191 -285q-182 78 -388 78q-77 0 -125.5 -24.5t-48.5 -77.5q0 -28 13.5 -48t45 -34.5t63 -23t88.5 -20.5q115 -24 201 -51.5t160 -66.5t120 -87.5t72 -115.5t26 -151q0 -100 -33 -179.5t-91 -131.5t-140.5 -86.5t-176 -49.5t-204.5 -15q-370 0 -609 185
l191 285q186 -118 398 -118q119 0 178.5 22.5t59.5 87.5q0 52 -55 78t-179 51q-284 59 -419.5 176t-135.5 293q0 96 33.5 176.5t101.5 143.5t182 98.5t264 35.5q355 0 599 -145zM454 1536l251 310h453l-314 -310h-390z" />
    <glyph glyph-name="sacute" unicode="&#x15b;" horiz-adv-x="1095" 
d="M1024 967l-147 -255q-142 61 -303 61q-52 0 -75 -9t-23 -35q0 -33 110 -56l12 -3q90 -18 155.5 -36.5t127.5 -48t100 -66.5t61 -91t23 -123q0 -76 -30 -135.5t-79.5 -96.5t-121 -60.5t-147 -33t-163.5 -9.5q-128 0 -262.5 31.5t-231.5 97.5l147 255q157 -81 337 -81
q148 0 148 60q0 25 -30 37t-104 27q-232 47 -343.5 126t-111.5 222q0 158 121 244.5t340 86.5q304 0 490 -109zM343 1124l251 310h453l-314 -310h-390z" />
    <glyph glyph-name="Scircumflex" unicode="&#x15c;" horiz-adv-x="1314" 
d="M1248 1329l-191 -285q-182 78 -388 78q-77 0 -125.5 -24.5t-48.5 -77.5q0 -28 13.5 -48t45 -34.5t63 -23t88.5 -20.5q115 -24 201 -51.5t160 -66.5t120 -87.5t72 -115.5t26 -151q0 -100 -33 -179.5t-91 -131.5t-140.5 -86.5t-176 -49.5t-204.5 -15q-370 0 -609 185
l191 285q186 -118 398 -118q119 0 178.5 22.5t59.5 87.5q0 52 -55 78t-179 51q-284 59 -419.5 176t-135.5 293q0 96 33.5 176.5t101.5 143.5t182 98.5t264 35.5q355 0 599 -145zM805 1827l311 -291h-318l-146 99l-146 -99h-318l311 291h306z" />
    <glyph glyph-name="scircumflex" unicode="&#x15d;" horiz-adv-x="1095" 
d="M1024 967l-147 -255q-142 61 -303 61q-52 0 -75 -9t-23 -35q0 -33 110 -56l12 -3q90 -18 155.5 -36.5t127.5 -48t100 -66.5t61 -91t23 -123q0 -76 -30 -135.5t-79.5 -96.5t-121 -60.5t-147 -33t-163.5 -9.5q-128 0 -262.5 31.5t-231.5 97.5l147 255q157 -81 337 -81
q148 0 148 60q0 25 -30 37t-104 27q-232 47 -343.5 126t-111.5 222q0 158 121 244.5t340 86.5q304 0 490 -109zM703 1434l311 -291h-318l-146 99l-146 -99h-318l311 291h306z" />
    <glyph glyph-name="Scedilla" unicode="&#x15e;" horiz-adv-x="1314" 
d="M353 -565l60 179q31 -10 78 -18t103.5 -11.5t97.5 12t45 51.5q2 16 -4.5 28.5t-23 19t-34.5 11t-46.5 4.5t-50 -0.5t-54.5 -4t-51 -6t-48 -6.5l88 272q-290 29 -483 179l191 285q186 -118 398 -118q119 0 178.5 22.5t59.5 87.5q0 52 -55 78t-179 51q-284 59 -419.5 176
t-135.5 293q0 96 33.5 176.5t101.5 143.5t182 98.5t264 35.5q355 0 599 -145l-191 -285q-182 78 -388 78q-77 0 -125.5 -24.5t-48.5 -77.5q0 -28 13.5 -48t45 -34.5t63 -23t88.5 -20.5q115 -24 201 -51.5t160 -66.5t120 -87.5t72 -115.5t26 -151q0 -110 -38.5 -194
t-110 -137.5t-162.5 -84t-206 -40.5l-28 -92q132 0 207 -58t64 -175q-10 -97 -75.5 -159.5t-161 -82.5t-205.5 -11t-215 47z" />
    <glyph glyph-name="scedilla" unicode="&#x15f;" horiz-adv-x="1095" 
d="M231 -565l60 179q31 -10 78 -18t103.5 -11.5t97.5 12t45 51.5q2 16 -4.5 28.5t-23 19t-34.5 11t-46.5 4.5t-50 -0.5t-54.5 -4t-51 -6t-48 -6.5l91 284q-221 26 -364 121l147 255q157 -81 337 -81q148 0 148 60q0 25 -30 37t-104 27q-232 47 -343.5 126t-111.5 222
q0 158 121 244.5t340 86.5q304 0 490 -109l-147 -255q-142 61 -303 61q-52 0 -75 -9t-23 -35q0 -33 110 -56l12 -3q90 -18 155.5 -36.5t127.5 -48t100 -66.5t61 -91t23 -123q0 -81 -32.5 -142.5t-91.5 -99t-131 -59t-162 -28.5l-31 -102q132 0 207 -58t64 -175
q-10 -97 -75.5 -159.5t-161 -82.5t-205.5 -11t-215 47z" />
    <glyph glyph-name="Scaron" unicode="&#x160;" horiz-adv-x="1314" 
d="M1248 1329l-191 -285q-182 78 -388 78q-77 0 -125.5 -24.5t-48.5 -77.5q0 -28 13.5 -48t45 -34.5t63 -23t88.5 -20.5q115 -24 201 -51.5t160 -66.5t120 -87.5t72 -115.5t26 -151q0 -100 -33 -179.5t-91 -131.5t-140.5 -86.5t-176 -49.5t-204.5 -15q-370 0 -609 185
l191 285q186 -118 398 -118q119 0 178.5 22.5t59.5 87.5q0 52 -55 78t-179 51q-284 59 -419.5 176t-135.5 293q0 96 33.5 176.5t101.5 143.5t182 98.5t264 35.5q355 0 599 -145zM1124 1827l-311 -291h-306l-311 291h318l146 -99l146 99h318z" />
    <glyph glyph-name="scaron" unicode="&#x161;" horiz-adv-x="1095" 
d="M1024 967l-147 -255q-142 61 -303 61q-52 0 -75 -9t-23 -35q0 -33 110 -56l12 -3q90 -18 155.5 -36.5t127.5 -48t100 -66.5t61 -91t23 -123q0 -76 -30 -135.5t-79.5 -96.5t-121 -60.5t-147 -33t-163.5 -9.5q-128 0 -262.5 31.5t-231.5 97.5l147 255q157 -81 337 -81
q148 0 148 60q0 25 -30 37t-104 27q-232 47 -343.5 126t-111.5 222q0 158 121 244.5t340 86.5q304 0 490 -109zM1020 1434l-311 -291h-306l-311 291h318l146 -99l146 99h318z" />
    <glyph glyph-name="Tcommaaccent" unicode="&#x162;" horiz-adv-x="1421" 
d="M30 1434h1361v-352h-469v-1082h-423v1082h-469v352zM360 -532l153 424h399l-191 -424h-361z" />
    <glyph glyph-name="tcommaaccent" unicode="&#x163;" horiz-adv-x="971" 
d="M30 743v303h184v298h403v-298h270v-303h-270v-283q0 -110 27 -153.5t103 -43.5q55 0 115 21l79 -262q-119 -52 -262 -52q-132 0 -222.5 30.5t-143.5 94t-76 151.5t-23 214v283h-184zM251 -532l153 424h399l-191 -424h-361z" />
    <glyph glyph-name="Tcaron" unicode="&#x164;" horiz-adv-x="1421" 
d="M30 1434h1361v-352h-469v-1082h-423v1082h-469v352zM1174 1827l-311 -291h-306l-311 291h318l146 -99l146 99h318z" />
    <glyph glyph-name="tcaron" unicode="&#x165;" horiz-adv-x="1587" 
d="M30 743v303h184v298h403v-298h270v-303h-270v-283q0 -110 27 -153.5t103 -43.5q55 0 115 21l79 -262q-119 -52 -262 -52q-132 0 -222.5 30.5t-143.5 94t-76 151.5t-23 214v283h-184zM917 892l211 542h429l-249 -542h-391z" />
    <glyph glyph-name="Tbar" unicode="&#x166;" horiz-adv-x="1421" 
d="M220 575v353h279v154h-469v352h1361v-352h-469v-154h279v-353h-279v-575h-423v575h-279z" />
    <glyph glyph-name="tbar" unicode="&#x167;" horiz-adv-x="971" 
d="M30 387v303h184v53h-184v303h184v298h403v-298h270v-303h-270v-53h270v-303h-267q8 -67 36 -95.5t91 -28.5q55 0 115 21l79 -262q-119 -52 -262 -52q-239 0 -345 101t-118 316h-186z" />
    <glyph glyph-name="Utilde" unicode="&#x168;" horiz-adv-x="1542" 
d="M771 -40q-681 0 -681 701v773h423v-773q0 -71 5.5 -120.5t21.5 -95.5t44 -73.5t75 -43.5t112 -16t112 16t75 43.5t44 73.5t21.5 95.5t5.5 120.5v773h423v-773q0 -701 -681 -701zM743 1590q-3 3 -15 13.5t-17 13.5t-15.5 9t-21 8t-24.5 2q-40 0 -63 -39q-9 -18 -12 -39
h-275q11 100 50 174q36 75 107 125t178 50q100 0 165 -54q19 -17 26.5 -23.5t26.5 -14.5t40 -8q42 0 63 39q9 16 12 39h275q-11 -98 -50 -175q-90 -174 -285 -174q-100 0 -165 54z" />
    <glyph glyph-name="utilde" unicode="&#x169;" 
d="M842 467v579h403v-1046h-403v107q-36 -66 -115.5 -101.5t-167.5 -35.5q-230 0 -349.5 133t-119.5 364v579h403v-579q0 -96 42 -145t133 -49t132.5 49t41.5 145zM641 1217q-3 3 -15 13.5t-17 13.5t-15.5 9t-21 8t-24.5 2q-40 0 -63 -39q-9 -18 -12 -39h-275q11 100 50 174
q36 75 107 125t178 50q100 0 165 -54q19 -17 26.5 -23.5t26.5 -14.5t40 -8q42 0 63 39q9 17 12 39h275q-11 -98 -50 -175q-90 -174 -285 -174q-100 0 -165 54z" />
    <glyph glyph-name="Umacron" unicode="&#x16a;" horiz-adv-x="1542" 
d="M771 -40q-681 0 -681 701v773h423v-773q0 -71 5.5 -120.5t21.5 -95.5t44 -73.5t75 -43.5t112 -16t112 16t75 43.5t44 73.5t21.5 95.5t5.5 120.5v773h423v-773q0 -701 -681 -701zM306 1536v303h930v-303h-930z" />
    <glyph glyph-name="umacron" unicode="&#x16b;" 
d="M842 467v579h403v-1046h-403v107q-36 -66 -115.5 -101.5t-167.5 -35.5q-230 0 -349.5 133t-119.5 364v579h403v-579q0 -96 42 -145t133 -49t132.5 49t41.5 145zM204 1171v303h930v-303h-930z" />
    <glyph glyph-name="Ubreve" unicode="&#x16c;" horiz-adv-x="1542" 
d="M771 -40q-681 0 -681 701v773h423v-773q0 -71 5.5 -120.5t21.5 -95.5t44 -73.5t75 -43.5t112 -16t112 16t75 43.5t44 73.5t21.5 95.5t5.5 120.5v773h423v-773q0 -701 -681 -701zM771 1743q130 0 162 78h252q-7 -38 -21 -73t-45.5 -75.5t-74.5 -69.5t-114 -48.5
t-159 -19.5t-159 19.5t-114 48.5t-74.5 69.5t-45.5 75.5t-21 73h252q32 -78 162 -78z" />
    <glyph glyph-name="ubreve" unicode="&#x16d;" 
d="M842 467v579h403v-1046h-403v107q-36 -66 -115.5 -101.5t-167.5 -35.5q-230 0 -349.5 133t-119.5 364v579h403v-579q0 -96 42 -145t133 -49t132.5 49t41.5 145zM669 1356q130 0 162 78h252q-7 -38 -21 -73t-45.5 -75.5t-74.5 -69.5t-114 -48.5t-159 -19.5t-159 19.5
t-114 48.5t-74.5 69.5t-45.5 75.5t-21 73h252q32 -78 162 -78z" />
    <glyph glyph-name="Uring" unicode="&#x16e;" horiz-adv-x="1542" 
d="M771 -40q-681 0 -681 701v773h423v-773q0 -71 5.5 -120.5t21.5 -95.5t44 -73.5t75 -43.5t112 -16t112 16t75 43.5t44 73.5t21.5 95.5t5.5 120.5v773h423v-773q0 -701 -681 -701zM508 1799q0 109 77 186t186 77t186 -77t77 -186t-77 -186t-186 -77t-186 77t-77 186z
M698 1799q0 -30 21.5 -51.5t51.5 -21.5t51.5 21.5t21.5 51.5t-21.5 51.5t-51.5 21.5t-51.5 -21.5t-21.5 -51.5z" />
    <glyph glyph-name="uring" unicode="&#x16f;" 
d="M842 467v579h403v-1046h-403v107q-36 -66 -115.5 -101.5t-167.5 -35.5q-230 0 -349.5 133t-119.5 364v579h403v-579q0 -96 42 -145t133 -49t132.5 49t41.5 145zM406 1387q0 109 77 186t186 77t186 -77t77 -186t-77 -186t-186 -77t-186 77t-77 186zM596 1387
q0 -30 21.5 -51.5t51.5 -21.5t51.5 21.5t21.5 51.5t-21.5 51.5t-51.5 21.5t-51.5 -21.5t-21.5 -51.5z" />
    <glyph glyph-name="Uhungarumlaut" unicode="&#x170;" horiz-adv-x="1542" 
d="M771 -40q-681 0 -681 701v773h423v-773q0 -71 5.5 -120.5t21.5 -95.5t44 -73.5t75 -43.5t112 -16t112 16t75 43.5t44 73.5t21.5 95.5t5.5 120.5v773h423v-773q0 -701 -681 -701zM425 1536l91 342h349l-149 -342h-291zM829 1536l91 342h349l-149 -342h-291z" />
    <glyph glyph-name="uhungarumlaut" unicode="&#x171;" 
d="M842 467v579h403v-1046h-403v107q-36 -66 -115.5 -101.5t-167.5 -35.5q-230 0 -349.5 133t-119.5 364v579h403v-579q0 -96 42 -145t133 -49t132.5 49t41.5 145zM325 1174l91 342h349l-149 -342h-291zM729 1174l91 342h349l-149 -342h-291z" />
    <glyph glyph-name="Uogonek" unicode="&#x172;" horiz-adv-x="1542" 
d="M90 661v773h423v-773q0 -71 5.5 -120.5t21.5 -95.5t44 -73.5t75 -43.5t112 -16t112 16t75 43.5t44 73.5t21.5 95.5t5.5 120.5v773h423v-773q0 -534 -396 -661q-40 -18 -70 -46t-45 -59t-13 -61.5t20 -53.5t60 -35t101 -6v-271q-113 -14 -202.5 4.5t-141 60t-80 98
t-28 116.5t23.5 116.5t67 97.5q-658 11 -658 700z" />
    <glyph glyph-name="uogonek" unicode="&#x173;" horiz-adv-x="1387" 
d="M1245 1046v-1046q-40 -18 -70.5 -46t-45.5 -59t-13 -61.5t20 -53.5t59.5 -35t101.5 -6v-271q-106 -14 -192 1.5t-137 52.5t-83.5 87.5t-36.5 108t9 111t49 99.5t86 72h-150v107q-36 -66 -115.5 -101.5t-167.5 -35.5q-230 0 -349.5 133t-119.5 364v579h403v-579
q0 -96 42 -145t133 -49t132.5 49t41.5 145v579h403z" />
    <glyph glyph-name="Wcircumflex" unicode="&#x174;" horiz-adv-x="2070" 
d="M1248 0l-213 741l-213 -741h-322l-500 1434h444l226 -755l217 755h296l217 -755l226 755h444l-500 -1434h-322zM1188 1827l311 -291h-318l-146 99l-146 -99h-318l311 291h306z" />
    <glyph glyph-name="wcircumflex" unicode="&#x175;" horiz-adv-x="1800" 
d="M1046 0l-146 475l-146 -475h-386l-368 1046h421l164 -584l179 584h272l179 -584l164 584h421l-368 -1046h-386zM1053 1434l311 -291h-318l-146 99l-146 -99h-318l311 291h306z" />
    <glyph glyph-name="Ycircumflex" unicode="&#x176;" horiz-adv-x="1544" 
d="M458 1434l314 -490l314 490h458l-560 -865v-569h-424v569l-560 865h458zM925 1827l311 -291h-318l-146 99l-146 -99h-318l311 291h306z" />
    <glyph glyph-name="ycircumflex" unicode="&#x177;" horiz-adv-x="1252" 
d="M1252 1046l-557 -1328q-26 -58 -58 -100t-80 -77.5t-117 -54t-158 -18.5q-148 0 -272 54l114 280q64 -31 119 -31q36 0 62 10.5t45.5 34.5t32 48t28.5 65l27 71l-438 1046h411l215 -603l215 603h411zM779 1434l311 -291h-318l-146 99l-146 -99h-318l311 291h306z" />
    <glyph glyph-name="Ydieresis" unicode="&#x178;" horiz-adv-x="1544" 
d="M458 1434l314 -490l314 490h458l-560 -865v-569h-424v569l-560 865h458zM331 1732q0 81 57.5 138.5t138.5 57.5t138.5 -57.5t57.5 -138.5t-57.5 -138.5t-138.5 -57.5t-138.5 57.5t-57.5 138.5zM822 1732q0 81 57.5 138.5t138.5 57.5t138.5 -57.5t57.5 -138.5
t-57.5 -138.5t-138.5 -57.5t-138.5 57.5t-57.5 138.5z" />
    <glyph glyph-name="Zacute" unicode="&#x179;" horiz-adv-x="1405" 
d="M681 352h654v-352h-1265v209l653 873h-633v352h1245v-209zM475 1536l251 310h453l-314 -310h-390z" />
    <glyph glyph-name="zacute" unicode="&#x17a;" horiz-adv-x="1165" 
d="M70 0v173l482 570h-456v303h999v-175l-482 -568h482v-303h-1025zM363 1124l251 310h453l-314 -310h-390z" />
    <glyph glyph-name="Zdotaccent" unicode="&#x17b;" horiz-adv-x="1405" 
d="M681 352h654v-352h-1265v209l653 873h-633v352h1245v-209zM506 1732q0 81 57.5 138.5t138.5 57.5t138.5 -57.5t57.5 -138.5t-57.5 -138.5t-138.5 -57.5t-138.5 57.5t-57.5 138.5z" />
    <glyph glyph-name="zdotaccent" unicode="&#x17c;" horiz-adv-x="1165" 
d="M70 0v173l482 570h-456v303h999v-175l-482 -568h482v-303h-1025zM388 1344q0 81 57.5 138.5t138.5 57.5t138.5 -57.5t57.5 -138.5t-57.5 -138.5t-138.5 -57.5t-138.5 57.5t-57.5 138.5z" />
    <glyph glyph-name="Zcaron" unicode="&#x17d;" horiz-adv-x="1405" 
d="M681 352h654v-352h-1265v209l653 873h-633v352h1245v-209zM1166 1827l-311 -291h-306l-311 291h318l146 -99l146 99h318z" />
    <glyph glyph-name="zcaron" unicode="&#x17e;" horiz-adv-x="1165" 
d="M70 0v173l482 570h-456v303h999v-175l-482 -568h482v-303h-1025zM1046 1434l-311 -291h-306l-311 291h318l146 -99l146 99h318z" />
    <glyph glyph-name="longs" unicode="&#x17f;" horiz-adv-x="993" 
d="M778 1243q-85 0 -111 -41t-26 -156v-1046h-403v743h-188v303h188q0 87 13 158.5t44.5 136.5t82 109t130 70t183.5 26q169 0 302 -45l-99 -274q-62 16 -116 16z" />
    <glyph glyph-name="uni0180" unicode="&#x180;" horiz-adv-x="1520" 
d="M180 1415v101h403v-101h305v-303h-305v-191q112 155 334 155q258 0 405.5 -148.5t147.5 -404.5t-147.5 -404.5t-405.5 -148.5q-222 0 -334 155v-125h-403v1112h-180v303h180zM825 773q-110 0 -176 -69.5t-66 -180.5q0 -112 66 -181t176 -69t176 69t66 181
q0 111 -66 180.5t-176 69.5z" />
    <glyph glyph-name="uni0181" unicode="&#x181;" horiz-adv-x="1928" 
d="M1295 0h-756v1102h-27q-104 0 -104 -137h-408q0 91 20 165t50 121.5t74.5 83t85.5 54t91 29.5t82.5 13.5t68.5 2.5h808q549 0 549 -395q0 -85 -60.5 -168t-162.5 -111q79 -27 135 -66.5t84.5 -85.5t40.5 -89t12 -90q0 -62 -15.5 -119.5t-57 -115t-105 -99.5t-167.5 -68.5
t-238 -26.5zM962 331h333q173 0 173 121t-173 121h-333v-242zM962 874h318q75 0 109 33t34 81t-34 81t-109 33h-318v-228z" />
    <glyph glyph-name="uni0182" unicode="&#x182;" horiz-adv-x="1421" 
d="M90 1434h1160v-352h-737v-164h296q562 0 562 -459t-562 -459h-719v1434zM513 352h296q70 0 104.5 24.5t34.5 82.5t-34.5 82.5t-104.5 24.5h-296v-214z" />
    <glyph glyph-name="uni0183" unicode="&#x183;" horiz-adv-x="1430" 
d="M90 0v1434h1097v-303h-694v-210q112 155 334 155q258 0 405.5 -148.5t147.5 -404.5t-147.5 -404.5t-405.5 -148.5q-222 0 -334 155v-125h-403zM735 773q-110 0 -176 -69.5t-66 -180.5q0 -112 66 -181t176 -69t176 69t66 181q0 111 -66 180.5t-176 69.5z" />
    <glyph glyph-name="uni0184" unicode="&#x184;" horiz-adv-x="1354" 
d="M1304 524q0 -88 -22.5 -168.5t-71 -151t-118.5 -122.5t-171.5 -82t-223.5 -30t-223.5 30t-171.5 82t-118.5 122.5t-71 151t-22.5 168.5v992h391v-489q98 48 216 48q133 0 238 -29.5t173.5 -80t113 -122t63.5 -150t19 -169.5zM911 524q0 97 -56 151.5t-158 54.5
q-103 0 -158.5 -54.5t-55.5 -151.5t55.5 -153t158.5 -56q102 0 158 56t56 153z" />
    <glyph glyph-name="uni0185" unicode="&#x185;" horiz-adv-x="1430" 
d="M90 653v863h403v-595q112 155 334 155q258 0 405.5 -148.5t147.5 -404.5q0 -260 -159 -406.5t-464 -146.5q-118 0 -212.5 18t-181.5 65t-145.5 122.5t-93 196.5t-34.5 281zM735 773q-110 0 -176 -69.5t-66 -180.5q0 -112 66 -181t176 -69t176 69t66 181q0 111 -66 180.5
t-176 69.5z" />
    <glyph glyph-name="uni0186" unicode="&#x186;" horiz-adv-x="1483" 
d="M1006 717q0 63 -12 120.5t-39.5 110t-68.5 91t-102 61t-137 22.5q-78 0 -143.5 -11t-117.5 -33t-81 -38.5t-70 -43.5l-205 272q48 43 98.5 75t124 64t174 49.5t220.5 17.5q157 0 287 -38.5t221.5 -107t154.5 -164t93 -208t30 -239.5t-30 -239.5t-93 -208t-154.5 -164
t-221.5 -107t-287 -38.5q-120 0 -220.5 17.5t-174 49.5t-124 64t-98.5 75l205 272q41 -27 70 -43.5t81 -38.5t117.5 -33t143.5 -11q76 0 137 22.5t102 61t68.5 91t39.5 110t12 120.5z" />
    <glyph glyph-name="uni0187" unicode="&#x187;" horiz-adv-x="1524" 
d="M477 717q0 -63 12 -120.5t39.5 -110t68.5 -91t102 -61t137 -22.5q78 0 143.5 11t117.5 33t81 38.5t70 43.5l205 -272q-48 -43 -98.5 -75t-124 -64t-174 -49.5t-220.5 -17.5q-157 0 -287 38.5t-221.5 107t-154.5 164t-93 208t-30 239.5t30 239.5t93 208t154.5 164
t221.5 107t287 38.5q124 0 200 -16q2 171 124 272t334 101l-2 -374q-58 0 -86 -24t-28 -91v-344q-101 48 -243 86t-299 38q-76 0 -137 -22.5t-102 -61t-68.5 -91t-39.5 -110t-12 -120.5z" />
    <glyph glyph-name="uni0188" unicode="&#x188;" horiz-adv-x="1262" 
d="M453 523q0 -118 68 -184t179 -66q154 0 273 89l190 -226q-156 -166 -463 -166q-300 0 -475 146t-175 407t175 407t475 146q72 0 118 -7q0 58 12 108.5t41.5 97.5t75.5 79.5t118.5 52.5t166.5 20v-347q-54 0 -76.5 -19.5t-22.5 -56.5v-316q-206 85 -433 85
q-111 0 -179 -66t-68 -184z" />
    <glyph glyph-name="uni0189" unicode="&#x189;" horiz-adv-x="1627" 
d="M0 541v352h202v541h624q162 0 290 -36t213.5 -100t142 -155t81 -196.5t24.5 -229.5q0 -125 -24.5 -230t-81 -196.5t-142 -155t-213.5 -99.5t-290 -36h-624v541h-202zM625 541v-189h201q168 0 247 90.5t79 274.5t-79 274.5t-247 90.5h-201v-189h253v-352h-253z" />
    <glyph glyph-name="uni018A" unicode="&#x18a;" horiz-adv-x="1964" 
d="M1914 717q0 -125 -24.5 -230t-81 -196.5t-142 -155t-213.5 -99.5t-290 -36h-624v1102h-27q-104 0 -104 -137h-408q0 91 20 165t50 121.5t74.5 83t85.5 54t91 29.5t82.5 13.5t68.5 2.5h691q162 0 290 -36t213.5 -100t142 -155t81 -196.5t24.5 -229.5zM962 1082v-730h201
q168 0 247 90.5t79 274.5t-79 274.5t-247 90.5h-201z" />
    <glyph glyph-name="uni018B" unicode="&#x18b;" horiz-adv-x="1421" 
d="M171 1434h1160v-1434h-719q-270 0 -416 126t-146 333t146 333t416 126h296v164h-737v352zM612 352h296v214h-296q-139 0 -139 -107t139 -107z" />
    <glyph glyph-name="uni018C" unicode="&#x18c;" horiz-adv-x="1430" 
d="M1340 1434v-1434h-403v125q-112 -155 -334 -155q-258 0 -405.5 148.5t-147.5 404.5t147.5 404.5t405.5 148.5q222 0 334 -155v210h-694v303h1097zM695 773q-110 0 -176 -69.5t-66 -180.5q0 -112 66 -181t176 -69t176 69t66 181q0 111 -66 180.5t-176 69.5z" />
    <glyph glyph-name="uni018D" unicode="&#x18d;" horiz-adv-x="1400" 
d="M879 -14l332 -292v-226h-1036v303h441l-401 354q-165 146 -165 398q0 261 175 407t475 146t475 -146t175 -407q0 -218 -124.5 -357t-346.5 -180zM700 273q111 0 179 66t68 184t-68 184t-179 66t-179 -66t-68 -184t68 -184t179 -66z" />
    <glyph glyph-name="uni018E" unicode="&#x18e;" horiz-adv-x="1310" 
d="M128 897h669v185h-717v352h1140v-1434h-1150v352h727v202h-669v343z" />
    <glyph glyph-name="uni018F" unicode="&#x18f;" horiz-adv-x="1662" 
d="M832 1122q-161 0 -277.5 -32.5t-215.5 -94.5l-162 300q242 179 655 179q186 0 334 -56t245.5 -156.5t149 -239t51.5 -305.5t-50 -305t-146 -239t-245.5 -157t-338.5 -56q-383 0 -587 238t-194 687h1138q-20 123 -109.5 180t-247.5 57zM1189 553h-714
q20 -116 116.5 -178.5t240.5 -62.5t240.5 62.5t116.5 178.5z" />
    <glyph glyph-name="uni0190" unicode="&#x190;" horiz-adv-x="1356" 
d="M1019 422l287 -226q-41 -49 -89 -87.5t-118 -74t-167.5 -55t-215.5 -19.5q-339 0 -502.5 118.5t-163.5 333.5q0 241 217 341q-80 44 -129.5 126t-49.5 169q0 195 163 310.5t465 115.5q362 0 560 -236l-287 -226q-116 110 -277 110q-201 0 -201 -104q0 -51 34 -76.5
t112 -35.5t233 -10v-352q-108 0 -174.5 -2.5t-118 -9t-76.5 -19.5t-36.5 -32t-11.5 -49q0 -63 58.5 -91.5t184.5 -28.5q187 0 303 110z" />
    <glyph glyph-name="uni0191" unicode="&#x191;" horiz-adv-x="1327" 
d="M540 843h669v-343h-669v-500q0 -142 -26 -237.5t-90.5 -164t-175.5 -99.5t-278 -31v352q91 0 119 39t28 141v1434h1140v-352h-717v-239z" />
    <glyph glyph-name="florin" unicode="&#x192;" horiz-adv-x="1283" 
d="M823 694l-145 -802q-11 -66 -27 -118.5t-52 -112.5t-86.5 -100t-135 -66.5t-193.5 -26.5h-304l64 352h186q53 0 72.5 24.5t26.5 70.5l141 779h-268l64 352h268l11 61q11 66 27 118.5t52 112.5t86.5 100t135 66.5t193.5 26.5h304l-64 -352h-186q-53 0 -72.5 -24.5
t-26.5 -70.5l-7 -38h268l-64 -352h-268z" />
    <glyph glyph-name="uni0193" unicode="&#x193;" horiz-adv-x="1565" 
d="M836 1474q143 0 268 -25q11 53 29.5 101.5t57 102t90 91.5t133 63t181.5 25v-381q-84 0 -114 -82q-13 -35 -13 -81l-201 -268q-192 102 -431 102q-76 0 -137 -22.5t-102 -61t-68.5 -91t-39.5 -110t-12 -120.5t12 -120.5t39.5 -110t68.5 -91t102 -61t137 -22.5
q141 0 230 43v203h-250v313h626v-742q-134 -97 -278 -133t-328 -36q-157 0 -287 38.5t-221.5 107t-154.5 164t-93 208t-30 239.5t30 239.5t93 208t154.5 164t221.5 107t287 38.5z" />
    <glyph glyph-name="uni0194" unicode="&#x194;" horiz-adv-x="1798" 
d="M899 -622q-208 0 -319.5 89t-111.5 268q0 146 117 265l-585 1434h450l449 -1158l449 1158h450l-585 -1434q117 -119 117 -265q0 -179 -111.5 -268t-319.5 -89zM899 -346q54 0 54 81q0 73 -54 124q-54 -51 -54 -124q0 -81 54 -81z" />
    <glyph glyph-name="uni0195" unicode="&#x195;" horiz-adv-x="2088" 
d="M1420 -30q-131 0 -230.5 23.5t-165 65t-107 104.5t-58.5 137t-17 167v112q0 96 -42 145t-133 49t-132.5 -49t-41.5 -145v-579h-403v1516h403v-577q36 66 115 101.5t168 35.5q230 0 349.5 -133.5t119.5 -363.5v-112q0 -96 42 -145t133 -49t133 49t42 145v579h403v-579
q0 -93 -17 -167t-58.5 -137t-107 -104.5t-165 -65t-230.5 -23.5z" />
    <glyph glyph-name="uni0196" unicode="&#x196;" horiz-adv-x="669" 
d="M90 445v989h423v-963q0 -24 0.5 -35t4 -30.5t11 -29t22 -17t36.5 -7.5h32v-352h-132q-75 0 -135 13.5t-101 36t-71 57.5t-47 70.5t-27 84t-13 89.5t-3 94z" />
    <glyph glyph-name="uni0197" unicode="&#x197;" horiz-adv-x="985" 
d="M50 585v352h231v497h423v-497h231v-352h-231v-585h-423v585h-231z" />
    <glyph glyph-name="uni0198" unicode="&#x198;" horiz-adv-x="1518" 
d="M513 948l490 486h508l-602 -597l609 -837h-481l-407 560l-117 -116v-444h-423v937q0 72 4.5 125t18.5 107.5t38 93t64 72.5t95.5 54.5t133 32.5t176.5 12v-352q-62 0 -84.5 -33.5t-22.5 -100.5z" />
    <glyph glyph-name="uni0199" unicode="&#x199;" horiz-adv-x="1310" 
d="M493 747l318 299h496l-479 -451l482 -595h-457l-286 354l-74 -68v-286h-403v1014q0 532 440 532q164 0 285 -57l-96 -269q-59 23 -111 23q-28 0 -48.5 -9.5t-32.5 -29.5t-19.5 -38.5t-10.5 -50t-3.5 -50t-0.5 -51.5v-267z" />
    <glyph glyph-name="uni019A" unicode="&#x19a;" horiz-adv-x="831" 
d="M0 697v303h214v516h403v-516h214v-303h-214v-256q0 -31 0.5 -45t4 -36t11 -31.5t22 -17.5t36.5 -8h32v-303h-132q-75 0 -134.5 13.5t-98.5 33.5t-67 54.5t-42.5 66t-22.5 79t-10 82.5t-2 86v282h-214z" />
    <glyph glyph-name="uni019B" unicode="&#x19b;" horiz-adv-x="1312" 
d="M823 1092l459 -1092h-431l-195 603l-195 -603h-431l397 950l-168 -61l-103 285l202 73q-40 28 -105 28q-51 0 -103 -23l-110 272q132 54 262 54q160 0 254 -54t147 -153l230 83l103 -285z" />
    <glyph glyph-name="uni019C" unicode="&#x19c;" horiz-adv-x="2153" 
d="M2063 1434v-1434h-422v71q-22 -58 -85.5 -84.5t-141.5 -26.5q-148 0 -234 46t-134 131q-19 -31 -36.5 -53t-49.5 -47t-70.5 -40.5t-97.5 -26t-133 -10.5q-262 0 -415.5 154t-153.5 451v869h423v-859q0 -140 44 -201.5t132 -61.5q87 0 131.5 62t44.5 201v859h423v-859
q0 -140 44 -201.5t132 -61.5q87 0 131.5 62t44.5 201v859h423z" />
    <glyph glyph-name="uni019D" unicode="&#x19d;" horiz-adv-x="1600" 
d="M117 0h423q0 -142 -26 -237.5t-90.5 -164t-175.5 -99.5t-278 -31v352q91 0 119 39t28 141zM117 0v1434h495l475 -807v807h423v-1434h-495l-475 807v-807h-423z" />
    <glyph glyph-name="uni019E" unicode="&#x19e;" 
d="M493 579v-579h-403v1046h403v-107q36 66 115 101.5t168 35.5q230 0 349.5 -133.5t119.5 -363.5v-1111h-403v1111q0 96 -42 145t-133 49t-132.5 -49t-41.5 -145z" />
    <glyph glyph-name="uni019F" unicode="&#x19f;" horiz-adv-x="1672" 
d="M836 1474q157 0 287 -38.5t221.5 -107t154.5 -164t93 -208t30 -239.5t-30 -239.5t-93 -208t-154.5 -164t-221.5 -107t-287 -38.5t-287 38.5t-221.5 107t-154.5 164t-93 208t-30 239.5t30 239.5t93 208t154.5 164t221.5 107t287 38.5zM836 312q130 0 212.5 62t118.5 167
h-662q36 -105 118.5 -167t212.5 -62zM836 1122q-129 0 -211.5 -62.5t-119.5 -166.5h662q-37 104 -119.5 166.5t-211.5 62.5z" />
    <glyph glyph-name="Ohorn" unicode="&#x1a0;" horiz-adv-x="1765" 
d="M836 1474q209 0 372 -69q114 37 114 219h393q0 -178 -56 -287.5t-165 -163.5q128 -188 128 -456q0 -127 -30 -239.5t-93 -208t-154.5 -164t-221.5 -107t-287 -38.5t-287 38.5t-221.5 107t-154.5 164t-93 208t-30 239.5t30 239.5t93 208t154.5 164t221.5 107t287 38.5z
M836 1122q-76 0 -137 -22.5t-102 -61t-68.5 -91t-39.5 -110t-12 -120.5t12 -120.5t39.5 -110t68.5 -91t102 -61t137 -22.5t137 22.5t102 61t68.5 91t39.5 110t12 120.5t-12 120.5t-39.5 110t-68.5 91t-102 61t-137 22.5z" />
    <glyph glyph-name="ohorn" unicode="&#x1a1;" horiz-adv-x="1462" 
d="M700 -30q-300 0 -475 146t-175 407t175 407t475 146q157 0 277 -40q66 12 93.5 58t27.5 131h364q0 -293 -183 -419q71 -121 71 -283q0 -261 -175 -407t-475 -146zM700 273q111 0 179 66t68 184t-68 184t-179 66t-179 -66t-68 -184t68 -184t179 -66z" />
    <glyph glyph-name="uni01A2" unicode="&#x1a2;" horiz-adv-x="2380" 
d="M836 1474q304 0 503 -142q159 142 428 142q523 0 523 -539v-935h-423v935q0 90 -31 138.5t-119 48.5q-90 0 -157 -72q62 -154 62 -333q0 -127 -30 -239.5t-93 -208t-154.5 -164t-221.5 -107t-287 -38.5t-287 38.5t-221.5 107t-154.5 164t-93 208t-30 239.5t30 239.5
t93 208t154.5 164t221.5 107t287 38.5zM836 1122q-76 0 -137 -22.5t-102 -61t-68.5 -91t-39.5 -110t-12 -120.5t12 -120.5t39.5 -110t68.5 -91t102 -61t137 -22.5t137 22.5t102 61t68.5 91t39.5 110t12 120.5t-12 120.5t-39.5 110t-68.5 91t-102 61t-137 22.5z" />
    <glyph glyph-name="uni01A3" unicode="&#x1a3;" horiz-adv-x="2046" 
d="M700 -30q-300 0 -475 146t-175 407t175 407t475 146q238 0 398 -93q63 36 162.5 64.5t215.5 28.5q112 0 196 -26.5t137.5 -72t87 -114t46.5 -145.5t13 -174v-1076h-403v1076q0 47 -2 77t-9 62t-20 49.5t-36.5 29t-57.5 11.5q-64 0 -120 -27q42 -104 42 -223
q0 -261 -175 -407t-475 -146zM700 273q111 0 179 66t68 184t-68 184t-179 66t-179 -66t-68 -184t68 -184t179 -66z" />
    <glyph glyph-name="uni01A4" unicode="&#x1a4;" horiz-adv-x="1890" 
d="M962 0h-423v1102h-27q-104 0 -104 -137h-408q0 91 20 165t50 121.5t74.5 83t85.5 54t91 29.5t82.5 13.5t68.5 2.5h720q301 0 464.5 -141t163.5 -398t-163.5 -398t-464.5 -141h-230v-356zM1192 1081h-230v-372h230q102 0 151.5 50t49.5 136t-49.5 136t-151.5 50z" />
    <glyph glyph-name="uni01A5" unicode="&#x1a5;" horiz-adv-x="1458" 
d="M90 -532v1578h403v-125q112 155 334 155q72 0 142 -14q15 46 37.5 86.5t59.5 80t84 67.5t113.5 45.5t144.5 17.5v-359q-128 0 -128 -130q100 -140 100 -347q0 -256 -147.5 -404.5t-405.5 -148.5q-222 0 -334 155v-657h-403zM735 273q110 0 176 69t66 181q0 111 -66 180.5
t-176 69.5t-176 -69.5t-66 -180.5q0 -112 66 -181t176 -69z" />
    <glyph glyph-name="uni01A6" unicode="&#x1a6;" horiz-adv-x="1434" 
d="M513 0h-423v1434h423v-203h210q144 0 259 -28t204 -87.5t137 -159.5t48 -236q0 -67 -18.5 -126.5t-47.5 -101.5t-67.5 -77t-74 -56t-71.5 -35l292 -527h-455l-242 443h-174v-240zM723 878h-210v-316h210q116 0 168.5 37t52.5 121t-53 121t-168 37z" />
    <glyph glyph-name="uni01A7" unicode="&#x1a7;" horiz-adv-x="1314" 
d="M257 1044l-191 285q241 145 599 145q150 0 264 -35.5t182 -98.5t101.5 -143.5t33.5 -176.5q0 -176 -135.5 -293t-419.5 -176q-124 -25 -179 -51t-55 -78q0 -65 59.5 -87.5t178.5 -22.5q212 0 398 118l191 -285q-239 -185 -609 -185q-111 0 -204.5 15t-176 49.5
t-140.5 86.5t-91 131.5t-33 179.5q0 84 26 151t72 115.5t120 87.5t160 66.5t201 51.5q57 12 88.5 20.5t63 23t45 34.5t13.5 48q0 53 -48.5 77.5t-125.5 24.5q-206 0 -388 -78z" />
    <glyph glyph-name="uni01A8" unicode="&#x1a8;" horiz-adv-x="1095" 
d="M218 712l-147 255q184 109 490 109q219 0 340 -86.5t121 -244.5q0 -143 -111.5 -222t-343.5 -126q-74 -15 -104 -27t-30 -37q0 -60 148 -60q180 0 337 81l147 -255q-99 -65 -232.5 -97t-261.5 -32q-88 0 -163.5 9.5t-147 33t-121 60.5t-79.5 96.5t-30 135.5q0 69 23 123
t61 91.5t100 66.5t127.5 48t155.5 36q84 18 105 32q17 12 17 27q0 26 -23 35t-75 9q-164 0 -303 -61z" />
    <glyph glyph-name="uni01A9" unicode="&#x1a9;" horiz-adv-x="1266" 
d="M70 1434h1116v-352h-563l308 -365l-309 -365h574v-352h-1126v259l386 458l-386 459v258z" />
    <glyph glyph-name="uni01AA" unicode="&#x1aa;" horiz-adv-x="852" 
d="M50 1193q0 133 95 228t228 95t228 -95t95 -228v-752q0 -31 0.5 -45t4 -36t11 -31.5t22 -17.5t36.5 -8h32v-303h-132q-75 0 -134.5 13.5t-98.5 33.5t-67 54.5t-42.5 66t-22.5 79t-10 82.5t-2 86v465q-106 26 -174.5 113t-68.5 200zM304 1193q0 -29 20 -49t49 -20t49 20
t20 49t-20 49t-49 20t-49 -20t-20 -49z" />
    <glyph glyph-name="uni01AB" unicode="&#x1ab;" horiz-adv-x="981" 
d="M30 743v303h184v298h403v-298h270v-303h-270v-283q0 -110 27 -153.5t103 -43.5q118 0 204 41v-283q0 -55 -3 -96.5t-14 -96t-30.5 -95t-55.5 -82t-85.5 -67.5t-124 -43t-167.5 -17v299q85 0 120 33.5t35 114.5q-117 6 -197 39t-127 96t-67.5 148.5t-20.5 205.5v283h-184z
" />
    <glyph glyph-name="uni01AC" unicode="&#x1ac;" horiz-adv-x="1542" 
d="M519 1434h993v-352h-469v-1082h-423v1082h-101q-46 0 -71 -25t-25 -86h-393q0 85 17.5 154.5t46 116.5t70 83t83.5 56t93 32.5t92.5 16.5t86.5 4z" />
    <glyph glyph-name="uni01AD" unicode="&#x1ad;" horiz-adv-x="971" 
d="M30 743v303h184q14 500 440 500q170 0 285 -57l-91 -274q-52 28 -116 28q-37 0 -61 -17t-35 -48.5t-15 -61.5t-4 -70h270v-303h-270v-283q0 -110 27 -153.5t103 -43.5q55 0 115 21l79 -262q-119 -52 -262 -52q-132 0 -222.5 30.5t-143.5 94t-76 151.5t-23 214v283h-184z
" />
    <glyph glyph-name="uni01AE" unicode="&#x1ae;" horiz-adv-x="1421" 
d="M30 1434h1361v-352h-469v-1082q0 -102 28 -141t119 -39v-352q-167 0 -278 31t-175.5 99.5t-90.5 164t-26 237.5v1082h-469v352z" />
    <glyph glyph-name="Uhorn" unicode="&#x1af;" horiz-adv-x="1804" 
d="M771 -40q-681 0 -681 701v773h423v-773q0 -71 5.5 -120.5t21.5 -95.5t44 -73.5t75 -43.5t112 -16t112 16t75 43.5t44 73.5t21.5 95.5t5.5 120.5v773h360q76 0 111.5 38t35.5 124h398q0 -226 -126.5 -349.5t-355.5 -138.5v-447q0 -701 -681 -701z" />
    <glyph glyph-name="uhorn" unicode="&#x1b0;" horiz-adv-x="1648" 
d="M842 467v579h362q64 3 101.5 31.5t37.5 101.5h335q0 -104 -27.5 -181.5t-68.5 -121.5t-102.5 -71.5t-115 -37t-119.5 -12.5v-755h-403v107q-36 -66 -115.5 -101.5t-167.5 -35.5q-230 0 -349.5 133t-119.5 364v579h403v-579q0 -96 42 -145t133 -49t132.5 49t41.5 145z" />
    <glyph glyph-name="uni01B1" unicode="&#x1b1;" horiz-adv-x="1842" 
d="M921 -40q-200 0 -358.5 47t-261.5 131.5t-157 201.5t-54 259q0 90 32 170.5t86.5 140.5t121.5 103t143 69h-302v352h681v-332q-178 -98 -258.5 -201.5t-80.5 -251.5q0 -154 106.5 -245.5t301.5 -91.5t301.5 91.5t106.5 245.5q0 148 -80.5 251.5t-258.5 201.5v332h681
v-352h-302q76 -26 143 -69.5t121.5 -103t86.5 -140t32 -170.5q0 -142 -54 -259t-157 -201.5t-261.5 -131.5t-358.5 -47z" />
    <glyph glyph-name="uni01B2" unicode="&#x1b2;" horiz-adv-x="1354" 
d="M446 1434l335 -915q58 117 104 257t46 211q0 49 -30 68t-92 19v360q103 0 182 -11.5t149.5 -41t116 -78t71.5 -125.5t26 -181q0 -138 -91.5 -376t-285.5 -621h-410l-567 1434h446z" />
    <glyph glyph-name="uni01B3" unicode="&#x1b3;" horiz-adv-x="1462" 
d="M541 1177l149 -233l314 490h458l-560 -865v-569h-424v569l-224 346q-41 63 -95.5 83t-158.5 20v416q98 3 173 -6.5t128 -28t97.5 -54t75 -73t67.5 -95.5z" />
    <glyph glyph-name="uni01B4" unicode="&#x1b4;" horiz-adv-x="1239" 
d="M282 -532q-148 0 -272 54l114 280q64 -31 119 -31q36 0 62 10.5t45.5 34.5t32 48t28.5 65l27 71l-438 1046h411l215 -603l104 290q19 61 40.5 106t61 89t91.5 70t132.5 40t183.5 8v-353q-56 0 -92 -14t-53.5 -34.5t-33.5 -56.5l-365 -870q-26 -58 -58 -100t-80 -77.5
t-117 -54t-158 -18.5z" />
    <glyph glyph-name="uni01B5" unicode="&#x1b5;" horiz-adv-x="1405" 
d="M681 352h654v-352h-1265v209l257 344h-126v352h389l133 177h-633v352h1245v-209l-240 -320h125v-352h-389z" />
    <glyph glyph-name="uni01B6" unicode="&#x1b6;" horiz-adv-x="1165" 
d="M70 0v173l173 205h-92v303h348l53 62h-456v303h999v-175l-162 -190h79v-303h-336l-63 -75h482v-303h-1025z" />
    <glyph glyph-name="uni01B7" unicode="&#x1b7;" horiz-adv-x="1346" 
d="M50 152l204 279q69 -51 164 -85t203 -34q252 0 252 163q0 40 -11 68t-43.5 46t-60 28t-92.5 14t-108 5t-137 1h-16v246l264 199h-520v352h1079v-315l-300 -240q73 -15 134 -43t116 -74t86.5 -119.5t31.5 -167.5q0 -116 -38 -208.5t-117 -162t-211 -107t-309 -37.5
q-372 0 -571 192z" />
    <glyph glyph-name="uni01B8" unicode="&#x1b8;" horiz-adv-x="1346" 
d="M1092 431l204 -279q-199 -192 -571 -192q-177 0 -309 37.5t-211 107t-117 162t-38 208.5q0 94 31.5 167.5t86.5 119.5t116 74t134 43l-300 240v315h1079v-352h-520l264 -199v-246q-237 0 -310 -12q-119 -19 -147 -87q-11 -27 -11 -63q0 -163 252 -163q107 0 202.5 34.5
t164.5 84.5z" />
    <glyph glyph-name="uni01B9" unicode="&#x1b9;" horiz-adv-x="1292" 
d="M1062 -112l180 -245q-44 -42 -105.5 -78t-173 -66.5t-240.5 -30.5q-314 0 -493.5 145.5t-179.5 386.5q0 92 29.5 167t73.5 123t106.5 85t117.5 55.5t117 30.5l-363 346v239h1012v-303h-512l324 -299v-216q-102 0 -175.5 -5.5t-138.5 -20t-104 -39.5t-61.5 -66t-22.5 -97
q0 -109 66 -169t204 -60q193 0 339 117z" />
    <glyph glyph-name="uni01BA" unicode="&#x1ba;" horiz-adv-x="1279" 
d="M556 -432q-72 0 -99 -21.5t-27 -57.5q0 -97 175 -97q88 0 145 15v-303q-55 -15 -145 -15q-125 0 -224.5 23.5t-174.5 71t-115.5 126t-40.5 182.5q0 60 16.5 113.5t54.5 102.5t95 85t144.5 57t195.5 21q270 0 270 189q0 42 -14 73t-46 51.5t-70 33.5t-100.5 19.5
t-122.5 8.5t-149 2v216l314 279h-502v303h1012v-239l-353 -326q43 -7 78.5 -15t82 -24t83 -36.5t73.5 -53t61.5 -72.5t40 -96.5t15.5 -123.5q0 -236 -176.5 -364t-496.5 -128z" />
    <glyph glyph-name="uni01BB" unicode="&#x1bb;" horiz-adv-x="1311" 
d="M189 488v352h526q85 87 85 160q0 122 -155 122q-133 0 -214 -175l-361 129q22 57 49.5 106.5t76.5 105.5t108.5 95t148 65t192.5 26q263 0 420.5 -123t157.5 -351q0 -89 -28 -160h46v-352h-359l-157 -136h516v-352h-1166v281l239 207h-125z" />
    <glyph glyph-name="uni01BC" unicode="&#x1bc;" horiz-adv-x="1460" 
d="M1294 1434v-352h-628l-8 -141q58 8 112 8q640 0 640 -496q0 -493 -660 -493q-388 0 -590 193l252 254q151 -95 338 -95q113 0 165 33t52 108q0 73 -45 108.5t-152 35.5q-211 0 -411 -42q-86 -17 -158 -42l33 569h-184v352h1244z" />
    <glyph glyph-name="uni01BD" unicode="&#x1bd;" horiz-adv-x="1118" 
d="M1001 1046v-303h-449l-5 -66q256 8 398.5 -81.5t142.5 -263.5q0 -168 -129 -265t-387 -97q-273 0 -442 103l147 240q124 -50 295 -50q113 0 113 69q0 54 -113 54q-132 0 -245.5 -17t-177.5 -37l30 411h-149v303h971z" />
    <glyph glyph-name="uni01BE" unicode="&#x1be;" horiz-adv-x="1284" 
d="M50 251l330 182q107 -121 263 -121q78 0 123 30.5t45 83.5q0 86 -101.5 123t-297.5 41v169h-209v251h209v36h423v-36h209v-251h-73q263 -100 263 -353q0 -195 -157 -320.5t-434 -125.5q-107 0 -201 23t-155.5 54.5t-113.5 75.5t-77.5 75t-45.5 63z" />
    <glyph glyph-name="uni01BF" unicode="&#x1bf;" horiz-adv-x="1290" 
d="M90 -532v1578h387v-80q79 110 260 110q231 0 367 -116.5t136 -346.5q0 -119 -49 -220t-126.5 -168.5t-178.5 -117t-199 -74.5t-194 -33v-532h-403zM677 773q-101 0 -142.5 -51.5t-41.5 -153.5v-333q51 7 97 21.5t92 43.5t79.5 68.5t54.5 100t21 134.5q0 86 -44 128
t-116 42z" />
    <glyph glyph-name="uni01C0" unicode="&#x1c0;" horiz-adv-x="603" 
d="M90 0v1434h423v-1434h-423z" />
    <glyph glyph-name="uni01C1" unicode="&#x1c1;" horiz-adv-x="1141" 
d="M628 0v1434h423v-1434h-423zM90 0v1434h423v-1434h-423z" />
    <glyph glyph-name="uni01C2" unicode="&#x1c2;" horiz-adv-x="1079" 
d="M70 351v352h939v-352h-939zM70 763v352h939v-352h-939zM328 0v1434h423v-1434h-423z" />
    <glyph glyph-name="uni01C3" unicode="&#x1c3;" horiz-adv-x="613" 
d="M120 482l-30 952h433l-30 -952h-373zM96 190q0 87 61.5 148.5t148.5 61.5t148.5 -61.5t61.5 -148.5t-61.5 -148.5t-148.5 -61.5t-148.5 61.5t-61.5 148.5z" />
    <glyph glyph-name="uni01C4" unicode="&#x1c4;" horiz-adv-x="2840" 
d="M2116 352h654v-352h-1265v209l653 873h-633v352h1245v-209zM1465 717q0 -125 -24.5 -230t-81 -196.5t-142 -155t-213.5 -99.5t-290 -36h-624v1434h624q162 0 290 -36t213.5 -100t142 -155t81 -196.5t24.5 -229.5zM513 1082v-730h201q168 0 247 90.5t79 274.5t-79 274.5
t-247 90.5h-201z" />
    <glyph glyph-name="uni01C5" unicode="&#x1c5;" horiz-adv-x="2650" 
d="M1465 717q0 -125 -24.5 -230t-81 -196.5t-142 -155t-213.5 -99.5t-290 -36h-624v1434h624q162 0 290 -36t213.5 -100t142 -155t81 -196.5t24.5 -229.5zM513 1082v-730h201q168 0 247 90.5t79 274.5t-79 274.5t-247 90.5h-201zM1555 0v173l482 570h-456v303h999v-175
l-482 -568h482v-303h-1025z" />
    <glyph glyph-name="uni01C6" unicode="&#x1c6;" horiz-adv-x="2558" 
d="M1340 1516v-1516h-403v125q-112 -155 -334 -155q-258 0 -405.5 148.5t-147.5 404.5t147.5 404.5t405.5 148.5q222 0 334 -155v595h403zM695 773q-110 0 -176 -69.5t-66 -180.5q0 -112 66 -181t176 -69t176 69t66 181q0 111 -66 180.5t-176 69.5zM1463 0v173l482 570h-456
v303h999v-175l-482 -568h482v-303h-1025z" />
    <glyph glyph-name="uni01C7" unicode="&#x1c7;" horiz-adv-x="2490" 
d="M513 1434v-1082h687v-352h-1110v1434h423zM1256 343l376 100q54 -131 175 -131q170 0 170 187v935h423v-935q0 -140 -40 -244t-116 -168.5t-180 -95.5t-237 -31q-478 0 -571 383z" />
    <glyph glyph-name="uni01C8" unicode="&#x1c8;" horiz-adv-x="1881" 
d="M513 1434v-1082h687v-352h-1110v1434h423zM1066 -475l96 269q59 -23 111 -23q28 0 48.5 9.5t32.5 29.5t19.5 38.5t10.5 50t3.5 50t0.5 51.5v1046h403v-1046q0 -532 -440 -532q-163 0 -285 57zM1393 1344q0 81 57.5 138.5t138.5 57.5t138.5 -57.5t57.5 -138.5
t-57.5 -138.5t-138.5 -57.5t-138.5 57.5t-57.5 138.5z" />
    <glyph glyph-name="uni01C9" unicode="&#x1c9;" horiz-adv-x="1308" 
d="M90 415v1101h403v-1075q0 -31 0.5 -45t4 -36t11 -31.5t22 -17.5t36.5 -8h32v-303h-132q-75 0 -134.5 13.5t-98.5 33.5t-67 54.5t-42.5 66t-22.5 79t-10 82.5t-2 86zM493 -475l96 269q59 -23 111 -23q28 0 48.5 9.5t32.5 29.5t19.5 38.5t10.5 50t3.5 50t0.5 51.5v1046h403
v-1046q0 -532 -440 -532q-164 0 -285 57zM820 1344q0 81 57.5 138.5t138.5 57.5t138.5 -57.5t57.5 -138.5t-57.5 -138.5t-138.5 -57.5t-138.5 57.5t-57.5 138.5z" />
    <glyph glyph-name="uni01CA" unicode="&#x1ca;" horiz-adv-x="2802" 
d="M90 0v1434h495l475 -807v807h423v-1434h-495l-475 807v-807h-423zM1568 343l376 100q54 -131 175 -131q170 0 170 187v935h423v-935q0 -140 -40 -244t-116 -168.5t-180 -95.5t-237 -31q-478 0 -571 383z" />
    <glyph glyph-name="uni01CB" unicode="&#x1cb;" horiz-adv-x="2262" 
d="M90 0v1434h495l475 -807v807h423v-1434h-495l-475 807v-807h-423zM1447 -475l96 269q59 -23 111 -23q28 0 48.5 9.5t32.5 29.5t19.5 38.5t10.5 50t3.5 50t0.5 51.5v1046h403v-1046q0 -532 -440 -532q-164 0 -285 57zM1774 1344q0 81 57.5 138.5t138.5 57.5t138.5 -57.5
t57.5 -138.5t-57.5 -138.5t-138.5 -57.5t-138.5 57.5t-57.5 138.5z" />
    <glyph glyph-name="uni01CC" unicode="&#x1cc;" horiz-adv-x="1935" 
d="M493 579v-579h-403v1046h403v-107q36 66 115 101.5t168 35.5q230 0 349.5 -133.5t119.5 -363.5v-579h-403v579q0 96 -42 145t-133 49t-132.5 -49t-41.5 -145zM1120 -475l96 269q59 -23 111 -23q28 0 48.5 9.5t32.5 29.5t19.5 38.5t10.5 50t3.5 50t0.5 51.5v1046h403
v-1046q0 -532 -440 -532q-163 0 -285 57zM1447 1344q0 81 57.5 138.5t138.5 57.5t138.5 -57.5t57.5 -138.5t-57.5 -138.5t-138.5 -57.5t-138.5 57.5t-57.5 138.5z" />
    <glyph glyph-name="uni01CD" unicode="&#x1cd;" horiz-adv-x="1602" 
d="M536 232l-90 -232h-446l587 1434h428l587 -1434h-446l-90 232h-530zM801 915l-140 -361h280zM1265 1827l-311 -291h-306l-311 291h318l146 -99l146 99h318z" />
    <glyph glyph-name="uni01CE" unicode="&#x1ce;" horiz-adv-x="1248" 
d="M50 323q0 110 62.5 187.5t168 114.5t224 49.5t250.5 2.5q0 44 -11 66.5t-52 36t-122 13.5q-166 0 -315 -56l-129 246q179 93 482 93q147 0 247 -22t169.5 -74.5t101.5 -139.5t32 -217v-623h-403v121q-83 -145 -319 -145q-178 0 -282 93t-104 254zM453 344q0 -85 115 -85
q50 0 88.5 14.5t58.5 37t30 45.5t10 44v55q-46 6 -99 3t-98 -11.5t-75 -35.5t-30 -67zM1112 1434l-311 -291h-306l-311 291h318l146 -99l146 99h318z" />
    <glyph glyph-name="uni01CF" unicode="&#x1cf;" horiz-adv-x="868" 
d="M223 0v1434h423v-1434h-423zM898 1827l-311 -291h-306l-311 291h318l146 -99l146 99h318z" />
    <glyph glyph-name="uni01D0" unicode="&#x1d0;" horiz-adv-x="808" 
d="M203 0v1046h403v-1046h-403zM868 1434l-311 -291h-306l-311 291h318l146 -99l146 99h318z" />
    <glyph glyph-name="uni01D1" unicode="&#x1d1;" horiz-adv-x="1672" 
d="M836 1474q157 0 287 -38.5t221.5 -107t154.5 -164t93 -208t30 -239.5t-30 -239.5t-93 -208t-154.5 -164t-221.5 -107t-287 -38.5t-287 38.5t-221.5 107t-154.5 164t-93 208t-30 239.5t30 239.5t93 208t154.5 164t221.5 107t287 38.5zM836 1122q-76 0 -137 -22.5t-102 -61
t-68.5 -91t-39.5 -110t-12 -120.5t12 -120.5t39.5 -110t68.5 -91t102 -61t137 -22.5t137 22.5t102 61t68.5 91t39.5 110t12 120.5t-12 120.5t-39.5 110t-68.5 91t-102 61t-137 22.5zM1299 1827l-311 -291h-306l-311 291h318l146 -99l146 99h318z" />
    <glyph glyph-name="uni01D2" unicode="&#x1d2;" horiz-adv-x="1400" 
d="M700 -30q-300 0 -475 146t-175 407t175 407t475 146t475 -146t175 -407t-175 -407t-475 -146zM700 273q111 0 179 66t68 184t-68 184t-179 66t-179 -66t-68 -184t68 -184t179 -66zM1164 1434l-311 -291h-306l-311 291h318l146 -99l146 99h318z" />
    <glyph glyph-name="uni01D3" unicode="&#x1d3;" horiz-adv-x="1542" 
d="M771 -40q-681 0 -681 701v773h423v-773q0 -71 5.5 -120.5t21.5 -95.5t44 -73.5t75 -43.5t112 -16t112 16t75 43.5t44 73.5t21.5 95.5t5.5 120.5v773h423v-773q0 -701 -681 -701zM1234 1827l-311 -291h-306l-311 291h318l146 -99l146 99h318z" />
    <glyph glyph-name="uni01D4" unicode="&#x1d4;" 
d="M842 467v579h403v-1046h-403v107q-36 -66 -115.5 -101.5t-167.5 -35.5q-230 0 -349.5 133t-119.5 364v579h403v-579q0 -96 42 -145t133 -49t132.5 49t41.5 145zM1132 1434l-311 -291h-306l-311 291h318l146 -99l146 99h318z" />
    <glyph glyph-name="uni01D5" unicode="&#x1d5;" horiz-adv-x="1542" 
d="M771 -40q-681 0 -681 701v773h423v-773q0 -71 5.5 -120.5t21.5 -95.5t44 -73.5t75 -43.5t112 -16t112 16t75 43.5t44 73.5t21.5 95.5t5.5 120.5v773h423v-773q0 -701 -681 -701zM330 1731q0 81 57.5 138.5t138.5 57.5t138.5 -57.5t57.5 -138.5t-57.5 -138.5t-138.5 -57.5
t-138.5 57.5t-57.5 138.5zM821 1731q0 81 57.5 138.5t138.5 57.5t138.5 -57.5t57.5 -138.5t-57.5 -138.5t-138.5 -57.5t-138.5 57.5t-57.5 138.5zM306 1947v303h930v-303h-930z" />
    <glyph glyph-name="uni01D6" unicode="&#x1d6;" 
d="M842 467v579h403v-1046h-403v107q-36 -66 -115.5 -101.5t-167.5 -35.5q-230 0 -349.5 133t-119.5 364v579h403v-579q0 -96 42 -145t133 -49t132.5 49t41.5 145zM227 1344q0 81 57.5 138.5t138.5 57.5t138.5 -57.5t57.5 -138.5t-57.5 -138.5t-138.5 -57.5t-138.5 57.5
t-57.5 138.5zM718 1344q0 81 57.5 138.5t138.5 57.5t138.5 -57.5t57.5 -138.5t-57.5 -138.5t-138.5 -57.5t-138.5 57.5t-57.5 138.5zM203 1560v303h930v-303h-930z" />
    <glyph glyph-name="uni01D7" unicode="&#x1d7;" horiz-adv-x="1542" 
d="M771 -40q-681 0 -681 701v773h423v-773q0 -71 5.5 -120.5t21.5 -95.5t44 -73.5t75 -43.5t112 -16t112 16t75 43.5t44 73.5t21.5 95.5t5.5 120.5v773h423v-773q0 -701 -681 -701zM330 1732q0 81 57.5 138.5t138.5 57.5t138.5 -57.5t57.5 -138.5t-57.5 -138.5t-138.5 -57.5
t-138.5 57.5t-57.5 138.5zM821 1732q0 81 57.5 138.5t138.5 57.5t138.5 -57.5t57.5 -138.5t-57.5 -138.5t-138.5 -57.5t-138.5 57.5t-57.5 138.5zM576 1968l251 310h453l-314 -310h-390z" />
    <glyph glyph-name="uni01D8" unicode="&#x1d8;" 
d="M842 467v579h403v-1046h-403v107q-36 -66 -115.5 -101.5t-167.5 -35.5q-230 0 -349.5 133t-119.5 364v579h403v-579q0 -96 42 -145t133 -49t132.5 49t41.5 145zM228 1344q0 81 57.5 138.5t138.5 57.5t138.5 -57.5t57.5 -138.5t-57.5 -138.5t-138.5 -57.5t-138.5 57.5
t-57.5 138.5zM719 1344q0 81 57.5 138.5t138.5 57.5t138.5 -57.5t57.5 -138.5t-57.5 -138.5t-138.5 -57.5t-138.5 57.5t-57.5 138.5zM474 1580l251 310h453l-314 -310h-390z" />
    <glyph glyph-name="uni01D9" unicode="&#x1d9;" horiz-adv-x="1542" 
d="M771 -40q-681 0 -681 701v773h423v-773q0 -71 5.5 -120.5t21.5 -95.5t44 -73.5t75 -43.5t112 -16t112 16t75 43.5t44 73.5t21.5 95.5t5.5 120.5v773h423v-773q0 -701 -681 -701zM330 1732q0 81 57.5 138.5t138.5 57.5t138.5 -57.5t57.5 -138.5t-57.5 -138.5t-138.5 -57.5
t-138.5 57.5t-57.5 138.5zM821 1732q0 81 57.5 138.5t138.5 57.5t138.5 -57.5t57.5 -138.5t-57.5 -138.5t-138.5 -57.5t-138.5 57.5t-57.5 138.5z" />
    <glyph glyph-name="uni01DA" unicode="&#x1da;" 
d="M842 467v579h403v-1046h-403v107q-36 -66 -115.5 -101.5t-167.5 -35.5q-230 0 -349.5 133t-119.5 364v579h403v-579q0 -96 42 -145t133 -49t132.5 49t41.5 145zM228 1344q0 81 57.5 138.5t138.5 57.5t138.5 -57.5t57.5 -138.5t-57.5 -138.5t-138.5 -57.5t-138.5 57.5
t-57.5 138.5zM719 1344q0 81 57.5 138.5t138.5 57.5t138.5 -57.5t57.5 -138.5t-57.5 -138.5t-138.5 -57.5t-138.5 57.5t-57.5 138.5z" />
    <glyph glyph-name="uni01DB" unicode="&#x1db;" horiz-adv-x="1542" 
d="M771 -40q-681 0 -681 701v773h423v-773q0 -71 5.5 -120.5t21.5 -95.5t44 -73.5t75 -43.5t112 -16t112 16t75 43.5t44 73.5t21.5 95.5t5.5 120.5v773h423v-773q0 -701 -681 -701zM330 1732q0 81 57.5 138.5t138.5 57.5t138.5 -57.5t57.5 -138.5t-57.5 -138.5t-138.5 -57.5
t-138.5 57.5t-57.5 138.5zM821 1732q0 81 57.5 138.5t138.5 57.5t138.5 -57.5t57.5 -138.5t-57.5 -138.5t-138.5 -57.5t-138.5 57.5t-57.5 138.5zM738 2278l251 -310h-390l-314 310h453z" />
    <glyph glyph-name="uni01DC" unicode="&#x1dc;" 
d="M842 467v579h403v-1046h-403v107q-36 -66 -115.5 -101.5t-167.5 -35.5q-230 0 -349.5 133t-119.5 364v579h403v-579q0 -96 42 -145t133 -49t132.5 49t41.5 145zM228 1344q0 81 57.5 138.5t138.5 57.5t138.5 -57.5t57.5 -138.5t-57.5 -138.5t-138.5 -57.5t-138.5 57.5
t-57.5 138.5zM719 1344q0 81 57.5 138.5t138.5 57.5t138.5 -57.5t57.5 -138.5t-57.5 -138.5t-138.5 -57.5t-138.5 57.5t-57.5 138.5zM636 1890l251 -310h-390l-314 310h453z" />
    <glyph glyph-name="uni01DD" unicode="&#x1dd;" horiz-adv-x="1257" 
d="M618 1076q151 0 267.5 -46.5t185 -125.5t102.5 -175.5t34 -205.5q0 -111 -38 -209.5t-109.5 -176t-185.5 -122.5t-256 -45q-288 0 -434 184.5t-132 515.5h752q0 41 -60 77t-175 36q-158 0 -280 -69l-187 215q191 147 516 147zM804 416h-372q0 -59 48 -106t138 -47t138 47
t48 106z" />
    <glyph glyph-name="uni01DE" unicode="&#x1de;" horiz-adv-x="1602" 
d="M536 232l-90 -232h-446l587 1434h428l587 -1434h-446l-90 232h-530zM801 915l-140 -361h280zM360 1732q0 81 57.5 138.5t138.5 57.5t138.5 -57.5t57.5 -138.5t-57.5 -138.5t-138.5 -57.5t-138.5 57.5t-57.5 138.5zM851 1732q0 81 57.5 138.5t138.5 57.5t138.5 -57.5
t57.5 -138.5t-57.5 -138.5t-138.5 -57.5t-138.5 57.5t-57.5 138.5zM336 1968v303h930v-303h-930z" />
    <glyph glyph-name="uni01DF" unicode="&#x1df;" horiz-adv-x="1248" 
d="M50 323q0 110 62.5 187.5t168 114.5t224 49.5t250.5 2.5q0 44 -11 66.5t-52 36t-122 13.5q-166 0 -315 -56l-129 246q179 93 482 93q147 0 247 -22t169.5 -74.5t101.5 -139.5t32 -217v-623h-403v121q-83 -145 -319 -145q-178 0 -282 93t-104 254zM453 344q0 -85 115 -85
q50 0 88.5 14.5t58.5 37t30 45.5t10 44v55q-46 6 -99 3t-98 -11.5t-75 -35.5t-30 -67zM209 1344q0 81 57.5 138.5t138.5 57.5t138.5 -57.5t57.5 -138.5t-57.5 -138.5t-138.5 -57.5t-138.5 57.5t-57.5 138.5zM700 1344q0 81 57.5 138.5t138.5 57.5t138.5 -57.5t57.5 -138.5
t-57.5 -138.5t-138.5 -57.5t-138.5 57.5t-57.5 138.5zM185 1580v303h930v-303h-930z" />
    <glyph glyph-name="uni01E0" unicode="&#x1e0;" horiz-adv-x="1602" 
d="M536 232l-90 -232h-446l587 1434h428l587 -1434h-446l-90 232h-530zM801 915l-140 -361h280zM605 1732q0 81 57.5 138.5t138.5 57.5t138.5 -57.5t57.5 -138.5t-57.5 -138.5t-138.5 -57.5t-138.5 57.5t-57.5 138.5zM336 1968v303h930v-303h-930z" />
    <glyph glyph-name="uni01E1" unicode="&#x1e1;" horiz-adv-x="1248" 
d="M50 323q0 110 62.5 187.5t168 114.5t224 49.5t250.5 2.5q0 44 -11 66.5t-52 36t-122 13.5q-166 0 -315 -56l-129 246q179 93 482 93q147 0 247 -22t169.5 -74.5t101.5 -139.5t32 -217v-623h-403v121q-83 -145 -319 -145q-178 0 -282 93t-104 254zM453 344q0 -85 115 -85
q50 0 88.5 14.5t58.5 37t30 45.5t10 44v55q-46 6 -99 3t-98 -11.5t-75 -35.5t-30 -67zM454 1344q0 81 57.5 138.5t138.5 57.5t138.5 -57.5t57.5 -138.5t-57.5 -138.5t-138.5 -57.5t-138.5 57.5t-57.5 138.5zM185 1580v303h930v-303h-930z" />
    <glyph glyph-name="uni01E2" unicode="&#x1e2;" horiz-adv-x="2344" 
d="M1557 897h659v-343h-659v-202h717v-352h-1140v272h-461l-179 -272h-494l964 1434h1300v-352h-707v-185zM1134 972l-229 -348h229v348zM958 1536v303h930v-303h-930z" />
    <glyph glyph-name="uni01E3" unicode="&#x1e3;" horiz-adv-x="1962" 
d="M1344 -30q-242 0 -391 115q-81 -48 -177.5 -74t-157 -30.5t-142.5 -4.5q-206 0 -316 91.5t-110 255.5q0 110 62.5 187.5t168 114.5t224 49.5t250.5 2.5q0 44 -11 66.5t-52 36t-122 13.5q-166 0 -315 -56l-129 246q179 93 482 93q273 0 400 -85q143 85 336 85
q288 0 434 -184.5t132 -515.5h-752q0 -41 60 -77t175 -36q158 0 280 69l187 -215q-191 -147 -516 -147zM453 344q0 -85 115 -85q50 0 88.5 14.5t58.5 37t30 45.5t10 44v55q-46 6 -99 3t-98 -11.5t-75 -35.5t-30 -67zM1158 630h372q0 59 -48 106t-138 47t-138 -47t-48 -106z
M551 1171v303h930v-303h-930z" />
    <glyph glyph-name="uni01E4" unicode="&#x1e4;" horiz-adv-x="1639" 
d="M836 1474q208 0 357 -47.5t275 -138.5l-201 -268q-192 102 -431 102q-76 0 -137 -22.5t-102 -61t-68.5 -91t-39.5 -110t-12 -120.5q0 -61 11.5 -117t37.5 -107.5t65 -90t96.5 -63t128.5 -27.5v205h250v41h-250v313h626v-354h167v-273h-167v-115q-134 -97 -278 -133
t-328 -36q-157 0 -287 38.5t-221.5 107t-154.5 164t-93 208t-30 239.5t30 239.5t93 208t154.5 164t221.5 107t287 38.5z" />
    <glyph glyph-name="uni01E5" unicode="&#x1e5;" horiz-adv-x="1390" 
d="M732 -221v176h201q4 17 4 45v125q-112 -155 -334 -155q-258 0 -405.5 148.5t-147.5 404.5t147.5 404.5t405.5 148.5q222 0 334 -155v125h403v-1046l-2 -45h112v-303h-226q-167 -192 -546 -184q-366 6 -555 132l147 253q159 -82 368 -82q44 0 94 8zM695 273q110 0 176 69
t66 181q0 111 -66 180.5t-176 69.5t-176 -69.5t-66 -180.5q0 -112 66 -181t176 -69z" />
    <glyph glyph-name="Gcaron" unicode="&#x1e6;" horiz-adv-x="1538" 
d="M836 1474q208 0 357 -47.5t275 -138.5l-201 -268q-192 102 -431 102q-76 0 -137 -22.5t-102 -61t-68.5 -91t-39.5 -110t-12 -120.5t12 -120.5t39.5 -110t68.5 -91t102 -61t137 -22.5q141 0 230 43v203h-250v313h626v-742q-134 -97 -278 -133t-328 -36q-157 0 -287 38.5
t-221.5 107t-154.5 164t-93 208t-30 239.5t30 239.5t93 208t154.5 164t221.5 107t287 38.5zM1298 1827l-311 -291h-306l-311 291h318l146 -99l146 99h318z" />
    <glyph glyph-name="gcaron" unicode="&#x1e7;" horiz-adv-x="1430" 
d="M937 1046h403v-1046q-2 -119 -37 -212t-94 -153.5t-143.5 -99t-179.5 -54t-208 -13.5q-366 6 -555 132l147 253q159 -82 368 -82q138 0 218.5 56t80.5 173v125q-112 -155 -334 -155q-258 0 -405.5 148.5t-147.5 404.5t147.5 404.5t405.5 148.5q222 0 334 -155v125z
M695 273q110 0 176 69t66 181q0 111 -66 180.5t-176 69.5t-176 -69.5t-66 -180.5q0 -112 66 -181t176 -69zM1159 1434l-311 -291h-306l-311 291h318l146 -99l146 99h318z" />
    <glyph glyph-name="uni01E8" unicode="&#x1e8;" horiz-adv-x="1518" 
d="M513 948l490 486h508l-602 -597l609 -837h-481l-407 560l-117 -116v-444h-423v1434h423v-486zM1191 1827l-311 -291h-306l-311 291h318l146 -99l146 99h318z" />
    <glyph glyph-name="uni01E9" unicode="&#x1e9;" horiz-adv-x="1310" 
d="M493 747l318 299h496l-479 -451l482 -595h-457l-286 354l-74 -68v-286h-403v1516h403v-769zM1120 1827l-311 -291h-306l-311 291h318l146 -99l146 99h318z" />
    <glyph glyph-name="uni01EA" unicode="&#x1ea;" horiz-adv-x="1672" 
d="M1128 0h1q-40 -18 -70.5 -46t-45.5 -59t-13 -61.5t20 -53.5t59.5 -35t101.5 -6v-271q-113 -15 -202.5 3t-140.5 60t-79.5 98.5t-28 116.5t23.5 117t66 97q-154 2 -281 41.5t-217 108.5t-151.5 163.5t-91 206t-29.5 237.5q0 127 30 239.5t93 208t154.5 164t221.5 107
t287 38.5t287 -38.5t221.5 -107t154.5 -164t93 -208t30 -239.5q0 -170 -52.5 -311.5t-165 -249t-276.5 -156.5zM836 1122q-76 0 -137 -22.5t-102 -61t-68.5 -91t-39.5 -110t-12 -120.5t12 -120.5t39.5 -110t68.5 -91t102 -61t137 -22.5t137 22.5t102 61t68.5 91t39.5 110
t12 120.5t-12 120.5t-39.5 110t-68.5 91t-102 61t-137 22.5z" />
    <glyph glyph-name="uni01EB" unicode="&#x1eb;" horiz-adv-x="1400" 
d="M50 523q0 261 175 407t475 146t475 -146t175 -407q0 -202 -107.5 -337t-299.5 -186q-40 -18 -70 -46t-45 -59t-13 -61.5t20 -53.5t60 -35t101 -6v-271q-116 -15 -206.5 4.5t-142 63t-78.5 102.5t-24.5 120t29 118.5t73.5 95.5q-277 12 -437 157t-160 394zM700 273
q111 0 179 66t68 184t-68 184t-179 66t-179 -66t-68 -184t68 -184t179 -66z" />
    <glyph glyph-name="uni01EC" unicode="&#x1ec;" horiz-adv-x="1672" 
d="M1128 0h1q-40 -18 -70.5 -46t-45.5 -59t-13 -61.5t20 -53.5t59.5 -35t101.5 -6v-271q-113 -15 -202.5 3t-140.5 60t-79.5 98.5t-28 116.5t23.5 117t66 97q-154 2 -281 41.5t-217 108.5t-151.5 163.5t-91 206t-29.5 237.5q0 127 30 239.5t93 208t154.5 164t221.5 107
t287 38.5t287 -38.5t221.5 -107t154.5 -164t93 -208t30 -239.5q0 -170 -52.5 -311.5t-165 -249t-276.5 -156.5zM836 1122q-76 0 -137 -22.5t-102 -61t-68.5 -91t-39.5 -110t-12 -120.5t12 -120.5t39.5 -110t68.5 -91t102 -61t137 -22.5t137 22.5t102 61t68.5 91t39.5 110
t12 120.5t-12 120.5t-39.5 110t-68.5 91t-102 61t-137 22.5zM371 1516v303h930v-303h-930z" />
    <glyph glyph-name="uni01ED" unicode="&#x1ed;" horiz-adv-x="1400" 
d="M50 523q0 261 175 407t475 146t475 -146t175 -407q0 -202 -107.5 -337t-299.5 -186q-40 -18 -70 -46t-45 -59t-13 -61.5t20 -53.5t60 -35t101 -6v-271q-116 -15 -206.5 4.5t-142 63t-78.5 102.5t-24.5 120t29 118.5t73.5 95.5q-277 12 -437 157t-160 394zM235 1131v303
h930v-303h-930zM700 273q111 0 179 66t68 184t-68 184t-179 66t-179 -66t-68 -184t68 -184t179 -66z" />
    <glyph glyph-name="uni01EE" unicode="&#x1ee;" horiz-adv-x="1346" 
d="M50 152l204 279q69 -51 164 -85t203 -34q252 0 252 163q0 40 -11 68t-43.5 46t-60 28t-92.5 14t-108 5t-137 1h-16v246l264 199h-520v352h1079v-315l-300 -240q73 -15 134 -43t116 -74t86.5 -119.5t31.5 -167.5q0 -116 -38 -208.5t-117 -162t-211 -107t-309 -37.5
q-372 0 -571 192zM1142 1827l-311 -291h-306l-311 291h318l146 -99l146 99h318z" />
    <glyph glyph-name="uni01EF" unicode="&#x1ef;" horiz-adv-x="1292" 
d="M50 -357l180 245q146 -117 339 -117q138 0 204 60t66 169q0 56 -22.5 97t-61.5 66t-104 39.5t-138.5 20t-175.5 5.5v216l324 299h-512v303h1012v-239l-363 -346q62 -12 117 -30.5t117.5 -55t106.5 -84.5t73.5 -123.5t29.5 -167.5q0 -241 -179.5 -386.5t-493.5 -145.5
q-129 0 -240.5 30.5t-173 66.5t-105.5 78zM1115 1434l-311 -291h-306l-311 291h318l146 -99l146 99h318z" />
    <glyph glyph-name="uni01F0" unicode="&#x1f0;" horiz-adv-x="807" 
d="M-120 -475l96 269q59 -23 111 -23q28 0 48.5 9.5t32.5 29.5t19.5 38.5t10.5 50t3.5 50t0.5 51.5v1046h403v-1046q0 -532 -440 -532q-163 0 -285 57zM867 1434l-311 -291h-306l-311 291h318l146 -99l146 99h318z" />
    <glyph glyph-name="uni01F1" unicode="&#x1f1;" horiz-adv-x="2840" 
d="M2116 352h654v-352h-1265v209l653 873h-633v352h1245v-209zM1465 717q0 -125 -24.5 -230t-81 -196.5t-142 -155t-213.5 -99.5t-290 -36h-624v1434h624q162 0 290 -36t213.5 -100t142 -155t81 -196.5t24.5 -229.5zM513 1082v-730h201q168 0 247 90.5t79 274.5t-79 274.5
t-247 90.5h-201z" />
    <glyph glyph-name="uni01F2" unicode="&#x1f2;" horiz-adv-x="2650" 
d="M1465 717q0 -125 -24.5 -230t-81 -196.5t-142 -155t-213.5 -99.5t-290 -36h-624v1434h624q162 0 290 -36t213.5 -100t142 -155t81 -196.5t24.5 -229.5zM513 1082v-730h201q168 0 247 90.5t79 274.5t-79 274.5t-247 90.5h-201zM1555 0v173l482 570h-456v303h999v-175
l-482 -568h482v-303h-1025z" />
    <glyph glyph-name="uni01F3" unicode="&#x1f3;" horiz-adv-x="2558" 
d="M1340 1516v-1516h-403v125q-112 -155 -334 -155q-258 0 -405.5 148.5t-147.5 404.5t147.5 404.5t405.5 148.5q222 0 334 -155v595h403zM695 773q-110 0 -176 -69.5t-66 -180.5q0 -112 66 -181t176 -69t176 69t66 181q0 111 -66 180.5t-176 69.5zM1463 0v173l482 570h-456
v303h999v-175l-482 -568h482v-303h-1025z" />
    <glyph glyph-name="uni01F4" unicode="&#x1f4;" horiz-adv-x="1538" 
d="M836 1474q208 0 357 -47.5t275 -138.5l-201 -268q-192 102 -431 102q-76 0 -137 -22.5t-102 -61t-68.5 -91t-39.5 -110t-12 -120.5t12 -120.5t39.5 -110t68.5 -91t102 -61t137 -22.5q141 0 230 43v203h-250v313h626v-742q-134 -97 -278 -133t-328 -36q-157 0 -287 38.5
t-221.5 107t-154.5 164t-93 208t-30 239.5t30 239.5t93 208t154.5 164t221.5 107t287 38.5zM643 1536l251 310h453l-314 -310h-390z" />
    <glyph glyph-name="uni01F5" unicode="&#x1f5;" horiz-adv-x="1430" 
d="M937 1046h403v-1046q-2 -119 -37 -212t-94 -153.5t-143.5 -99t-179.5 -54t-208 -13.5q-366 6 -555 132l147 253q159 -82 368 -82q138 0 218.5 56t80.5 173v125q-112 -155 -334 -155q-258 0 -405.5 148.5t-147.5 404.5t147.5 404.5t405.5 148.5q222 0 334 -155v125z
M695 273q110 0 176 69t66 181q0 111 -66 180.5t-176 69.5t-176 -69.5t-66 -180.5q0 -112 66 -181t176 -69zM493 1124l251 310h453l-314 -310h-390z" />
    <glyph glyph-name="uni01F6" unicode="&#x1f6;" horiz-adv-x="2311" 
d="M1045 467v87h-532v-554h-423v1434h423v-528h532v528h423v-967q0 -96 42 -145t133 -49t133 49t42 145v579h403v-579q0 -93 -17 -167t-58.5 -137t-107 -104.5t-165 -65t-230.5 -23.5q-137 0 -240.5 23.5t-171 65t-109.5 105t-59.5 137t-17.5 166.5z" />
    <glyph glyph-name="uni01F7" unicode="&#x1f7;" horiz-adv-x="1352" 
d="M90 0v1434h423v-83q38 59 120.5 96t160.5 37q240 0 374 -123.5t134 -347.5q0 -99 -27.5 -185.5t-73.5 -151t-111 -118.5t-134.5 -91t-149.5 -65.5t-150.5 -44.5t-142.5 -25v-332h-423zM704 1132q-42 0 -73.5 -9.5t-59.5 -34t-43 -72.5t-15 -118v-294q366 48 366 353
q0 78 -42.5 126.5t-132.5 48.5z" />
    <glyph glyph-name="uni01F8" unicode="&#x1f8;" horiz-adv-x="1573" 
d="M90 0v1434h495l475 -807v807h423v-1434h-495l-475 807v-807h-423zM753 1846l251 -310h-390l-314 310h453z" />
    <glyph glyph-name="uni01F9" unicode="&#x1f9;" 
d="M493 579v-579h-403v1046h403v-107q36 66 115 101.5t168 35.5q230 0 349.5 -133.5t119.5 -363.5v-579h-403v579q0 96 -42 145t-133 49t-132.5 -49t-41.5 -145zM633 1434l251 -310h-390l-314 310h453z" />
    <glyph glyph-name="Aringacute" unicode="&#x1fa;" horiz-adv-x="1602" 
d="M538 1799q0 97 64 172l209 259h393l-234 -231q94 -79 94 -200q0 -109 -77 -186t-186 -77t-186 77t-77 186zM728 1799q0 -30 21.5 -51.5t51.5 -21.5t51.5 21.5t21.5 51.5t-21.5 51.5t-51.5 21.5t-51.5 -21.5t-21.5 -51.5zM536 232l-90 -232h-446l587 1434h428l587 -1434
h-446l-90 232h-530zM801 915l-140 -361h280z" />
    <glyph glyph-name="aringacute" unicode="&#x1fb;" horiz-adv-x="1248" 
d="M409 1387q0 97 64 172l209 259h393l-234 -231q94 -79 94 -200q0 -109 -77 -186t-186 -77t-186 77t-77 186zM599 1387q0 -30 21.5 -51.5t51.5 -21.5t51.5 21.5t21.5 51.5t-21.5 51.5t-51.5 21.5t-51.5 -21.5t-21.5 -51.5zM50 323q0 110 62.5 187.5t168 114.5t224 49.5
t250.5 2.5q0 44 -11 66.5t-52 36t-122 13.5q-166 0 -315 -56l-129 246q179 93 482 93q147 0 247 -22t169.5 -74.5t101.5 -139.5t32 -217v-623h-403v121q-83 -145 -319 -145q-178 0 -282 93t-104 254zM453 344q0 -85 115 -85q50 0 88.5 14.5t58.5 37t30 45.5t10 44v55
q-46 6 -99 3t-98 -11.5t-75 -35.5t-30 -67z" />
    <glyph glyph-name="AEacute" unicode="&#x1fc;" horiz-adv-x="2344" 
d="M1557 897h659v-343h-659v-202h717v-352h-1140v272h-461l-179 -272h-494l964 1434h1300v-352h-707v-185zM1134 972l-229 -348h229v348zM1021 1536l251 310h453l-314 -310h-390z" />
    <glyph glyph-name="aeacute" unicode="&#x1fd;" horiz-adv-x="1962" 
d="M1344 -30q-242 0 -391 115q-81 -48 -177.5 -74t-157 -30.5t-142.5 -4.5q-206 0 -316 91.5t-110 255.5q0 110 62.5 187.5t168 114.5t224 49.5t250.5 2.5q0 44 -11 66.5t-52 36t-122 13.5q-166 0 -315 -56l-129 246q179 93 482 93q273 0 400 -85q143 85 336 85
q288 0 434 -184.5t132 -515.5h-752q0 -41 60 -77t175 -36q158 0 280 69l187 -215q-191 -147 -516 -147zM453 344q0 -85 115 -85q50 0 88.5 14.5t58.5 37t30 45.5t10 44v55q-46 6 -99 3t-98 -11.5t-75 -35.5t-30 -67zM1158 630h372q0 59 -48 106t-138 47t-138 -47t-48 -106z
M809 1124l251 310h453l-314 -310h-390z" />
    <glyph glyph-name="Oslashacute" unicode="&#x1fe;" horiz-adv-x="1672" 
d="M658 1536l251 310h453l-314 -310h-390zM836 1474q88 0 183 -15l18 36h367l-77 -155q146 -99 220.5 -261.5t74.5 -361.5q0 -127 -30 -239.5t-93 -208t-154.5 -164t-221.5 -107t-287 -38.5q-89 0 -184 15l-17 -36h-367l76 155q-146 100 -220 262t-74 361q0 127 30 239.5
t93 208t154.5 164t221.5 107t287 38.5zM836 1122q-76 0 -137 -22.5t-102 -61t-68.5 -91t-39.5 -110t-12 -120.5q0 -139 57 -240l318 644q-2 0 -8 0.5t-8 0.5zM819 312h17q76 0 137 22.5t102 61t68.5 91t39.5 110t12 120.5q0 136 -57 240z" />
    <glyph glyph-name="oslashacute" unicode="&#x1ff;" horiz-adv-x="1400" 
d="M476 1124l251 310h453l-314 -310h-390zM700 -30q-59 0 -113 6l-18 -37h-312l57 117q-264 143 -264 467q0 261 175 407t475 146q59 0 113 -6l18 37h312l-58 -117q265 -144 265 -467q0 -261 -175 -407t-475 -146zM947 523q0 75 -28 128l-185 -377q97 10 155 75t58 174z
M453 523q0 -74 28 -129l185 377q-97 -10 -155 -75t-58 -173z" />
    <glyph glyph-name="uni0200" unicode="&#x200;" horiz-adv-x="1602" 
d="M536 232l-90 -232h-446l587 1434h428l587 -1434h-446l-90 232h-530zM801 915l-140 -361h280zM458 1536l91 342h349l-149 -342h-291zM862 1536l91 342h349l-149 -342h-291z" />
    <glyph glyph-name="uni0201" unicode="&#x201;" horiz-adv-x="1248" 
d="M50 323q0 110 62.5 187.5t168 114.5t224 49.5t250.5 2.5q0 44 -11 66.5t-52 36t-122 13.5q-166 0 -315 -56l-129 246q179 93 482 93q147 0 247 -22t169.5 -74.5t101.5 -139.5t32 -217v-623h-403v121q-83 -145 -319 -145q-178 0 -282 93t-104 254zM453 344q0 -85 115 -85
q50 0 88.5 14.5t58.5 37t30 45.5t10 44v55q-46 6 -99 3t-98 -11.5t-75 -35.5t-30 -67zM287 1174l91 342h349l-149 -342h-291zM691 1174l91 342h349l-149 -342h-291z" />
    <glyph glyph-name="uni0202" unicode="&#x202;" horiz-adv-x="1602" 
d="M536 232l-90 -232h-446l587 1434h428l587 -1434h-446l-90 232h-530zM801 915l-140 -361h280zM801 1614q-130 0 -162 -78h-252q7 38 21 73t45.5 75.5t74.5 69.5t114 48.5t159 19.5t159 -19.5t114 -48.5t74.5 -69.5t45.5 -75.5t21 -73h-252q-32 78 -162 78z" />
    <glyph glyph-name="uni0203" unicode="&#x203;" horiz-adv-x="1248" 
d="M50 323q0 110 62.5 187.5t168 114.5t224 49.5t250.5 2.5q0 44 -11 66.5t-52 36t-122 13.5q-166 0 -315 -56l-129 246q179 93 482 93q147 0 247 -22t169.5 -74.5t101.5 -139.5t32 -217v-623h-403v121q-83 -145 -319 -145q-178 0 -282 93t-104 254zM453 344q0 -85 115 -85
q50 0 88.5 14.5t58.5 37t30 45.5t10 44v55q-46 6 -99 3t-98 -11.5t-75 -35.5t-30 -67zM652 1226q-130 0 -162 -78h-252q7 38 21 73t45.5 75.5t74.5 69.5t114 48.5t159 19.5t159 -19.5t114 -48.5t74.5 -69.5t45.5 -75.5t21 -73h-252q-32 78 -162 78z" />
    <glyph glyph-name="uni0204" unicode="&#x204;" horiz-adv-x="1310" 
d="M513 897h669v-343h-669v-202h727v-352h-1150v1434h1140v-352h-717v-185zM292 1536l91 342h349l-149 -342h-291zM696 1536l91 342h349l-149 -342h-291z" />
    <glyph glyph-name="uni0205" unicode="&#x205;" horiz-adv-x="1257" 
d="M639 -30q-151 0 -267.5 46.5t-185 125.5t-102.5 175.5t-34 205.5q0 111 38 209.5t109.5 176t185.5 122.5t256 45q288 0 434 -184.5t132 -515.5h-752q0 -41 60 -77t175 -36q158 0 280 69l187 -215q-191 -147 -516 -147zM453 630h372q0 59 -48 106t-138 47t-138 -47
t-48 -106zM300 1174l91 342h349l-149 -342h-291zM704 1174l91 342h349l-149 -342h-291z" />
    <glyph glyph-name="uni0206" unicode="&#x206;" horiz-adv-x="1310" 
d="M513 897h669v-343h-669v-202h727v-352h-1150v1434h1140v-352h-717v-185zM660 1614q-130 0 -162 -78h-252q7 38 21 73t45.5 75.5t74.5 69.5t114 48.5t159 19.5t159 -19.5t114 -48.5t74.5 -69.5t45.5 -75.5t21 -73h-252q-32 78 -162 78z" />
    <glyph glyph-name="uni0207" unicode="&#x207;" horiz-adv-x="1257" 
d="M639 -30q-151 0 -267.5 46.5t-185 125.5t-102.5 175.5t-34 205.5q0 111 38 209.5t109.5 176t185.5 122.5t256 45q288 0 434 -184.5t132 -515.5h-752q0 -41 60 -77t175 -36q158 0 280 69l187 -215q-191 -147 -516 -147zM453 630h372q0 59 -48 106t-138 47t-138 -47
t-48 -106zM656 1226q-130 0 -162 -78h-252q7 38 21 73t45.5 75.5t74.5 69.5t114 48.5t159 19.5t159 -19.5t114 -48.5t74.5 -69.5t45.5 -75.5t21 -73h-252q-32 78 -162 78z" />
    <glyph glyph-name="uni0208" unicode="&#x208;" horiz-adv-x="744" 
d="M163 0v1434h423v-1434h-423zM30 1536l91 342h349l-149 -342h-291zM434 1536l91 342h349l-149 -342h-291z" />
    <glyph glyph-name="uni0209" unicode="&#x209;" horiz-adv-x="744" 
d="M172 0v1046h403v-1046h-403zM30 1174l91 342h349l-149 -342h-291zM434 1174l91 342h349l-149 -342h-291z" />
    <glyph glyph-name="uni020A" unicode="&#x20a;" horiz-adv-x="708" 
d="M143 0v1434h423v-1434h-423zM354 1614q-130 0 -162 -78h-252q7 38 21 73t45.5 75.5t74.5 69.5t114 48.5t159 19.5t159 -19.5t114 -48.5t74.5 -69.5t45.5 -75.5t21 -73h-252q-32 78 -162 78z" />
    <glyph glyph-name="uni020B" unicode="&#x20b;" horiz-adv-x="708" 
d="M153 0v1046h403v-1046h-403zM354 1226q-130 0 -162 -78h-252q7 38 21 73t45.5 75.5t74.5 69.5t114 48.5t159 19.5t159 -19.5t114 -48.5t74.5 -69.5t45.5 -75.5t21 -73h-252q-32 78 -162 78z" />
    <glyph glyph-name="uni020C" unicode="&#x20c;" horiz-adv-x="1672" 
d="M836 1474q157 0 287 -38.5t221.5 -107t154.5 -164t93 -208t30 -239.5t-30 -239.5t-93 -208t-154.5 -164t-221.5 -107t-287 -38.5t-287 38.5t-221.5 107t-154.5 164t-93 208t-30 239.5t30 239.5t93 208t154.5 164t221.5 107t287 38.5zM836 1122q-76 0 -137 -22.5t-102 -61
t-68.5 -91t-39.5 -110t-12 -120.5t12 -120.5t39.5 -110t68.5 -91t102 -61t137 -22.5t137 22.5t102 61t68.5 91t39.5 110t12 120.5t-12 120.5t-39.5 110t-68.5 91t-102 61t-137 22.5zM488 1536l91 342h349l-149 -342h-291zM892 1536l91 342h349l-149 -342h-291z" />
    <glyph glyph-name="uni020D" unicode="&#x20d;" horiz-adv-x="1400" 
d="M700 -30q-300 0 -475 146t-175 407t175 407t475 146t475 -146t175 -407t-175 -407t-475 -146zM700 273q111 0 179 66t68 184t-68 184t-179 66t-179 -66t-68 -184t68 -184t179 -66zM362 1174l91 342h349l-149 -342h-291zM766 1174l91 342h349l-149 -342h-291z" />
    <glyph glyph-name="uni020E" unicode="&#x20e;" horiz-adv-x="1672" 
d="M836 1474q157 0 287 -38.5t221.5 -107t154.5 -164t93 -208t30 -239.5t-30 -239.5t-93 -208t-154.5 -164t-221.5 -107t-287 -38.5t-287 38.5t-221.5 107t-154.5 164t-93 208t-30 239.5t30 239.5t93 208t154.5 164t221.5 107t287 38.5zM836 1122q-76 0 -137 -22.5t-102 -61
t-68.5 -91t-39.5 -110t-12 -120.5t12 -120.5t39.5 -110t68.5 -91t102 -61t137 -22.5t137 22.5t102 61t68.5 91t39.5 110t12 120.5t-12 120.5t-39.5 110t-68.5 91t-102 61t-137 22.5zM836 1614q-130 0 -162 -78h-252q7 38 21 73t45.5 75.5t74.5 69.5t114 48.5t159 19.5
t159 -19.5t114 -48.5t74.5 -69.5t45.5 -75.5t21 -73h-252q-32 78 -162 78z" />
    <glyph glyph-name="uni020F" unicode="&#x20f;" horiz-adv-x="1400" 
d="M700 -30q-300 0 -475 146t-175 407t175 407t475 146t475 -146t175 -407t-175 -407t-475 -146zM700 273q111 0 179 66t68 184t-68 184t-179 66t-179 -66t-68 -184t68 -184t179 -66zM700 1226q-130 0 -162 -78h-252q7 38 21 73t45.5 75.5t74.5 69.5t114 48.5t159 19.5
t159 -19.5t114 -48.5t74.5 -69.5t45.5 -75.5t21 -73h-252q-32 78 -162 78z" />
    <glyph glyph-name="uni0210" unicode="&#x210;" horiz-adv-x="1434" 
d="M513 0h-423v1434h633q144 0 259 -28t204 -87.5t137 -159.5t48 -236q0 -67 -18.5 -126.5t-47.5 -101.5t-67.5 -77t-74 -56t-71.5 -35l292 -527h-455l-246 443h-170v-443zM723 1081h-210v-316h210q116 0 168.5 37t52.5 121q0 83 -53 120.5t-168 37.5zM330 1536l91 342h349
l-149 -342h-291zM734 1536l91 342h349l-149 -342h-291z" />
    <glyph glyph-name="uni0211" unicode="&#x211;" horiz-adv-x="1054" 
d="M1054 1001l-172 -285q-103 57 -215 57q-174 0 -174 -204v-569h-403v1046h403v-107q36 66 115 101.5t168 35.5q166 0 278 -75zM192 1174l91 342h349l-149 -342h-291zM596 1174l91 342h349l-149 -342h-291z" />
    <glyph glyph-name="uni0212" unicode="&#x212;" horiz-adv-x="1434" 
d="M513 0h-423v1434h633q144 0 259 -28t204 -87.5t137 -159.5t48 -236q0 -67 -18.5 -126.5t-47.5 -101.5t-67.5 -77t-74 -56t-71.5 -35l292 -527h-455l-246 443h-170v-443zM723 1081h-210v-316h210q116 0 168.5 37t52.5 121q0 83 -53 120.5t-168 37.5zM659 1614
q-130 0 -162 -78h-252q7 38 21 73t45.5 75.5t74.5 69.5t114 48.5t159 19.5t159 -19.5t114 -48.5t74.5 -69.5t45.5 -75.5t21 -73h-252q-32 78 -162 78z" />
    <glyph glyph-name="uni0213" unicode="&#x213;" horiz-adv-x="1054" 
d="M1054 1001l-172 -285q-103 57 -215 57q-174 0 -174 -204v-569h-403v1046h403v-107q36 66 115 101.5t168 35.5q166 0 278 -75zM577 1226q-130 0 -162 -78h-252q7 38 21 73t45.5 75.5t74.5 69.5t114 48.5t159 19.5t159 -19.5t114 -48.5t74.5 -69.5t45.5 -75.5t21 -73h-252
q-32 78 -162 78z" />
    <glyph glyph-name="uni0214" unicode="&#x214;" horiz-adv-x="1542" 
d="M771 -40q-681 0 -681 701v773h423v-773q0 -71 5.5 -120.5t21.5 -95.5t44 -73.5t75 -43.5t112 -16t112 16t75 43.5t44 73.5t21.5 95.5t5.5 120.5v773h423v-773q0 -701 -681 -701zM423 1536l91 342h349l-149 -342h-291zM827 1536l91 342h349l-149 -342h-291z" />
    <glyph glyph-name="uni0215" unicode="&#x215;" 
d="M842 467v579h403v-1046h-403v107q-36 -66 -115.5 -101.5t-167.5 -35.5q-230 0 -349.5 133t-119.5 364v579h403v-579q0 -96 42 -145t133 -49t132.5 49t41.5 145zM324 1174l91 342h349l-149 -342h-291zM728 1174l91 342h349l-149 -342h-291z" />
    <glyph glyph-name="uni0216" unicode="&#x216;" horiz-adv-x="1542" 
d="M771 -40q-681 0 -681 701v773h423v-773q0 -71 5.5 -120.5t21.5 -95.5t44 -73.5t75 -43.5t112 -16t112 16t75 43.5t44 73.5t21.5 95.5t5.5 120.5v773h423v-773q0 -701 -681 -701zM771 1614q-130 0 -162 -78h-252q7 38 21 73t45.5 75.5t74.5 69.5t114 48.5t159 19.5
t159 -19.5t114 -48.5t74.5 -69.5t45.5 -75.5t21 -73h-252q-32 78 -162 78z" />
    <glyph glyph-name="uni0217" unicode="&#x217;" 
d="M842 467v579h403v-1046h-403v107q-36 -66 -115.5 -101.5t-167.5 -35.5q-230 0 -349.5 133t-119.5 364v579h403v-579q0 -96 42 -145t133 -49t132.5 49t41.5 145zM669 1226q-130 0 -162 -78h-252q7 38 21 73t45.5 75.5t74.5 69.5t114 48.5t159 19.5t159 -19.5t114 -48.5
t74.5 -69.5t45.5 -75.5t21 -73h-252q-32 78 -162 78z" />
    <glyph glyph-name="Scommaaccent" unicode="&#x218;" horiz-adv-x="1314" 
d="M1248 1329l-191 -285q-182 78 -388 78q-77 0 -125.5 -24.5t-48.5 -77.5q0 -28 13.5 -48t45 -34.5t63 -23t88.5 -20.5q115 -24 201 -51.5t160 -66.5t120 -87.5t72 -115.5t26 -151q0 -100 -33 -179.5t-91 -131.5t-140.5 -86.5t-176 -49.5t-204.5 -15q-370 0 -609 185
l191 285q186 -118 398 -118q119 0 178.5 22.5t59.5 87.5q0 52 -55 78t-179 51q-284 59 -419.5 176t-135.5 293q0 96 33.5 176.5t101.5 143.5t182 98.5t264 35.5q355 0 599 -145zM293 -532l153 424h399l-191 -424h-361z" />
    <glyph glyph-name="scommaaccent" unicode="&#x219;" horiz-adv-x="1095" 
d="M1024 967l-147 -255q-142 61 -303 61q-52 0 -75 -9t-23 -35q0 -33 110 -56l12 -3q90 -18 155.5 -36.5t127.5 -48t100 -66.5t61 -91t23 -123q0 -76 -30 -135.5t-79.5 -96.5t-121 -60.5t-147 -33t-163.5 -9.5q-128 0 -262.5 31.5t-231.5 97.5l147 255q157 -81 337 -81
q148 0 148 60q0 25 -30 37t-104 27q-232 47 -343.5 126t-111.5 222q0 158 121 244.5t340 86.5q304 0 490 -109zM200 -532l153 424h399l-191 -424h-361z" />
    <glyph glyph-name="uni021A" unicode="&#x21a;" horiz-adv-x="1421" 
d="M30 1434h1361v-352h-469v-1082h-423v1082h-469v352zM361 -532l153 424h399l-191 -424h-361z" />
    <glyph glyph-name="uni021B" unicode="&#x21b;" horiz-adv-x="971" 
d="M30 743v303h184v298h403v-298h270v-303h-270v-283q0 -110 27 -153.5t103 -43.5q55 0 115 21l79 -262q-119 -52 -262 -52q-132 0 -222.5 30.5t-143.5 94t-76 151.5t-23 214v283h-184zM237 -532l153 424h399l-191 -424h-361z" />
    <glyph glyph-name="uni021C" unicode="&#x21c;" horiz-adv-x="1285" 
d="M170 -265l-29 352q330 8 495.5 74.5t165.5 202.5q0 62 -41 90.5t-120.5 28.5t-195.5 -14l-21 352q194 24 283.5 67.5t89.5 122.5q0 101 -166 101q-197 0 -286 -158l-295 197q81 154 236 233.5t344 79.5q92 0 175.5 -13.5t160 -44.5t132.5 -77.5t89 -117.5t33 -160
q0 -71 -19 -128t-54.5 -96.5t-75.5 -66.5t-91 -49q255 -74 255 -360q0 -105 -38.5 -193.5t-102.5 -151t-153.5 -111t-184.5 -78t-202 -49t-199.5 -26.5t-184.5 -7z" />
    <glyph glyph-name="uni021D" unicode="&#x21d;" horiz-adv-x="1123" 
d="M129 -332l-24 303q91 8 155 15t134 18.5t115.5 26.5t84 36t57 50t18.5 66q0 17 -4.5 29.5t-14.5 20.5t-21.5 13t-30.5 6.5t-36 1.5t-44.5 -3t-49 -5.5t-55.5 -6.5t-59 -7l-16 303q13 2 43.5 6t47.5 7t46 8t46 10.5t40.5 14t37 19t27 24.5t19.5 31.5t6 38.5q0 79 -128 79
q-71 0 -144 -38t-111 -91l-218 217q64 93 188.5 154t293.5 61q253 0 387.5 -91.5t134.5 -257.5q0 -95 -48.5 -163.5t-120.5 -96.5q84 -26 134.5 -99.5t52.5 -170.5q1 -92 -35 -169.5t-96 -131t-142.5 -95t-168 -66t-180.5 -40.5t-172 -21.5t-149 -5.5z" />
    <glyph glyph-name="uni021E" unicode="&#x21e;" horiz-adv-x="1558" 
d="M1045 906v528h423v-1434h-423v554h-532v-554h-423v1434h423v-528h532zM1243 1827l-311 -291h-306l-311 291h318l146 -99l146 99h318z" />
    <glyph glyph-name="uni021F" unicode="&#x21f;" 
d="M493 579v-579h-403v1516h403v-577q36 66 115 101.5t168 35.5q230 0 349.5 -133.5t119.5 -363.5v-579h-403v579q0 96 -42 145t-133 49t-132.5 -49t-41.5 -145zM1131 1827l-311 -291h-306l-311 291h318l146 -99l146 99h318z" />
    <glyph glyph-name="uni0220" unicode="&#x220;" 
d="M493 967v-967h-403v1434h403v-107q36 66 115 101.5t168 35.5q230 0 349.5 -133.5t119.5 -363.5v-1499h-403v1499q0 96 -42 145t-133 49t-132.5 -49t-41.5 -145z" />
    <glyph glyph-name="uni0221" unicode="&#x221;" horiz-adv-x="1595" 
d="M1825 -123q0 -93 -34.5 -162t-92 -105.5t-121.5 -53.5t-136 -17q-166 0 -263 57q-13 -14 -47 -67q-2 -3 -11 -18t-14 -23l-292 217q23 38 44 70q60 89 91 126q-12 38 -12 159v65q-112 -155 -334 -155q-258 0 -405.5 148.5t-147.5 404.5t147.5 404.5t405.5 148.5
q222 0 334 -155v595h403v-1361q65 19 133 20.5t131 -17t112.5 -53.5t79 -94t29.5 -134zM695 773q-110 0 -176 -69.5t-66 -180.5q0 -112 66 -181t176 -69t176 69t66 181q0 111 -66 180.5t-176 69.5zM1421 -194q36 0 57.5 18t21.5 47q0 21 -15.5 30.5t-34.5 9.5q-66 0 -98 -59
q2 -20 21.5 -33t47.5 -13z" />
    <glyph glyph-name="uni0222" unicode="&#x222;" horiz-adv-x="1366" 
d="M683 -40q-291 0 -462 138.5t-171 363.5q0 117 57.5 224.5t161.5 167.5q-69 45 -117 127t-48 188q0 205 145 379l364 -139q-96 -108 -96 -240q0 -95 42.5 -150t123.5 -55q80 0 123 55t43 150q0 132 -96 240l364 139q145 -174 145 -379q0 -106 -48 -188t-117 -127
q104 -60 161.5 -167.5t57.5 -224.5q0 -225 -171 -363.5t-462 -138.5zM683 312q102 0 156 38t54 112t-54 112t-156 38t-156 -38t-54 -112t54 -112t156 -38z" />
    <glyph glyph-name="uni0223" unicode="&#x223;" horiz-adv-x="1172" 
d="M586 -30q-88 0 -165.5 13.5t-146 44.5t-118 76.5t-78 113t-28.5 151.5q0 88 38 163.5t118 123.5q-57 47 -89.5 118.5t-32.5 145.5q0 82 32.5 164t101.5 139l327 -132q-59 -78 -59 -191q0 -61 25 -96t75 -35t75 35t25 96q0 113 -59 191l327 132q69 -57 101.5 -139
t32.5 -164q0 -74 -32.5 -145.5t-89.5 -118.5q80 -48 118 -123.5t38 -163.5q0 -84 -28.5 -151.5t-78 -113t-118 -76.5t-146 -44.5t-165.5 -13.5zM586 273q133 0 133 96t-133 96t-133 -96t133 -96z" />
    <glyph glyph-name="uni0224" unicode="&#x224;" horiz-adv-x="1457" 
d="M681 352h654v-352q-40 -18 -70.5 -46t-45.5 -59t-13 -61.5t20 -53.5t59.5 -35t101.5 -6v-271q-106 -14 -192 1.5t-137 52.5t-83.5 87.5t-36.5 108t9 111t49 99.5t86 72h-1012v209l653 873h-633v352h1245v-209z" />
    <glyph glyph-name="uni0225" unicode="&#x225;" horiz-adv-x="1217" 
d="M1095 303v-303q-40 -18 -70.5 -46t-45.5 -59t-13 -61.5t20 -53.5t59.5 -35t101.5 -6v-271q-106 -14 -192 1.5t-137 52.5t-83.5 87.5t-36.5 108t9 111t49 99.5t86 72h-772v173l482 570h-456v303h999v-175l-482 -568h482z" />
    <glyph glyph-name="uni0226" unicode="&#x226;" horiz-adv-x="1602" 
d="M536 232l-90 -232h-446l587 1434h428l587 -1434h-446l-90 232h-530zM801 915l-140 -361h280zM605 1732q0 81 57.5 138.5t138.5 57.5t138.5 -57.5t57.5 -138.5t-57.5 -138.5t-138.5 -57.5t-138.5 57.5t-57.5 138.5z" />
    <glyph glyph-name="uni0227" unicode="&#x227;" horiz-adv-x="1248" 
d="M50 323q0 110 62.5 187.5t168 114.5t224 49.5t250.5 2.5q0 44 -11 66.5t-52 36t-122 13.5q-166 0 -315 -56l-129 246q179 93 482 93q147 0 247 -22t169.5 -74.5t101.5 -139.5t32 -217v-623h-403v121q-83 -145 -319 -145q-178 0 -282 93t-104 254zM453 344q0 -85 115 -85
q50 0 88.5 14.5t58.5 37t30 45.5t10 44v55q-46 6 -99 3t-98 -11.5t-75 -35.5t-30 -67zM450 1344q0 81 57.5 138.5t138.5 57.5t138.5 -57.5t57.5 -138.5t-57.5 -138.5t-138.5 -57.5t-138.5 57.5t-57.5 138.5z" />
    <glyph glyph-name="uni0228" unicode="&#x228;" horiz-adv-x="1310" 
d="M352 -565l60 179q33 -10 79 -17.5t102.5 -11.5t97.5 11.5t45 51.5q3 31 -26.5 47t-81 16t-99.5 -4.5t-101 -11.5q-3 -1 -4 -1l98 306h-432v1434h1140v-352h-717v-185h669v-343h-669v-202h727v-352h-464l-38 -126q132 0 207 -58t64 -175q-10 -97 -75.5 -159.5t-161 -82.5
t-205.5 -11t-215 47z" />
    <glyph glyph-name="uni0229" unicode="&#x229;" horiz-adv-x="1257" 
d="M349 -565l60 179q31 -10 78 -18t103.5 -11.5t97.5 12t45 51.5q2 16 -4.5 28.5t-23 19t-34.5 11t-46.5 4.5t-50 -0.5t-54.5 -4t-51 -6t-48 -6.5l92 285q-119 17 -210 69t-145 127.5t-81 163t-27 184.5q0 111 38 209.5t109.5 176t185.5 122.5t256 45q288 0 434 -184.5
t132 -515.5h-752q0 -41 60 -77t175 -36q158 0 280 69l187 -215q-154 -119 -389 -141l-31 -102q132 0 207 -58t64 -175q-10 -97 -75.5 -159.5t-161 -82.5t-205.5 -11t-215 47zM453 630h372q0 59 -48 106t-138 47t-138 -47t-48 -106z" />
    <glyph glyph-name="uni022A" unicode="&#x22a;" horiz-adv-x="1672" 
d="M836 1474q157 0 287 -38.5t221.5 -107t154.5 -164t93 -208t30 -239.5t-30 -239.5t-93 -208t-154.5 -164t-221.5 -107t-287 -38.5t-287 38.5t-221.5 107t-154.5 164t-93 208t-30 239.5t30 239.5t93 208t154.5 164t221.5 107t287 38.5zM836 1122q-76 0 -137 -22.5t-102 -61
t-68.5 -91t-39.5 -110t-12 -120.5t12 -120.5t39.5 -110t68.5 -91t102 -61t137 -22.5t137 22.5t102 61t68.5 91t39.5 110t12 120.5t-12 120.5t-39.5 110t-68.5 91t-102 61t-137 22.5zM395 1731q0 81 57.5 138.5t138.5 57.5t138.5 -57.5t57.5 -138.5t-57.5 -138.5
t-138.5 -57.5t-138.5 57.5t-57.5 138.5zM886 1731q0 81 57.5 138.5t138.5 57.5t138.5 -57.5t57.5 -138.5t-57.5 -138.5t-138.5 -57.5t-138.5 57.5t-57.5 138.5zM371 1967v303h930v-303h-930z" />
    <glyph glyph-name="uni022B" unicode="&#x22b;" horiz-adv-x="1400" 
d="M700 -30q-300 0 -475 146t-175 407t175 407t475 146t475 -146t175 -407t-175 -407t-475 -146zM700 273q111 0 179 66t68 184t-68 184t-179 66t-179 -66t-68 -184t68 -184t179 -66zM259 1344q0 81 57.5 138.5t138.5 57.5t138.5 -57.5t57.5 -138.5t-57.5 -138.5
t-138.5 -57.5t-138.5 57.5t-57.5 138.5zM750 1344q0 81 57.5 138.5t138.5 57.5t138.5 -57.5t57.5 -138.5t-57.5 -138.5t-138.5 -57.5t-138.5 57.5t-57.5 138.5zM235 1580v303h930v-303h-930z" />
    <glyph glyph-name="uni022C" unicode="&#x22c;" horiz-adv-x="1672" 
d="M836 1474q157 0 287 -38.5t221.5 -107t154.5 -164t93 -208t30 -239.5t-30 -239.5t-93 -208t-154.5 -164t-221.5 -107t-287 -38.5t-287 38.5t-221.5 107t-154.5 164t-93 208t-30 239.5t30 239.5t93 208t154.5 164t221.5 107t287 38.5zM836 1122q-76 0 -137 -22.5t-102 -61
t-68.5 -91t-39.5 -110t-12 -120.5t12 -120.5t39.5 -110t68.5 -91t102 -61t137 -22.5t137 22.5t102 61t68.5 91t39.5 110t12 120.5t-12 120.5t-39.5 110t-68.5 91t-102 61t-137 22.5zM808 1590q-3 3 -15 13.5t-17 13.5t-15.5 9t-21 8t-24.5 2q-40 0 -63 -39q-9 -18 -12 -39
h-275q11 100 50 174q36 75 107 125t178 50q100 0 165 -54q19 -17 26.5 -23.5t26.5 -14.5t40 -8q42 0 63 39q9 16 12 39h275q-11 -98 -50 -175q-90 -174 -285 -174q-100 0 -165 54zM371 1948v303h930v-303h-930z" />
    <glyph glyph-name="uni022D" unicode="&#x22d;" horiz-adv-x="1400" 
d="M700 -30q-300 0 -475 146t-175 407t175 407t475 146t475 -146t175 -407t-175 -407t-475 -146zM700 273q111 0 179 66t68 184t-68 184t-179 66t-179 -66t-68 -184t68 -184t179 -66zM672 1217q-3 3 -15 13.5t-17 13.5t-15.5 9t-21 8t-24.5 2q-40 0 -63 -39q-9 -18 -12 -39
h-275q11 100 50 174q36 75 107 125t178 50q100 0 165 -54q19 -17 26.5 -23.5t26.5 -14.5t40 -8q42 0 63 39q9 17 12 39h275q-11 -98 -50 -175q-90 -174 -285 -174q-100 0 -165 54zM235 1575v303h930v-303h-930z" />
    <glyph glyph-name="uni022E" unicode="&#x22e;" horiz-adv-x="1672" 
d="M836 1474q157 0 287 -38.5t221.5 -107t154.5 -164t93 -208t30 -239.5t-30 -239.5t-93 -208t-154.5 -164t-221.5 -107t-287 -38.5t-287 38.5t-221.5 107t-154.5 164t-93 208t-30 239.5t30 239.5t93 208t154.5 164t221.5 107t287 38.5zM836 1122q-76 0 -137 -22.5t-102 -61
t-68.5 -91t-39.5 -110t-12 -120.5t12 -120.5t39.5 -110t68.5 -91t102 -61t137 -22.5t137 22.5t102 61t68.5 91t39.5 110t12 120.5t-12 120.5t-39.5 110t-68.5 91t-102 61t-137 22.5zM640 1732q0 81 57.5 138.5t138.5 57.5t138.5 -57.5t57.5 -138.5t-57.5 -138.5
t-138.5 -57.5t-138.5 57.5t-57.5 138.5z" />
    <glyph glyph-name="uni022F" unicode="&#x22f;" horiz-adv-x="1400" 
d="M700 -30q-300 0 -475 146t-175 407t175 407t475 146t475 -146t175 -407t-175 -407t-475 -146zM700 273q111 0 179 66t68 184t-68 184t-179 66t-179 -66t-68 -184t68 -184t179 -66zM504 1344q0 81 57.5 138.5t138.5 57.5t138.5 -57.5t57.5 -138.5t-57.5 -138.5
t-138.5 -57.5t-138.5 57.5t-57.5 138.5z" />
    <glyph glyph-name="uni0230" unicode="&#x230;" horiz-adv-x="1672" 
d="M836 1474q157 0 287 -38.5t221.5 -107t154.5 -164t93 -208t30 -239.5t-30 -239.5t-93 -208t-154.5 -164t-221.5 -107t-287 -38.5t-287 38.5t-221.5 107t-154.5 164t-93 208t-30 239.5t30 239.5t93 208t154.5 164t221.5 107t287 38.5zM836 1122q-76 0 -137 -22.5t-102 -61
t-68.5 -91t-39.5 -110t-12 -120.5t12 -120.5t39.5 -110t68.5 -91t102 -61t137 -22.5t137 22.5t102 61t68.5 91t39.5 110t12 120.5t-12 120.5t-39.5 110t-68.5 91t-102 61t-137 22.5zM640 1732q0 81 57.5 138.5t138.5 57.5t138.5 -57.5t57.5 -138.5t-57.5 -138.5
t-138.5 -57.5t-138.5 57.5t-57.5 138.5zM371 1967v303h930v-303h-930z" />
    <glyph glyph-name="uni0231" unicode="&#x231;" horiz-adv-x="1400" 
d="M700 -30q-300 0 -475 146t-175 407t175 407t475 146t475 -146t175 -407t-175 -407t-475 -146zM700 273q111 0 179 66t68 184t-68 184t-179 66t-179 -66t-68 -184t68 -184t179 -66zM505 1344q0 81 57.5 138.5t138.5 57.5t138.5 -57.5t57.5 -138.5t-57.5 -138.5
t-138.5 -57.5t-138.5 57.5t-57.5 138.5zM236 1579v303h930v-303h-930z" />
    <glyph glyph-name="uni0232" unicode="&#x232;" horiz-adv-x="1544" 
d="M458 1434l314 -490l314 490h458l-560 -865v-569h-424v569l-560 865h458zM307 1536v303h930v-303h-930z" />
    <glyph glyph-name="uni0233" unicode="&#x233;" horiz-adv-x="1252" 
d="M1252 1046l-557 -1328q-26 -58 -58 -100t-80 -77.5t-117 -54t-158 -18.5q-148 0 -272 54l114 280q64 -31 119 -31q36 0 62 10.5t45.5 34.5t32 48t28.5 65l27 71l-438 1046h411l215 -603l215 603h411zM161 1131v303h930v-303h-930z" />
    <glyph glyph-name="uni0234" unicode="&#x234;" horiz-adv-x="1101" 
d="M213 1516h403v-930q65 19 133 20.5t131 -17t112.5 -53.5t79 -94t29.5 -134q0 -93 -34.5 -162t-92 -105.5t-121.5 -53.5t-136 -17q-166 0 -263 57q-13 -14 -47 -67q-2 -3 -11 -18t-14 -23l-292 217q23 38 44 70q60 89 91 126q-12 38 -12 159v1025zM697 237q36 0 57.5 18
t21.5 47q0 21 -15.5 30.5t-34.5 9.5q-66 0 -98 -59q2 -20 21.5 -33t47.5 -13z" />
    <glyph glyph-name="uni0235" unicode="&#x235;" horiz-adv-x="1480" 
d="M493 579v-579h-403v1046h403v-107q36 66 115 101.5t168 35.5q230 0 349.5 -133.5t119.5 -363.5v-424q65 19 133 20.5t131 -17t112.5 -53.5t79 -94t29.5 -134q0 -93 -34.5 -162t-92 -105.5t-121.5 -53.5t-136 -17q-166 0 -263 57q-13 -14 -47 -67q-2 -3 -11 -18t-14 -23
l-292 217q23 38 44 70q60 89 91 126q-12 38 -12 159v519q0 96 -42 145t-133 49t-132.5 -49t-41.5 -145zM1326 -194q36 0 57.5 18t21.5 47q0 21 -15.5 30.5t-34.5 9.5q-66 0 -98 -59q2 -20 21.5 -33t47.5 -13z" />
    <glyph glyph-name="uni0236" unicode="&#x236;" horiz-adv-x="1132" 
d="M887 743h-270v-157q65 19 133 20.5t131 -17t112.5 -53.5t79 -94t29.5 -134q0 -93 -34.5 -162t-92 -105.5t-121.5 -53.5t-136 -17q-166 0 -263 57q-13 -14 -47 -67q-2 -3 -11 -18t-14 -23l-292 217q23 38 44 70q60 89 91 126q-12 38 -12 159v252h-184v303h184v298h403
v-298h270v-303zM698 237q36 0 57.5 18t21.5 47q0 21 -15.5 30.5t-34.5 9.5q-66 0 -98 -59q2 -20 21.5 -33t47.5 -13z" />
    <glyph glyph-name="uni0237" unicode="&#x237;" horiz-adv-x="605" 
d="M-210 -475l96 269q59 -23 111 -23q28 0 48.5 9.5t32.5 29.5t19.5 38.5t10.5 50t3.5 50t0.5 51.5v1046h403v-1046q0 -532 -440 -532q-163 0 -285 57z" />
    <glyph glyph-name="uni0238" unicode="&#x238;" horiz-adv-x="2277" 
d="M937 921v595h403v-595q112 155 334 155q258 0 405.5 -148.5t147.5 -404.5t-147.5 -404.5t-405.5 -148.5q-222 0 -334 155v-125h-403v125q-112 -155 -334 -155q-258 0 -405.5 148.5t-147.5 404.5t147.5 404.5t405.5 148.5q222 0 334 -155zM695 773q-110 0 -176 -69.5
t-66 -180.5q0 -112 66 -181t176 -69t176 69t66 181q0 111 -66 180.5t-176 69.5zM1582 773q-110 0 -176 -69.5t-66 -180.5q0 -112 66 -181t176 -69t176 69t66 181q0 111 -66 180.5t-176 69.5z" />
    <glyph glyph-name="uni0239" unicode="&#x239;" horiz-adv-x="2277" 
d="M1340 -532h-403v532v125q-112 -155 -334 -155q-258 0 -405.5 148.5t-147.5 404.5t147.5 404.5t405.5 148.5q222 0 334 -155v125h403v-125q112 155 334 155q258 0 405.5 -148.5t147.5 -404.5t-147.5 -404.5t-405.5 -148.5q-222 0 -334 155v-657zM1582 773
q-110 0 -176 -69.5t-66 -180.5q0 -112 66 -181t176 -69t176 69t66 181q0 111 -66 180.5t-176 69.5zM695 773q-110 0 -176 -69.5t-66 -180.5q0 -112 66 -181t176 -69t176 69t66 181q0 111 -66 180.5t-176 69.5z" />
    <glyph glyph-name="uni023A" unicode="&#x23a;" horiz-adv-x="1602" 
d="M965 1434l77 192h372l-236 -590l424 -1036h-446l-90 232h-211l-186 -465h-372l93 233h-390l587 1434h378z" />
    <glyph glyph-name="uni023B" unicode="&#x23b;" horiz-adv-x="1483" 
d="M920 1471l62 155h372l-93 -232q93 -42 192 -126l-205 -272q-50 35 -119 68l-302 -752h9q78 0 143.5 11t117.5 33t81 38.5t70 43.5l205 -272q-48 -43 -98.5 -75t-124 -64t-174 -49.5t-220.5 -17.5q-77 0 -146 9l-81 -202h-372l126 314q-155 99 -234 264.5t-79 371.5
q0 127 30 239.5t93 208t154.5 164t221.5 107t287 38.5q44 0 84 -3zM477 717q0 -130 50 -227l251 628q-78 -10 -137.5 -47.5t-94.5 -93.5t-52 -121.5t-17 -138.5z" />
    <glyph glyph-name="uni023C" unicode="&#x23c;" horiz-adv-x="1193" 
d="M618 1073l53 133h395l-72 -182q101 -41 169 -114l-190 -226q-46 32 -93 52l-182 -463h2q154 0 273 89l190 -226q-156 -166 -463 -166q-64 0 -119 7l-49 -124h-395l100 253q-187 148 -187 417q0 242 151.5 386t416.5 164z" />
    <glyph glyph-name="uni023D" unicode="&#x23d;" horiz-adv-x="1398" 
d="M661 582v-230h687v-352h-1110v582h-268v352h268v500h423v-500h268v-352h-268z" />
    <glyph glyph-name="uni023E" unicode="&#x23e;" horiz-adv-x="1391" 
d="M1206 1434h185v-352h-326l-143 -357v-725h-291l-93 -233h-372l333 831v484h-469v352h804l77 192h372z" />
    <glyph glyph-name="uni023F" unicode="&#x23f;" horiz-adv-x="1126" 
d="M1031 967l-147 -255q-142 61 -303 61q-52 0 -75 -9t-23 -35q0 -33 110 -56l12 -3q90 -18 155.5 -36.5t127.5 -48t100 -66.5t61 -91t23 -123q0 -76 -30 -135.5t-79.5 -96.5t-121 -60.5t-147 -33t-163.5 -9.5q-94 0 -180 15q2 -91 52.5 -141t164.5 -50q169 0 300 115
l228 -214q-206 -206 -528 -206q-95 0 -175 18.5t-137 51.5t-101.5 78t-69 99t-40.5 114t-15 123t7 126l147 255q157 -81 337 -81q148 0 148 60q0 25 -30 37t-104 27q-232 47 -343.5 126t-111.5 222q0 158 121 244.5t340 86.5q304 0 490 -109z" />
    <glyph glyph-name="uni0240" unicode="&#x240;" horiz-adv-x="1207" 
d="M71 0v173l482 570h-456v303h999v-175l-482 -568h482v-303h-704q2 -101 52 -153.5t165 -52.5q169 0 300 115l228 -214q-206 -206 -528 -206q-118 1 -211.5 29.5t-154.5 76t-100.5 113.5t-56 138t-15.5 154z" />
    <glyph glyph-name="uni0241" unicode="&#x241;" horiz-adv-x="1284" 
d="M380 1001l-330 182q20 32 45.5 63t77.5 75t113.5 75.5t155.5 54.5t201 23q277 0 434 -125.5t157 -320.5q0 -63 -18.5 -119.5t-61 -111.5t-124 -96.5t-195.5 -61.5v-639h-423v844q194 2 296.5 40.5t102.5 123.5q0 53 -45 83.5t-123 30.5q-151 0 -263 -121z" />
    <glyph glyph-name="uni0242" unicode="&#x242;" horiz-adv-x="1284" 
d="M380 603l-330 182q20 32 45.5 63t77.5 75t113.5 75.5t155.5 54.5t201 23q277 0 434 -125.5t157 -320.5q0 -63 -18.5 -119.5t-61 -111.5t-124 -96.5t-195.5 -61.5v-773h-423v978q194 2 296.5 40.5t102.5 123.5q0 53 -45 83.5t-123 30.5q-151 0 -263 -121z" />
    <glyph glyph-name="uni0243" unicode="&#x243;" horiz-adv-x="1562" 
d="M-30 283v331h203v820h741q549 0 549 -395q0 -85 -60.5 -168t-162.5 -111q79 -27 135 -66.5t84.5 -85.5t40.5 -89t12 -90q0 -62 -15.5 -119.5t-57 -115t-105 -99.5t-167.5 -68.5t-238 -26.5h-756v283h-203zM596 874h318q75 0 109 33t34 81t-34 81t-109 33h-318v-228z
M725 331h204q173 0 173 121t-173 121h-204v-242z" />
    <glyph glyph-name="uni0244" unicode="&#x244;" horiz-adv-x="1824" 
d="M912 -40q-659 0 -680 657h-202v352h201v465h423v-465h516v465h423v-465h201v-352h-202q-21 -657 -680 -657zM912 312q75 0 125.5 20t78.5 61.5t39.5 94t13.5 129.5h-515q2 -77 13.5 -129t39.5 -94t78.5 -62t126.5 -20z" />
    <glyph glyph-name="uni0245" unicode="&#x245;" horiz-adv-x="1602" 
d="M1156 0l-355 915l-355 -915h-446l587 1434h428l587 -1434h-446z" />
    <glyph glyph-name="uni0246" unicode="&#x246;" horiz-adv-x="1310" 
d="M923 897h259v-343h-397l-81 -202h536v-352h-677l-93 -233h-372l93 233h-101v1434h676l77 192h372l-77 -192h92v-352h-233zM513 1082v-185h38l74 185h-112z" />
    <glyph glyph-name="uni0247" unicode="&#x247;" horiz-adv-x="1257" 
d="M639 -30q-23 0 -63 2l-47 -119h-395l97 246q-91 76 -136 187t-45 237q0 108 36.5 205t105 173.5t178 123t246.5 50.5l52 131h395l-88 -223q247 -170 230 -607h-470l-44 -113q155 0 277 69l187 -215q-191 -147 -516 -147z" />
    <glyph glyph-name="uni0248" unicode="&#x248;" horiz-adv-x="1520" 
d="M30 191l283 202q70 -81 165 -81q88 0 119 48.5t31 138.5v103h-257v352h257v128h-469v352h1361v-352h-469v-128h257v-352h-257v-103q0 -539 -523 -539q-159 0 -280.5 51t-217.5 180z" />
    <glyph glyph-name="uni0249" unicode="&#x249;" horiz-adv-x="832" 
d="M-110 -475l96 269q59 -23 111 -23q28 0 48.5 9.5t32.5 29.5t19.5 38.5t10.5 50t3.5 50t0.5 51.5v427h-247v303h247v316h403v-316h247v-303h-247v-427q0 -532 -440 -532q-163 0 -285 57zM217 1344q0 81 57.5 138.5t138.5 57.5t138.5 -57.5t57.5 -138.5t-57.5 -138.5
t-138.5 -57.5t-138.5 57.5t-57.5 138.5z" />
    <glyph glyph-name="uni024A" unicode="&#x24a;" horiz-adv-x="1734" 
d="M836 1474q157 0 287 -38.5t221.5 -107t154.5 -164t93 -208t30 -239.5v-676q0 -33 0.5 -51.5t3.5 -50t10.5 -50t19.5 -38.5t32.5 -29.5t48.5 -9.5q52 0 111 23l96 -269q-122 -57 -285 -57q-435 0 -440 524q-166 -73 -383 -73q-157 0 -287 38.5t-221.5 107t-154.5 164
t-93 208t-30 239.5t30 239.5t93 208t154.5 164t221.5 107t287 38.5zM836 1122q-76 0 -137 -22.5t-102 -61t-68.5 -91t-39.5 -110t-12 -120.5t12 -120.5t39.5 -110t68.5 -91t102 -61t137 -22.5t137 22.5t102 61t68.5 91t39.5 110t12 120.5t-12 120.5t-39.5 110t-68.5 91
t-102 61t-137 22.5z" />
    <glyph glyph-name="uni024B" unicode="&#x24b;" horiz-adv-x="1452" 
d="M1566 -206l96 -269q-122 -57 -285 -57q-440 0 -440 532v125q-112 -155 -334 -155q-258 0 -405.5 148.5t-147.5 404.5t147.5 404.5t405.5 148.5q222 0 334 -155v125h403v-1046q0 -33 0.5 -51.5t3.5 -50t10.5 -50t19.5 -38.5t32.5 -29.5t48.5 -9.5q52 0 111 23zM695 773
q-110 0 -176 -69.5t-66 -180.5q0 -112 66 -181t176 -69t176 69t66 181q0 111 -66 180.5t-176 69.5z" />
    <glyph glyph-name="uni024C" unicode="&#x24c;" horiz-adv-x="1563" 
d="M-30 443v322h249v669h633q144 0 259 -28t204 -87.5t137 -159.5t48 -236q0 -67 -18.5 -126.5t-47.5 -101.5t-67.5 -77t-74 -56t-71.5 -35l292 -527h-455l-246 443h-170v-443h-423v443h-249zM852 1081h-210v-316h210q116 0 168.5 37t52.5 121q0 83 -53 120.5t-168 37.5z
" />
    <glyph glyph-name="uni024D" unicode="&#x24d;" horiz-adv-x="1157" 
d="M-30 332v303h223v411h403v-107q36 66 115 101.5t168 35.5q165 0 278 -75l-172 -285q-103 57 -215 57q-144 0 -169 -138h218v-303h-223v-332h-403v332h-223z" />
    <glyph glyph-name="uni024E" unicode="&#x24e;" horiz-adv-x="1544" 
d="M40 1025v212h87l-127 197h458l126 -197h376l126 197h458l-128 -197h88v-212h-225l-295 -456v-569h-424v569l-295 456h-225zM720 1025l52 -81l52 81h-104z" />
    <glyph glyph-name="uni024F" unicode="&#x24f;" horiz-adv-x="1252" 
d="M956 342l-261 -624q-26 -58 -58 -100t-80 -77.5t-117 -54t-158 -18.5q-148 0 -272 54l114 280q64 -31 119 -31q36 0 62 10.5t45.5 34.5t32 48t28.5 65l27 71l-143 342h-273v303h146l-168 401h411l143 -401h144l143 401h411l-169 -401h146v-303h-273z" />
    <glyph glyph-name="uni0250" unicode="&#x250;" horiz-adv-x="1248" 
d="M1198 723q0 -74 -29.5 -134t-80 -99.5t-119 -68.5t-147 -40.5t-163 -16t-166.5 4.5q0 -44 11 -66.5t52 -36t122 -13.5q166 0 315 56l129 -246q-179 -93 -482 -93q-147 0 -247 22t-169.5 74.5t-101.5 139.5t-32 217v623h403v-121q83 145 319 145q178 0 282 -93t104 -254z
M795 702q0 85 -115 85q-94 0 -140.5 -46t-46.5 -95v-55q46 -6 99 -3t98 11.5t75 35.5t30 67z" />
    <glyph glyph-name="uni0251" unicode="&#x251;" horiz-adv-x="1430" 
d="M937 1046h403v-1046h-403v125q-112 -155 -334 -155q-258 0 -405.5 148.5t-147.5 404.5t147.5 404.5t405.5 148.5q222 0 334 -155v125zM695 773q-110 0 -176 -69.5t-66 -180.5q0 -112 66 -181t176 -69t176 69t66 181q0 111 -66 180.5t-176 69.5z" />
    <glyph glyph-name="uni0252" unicode="&#x252;" horiz-adv-x="1430" 
d="M90 1046h403v-125q112 155 334 155q258 0 405.5 -148.5t147.5 -404.5t-147.5 -404.5t-405.5 -148.5q-222 0 -334 155v-125h-403v1046zM735 773q-110 0 -176 -69.5t-66 -180.5q0 -112 66 -181t176 -69t176 69t66 181q0 111 -66 180.5t-176 69.5z" />
    <glyph glyph-name="uni0253" unicode="&#x253;" horiz-adv-x="1430" 
d="M90 0v1046q14 500 440 500q170 0 285 -57l-91 -274q-52 28 -116 28q-37 0 -61 -17t-35 -48.5t-15 -61.5t-4 -70v-125q112 155 334 155q258 0 405.5 -148.5t147.5 -404.5t-147.5 -404.5t-405.5 -148.5q-222 0 -334 155v-125h-403zM735 773q-110 0 -176 -69.5t-66 -180.5
q0 -112 66 -181t176 -69t176 69t66 181q0 111 -66 180.5t-176 69.5z" />
    <glyph glyph-name="uni0254" unicode="&#x254;" horiz-adv-x="1193" 
d="M740 523q0 118 -68 184t-179 66q-145 0 -273 -89l-190 226q156 166 463 166q300 0 475 -146t175 -407t-175 -407t-475 -146q-307 0 -463 166l190 226q119 -89 273 -89q111 0 179 66t68 184z" />
    <glyph glyph-name="uni0255" unicode="&#x255;" horiz-adv-x="1259" 
d="M453 523q0 -131 84 -199q-26 169 69 267t267 98q47 0 92.5 -10.5t88.5 -34t76 -57.5t52.5 -83.5t19.5 -109.5q0 -115 -47 -192t-104 -115q36 -28 119 -73q24 -13 59 -28l-189 -208q-50 23 -106 54q-126 72 -207 139q-202 -6 -354.5 56.5t-237.5 190.5t-85 305
q0 261 175 407t475 146q307 0 463 -166l-190 -226q-128 89 -273 89q-111 0 -179 -66t-68 -184zM926 394q0 57 -55 57q-60 0 -60 -76q0 -55 37 -87q37 15 57.5 45.5t20.5 60.5z" />
    <glyph glyph-name="uni0256" unicode="&#x256;" horiz-adv-x="1432" 
d="M1566 -206l96 -269q-122 -57 -285 -57q-440 0 -440 532v125q-112 -155 -334 -155q-258 0 -405.5 148.5t-147.5 404.5t147.5 404.5t405.5 148.5q222 0 334 -155v595h403v-1516q0 -33 0.5 -51.5t3.5 -50t10.5 -50t19.5 -38.5t32.5 -29.5t48.5 -9.5q52 0 111 23zM695 773
q-110 0 -176 -69.5t-66 -180.5q0 -112 66 -181t176 -69t176 69t66 181q0 111 -66 180.5t-176 69.5z" />
    <glyph glyph-name="uni0257" unicode="&#x257;" horiz-adv-x="1482" 
d="M1662 1489l-96 -269q-59 23 -111 23q-28 0 -48.5 -9.5t-32.5 -29.5t-19.5 -38.5t-10.5 -50t-3.5 -50t-0.5 -51.5v-1014h-403v125q-112 -155 -334 -155q-258 0 -405.5 148.5t-147.5 404.5t147.5 404.5t405.5 148.5q222 0 334 -155v93q0 532 440 532q163 0 285 -57z
M695 773q-110 0 -176 -69.5t-66 -180.5q0 -112 66 -181t176 -69t176 69t66 181q0 111 -66 180.5t-176 69.5z" />
    <glyph glyph-name="uni0258" unicode="&#x258;" horiz-adv-x="1257" 
d="M618 -30q-325 0 -516 147l187 215q122 -69 280 -69q115 0 175 36t60 77h-752q-14 331 132 515.5t434 184.5q142 0 256 -45t185.5 -122.5t109.5 -176t38 -209.5q0 -109 -34 -205.5t-102.5 -175.5t-185 -125.5t-267.5 -46.5zM432 630h372q0 59 -48 106t-138 47t-138 -47
t-48 -106z" />
    <glyph glyph-name="uni0259" unicode="&#x259;" horiz-adv-x="1257" 
d="M618 1076q151 0 267.5 -46.5t185 -125.5t102.5 -175.5t34 -205.5q0 -111 -38 -209.5t-109.5 -176t-185.5 -122.5t-256 -45q-288 0 -434 184.5t-132 515.5h752q0 41 -60 77t-175 36q-158 0 -280 -69l-187 215q191 147 516 147zM804 416h-372q0 -59 48 -106t138 -47t138 47
t48 106z" />
    <glyph glyph-name="uni025A" unicode="&#x25a;" horiz-adv-x="1649" 
d="M578 783q-168 0 -286 -73l-181 219q198 147 516 147q222 0 358.5 -95t188.5 -252l387 41q-5 -10 -12 -25.5t-15 -39t-13 -46.5t-6.5 -48.5t5 -44.5t20.5 -35t41.5 -19.5t67.5 2.5v-332q-111 -10 -198 17q-196 64 -182 290l-65 -8q-6 -105 -45.5 -196t-109.5 -162
t-178.5 -112t-243.5 -41q-288 0 -435 166t-141 474l752 80q0 39 -54 66t-171 27zM803 436l-352 -39q0 -52 44 -93t132 -41t132 52t44 121z" />
    <glyph glyph-name="uni025B" unicode="&#x25b;" horiz-adv-x="1140" 
d="M884 344l206 -227q-161 -147 -476 -147q-564 0 -564 334q0 76 50 139.5t124 88.5q-71 30 -108 91.5t-37 123.5q0 71 28.5 128t77.5 94t118 61.5t145.5 35t165.5 10.5q286 0 456 -137l-206 -227q-92 61 -250 61q-132 0 -132 -49q0 -21 23 -33t91.5 -18.5t195.5 -6.5v-281
q-207 0 -273 -8.5t-66 -42.5q0 -33 34 -47t127 -14q166 0 270 71z" />
    <glyph glyph-name="uni025C" unicode="&#x25c;" horiz-adv-x="1140" 
d="M50 117l206 227q104 -71 270 -71q93 0 127 14t34 47q0 34 -66 42.5t-273 8.5v281q127 0 195.5 6.5t91.5 18.5t23 33q0 49 -132 49q-158 0 -250 -61l-206 227q170 137 456 137q89 0 165.5 -10.5t145.5 -35t118 -61.5t77.5 -94t28.5 -128q0 -62 -37 -123.5t-108 -91.5
q74 -25 124 -88.5t50 -139.5q0 -334 -564 -334q-315 0 -476 147z" />
    <glyph glyph-name="uni025D" unicode="&#x25d;" horiz-adv-x="1442" 
d="M50 117l206 227q104 -71 270 -71q93 0 127 14t34 47q0 34 -66 42.5t-273 8.5v281q127 0 195.5 6.5t91.5 18.5t23 33q0 49 -132 49q-158 0 -250 -61l-206 227q170 137 456 137q103 0 190.5 -15t161 -46.5t120.5 -87t59 -129.5l357 38q-5 -10 -12 -25.5t-15 -39t-13 -46.5
t-6.5 -48.5t5 -44.5t20.5 -35t41.5 -19.5t67.5 2.5v-332q-111 -10 -198 17q-196 64 -182 290l-206 -23q74 -25 124 -88.5t50 -139.5q0 -334 -564 -334q-315 0 -476 147z" />
    <glyph glyph-name="uni025E" unicode="&#x25e;" horiz-adv-x="1271" 
d="M50 523q0 123 39 223t116 174.5t200 115t283 40.5q221 0 360 -87.5t139 -232.5q0 -90 -52.5 -150t-114.5 -74q99 -20 150 -83t51 -160q0 -161 -139.5 -240t-393.5 -79q-160 0 -283 40.5t-200 115t-116 174.5t-39 223zM453 523q0 -133 53.5 -191.5t181.5 -58.5
q77 0 103.5 16t26.5 44q0 29 -50 40.5t-190 11.5v273q123 0 164.5 13.5t41.5 48.5q0 53 -96 53q-128 0 -181.5 -58.5t-53.5 -191.5z" />
    <glyph glyph-name="uni025F" unicode="&#x25f;" horiz-adv-x="706" 
d="M-220 -475l96 269q59 -23 111 -23q28 0 48.5 9.5t32.5 29.5t19.5 38.5t10.5 50t3.5 50t0.5 51.5h-201v303h201v743h403v-743h201v-303h-201q0 -532 -440 -532q-163 0 -285 57z" />
    <glyph glyph-name="uni0260" unicode="&#x260;" horiz-adv-x="1452" 
d="M937 921v93q0 532 440 532q163 0 285 -57l-96 -269q-59 23 -111 23q-28 0 -48.5 -9.5t-32.5 -29.5t-19.5 -38.5t-10.5 -50t-3.5 -50t-0.5 -51.5v-1014q-10 -532 -662 -532q-312 0 -538 119l133 272q92 -49 175 -68.5t190 -19.5q138 0 218.5 56t80.5 173v125
q-112 -155 -334 -155q-258 0 -405.5 148.5t-147.5 404.5t147.5 404.5t405.5 148.5q222 0 334 -155zM695 273q110 0 176 69t66 181q0 111 -66 180.5t-176 69.5t-176 -69.5t-66 -180.5q0 -112 66 -181t176 -69z" />
    <glyph glyph-name="uni0261" unicode="&#x261;" horiz-adv-x="1430" 
d="M937 1046h403v-1046q-2 -119 -37 -212t-94 -153.5t-143.5 -99t-179.5 -54t-208 -13.5q-366 6 -555 132l147 253q159 -82 368 -82q138 0 218.5 56t80.5 173v125q-112 -155 -334 -155q-258 0 -405.5 148.5t-147.5 404.5t147.5 404.5t405.5 148.5q222 0 334 -155v125z
M695 273q110 0 176 69t66 181q0 111 -66 180.5t-176 69.5t-176 -69.5t-66 -180.5q0 -112 66 -181t176 -69z" />
    <glyph glyph-name="uni0262" unicode="&#x262;" horiz-adv-x="1272" 
d="M726 368v272h476v-522q-89 -76 -222 -112t-273 -36q-308 0 -482.5 148t-174.5 405t174.5 405t482.5 148q134 0 266.5 -32t222.5 -100l-152 -242q-150 71 -337 71q-116 0 -185 -62.5t-69 -187.5t69 -187.5t185 -62.5q107 0 174 32v63h-155z" />
    <glyph glyph-name="uni0263" unicode="&#x263;" horiz-adv-x="1574" 
d="M787 -612q-200 0 -302 89t-102 249q0 121 113 274l-496 1046h408l379 -843l379 843h408l-496 -1046q113 -153 113 -274q0 -160 -102 -249t-302 -89zM787 -348q32 0 50 19.5t18 54.5q0 61 -68 134q-68 -73 -68 -134q0 -35 18 -54.5t50 -19.5z" />
    <glyph glyph-name="uni0264" unicode="&#x264;" horiz-adv-x="1422" 
d="M711 -186q-406 0 -406 301q0 51 27 105t68 96l-400 730h417l294 -589l294 589h417l-400 -730q41 -42 68 -96t27 -105q0 -301 -406 -301zM711 66q26 0 36.5 19t10.5 40q0 54 -47 85q-47 -31 -47 -85q0 -21 10.5 -40t36.5 -19z" />
    <glyph glyph-name="uni0265" unicode="&#x265;" 
d="M842 467v579h403v-1578h-403v639q-36 -66 -115.5 -101.5t-167.5 -35.5q-230 0 -349.5 133t-119.5 364v579h403v-579q0 -96 42 -145t133 -49t132.5 49t41.5 145z" />
    <glyph glyph-name="uni0266" unicode="&#x266;" 
d="M776 1076q230 0 349.5 -133.5t119.5 -363.5v-579h-403v579q0 96 -42 145t-133 49q-89 0 -130.5 -46.5t-43.5 -138.5v-588h-403v1014q0 532 440 532q164 0 285 -57l-96 -269q-59 23 -111 23q-28 0 -48.5 -9.5t-32.5 -29.5t-19.5 -38.5t-10.5 -50t-3.5 -50t-0.5 -51.5v-75
q36 66 115 101.5t168 35.5z" />
    <glyph glyph-name="uni0267" unicode="&#x267;" 
d="M842 0v579q0 96 -42 145t-133 49q-89 0 -130.5 -46.5t-43.5 -138.5v-588h-403v1014q0 532 440 532q164 0 285 -57l-96 -269q-59 23 -111 23q-28 0 -48.5 -9.5t-32.5 -29.5t-19.5 -38.5t-10.5 -50t-3.5 -50t-0.5 -51.5v-75q36 66 115 101.5t168 35.5q230 0 349.5 -133.5
t119.5 -363.5v-579q0 -532 -440 -532q-163 0 -285 57l96 269q59 -23 111 -23q28 0 48.5 9.5t32.5 29.5t19.5 38.5t10.5 50t3.5 50t0.5 51.5z" />
    <glyph glyph-name="uni0268" unicode="&#x268;" horiz-adv-x="839" 
d="M0 452v303h218v291h403v-291h218v-303h-218v-452h-403v452h-218zM223 1344q0 81 57.5 138.5t138.5 57.5t138.5 -57.5t57.5 -138.5t-57.5 -138.5t-138.5 -57.5t-138.5 57.5t-57.5 138.5z" />
    <glyph glyph-name="uni0269" unicode="&#x269;" horiz-adv-x="669" 
d="M90 445v601h423v-575q0 -24 0.5 -35t4 -30.5t11 -29t22 -17t36.5 -7.5h32v-352h-132q-75 0 -135 13.5t-101 36t-71 57.5t-47 70.5t-27 84t-13 89.5t-3 94z" />
    <glyph glyph-name="uni026A" unicode="&#x26a;" horiz-adv-x="603" 
d="M90 0v1046h423v-1046h-423z" />
    <glyph glyph-name="uni026B" unicode="&#x26b;" horiz-adv-x="943" 
d="M269 1040v476h403v-492h271q-9 -84 -41 -156q-76 -161 -230 -188v-239q0 -31 0.5 -45t4 -36t11 -31.5t22 -17.5t36.5 -8h32v-303h-132q-75 0 -134.5 13.5t-98.5 33.5t-67 54.5t-42.5 66t-22.5 79t-10 82.5t-2 86v282h-269q7 81 40 155q68 157 229 188z" />
    <glyph glyph-name="uni026C" unicode="&#x26c;" horiz-adv-x="936" 
d="M407 1147v369h403v-759h126v-289h-126v-27q0 -31 0.5 -45t4 -36t11 -31.5t22 -17.5t36.5 -8h32v-303h-132q-75 0 -134.5 13.5t-98.5 33.5t-67 54.5t-42.5 66t-22.5 79t-10 82.5t-2 86v53h-21q-169 0 -262.5 93.5t-93.5 254.5q0 156 97 243.5t280 87.5zM407 757v121
q-84 0 -84 -62q0 -25 16 -42t47 -17h21z" />
    <glyph glyph-name="uni026D" unicode="&#x26d;" horiz-adv-x="605" 
d="M719 -206l96 -269q-121 -57 -285 -57q-440 0 -440 532v1516h403v-1516q0 -33 0.5 -51.5t3.5 -50t10.5 -50t19.5 -38.5t32.5 -29.5t48.5 -9.5q52 0 111 23z" />
    <glyph glyph-name="uni026E" unicode="&#x26e;" horiz-adv-x="1636" 
d="M394 -357l180 245q146 -117 339 -117q138 0 204 60t66 169q0 56 -22.5 97t-61.5 66t-104 39.5t-138.5 20t-175.5 5.5v216l324 299h-512v-302q0 -31 0.5 -45t4 -36t11 -31.5t22 -17.5t36.5 -8h32v-303h-132q-75 0 -134.5 13.5t-98.5 33.5t-67 54.5t-42.5 66t-22.5 79
t-10 82.5t-2 86v1101h403v-470h1012v-239l-363 -346q62 -12 117 -30.5t117.5 -55t106.5 -84.5t73.5 -123.5t29.5 -167.5q0 -241 -179.5 -386.5t-493.5 -145.5q-129 0 -240.5 30.5t-173 66.5t-105.5 78z" />
    <glyph glyph-name="uni026F" unicode="&#x26f;" horiz-adv-x="1945" 
d="M1855 1046v-1046h-403v99q-30 -59 -98 -94t-164 -35q-229 0 -332 154q-53 -70 -143.5 -112t-205.5 -42q-203 0 -311 131t-108 353v592h403v-622q0 -65 32 -108t106 -43q75 0 107.5 43t32.5 108v622h403v-622q0 -65 32 -108t107 -43t107 43t32 108v622h403z" />
    <glyph glyph-name="uni0270" unicode="&#x270;" horiz-adv-x="1945" 
d="M1855 1046v-1578h-403v631q-30 -59 -98 -94t-164 -35q-229 0 -332 154q-53 -70 -143.5 -112t-205.5 -42q-203 0 -311 131t-108 353v592h403v-622q0 -65 32 -108t106 -43q75 0 107.5 43t32.5 108v622h403v-622q0 -65 32 -108t107 -43t107 43t32 108v622h403z" />
    <glyph glyph-name="uni0271" unicode="&#x271;" horiz-adv-x="1945" 
d="M90 0v1046h403v-99q30 59 98 94t164 35q229 0 332 -154q53 70 143.5 112t205.5 42q203 0 311 -131t108 -353v-1124h-403v1154q0 65 -32 108t-106 43q-75 0 -107.5 -43t-32.5 -108v-622h-403v622q0 65 -32 108t-107 43t-107 -43t-32 -108v-622h-403z" />
    <glyph glyph-name="uni0272" unicode="&#x272;" horiz-adv-x="1357" 
d="M515 579v-579q0 -532 -440 -532q-163 0 -285 57l96 269q59 -23 111 -23q28 0 48.5 9.5t32.5 29.5t19.5 38.5t10.5 50t3.5 50t0.5 51.5v1046h403v-107q36 66 115 101.5t168 35.5q230 0 349.5 -133.5t119.5 -363.5v-579h-403v579q0 96 -42 145t-133 49t-132.5 -49
t-41.5 -145z" />
    <glyph glyph-name="uni0273" unicode="&#x273;" horiz-adv-x="1357" 
d="M1245 579v-579q0 -33 0.5 -51.5t3.5 -50t10.5 -50t19.5 -38.5t32.5 -29.5t48.5 -9.5q52 0 111 23l96 -269q-121 -57 -285 -57q-440 0 -440 532v579q0 96 -42 145t-133 49t-132.5 -49t-41.5 -145v-579h-403v1046h403v-107q36 66 115 101.5t168 35.5q230 0 349.5 -133.5
t119.5 -363.5z" />
    <glyph glyph-name="uni0274" unicode="&#x274;" horiz-adv-x="1332" 
d="M563 1046l276 -503v503h403v-1046h-473l-276 511v-511h-403v1046h473z" />
    <glyph glyph-name="uni0275" unicode="&#x275;" horiz-adv-x="1400" 
d="M700 -30q-300 0 -475 146t-175 407t175 407t475 146t475 -146t175 -407t-175 -407t-475 -146zM700 273q147 0 212 109h-425q65 -109 213 -109zM700 773q-147 0 -212 -108h424q-65 108 -212 108z" />
    <glyph glyph-name="uni0276" unicode="&#x276;" horiz-adv-x="1872" 
d="M700 -30q-300 0 -475 146t-175 407t175 407t475 146q136 0 247 -31v1h875v-303h-472v-76h449v-283h-449v-81h472v-303h-875q-111 -30 -247 -30zM700 273q111 0 179 66t68 184t-68 184t-179 66t-179 -66t-68 -184t68 -184t179 -66z" />
    <glyph glyph-name="uni0277" unicode="&#x277;" horiz-adv-x="1774" 
d="M887 1149q182 0 333 -39.5t264.5 -117.5t176.5 -201t63 -282q0 -133 -39.5 -237.5t-109 -169.5t-161 -98.5t-200.5 -33.5q-126 0 -208.5 48.5t-118.5 129.5q-36 -81 -118.5 -129.5t-208.5 -48.5q-109 0 -200.5 33.5t-161 98.5t-109 169.5t-39.5 237.5q0 159 63 282
t176.5 201t264.5 117.5t333 39.5zM887 846q-215 0 -324.5 -80.5t-109.5 -256.5q0 -120 26 -178t101 -58q19 0 33.5 5t25.5 17.5t18.5 27.5t13 40.5t8.5 50t4.5 63.5t2 73t0.5 86h402q0 -52 0.5 -86t2 -73t4.5 -63.5t8.5 -50t13 -40.5t18.5 -27.5t25.5 -17.5t33.5 -5
q75 0 101 58t26 178q0 176 -109.5 256.5t-324.5 80.5z" />
    <glyph glyph-name="uni0278" unicode="&#x278;" horiz-adv-x="1743" 
d="M670 1076v440h403v-440q131 -4 241 -39.5t196 -101t134.5 -171.5t48.5 -241t-48.5 -241t-134.5 -171.5t-196 -101t-241 -39.5v-502h-403v502q-131 4 -241 39.5t-196 101t-134.5 171.5t-48.5 241t48.5 241t134.5 171.5t196 101t241 39.5zM1073 773v-500q99 6 158 68.5
t59 181.5q0 118 -59.5 181t-157.5 69zM670 273v500q-98 -6 -157.5 -69t-59.5 -181q0 -119 59 -181.5t158 -68.5z" />
    <glyph glyph-name="uni0279" unicode="&#x279;" horiz-adv-x="1084" 
d="M30 45l172 285q103 -57 215 -57q174 0 174 204v569h403v-1046h-403v107q-36 -66 -115.5 -101.5t-167.5 -35.5q-166 0 -278 75z" />
    <glyph glyph-name="uni027A" unicode="&#x27a;" horiz-adv-x="1084" 
d="M30 45l172 285q103 -57 215 -57q174 0 174 204v1039h403v-1516h-403v107q-36 -66 -115.5 -101.5t-167.5 -35.5q-166 0 -278 75z" />
    <glyph glyph-name="uni027B" unicode="&#x27b;" horiz-adv-x="1106" 
d="M30 45l172 285q103 -57 215 -57q174 0 174 204v569h403v-1046q0 -33 0.5 -51.5t3.5 -50t10.5 -50t19.5 -38.5t32.5 -29.5t48.5 -9.5q52 0 111 23l96 -269q-122 -57 -285 -57q-440 0 -440 532v107q-36 -66 -115.5 -101.5t-167.5 -35.5q-166 0 -278 75z" />
    <glyph glyph-name="uni027C" unicode="&#x27c;" horiz-adv-x="1054" 
d="M1054 1001l-172 -285q-103 57 -215 57q-174 0 -174 -204v-1101h-403v1578h403v-107q36 66 115 101.5t168 35.5q166 0 278 -75z" />
    <glyph glyph-name="uni027D" unicode="&#x27d;" horiz-adv-x="1054" 
d="M1054 1001l-172 -285q-103 57 -215 57q-174 0 -174 -204v-645q0 -46 13 -67t44 -21q58 0 114 56l153 -229q-52 -65 -137 -106t-201 -41q-200 0 -294.5 103.5t-94.5 324.5v1102h403v-107q36 66 115 101.5t168 35.5q166 0 278 -75z" />
    <glyph glyph-name="uni027E" unicode="&#x27e;" horiz-adv-x="947" 
d="M947 1047l-121 -291q-45 17 -116 17q-110 0 -163.5 -64t-53.5 -165v-544h-403v544q0 118 36.5 213.5t110 167.5t194 111.5t279.5 39.5q130 0 237 -29z" />
    <glyph glyph-name="uni027F" unicode="&#x27f;" horiz-adv-x="977" 
d="M151 756l-121 291q107 29 237 29q159 0 279.5 -39.5t194 -111.5t110 -167.5t36.5 -213.5v-1076h-403v1076q0 101 -53.5 165t-163.5 64q-71 0 -116 -17z" />
    <glyph glyph-name="uni0280" unicode="&#x280;" horiz-adv-x="1281" 
d="M493 0h-403v1046h605q244 0 372.5 -100.5t128.5 -262.5q0 -123 -59 -208.5t-134 -116.5l248 -358h-436l-221 319h-101v-319zM695 743h-202v-182h202q98 0 98 91t-98 91z" />
    <glyph glyph-name="uni0281" unicode="&#x281;" horiz-adv-x="1281" 
d="M90 1046h403v-319h101l221 319h436l-248 -358q75 -31 134 -116.5t59 -208.5q0 -162 -128.5 -262.5t-372.5 -100.5h-605v1046zM493 303h202q98 0 98 91t-98 91h-202v-182z" />
    <glyph glyph-name="uni0282" unicode="&#x282;" horiz-adv-x="1096" 
d="M553 -156l129 -232q-50 -65 -132 -104.5t-182 -39.5q-176 0 -257 103.5t-81 324.5v480q102 -48 245.5 -75.5t239.5 -27.5q83 0 115.5 12.5t32.5 37.5q0 9 -2.5 16.5t-8 13.5t-11 11t-15.5 9t-17 6.5t-20 5.5t-20 4.5t-21 4t-19 3.5q-231 44 -343 124t-112 224
q0 158 121 244.5t340 86.5q301 0 487 -109l-128 -263q-65 30 -157.5 49.5t-161.5 19.5q-52 0 -75 -9t-23 -35q0 -33 110 -56l12 -3q90 -18 155.5 -36.5t127.5 -48t100 -66.5t61 -91t23 -123q0 -76 -30 -135.5t-79.5 -96.5t-121 -60.5t-147 -33t-163.5 -9.5q-70 0 -143 10
v-104q0 -46 13 -67t44 -21q58 0 114 56z" />
    <glyph glyph-name="uni0283" unicode="&#x283;" horiz-adv-x="747" 
d="M897 1489l-96 -269q-59 23 -111 23q-28 0 -48.5 -9.5t-32.5 -29.5t-19.5 -38.5t-10.5 -50t-3.5 -50t-0.5 -51.5v-1014q0 -532 -440 -532q-163 0 -285 57l96 269q59 -23 111 -23q28 0 48.5 9.5t32.5 29.5t19.5 38.5t10.5 50t3.5 50t0.5 51.5v1014q0 532 440 532
q164 0 285 -57z" />
    <glyph glyph-name="uni0284" unicode="&#x284;" horiz-adv-x="787" 
d="M-84 0v352h276v662q0 532 440 532q164 0 285 -57l-96 -269q-59 23 -111 23q-28 0 -48.5 -9.5t-32.5 -29.5t-19.5 -38.5t-10.5 -50t-3.5 -50t-0.5 -51.5v-662h276v-352h-276q0 -532 -440 -532q-163 0 -285 57l96 269q59 -23 111 -23q28 0 48.5 9.5t32.5 29.5t19.5 38.5
t10.5 50t3.5 50t0.5 51.5h-276z" />
    <glyph glyph-name="uni0285" unicode="&#x285;" horiz-adv-x="777" 
d="M36 750l-96 269q122 57 285 57q440 0 440 -532v-544q0 -33 0.5 -51.5t3.5 -50t10.5 -50t19.5 -38.5t32.5 -29.5t48.5 -9.5q52 0 111 23l96 -269q-121 -57 -285 -57q-440 0 -440 532v544q0 33 -0.5 51.5t-3.5 50t-10.5 50t-19.5 38.5t-32.5 29.5t-48.5 9.5q-52 0 -111 -23
z" />
    <glyph glyph-name="uni0286" unicode="&#x286;" horiz-adv-x="1041" 
d="M153 491v523q0 532 440 532q163 0 285 -57l-96 -269q-59 23 -111 23q-28 0 -48.5 -9.5t-32.5 -29.5t-19.5 -38.5t-10.5 -50t-3.5 -50t-0.5 -51.5v-428q65 19 133 20.5t131 -17t112.5 -53.5t79 -94t29.5 -134q0 -93 -34.5 -162t-92 -105.5t-121.5 -53.5t-136 -17
q-166 0 -263 57q-13 -14 -47 -67q-2 -3 -11 -18t-14 -23l-292 217q23 38 44 70q60 89 91 126q-12 38 -12 159zM637 237q36 0 57.5 18t21.5 47q0 21 -15.5 30.5t-34.5 9.5q-66 0 -98 -59q2 -20 21.5 -33t47.5 -13z" />
    <glyph glyph-name="uni0287" unicode="&#x287;" horiz-adv-x="881" 
d="M851 601v-303h-184v-298h-403v298h-270v303h270v283q0 110 -27 153.5t-103 43.5q-55 0 -115 -21l-79 262q119 52 262 52q132 0 222.5 -30.5t143.5 -94t76 -151.5t23 -214v-283h184z" />
    <glyph glyph-name="uni0288" unicode="&#x288;" horiz-adv-x="961" 
d="M204 -42v785h-174v303h174v298h403v-298h260v-303h-260v-785q0 -110 27 -153.5t103 -43.5q55 0 115 21l79 -262q-119 -52 -262 -52q-132 0 -222.5 30.5t-143.5 94t-76 151.5t-23 214z" />
    <glyph glyph-name="uni0289" unicode="&#x289;" horiz-adv-x="1535" 
d="M0 433v303h190v310h403v-310h349v310h403v-310h190v-303h-190v-433h-403v107q-36 -66 -115.5 -101.5t-167.5 -35.5q-222 0 -341 124t-127 339h-191zM768 273q160 0 172 160h-346q7 -80 49 -120t125 -40z" />
    <glyph glyph-name="uni028A" unicode="&#x28a;" horiz-adv-x="1412" 
d="M706 -30q-311 0 -483.5 114.5t-172.5 340.5q0 121 59.5 201.5t158.5 116.5h-189v303h559v-236q-91 -61 -138 -136t-47 -179q0 -111 60.5 -166.5t192.5 -55.5t192.5 55.5t60.5 166.5q0 104 -47 179t-138 136v236h559v-303h-189q99 -37 158.5 -117t59.5 -201
q0 -226 -172.5 -340.5t-483.5 -114.5z" />
    <glyph glyph-name="uni028B" unicode="&#x28b;" horiz-adv-x="1223" 
d="M90 400v646h403v-646q0 -127 98 -127q83 0 131 75t48 225q0 151 -140 157v316q268 0 405.5 -120t137.5 -332q0 -94 -20.5 -182t-67.5 -169t-115 -141t-171 -96t-228 -36q-49 0 -94 5t-94.5 18t-90.5 33.5t-79.5 54t-65 77t-42 105.5t-15.5 137z" />
    <glyph glyph-name="uni028C" unicode="&#x28c;" horiz-adv-x="1252" 
d="M834 1046l418 -1046h-421l-205 613l-205 -613h-421l418 1046h416z" />
    <glyph glyph-name="uni028D" unicode="&#x28d;" horiz-adv-x="1800" 
d="M900 571l146 475h386l368 -1046h-421l-164 584l-179 -584h-272l-179 584l-164 -584h-421l368 1046h386z" />
    <glyph glyph-name="uni028E" unicode="&#x28e;" horiz-adv-x="1252" 
d="M0 0l557 1328q26 58 58 100t80 77.5t117 54t158 18.5q148 0 272 -54l-114 -280q-64 31 -119 31q-66 0 -102 -39t-66 -119l-27 -71l438 -1046h-411l-215 603l-215 -603h-411z" />
    <glyph glyph-name="uni028F" unicode="&#x28f;" horiz-adv-x="1320" 
d="M660 709l222 337h438l-458 -641v-405h-404v405l-458 641h438z" />
    <glyph glyph-name="uni0290" unicode="&#x290;" horiz-adv-x="1159" 
d="M70 0v173l482 570h-456v303h999v-175l-482 -568h482v-303q0 -54 10.5 -95t36 -76.5t75.5 -54.5t122 -19v-333q-127 0 -228.5 34t-166 90t-107.5 132t-61 155.5t-18 166.5h-688z" />
    <glyph glyph-name="uni0291" unicode="&#x291;" horiz-adv-x="1534" 
d="M70 0v173l482 570h-456v303h999v-175l-482 -568h153q58 116 84 156q142 219 375 219q163 0 266 -90t103 -232q0 -164 -98 -260t-312 -96h-147q-17 -46 -41 -122q-6 -21 -16 -59l-345 58q3 11 11 37q13 43 30 86h-606zM1223 393q-32 0 -55.5 -21t-44.5 -69q91 0 115 7
q39 11 39 47q0 15 -13 25.5t-41 10.5z" />
    <glyph glyph-name="uni0292" unicode="&#x292;" horiz-adv-x="1292" 
d="M50 -357l180 245q146 -117 339 -117q138 0 204 60t66 169q0 56 -22.5 97t-61.5 66t-104 39.5t-138.5 20t-175.5 5.5v216l324 299h-512v303h1012v-239l-363 -346q62 -12 117 -30.5t117.5 -55t106.5 -84.5t73.5 -123.5t29.5 -167.5q0 -241 -179.5 -386.5t-493.5 -145.5
q-129 0 -240.5 30.5t-173 66.5t-105.5 78z" />
    <glyph glyph-name="uni0293" unicode="&#x293;" horiz-adv-x="1318" 
d="M865 0q0 56 -22.5 97t-61.5 66t-104 39.5t-138.5 20t-175.5 5.5v216l324 299h-512v303h1012v-239l-363 -346q62 -12 117 -30.5t117.5 -55t106.5 -84.5t73.5 -123.5t29.5 -167.5q0 -151 -66 -287.5t-161 -200.5q36 -98 55 -177l-325 -124q-22 103 -41 169
q-61 -23 -191 -23q-92 0 -168 16t-128 45t-90.5 65t-60.5 79.5t-32 85.5t-10 86q0 30 5 62t18 69t33.5 70.5t54 65t76.5 54.5t105 37t135 14q131 0 231 -49t150 -130q7 26 7 73zM379 -266q0 -74 160 -74q68 0 109 29q-42 114 -171 114q-45 0 -71.5 -18.5t-26.5 -50.5z" />
    <glyph glyph-name="uni0294" unicode="&#x294;" horiz-adv-x="1284" 
d="M380 1001l-330 182q20 32 45.5 63t77.5 75t113.5 75.5t155.5 54.5t201 23q277 0 434 -125.5t157 -320.5q0 -63 -18.5 -119.5t-61 -111.5t-124 -96.5t-195.5 -61.5v-639h-423v844q194 2 296.5 40.5t102.5 123.5q0 53 -45 83.5t-123 30.5q-151 0 -263 -121z" />
    <glyph glyph-name="uni0295" unicode="&#x295;" horiz-adv-x="1284" 
d="M1234 1183l-330 -182q-112 121 -263 121q-78 0 -123 -30.5t-45 -83.5q0 -85 102.5 -123.5t296.5 -40.5v-844h-423v639q-114 20 -195.5 61.5t-124 96.5t-61 111.5t-18.5 119.5q0 195 157 320.5t434 125.5q107 0 201 -23t155.5 -54.5t113.5 -75.5t77.5 -75t45.5 -63z" />
    <glyph glyph-name="uni0296" unicode="&#x296;" horiz-adv-x="1284" 
d="M50 251l330 182q107 -121 263 -121q78 0 123 30.5t45 83.5q0 86 -101.5 123t-297.5 41v844h423v-639q114 -20 195.5 -61.5t124 -96.5t61 -111.5t18.5 -119.5q0 -195 -157 -320.5t-434 -125.5q-107 0 -201 23t-155.5 54.5t-113.5 75.5t-77.5 75t-45.5 63z" />
    <glyph glyph-name="uni0297" unicode="&#x297;" horiz-adv-x="1313" 
d="M453 316q0 -234 77.5 -345.5t232.5 -111.5q197 0 329 111l171 -239q-177 -175 -500 -175q-338 0 -525.5 195t-187.5 565t187.5 565t525.5 195q323 0 500 -175l-171 -239q-132 111 -329 111q-155 0 -232.5 -111.5t-77.5 -345.5z" />
    </font>
</defs>
</svg>
