<?xml version="1.0" standalone="no"?>
<!DOCTYPE svg PUBLIC "-//W3C//DTD SVG 1.1//EN" "http://www.w3.org/Graphics/SVG/1.1/DTD/svg11.dtd" >
<svg xmlns="http://www.w3.org/2000/svg" xmlns:xlink="http://www.w3.org/1999/xlink" version="1.1">
<metadata>
Created by FontForge 20170731 at Fri Apr  7 10:27:45 2017
 By Aleksey,,,
Copyright (c) 2017 by Artegra. All rights reserved.
</metadata>
<defs>
<font id="ArtegraSans-Bold" horiz-adv-x="1276" >
  <font-face 
    font-family="ArtegraSans-Bold"
    font-weight="700"
    font-stretch="normal"
    units-per-em="2048"
    panose-1="2 0 8 3 5 0 0 2 0 4"
    ascent="1524"
    descent="-524"
    x-height="1030"
    cap-height="1434"
    bbox="-220 -880 3247 2230"
    underline-thickness="102"
    underline-position="-307"
    unicode-range="U+000D-FE65"
  />
<missing-glyph horiz-adv-x="922" 
 />
    <glyph glyph-name="ff" unicode="ff" horiz-adv-x="1619" 
d="M1392 1294q-33 0 -56 -5.5t-38.5 -21.5t-24 -33t-13 -51.5t-5.5 -65.5t-1 -87h284v-252h-284v-778h-328v778h-370v-778h-328v778h-188v252h188q1 80 9.5 140.5t35.5 127t71.5 109.5t123 71t186.5 28q142 0 257 -44l-85 -229q-71 21 -132 21q-33 0 -56 -5.5t-38.5 -19.5
t-24 -29.5t-13 -45t-5.5 -55t-1 -69.5h370q1 65 5.5 115.5t16 106t30.5 97t51.5 80.5t76 63.5t106 39t140.5 14.5q142 0 257 -44l-85 -229q-71 21 -132 21z" />
    <glyph glyph-name="fi" unicode="fi" horiz-adv-x="1340" 
d="M542 1030h698v-1030h-328v778h-370v-778h-328v778h-174v252h174q2 63 9 115t24 106.5t43 97t69 80.5t99.5 63t135.5 39.5t176 14.5q298 0 461 -122l-169 -198q-119 68 -272 68q-143 0 -195.5 -59t-52.5 -205z" />
    <glyph glyph-name="fl" unicode="fl" horiz-adv-x="1419" 
d="M912 778h-370v-778h-328v778h-174v252h174q2 63 9 115t24 106.5t43 97t69 80.5t99.5 63t135.5 39.5t176 14.5q147 0 269.5 -30t200.5 -86v-1010v-36t1.5 -33t4.5 -33t8.5 -26t14 -22t21.5 -12.5t30 -5.5h39v-252h-106q-97 0 -166 30t-102 67t-50.5 100.5t-20 99
t-2.5 93.5v388zM790 1294q-143 0 -195.5 -59t-52.5 -205h370v251q-46 13 -122 13z" />
    <glyph glyph-name="ffi" unicode="ffi" horiz-adv-x="2052" 
d="M1254 1030h698v-1030h-328v778h-370v-778h-328v778h-370v-778h-328v778h-188v252h188q1 80 9.5 140.5t35.5 127t71.5 109.5t123 71t186.5 28q142 0 257 -44l-85 -229q-71 21 -132 21q-33 0 -56 -5.5t-38.5 -19.5t-24 -29.5t-13 -45t-5.5 -55t-1 -69.5h370
q1 89 14.5 159.5t50.5 139.5t97 115t160 74t234 28q298 0 461 -122l-169 -198q-119 68 -272 68q-143 0 -195.5 -59t-52.5 -205z" />
    <glyph glyph-name="ffl" unicode="ffl" horiz-adv-x="2131" 
d="M1624 778h-370v-778h-328v778h-370v-778h-328v778h-188v252h188q1 80 9.5 140.5t35.5 127t71.5 109.5t123 71t186.5 28q142 0 257 -44l-85 -229q-71 21 -132 21q-33 0 -56 -5.5t-38.5 -19.5t-24 -29.5t-13 -45t-5.5 -55t-1 -69.5h370q1 89 14.5 159.5t50.5 139.5t97 115
t160 74t234 28q147 0 269.5 -30t200.5 -86v-1010v-36t1.5 -33t4.5 -33t8.5 -26t14 -22t21.5 -12.5t30 -5.5h39v-252h-106q-97 0 -166 30t-102 67t-50.5 100.5t-20 99t-2.5 93.5v388zM1502 1294q-143 0 -195.5 -59t-52.5 -205h370v251q-46 13 -122 13z" />
    <glyph glyph-name=".notdef" horiz-adv-x="922" 
 />
    <glyph glyph-name=".null" horiz-adv-x="0" 
 />
    <glyph glyph-name="nonmarkingreturn" unicode="&#xd;" horiz-adv-x="922" 
 />
    <glyph glyph-name="null" horiz-adv-x="0" 
 />
    <glyph glyph-name="null" horiz-adv-x="0" 
 />
    <glyph glyph-name="space" unicode=" " horiz-adv-x="573" 
 />
    <glyph glyph-name="exclam" unicode="!" horiz-adv-x="626" 
d="M187 422l-40 1012h333l-40 -1012h-253zM140 163q0 72 50.5 122.5t122.5 50.5t122.5 -50.5t50.5 -122.5t-50.5 -122.5t-122.5 -50.5t-122.5 50.5t-50.5 122.5z" />
    <glyph glyph-name="quotedbl" unicode="&#x22;" horiz-adv-x="818" 
d="M101 927l-21 507h293l-20 -507h-252zM466 927l-21 507h293l-20 -507h-252z" />
    <glyph glyph-name="numbersign" unicode="#" horiz-adv-x="1541" 
d="M928 1112l52 322h317l-52 -322h216v-286h-262l-35 -218h216v-286h-262l-51 -322h-317l51 322h-188l-51 -322h-318l51 322h-215v286h261l35 218h-215v286h261l52 322h318l-52 -322h188zM694 826l-35 -218h188l35 218h-188z" />
    <glyph glyph-name="dollar" unicode="$" horiz-adv-x="1356" 
d="M1228 1330l-162 -235q-181 90 -394 90q-109 0 -164 -36t-55 -103q0 -69 65 -109.5t202 -68.5q142 -30 242.5 -68.5t175.5 -94t111.5 -131.5t36.5 -176q0 -187 -120.5 -294.5t-339.5 -134.5v-229h-265v224q-302 22 -491 168l162 235q188 -118 440 -118q146 0 211.5 38
t65.5 111q0 68 -67 105t-225 69q-279 59 -410 177.5t-131 296.5q0 78 24 146t75 126.5t139 97.5t207 52v226h265v-229q245 -29 402 -135z" />
    <glyph glyph-name="uni0025" unicode="%" horiz-adv-x="1805" 
d="M329 0l802 1434h345l-802 -1434h-345zM331 1109q0 -45 27.5 -74.5t76.5 -29.5t76.5 29.5t27.5 74.5t-27.5 74.5t-76.5 29.5t-76.5 -29.5t-27.5 -74.5zM80 1109q0 149 101 252t254 103q152 0 253.5 -103t101.5 -252t-101.5 -252t-253.5 -103q-153 0 -254 103t-101 252z
M1266 325q0 -45 27.5 -74.5t76.5 -29.5t76.5 29.5t27.5 74.5t-27.5 74.5t-76.5 29.5t-76.5 -29.5t-27.5 -74.5zM1015 325q0 149 101 252t254 103q152 0 253.5 -103t101.5 -252t-101.5 -252t-253.5 -103q-153 0 -254 103t-101 252z" />
    <glyph glyph-name="ampersand" unicode="&#x26;" horiz-adv-x="1624" 
d="M686 1464q207 0 318 -101.5t111 -270.5q0 -49 -13 -93t-40.5 -82.5t-53.5 -67.5t-70.5 -62t-71.5 -51t-75 -48q-11 -7 -16 -10q67 -81 153 -160q43 72 85 179l300 -100q-65 -178 -142 -289q102 -83 288 -209q73 -50 155 -99h-496q-5 3 -20.5 12t-24.5 14q-60 35 -97 62
q-77 -59 -167.5 -88.5t-231.5 -29.5q-105 0 -191.5 20.5t-156.5 64t-109.5 118.5t-39.5 177q0 130 68 224.5t196 169.5q-105 131 -105 308q0 99 36.5 178.5t98.5 129.5t142 77t170 27zM413 370q0 -49 41.5 -80t119.5 -31q101 0 157 46q-87 67 -216 209q-56 -31 -79 -64.5
t-23 -79.5zM782 1092q0 83 -96 83q-44 0 -79 -34.5t-35 -108.5q0 -60 45 -128q39 23 52 31t42 29.5t39.5 36.5t21 39.5t10.5 51.5z" />
    <glyph glyph-name="quotesingle" unicode="'" horiz-adv-x="453" 
d="M101 927l-21 507h293l-20 -507h-252z" />
    <glyph glyph-name="parenleft" unicode="(" horiz-adv-x="903" 
d="M433 580q0 -348 205 -537q91 -85 205 -122l-100 -278q-179 55 -322 177q-65 56 -119 124t-101.5 160.5t-74 214.5t-26.5 261q0 486 321 759q142 121 322 178l100 -278q-115 -39 -205 -123q-205 -189 -205 -536z" />
    <glyph glyph-name="parenright" unicode=")" horiz-adv-x="903" 
d="M470 580q0 341 -205 536q-92 84 -205 123l100 278q179 -57 321 -178q322 -274 322 -759q0 -486 -322 -760q-143 -122 -321 -177l-100 278q112 37 205 122q205 195 205 537z" />
    <glyph glyph-name="asterisk" unicode="*" horiz-adv-x="1020" 
d="M663 616l-153 212l-153 -212l-214 178l176 171l-259 75l91 258l225 -106l-20 242h308l-20 -242l225 106l91 -258l-259 -75l176 -171z" />
    <glyph glyph-name="plus" unicode="+" horiz-adv-x="1110" 
d="M1030 823v-289h-326v-331h-298v331h-326v289h326v330h298v-330h326z" />
    <glyph glyph-name="comma" unicode="," horiz-adv-x="670" 
d="M60 -278l211 542h319l-249 -542h-281z" />
    <glyph glyph-name="hyphen" unicode="-" horiz-adv-x="930" 
d="M850 706v-252h-770v252h770z" />
    <glyph glyph-name="period" unicode="." horiz-adv-x="506" 
d="M80 163q0 72 50.5 122.5t122.5 50.5t122.5 -50.5t50.5 -122.5t-50.5 -122.5t-122.5 -50.5t-122.5 50.5t-50.5 122.5z" />
    <glyph glyph-name="slash" unicode="/" horiz-adv-x="1153" 
d="M80 0l660 1434h333l-659 -1434h-334z" />
    <glyph glyph-name="zero" unicode="0" horiz-adv-x="1392" 
d="M1332 717q0 -160 -39 -296t-115.5 -239.5t-200 -162.5t-281.5 -59t-281.5 59t-200 162.5t-115.5 239.5t-39 296t39 296t115.5 239.5t200 162.5t281.5 59q127 0 232 -38.5t179 -107t125.5 -163.5t75.5 -207.5t24 -240.5zM999 717q0 223 -74.5 346t-228.5 123t-228.5 -123
t-74.5 -346t74.5 -346t228.5 -123t228.5 123t74.5 346z" />
    <glyph glyph-name="one" unicode="1" horiz-adv-x="807" 
d="M218 829l-208 220l432 385h265v-1434h-333v966z" />
    <glyph glyph-name="two" unicode="2" horiz-adv-x="1242" 
d="M377 989l-297 100q17 53 43.5 102.5t73 102.5t105 91.5t145 63.5t187.5 25q235 0 378.5 -115.5t143.5 -338.5q0 -51 -14.5 -101t-34.5 -88t-58.5 -86t-67.5 -78.5t-80 -81.5l-303 -296h564v-289h-1064v226l590 576q72 71 103.5 120.5t31.5 97.5q0 74 -48 119.5t-141 45.5
q-56 0 -100.5 -17.5t-74.5 -50.5t-47 -60.5t-35 -67.5z" />
    <glyph glyph-name="three" unicode="3" horiz-adv-x="1283" 
d="M60 285l297 100q79 -136 285 -136q122 0 185 42t63 121q0 103 -102 141.5t-328 38.5v279q191 0 290.5 41t99.5 141q0 62 -52.5 97t-155.5 35q-168 0 -245 -116l-297 100q13 33 34.5 68t66 79t101.5 77.5t146 57t194 23.5q81 0 156.5 -14t146 -46t123 -79.5t84 -120
t31.5 -161.5q0 -105 -56.5 -185.5t-166.5 -122.5q51 -15 93.5 -39t83 -62t63.5 -97.5t23 -134.5q0 -212 -159 -332t-422 -120q-460 0 -582 325z" />
    <glyph glyph-name="four" unicode="4" horiz-adv-x="1346" 
d="M1107 0h-333v292h-694v253l739 889h288v-853h179v-289h-179v-292zM487 581h287v346z" />
    <glyph glyph-name="five" unicode="5" horiz-adv-x="1330" 
d="M1144 1434v-289h-623l-13 -227q65 13 154 13q588 0 588 -480q0 -84 -21 -156.5t-66.5 -135t-113.5 -106t-166.5 -68.5t-220.5 -25q-206 0 -337.5 48t-224.5 136l212 219q138 -114 350 -114q118 0 186.5 49t68.5 153q0 201 -255 201q-173 0 -356 -52q-76 -21 -155 -52
l54 886h939z" />
    <glyph glyph-name="six" unicode="6" horiz-adv-x="1343" 
d="M1127 1395l-123 -244q-170 56 -293 34.5t-195 -93t-85 -175.5q29 27 94 48t146 21q277 0 434.5 -142t157.5 -371t-157.5 -371t-434.5 -142q-133 0 -239.5 39t-177 109.5t-112 162t-53.5 201.5q-18 185 2 341t71.5 267.5t128 193.5t172.5 126.5t205 59.5t225.5 -2
t233.5 -63zM930 473q0 108 -69.5 166t-189.5 58t-189.5 -58t-69.5 -166t69 -166t190 -58q120 0 189.5 58t69.5 166z" />
    <glyph glyph-name="seven" unicode="7" horiz-adv-x="1151" 
d="M80 1145v289h991v-235l-547 -1199h-353l530 1145h-621z" />
    <glyph glyph-name="eight" unicode="8" horiz-adv-x="1294" 
d="M647 -40q-173 0 -303 49t-207 155t-77 259q0 227 198 328q-74 41 -119.5 115.5t-45.5 160.5q0 199 144.5 323t409.5 124t409.5 -124t144.5 -323q0 -86 -45.5 -160.5t-119.5 -115.5q198 -101 198 -328q0 -153 -77 -259t-207 -155t-303 -49zM647 249q124 0 189 44t65 130
t-65 130t-189 44t-189 -44t-65 -130t65 -130t189 -44zM868 1027q0 73 -53 115.5t-168 42.5t-168 -42.5t-53 -115.5q0 -158 221 -158t221 158z" />
    <glyph glyph-name="nine" unicode="9" horiz-adv-x="1343" 
d="M216 39l123 244q170 -56 293 -34.5t194.5 93t85.5 175.5q-32 -27 -95.5 -48t-144.5 -21q-277 0 -434.5 142t-157.5 371t157.5 371t434.5 142q133 0 239.5 -39t177 -109.5t112 -162t53.5 -201.5q18 -185 -2 -341t-71.5 -267.5t-128 -193.5t-172.5 -126.5t-205 -59.5
t-225.5 2t-233.5 63zM413 961q0 -108 69 -166t190 -58q120 0 189.5 58t69.5 166t-69.5 166t-189.5 58q-121 0 -190 -58t-69 -166z" />
    <glyph glyph-name="colon" unicode=":" horiz-adv-x="506" 
d="M80 163q0 72 50.5 122.5t122.5 50.5t122.5 -50.5t50.5 -122.5t-50.5 -122.5t-122.5 -50.5t-122.5 50.5t-50.5 122.5zM80 867q0 72 50.5 122.5t122.5 50.5t122.5 -50.5t50.5 -122.5t-50.5 -122.5t-122.5 -50.5t-122.5 50.5t-50.5 122.5z" />
    <glyph glyph-name="semicolon" unicode=";" horiz-adv-x="600" 
d="M174 867q0 72 50.5 122.5t122.5 50.5t122.5 -50.5t50.5 -122.5t-50.5 -122.5t-122.5 -50.5t-122.5 50.5t-50.5 122.5zM-20 -278l211 542h319l-249 -542h-281z" />
    <glyph glyph-name="less" unicode="&#x3c;" horiz-adv-x="1114" 
d="M1014 88l-934 479v204l934 479v-340l-534 -241l534 -241v-340z" />
    <glyph glyph-name="equal" unicode="=" horiz-adv-x="1069" 
d="M989 608v-289h-909v289h909zM989 1030v-289h-909v289h909z" />
    <glyph glyph-name="greater" unicode="&#x3e;" horiz-adv-x="1114" 
d="M1034 567l-934 -479v340l534 241l-534 241v340l934 -479v-204z" />
    <glyph glyph-name="question" unicode="?" horiz-adv-x="1198" 
d="M327 1038l-267 145q30 57 74 105.5t107.5 92t154 68.5t197.5 25q135 0 241 -34t171.5 -94t99 -138t33.5 -170q0 -50 -11 -97.5t-39.5 -97.5t-72 -89.5t-115.5 -70.5t-163 -44v-217h-333v412q186 2 293.5 55t107.5 149q0 73 -50.5 110t-161.5 37q-95 0 -156 -38.5
t-110 -108.5zM397 163q0 72 50.5 122.5t122.5 50.5t122.5 -50.5t50.5 -122.5t-50.5 -122.5t-122.5 -50.5t-122.5 50.5t-50.5 122.5z" />
    <glyph glyph-name="at" unicode="@" horiz-adv-x="1660" 
d="M1255 385q-90 0 -150.5 42.5t-75.5 101.5q-20 -84 -89.5 -143t-176.5 -59q-45 0 -89.5 11.5t-89.5 41t-78 73.5t-50 115t-9 159q10 90 45 160.5t79 111t98 66.5t97.5 34.5t83.5 8.5q164 0 299 -69q-15 -188 -19 -312q-2 -74 26.5 -120t88.5 -46q58 0 92 37.5t34 118.5
q0 170 -73.5 296.5t-195 190.5t-272.5 64t-272.5 -64t-195 -190.5t-73.5 -296.5t73.5 -296.5t195 -190.5t272.5 -64q245 0 442 138l150 -152q-111 -85 -249 -133.5t-343 -48.5q-126 0 -243 34.5t-212 100.5t-166 156t-110 207.5t-39 248.5t39 248.5t110 207.5t166 156
t212 100.5t243 34.5t243 -34.5t212 -100.5t166 -156t110 -207.5t39 -248.5q0 -150 -91.5 -241t-253.5 -91zM643 716q-11 -102 26 -157.5t116 -55.5q71 0 112.5 55t55.5 184q5 59 13 121q4 28 6 55q-122 41 -218 -9.5t-111 -192.5z" />
    <glyph glyph-name="A" unicode="A" horiz-adv-x="1536" 
d="M479 281l-110 -281h-359l593 1434h330l593 -1434h-359l-110 281h-578zM768 1014l-179 -454h358z" />
    <glyph glyph-name="B" unicode="B" horiz-adv-x="1432" 
d="M793 0h-693v1434h677q544 0 544 -383q0 -109 -70 -190t-175 -102q142 -30 219 -115.5t77 -213.5q0 -65 -16 -123t-57.5 -115.5t-105 -99t-166.5 -67t-234 -25.5zM433 278h352q139 0 193 39t54 123q0 85 -54 123.5t-193 38.5h-352v-324zM433 871h352q200 0 200 142
t-200 142h-352v-284z" />
    <glyph glyph-name="C" unicode="C" horiz-adv-x="1457" 
d="M60 717q0 123 28.5 233t90 206.5t151 166.5t219 110.5t287.5 40.5q201 0 336 -44.5t245 -138.5l-165 -226q-83 55 -178.5 87.5t-237.5 32.5q-110 0 -194 -35.5t-135.5 -99.5t-77.5 -148t-26 -185t26 -185t77.5 -148t135.5 -99.5t194 -35.5q245 0 416 120l165 -226
q-110 -94 -245 -138.5t-336 -44.5q-158 0 -287.5 40.5t-219 110.5t-151 166.5t-90 206.5t-28.5 233z" />
    <glyph glyph-name="D" unicode="D" horiz-adv-x="1483" 
d="M1423 717q0 -157 -44.5 -286.5t-131.5 -226.5t-225 -150.5t-315 -53.5h-607v1434h607q177 0 315 -53.5t225 -150.5t131.5 -226.5t44.5 -286.5zM433 1145v-856h274q100 0 174 35t116.5 96.5t62.5 135.5t20 161t-20 161t-62.5 135.5t-116.5 96.5t-174 35h-274z" />
    <glyph glyph-name="E" unicode="E" horiz-adv-x="1256" 
d="M433 876h690v-289h-690v-298h743v-289h-1076v1434h1066v-289h-733v-269z" />
    <glyph glyph-name="F" unicode="F" horiz-adv-x="1246" 
d="M433 856h690v-289h-690v-567h-333v1434h1066v-289h-733v-289z" />
    <glyph glyph-name="G" unicode="G" horiz-adv-x="1507" 
d="M836 249q165 0 273 55v263h-277v279h586v-716q-203 -170 -582 -170q-158 0 -287.5 40.5t-219 110.5t-151 166.5t-90 206.5t-28.5 233t28.5 233t90 206.5t151 166.5t219 110.5t287.5 40.5q165 0 312 -39.5t279 -143.5l-170 -222q-173 116 -421 116q-110 0 -194 -35.5
t-135.5 -99.5t-77.5 -148t-26 -185t26 -185t77.5 -148t135.5 -99.5t194 -35.5z" />
    <glyph glyph-name="H" unicode="H" horiz-adv-x="1491" 
d="M1058 876v558h333v-1434h-333v587h-625v-587h-333v1434h333v-558h625z" />
    <glyph glyph-name="I" unicode="I" horiz-adv-x="533" 
d="M100 0v1434h333v-1434h-333z" />
    <glyph glyph-name="J" unicode="J" horiz-adv-x="1194" 
d="M40 318l308 85q33 -75 83.5 -114.5t138.5 -39.5q103 0 147 56t44 175v954h333v-954q0 -520 -524 -520q-122 0 -215.5 27t-154.5 78t-98.5 112t-61.5 141z" />
    <glyph glyph-name="K" unicode="K" horiz-adv-x="1441" 
d="M433 852l571 582h407l-610 -621l630 -813h-395l-454 587l-149 -153v-434h-333v1434h333v-582z" />
    <glyph glyph-name="L" unicode="L" horiz-adv-x="1191" 
d="M433 1434v-1145h698v-289h-1031v1434h333z" />
    <glyph glyph-name="M" unicode="M" horiz-adv-x="1842" 
d="M557 1434l364 -908l364 908h457v-1434h-333v900l-359 -900h-258l-359 900v-900h-333v1434h457z" />
    <glyph glyph-name="N" unicode="N" horiz-adv-x="1513" 
d="M100 0v1434h422l558 -956v956h333v-1434h-422l-558 956v-956h-333z" />
    <glyph glyph-name="O" unicode="O" horiz-adv-x="1672" 
d="M836 1474q158 0 287.5 -40.5t219 -110.5t151 -166.5t90 -206.5t28.5 -233t-28.5 -233t-90 -206.5t-151 -166.5t-219 -110.5t-287.5 -40.5t-287.5 40.5t-219 110.5t-151 166.5t-90 206.5t-28.5 233t28.5 233t90 206.5t151 166.5t219 110.5t287.5 40.5zM836 1185
q-110 0 -194 -35.5t-135.5 -99.5t-77.5 -148t-26 -185t26 -185t77.5 -148t135.5 -99.5t194 -35.5t194 35.5t135.5 99.5t77.5 148t26 185t-26 185t-77.5 148t-135.5 99.5t-194 35.5z" />
    <glyph glyph-name="P" unicode="P" horiz-adv-x="1398" 
d="M742 1145h-309v-426h309q119 0 179 55t60 158t-60 158t-179 55zM433 0h-333v1434h642q268 0 422 -132t154 -370t-154 -370t-422 -132h-309v-430z" />
    <glyph glyph-name="Q" unicode="Q" horiz-adv-x="1672" 
d="M836 1474q158 0 287.5 -40.5t219 -110.5t151 -166.5t90 -206.5t28.5 -233q0 -175 -59 -324.5t-177 -253.5l210 -227h-361l-83 94q-140 -46 -306 -46q-158 0 -287.5 40.5t-219 110.5t-151 166.5t-90 206.5t-28.5 233t28.5 233t90 206.5t151 166.5t219 110.5t287.5 40.5z
M836 1185q-109 0 -193.5 -38.5t-136 -104.5t-77.5 -148.5t-26 -176.5t26 -176.5t77.5 -148.5t136 -104.5t193.5 -38.5q50 0 89 7l-190 218h333l87 -95q114 127 114 338q0 94 -26 176.5t-77.5 148.5t-136 104.5t-193.5 38.5z" />
    <glyph glyph-name="R" unicode="R" horiz-adv-x="1380" 
d="M433 0h-333v1434h642q142 0 251.5 -38.5t177 -106t101.5 -153.5t34 -187q0 -81 -23 -149.5t-64.5 -118t-90 -84t-108.5 -60.5l300 -537h-357l-276 494h-254v-494zM742 1145h-309v-392h309q121 0 174 54.5t53 141.5t-53 141.5t-174 54.5z" />
    <glyph glyph-name="S" unicode="S" horiz-adv-x="1296" 
d="M1198 1330l-162 -235q-181 90 -394 90q-109 0 -164 -36t-55 -103q0 -69 65 -109.5t202 -68.5q142 -30 242.5 -68.5t175.5 -94t111.5 -131.5t36.5 -176q0 -218 -163 -328t-451 -110q-380 0 -602 172l162 235q188 -118 440 -118q146 0 211.5 38t65.5 111q0 68 -67 105
t-225 69q-279 59 -410 177.5t-131 296.5q0 68 18 129t59.5 116.5t104.5 95.5t158.5 63.5t215.5 23.5q342 0 556 -144z" />
    <glyph glyph-name="T" unicode="T" horiz-adv-x="1365" 
d="M40 1434h1285v-289h-476v-1145h-333v1145h-476v289z" />
    <glyph glyph-name="U" unicode="U" horiz-adv-x="1477" 
d="M739 249q90 0 150 25.5t94 79t47.5 124.5t13.5 173v783h333v-783q0 -691 -638 -691q-639 0 -639 691v783h333v-783q0 -102 13.5 -173t47.5 -124.5t94.5 -79t150.5 -25.5z" />
    <glyph glyph-name="V" unicode="V" horiz-adv-x="1496" 
d="M369 1434l379 -1014l379 1014h359l-573 -1434h-340l-563 1434h359z" />
    <glyph glyph-name="W" unicode="W" horiz-adv-x="2028" 
d="M619 550l253 884h284l253 -884l251 884h358l-437 -1434h-323l-244 838l-244 -838h-323l-437 1434h358z" />
    <glyph glyph-name="X" unicode="X" horiz-adv-x="1520" 
d="M976 738l534 -738h-393l-357 496l-357 -496h-393l533 738l-501 696h393l325 -454l325 454h393z" />
    <glyph glyph-name="Y" unicode="Y" horiz-adv-x="1464" 
d="M392 1434l340 -542l340 542h382l-555 -858v-576h-334v576l-555 858h382z" />
    <glyph glyph-name="Z" unicode="Z" horiz-adv-x="1311" 
d="M555 289h676v-289h-1151v176l677 969h-637v289h1111v-176z" />
    <glyph glyph-name="bracketleft" unicode="[" horiz-adv-x="797" 
d="M707 1146h-244v-1232h244v-288h-577v1808h577v-288z" />
    <glyph glyph-name="backslash" unicode="\" horiz-adv-x="1136" 
d="M423 1434l623 -1434h-334l-622 1434h333z" />
    <glyph glyph-name="bracketright" unicode="]" horiz-adv-x="797" 
d="M334 1146h-244v288h577v-1808h-577v288h244v1232z" />
    <glyph glyph-name="asciicircum" unicode="^" horiz-adv-x="1162" 
d="M672 1434l410 -594h-295l-206 250l-206 -250h-295l410 594h182z" />
    <glyph glyph-name="underscore" unicode="_" horiz-adv-x="1500" 
d="M80 -532v252h1340v-252h-1340z" />
    <glyph glyph-name="grave" unicode="`" horiz-adv-x="704" 
d="M393 1434l251 -310h-270l-314 310h333z" />
    <glyph glyph-name="a" unicode="a" horiz-adv-x="1194" 
d="M60 319q0 77 28.5 138.5t78 101t117 67.5t146 38t164.5 13t172 -7q0 38 -6 62.5t-24.5 45.5t-56 30.5t-96.5 9.5q-174 0 -328 -65l-109 210q99 50 222 73.5t235 23.5q143 0 239 -26.5t151.5 -82t78 -131t22.5 -185.5v-635h-329v135q-72 -159 -310 -159q-80 0 -149.5 20
t-125.5 60t-88 107.5t-32 155.5zM388 349q0 -56 36 -88.5t111 -32.5q106 0 168 50t62 121v89q-38 1 -85.5 3t-99 -6t-94.5 -21.5t-70.5 -43t-27.5 -71.5z" />
    <glyph glyph-name="b" unicode="b" horiz-adv-x="1352" 
d="M1292 515q0 -252 -146 -398.5t-380 -146.5q-117 0 -203 45.5t-135 120.5v-136h-328v1516h328v-622q50 75 135.5 120.5t202.5 45.5q234 0 380 -146.5t146 -398.5zM964 515q0 130 -70.5 211.5t-197.5 81.5t-197.5 -81.5t-70.5 -211.5t70.5 -211.5t197.5 -81.5t197.5 81.5
t70.5 211.5z" />
    <glyph glyph-name="c" unicode="c" horiz-adv-x="1153" 
d="M388 515q0 -135 74.5 -214t203.5 -79q166 0 290 103l157 -191q-151 -164 -447 -164q-275 0 -440.5 150.5t-165.5 394.5t165.5 394.5t440.5 150.5q296 0 447 -164l-157 -191q-124 103 -290 103q-129 0 -203.5 -79t-74.5 -214z" />
    <glyph glyph-name="d" unicode="d" horiz-adv-x="1352" 
d="M60 515q0 252 146 398.5t380 146.5q117 0 202.5 -45.5t135.5 -120.5v622h328v-1516h-328v136q-49 -75 -135 -120.5t-203 -45.5q-234 0 -380 146.5t-146 398.5zM388 515q0 -130 70.5 -211.5t197.5 -81.5t197.5 81.5t70.5 211.5t-70.5 211.5t-197.5 81.5t-197.5 -81.5
t-70.5 -211.5z" />
    <glyph glyph-name="e" unicode="e" horiz-adv-x="1246" 
d="M959 306l162 -184q-189 -152 -491 -152q-149 0 -262 45t-178.5 122.5t-97.5 172.5t-32 205q0 87 20 165.5t65 148t110 121t161.5 81t213.5 29.5q292 0 436 -176t114 -490h-779q0 -35 11.5 -66t36.5 -58t71 -42.5t110 -15.5q197 0 329 94zM402 606h456q0 37 -11 71.5
t-35.5 67.5t-71 53t-110.5 20t-110.5 -20t-71 -53t-35.5 -67.5t-11 -71.5z" />
    <glyph glyph-name="f" unicode="f" horiz-adv-x="921" 
d="M694 1294q-33 0 -56 -5.5t-38.5 -21.5t-24 -33t-13 -51.5t-5.5 -65.5t-1 -87h284v-252h-284v-778h-328v778h-188v252h188q1 65 5.5 115.5t16 106t30.5 97t51.5 80.5t76 63.5t106 39t140.5 14.5q142 0 257 -44l-85 -229q-71 21 -132 21z" />
    <glyph glyph-name="g" unicode="g" horiz-adv-x="1353" 
d="M924 1030h328v-1030q0 -122 -36.5 -217t-96.5 -153t-144.5 -95.5t-172 -52t-187.5 -14.5q-284 0 -489 116l125 228q169 -92 364 -92q142 0 225.5 69.5t83.5 210.5v136q-49 -75 -135 -120.5t-203 -45.5q-234 0 -380 146.5t-146 398.5t146 398.5t380 146.5
q117 0 202.5 -45.5t135.5 -120.5v136zM388 515q0 -130 70.5 -211.5t197.5 -81.5t197.5 81.5t70.5 211.5t-70.5 211.5t-197.5 81.5t-197.5 -81.5t-70.5 -211.5z" />
    <glyph glyph-name="h" unicode="h" 
d="M428 534v-534h-328v1516h328v-595q91 139 275 139q247 0 360 -135t113 -391v-534h-328v534q0 135 -48 204.5t-162 69.5t-162 -69.5t-48 -204.5z" />
    <glyph glyph-name="i" unicode="i" horiz-adv-x="544" 
d="M108 0v1030h328v-1030h-328zM100 1334q0 71 50.5 121.5t121.5 50.5t121.5 -50.5t50.5 -121.5t-50.5 -121.5t-121.5 -50.5t-121.5 50.5t-50.5 121.5z" />
    <glyph glyph-name="j" unicode="j" horiz-adv-x="560" 
d="M116 1334q0 71 50.5 121.5t121.5 50.5t121.5 -50.5t50.5 -121.5t-50.5 -121.5t-121.5 -50.5t-121.5 50.5t-50.5 121.5zM-200 -488l82 229q58 -21 119 -21q30 0 52 9.5t35 29t20.5 37.5t11 48.5t4 47.5t0.5 48v1090h328v-1090q0 -118 -22 -203t-71.5 -146.5t-133.5 -92
t-204 -30.5q-139 0 -221 44z" />
    <glyph glyph-name="k" unicode="k" horiz-adv-x="1244" 
d="M428 677l391 353h415l-481 -434l481 -596h-385l-318 394l-103 -92v-302h-328v1516h328v-839z" />
    <glyph glyph-name="l" unicode="l" horiz-adv-x="607" 
d="M100 390v1126h328v-1096v-36t1.5 -33t4.5 -33t8.5 -26t14 -22t21.5 -12.5t30 -5.5h39v-252h-106q-97 0 -166 30t-102 67t-50.5 100.5t-20 99t-2.5 93.5z" />
    <glyph glyph-name="m" unicode="m" horiz-adv-x="1836" 
d="M100 0v1030h328v-106q20 43 48 71.5t62 41.5t64.5 18t67.5 5q248 0 349 -186q86 186 305 186q204 0 308 -126.5t104 -349.5v-584h-328v584q0 224 -163 224t-163 -224v-584h-328v584q0 224 -163 224t-163 -224v-584h-328z" />
    <glyph glyph-name="n" unicode="n" 
d="M428 534v-534h-328v1030h328v-109q91 139 275 139q247 0 360 -135t113 -391v-534h-328v534q0 135 -48 204.5t-162 69.5t-162 -69.5t-48 -204.5z" />
    <glyph glyph-name="o" unicode="o" horiz-adv-x="1332" 
d="M666 -30q-274 0 -440 151t-166 394q0 244 165.5 394.5t440.5 150.5t440.5 -150.5t165.5 -394.5q0 -243 -166 -394t-440 -151zM666 222q134 0 206 81t72 212t-72 212t-206 81t-206 -81t-72 -212t72 -212t206 -81z" />
    <glyph glyph-name="p" unicode="p" horiz-adv-x="1352" 
d="M1292 515q0 -252 -146 -398.5t-380 -146.5q-117 0 -203 45.5t-135 120.5v-668h-328v1562h328v-136q50 75 135.5 120.5t202.5 45.5q234 0 380 -146.5t146 -398.5zM964 515q0 130 -70.5 211.5t-197.5 81.5t-197.5 -81.5t-70.5 -211.5t70.5 -211.5t197.5 -81.5t197.5 81.5
t70.5 211.5z" />
    <glyph glyph-name="q" unicode="q" horiz-adv-x="1352" 
d="M60 515q0 252 146 398.5t380 146.5q117 0 202.5 -45.5t135.5 -120.5v136h328v-1562h-328v668q-49 -75 -135 -120.5t-203 -45.5q-234 0 -380 146.5t-146 398.5zM388 515q0 -130 70.5 -211.5t197.5 -81.5t197.5 81.5t70.5 211.5t-70.5 211.5t-197.5 81.5t-197.5 -81.5
t-70.5 -211.5z" />
    <glyph glyph-name="r" unicode="r" horiz-adv-x="958" 
d="M948 1012l-144 -248q-69 44 -166 44q-114 0 -162 -69.5t-48 -204.5v-534h-328v1030h328v-109q91 139 275 139q144 0 245 -48z" />
    <glyph glyph-name="s" unicode="s" horiz-adv-x="1064" 
d="M973 953l-124 -211q-152 66 -312 66q-126 0 -126 -72q0 -35 42 -55t121 -34q111 -22 188 -48t139 -66t92.5 -99t30.5 -138q0 -86 -40 -151t-109.5 -102t-154 -55t-183.5 -18q-327 0 -497 135l124 211q168 -94 373 -94q79 0 119 16t40 58t-37.5 60.5t-138.5 38.5
q-223 42 -330 125t-107 216q0 156 119.5 240t334.5 84q259 0 436 -107z" />
    <glyph glyph-name="t" unicode="t" horiz-adv-x="941" 
d="M40 778v252h194v299h328v-299h290v-252h-290v-350q0 -45 4 -77t16.5 -64t39 -48.5t66.5 -16.5q70 0 143 25l70 -234q-107 -43 -233 -43q-125 0 -209.5 28t-134 88t-70 142t-20.5 200v350h-194z" />
    <glyph glyph-name="u" unicode="u" 
d="M848 496v534h328v-1030h-328v109q-91 -139 -275 -139q-247 0 -360 135t-113 391v534h328v-534q0 -135 48 -204.5t162 -69.5t162 69.5t48 204.5z" />
    <glyph glyph-name="v" unicode="v" horiz-adv-x="1196" 
d="M352 1030l246 -672l246 672h342l-431 -1030h-314l-431 1030h342z" />
    <glyph glyph-name="w" unicode="w" horiz-adv-x="1644" 
d="M1007 0l-185 583l-185 -583h-288l-339 1030h318l176 -635l201 635h234l201 -635l176 635h318l-339 -1030h-288z" />
    <glyph glyph-name="x" unicode="x" horiz-adv-x="1208" 
d="M604 326l-225 -326h-369l383 539l-347 491h369l189 -279l189 279h369l-347 -491l383 -539h-369z" />
    <glyph glyph-name="y" unicode="y" horiz-adv-x="1196" 
d="M352 1030l246 -672l246 672h342l-441 -1030l-123 -289q-25 -57 -52 -97.5t-67 -75.5t-96.5 -52.5t-130.5 -17.5q-143 0 -237 50l101 223q58 -21 112 -21q43 0 72 27.5t54 86.5l73 166l-441 1030h342z" />
    <glyph glyph-name="z" unicode="z" horiz-adv-x="1085" 
d="M80 0v149l496 629h-467v252h896v-150l-496 -628h496v-252h-925z" />
    <glyph glyph-name="braceleft" unicode="{" horiz-adv-x="852" 
d="M422 555q85 -42 134.5 -134.5t49.5 -227.5q0 -78 7.5 -131.5t19.5 -84t35 -47t45.5 -21t58.5 -4.5v-289q-84 0 -154.5 16t-135.5 56.5t-110.5 103.5t-72.5 164t-27 231q0 57 -11 97.5t-26.5 63t-43.5 37t-51 19t-60 8.5v286q37 4 60 8.5t51 19t43.5 37t26.5 63t11 97.5
q0 571 500 571v-289q-36 0 -58.5 -4.5t-45.5 -21t-35 -47t-19.5 -84t-7.5 -131.5q0 -136 -49.5 -228t-134.5 -134z" />
    <glyph glyph-name="bar" unicode="|" horiz-adv-x="533" 
d="M100 -532v1966h333v-1966h-333z" />
    <glyph glyph-name="braceright" unicode="}" horiz-adv-x="852" 
d="M430 555q-85 42 -134.5 134t-49.5 228q0 78 -7.5 131.5t-19.5 84t-35 47t-45.5 21t-58.5 4.5v289q84 0 154.5 -16t135.5 -56.5t110.5 -103.5t72.5 -164t27 -231q0 -57 11 -97.5t26.5 -63t43.5 -37t51 -19t60 -8.5v-286q-37 -4 -60 -8.5t-51 -19t-43.5 -37t-26.5 -63
t-11 -97.5q0 -130 -27 -231t-72.5 -164t-110.5 -103.5t-135.5 -56.5t-154.5 -16v289q36 0 58.5 4.5t45.5 21t35 47t19.5 84t7.5 131.5q0 135 49.5 227.5t134.5 134.5z" />
    <glyph glyph-name="asciitilde" unicode="~" horiz-adv-x="1330" 
d="M737 852q43 -43 74.5 -64.5t66.5 -21.5q40 0 61.5 37t21.5 74h289q0 -46 -9.5 -96t-36 -107.5t-66.5 -102t-107.5 -74.5t-152.5 -30q-55 0 -99 10t-80.5 33t-55 38.5t-50.5 46.5q-43 43 -74.5 64.5t-66.5 21.5q-40 0 -61.5 -37t-21.5 -74h-289q0 46 9.5 96t36 107.5
t66.5 102t107.5 74.5t152.5 30q55 0 99 -10t80.5 -33t55 -38.5t50.5 -46.5z" />
    <glyph glyph-name="uni00A0" unicode="&#xa0;" horiz-adv-x="573" 
 />
    <glyph glyph-name="exclamdown" unicode="&#xa1;" horiz-adv-x="546" 
d="M107 -532l40 1012h253l40 -1012h-333zM100 739q0 72 50.5 122.5t122.5 50.5t122.5 -50.5t50.5 -122.5t-50.5 -122.5t-122.5 -50.5t-122.5 50.5t-50.5 122.5z" />
    <glyph glyph-name="cent" unicode="&#xa2;" horiz-adv-x="1153" 
d="M388 515q0 -135 74.5 -214t203.5 -79q166 0 290 103l157 -191q-115 -127 -325 -156v-238h-265v242q-215 38 -339 181t-124 352t124 352t339 181v242h265v-238q210 -29 325 -156l-157 -191q-124 103 -290 103q-129 0 -203.5 -79t-74.5 -214z" />
    <glyph glyph-name="sterling" unicode="&#xa3;" horiz-adv-x="1419" 
d="M80 564v288h137q-5 45 -5 84q0 248 155.5 393t443.5 145q203 0 338 -88.5t190 -229.5l-259 -121q-53 86 -110 118t-159 32q-135 0 -197 -67.5t-62 -181.5q0 -45 6 -84h452v-288h-384q6 -40 6 -84q0 -83 -39 -147q-18 -27 -39 -45h728v-288h-1119v235q36 31 64 70
q65 89 65 181q0 35 -8 78h-204z" />
    <glyph glyph-name="currency" unicode="&#xa4;" horiz-adv-x="1207" 
d="M780 1393l159 159l188 -188l-159 -159q41 -84 41 -177t-41 -177l159 -159l-188 -188l-159 159q-85 -41 -177 -40.5t-177 40.5l-158 -159l-188 188l158 158q-41 85 -41 178t41 178l-158 158l188 188l158 -159q84 41 177 41t177 -41zM495 1137q-44 -45 -44.5 -108.5
t44.5 -108.5t108.5 -44.5t108.5 44.5q45 45 44.5 108.5t-44.5 108.5q-45 44 -108.5 44.5t-108.5 -44.5z" />
    <glyph glyph-name="yen" unicode="&#xa5;" horiz-adv-x="1464" 
d="M300 126v203h265v44h-265v203h265l-555 858h382l340 -542l340 542h382l-555 -858h265v-203h-265v-44h265v-203h-265v-126h-334v126h-265z" />
    <glyph glyph-name="brokenbar" unicode="&#xa6;" horiz-adv-x="533" 
d="M100 603v831h333v-831h-333zM100 -532v831h333v-831h-333z" />
    <glyph glyph-name="section" unicode="&#xa7;" horiz-adv-x="1376" 
d="M126 1046q0 68 18 129t59.5 116.5t104.5 95.5t158.5 63.5t215.5 23.5q342 0 556 -144l-162 -235q-181 90 -394 90q-109 0 -164 -36t-55 -103q0 -69 65 -109.5t202 -68.5q142 -30 242.5 -68.5t175.5 -94t111.5 -131.5t36.5 -176q0 -197 -136 -308q90 -107 90 -254
q0 -68 -18 -129t-59.5 -116.5t-104.5 -95.5t-158.5 -63.5t-215.5 -23.5q-342 0 -556 144l162 235q181 -90 394 -90q109 0 164 36t55 103q0 70 -64 109t-203 69q-286 59 -426 167.5t-140 302.5q0 197 135 307q-89 105 -89 255zM959 398q0 68 -67 105t-225 69q-72 14 -150 39
q-100 -35 -100 -127q0 -68 67 -105t225 -69q72 -14 149 -39q101 35 101 127z" />
    <glyph glyph-name="dieresis" unicode="&#xa8;" horiz-adv-x="981" 
d="M80 1334q0 71 50.5 121.5t121.5 50.5t121.5 -50.5t50.5 -121.5t-50.5 -121.5t-121.5 -50.5t-121.5 50.5t-50.5 121.5zM557 1334q0 71 50.5 121.5t121.5 50.5t121.5 -50.5t50.5 -121.5t-50.5 -121.5t-121.5 -50.5t-121.5 50.5t-50.5 121.5z" />
    <glyph glyph-name="copyright" unicode="&#xa9;" horiz-adv-x="1634" 
d="M636 717q0 -94 53.5 -148t132.5 -54q65 0 108.5 16t88.5 55l105 -150q-121 -118 -302 -118q-176 0 -290.5 112t-114.5 287t114.5 287t290.5 112q182 0 304 -119q-16 -24 -52.5 -75.5t-52.5 -74.5q-45 39 -89.5 55.5t-109.5 16.5q-79 0 -132.5 -54t-53.5 -148zM276 717
q0 -147 72.5 -271.5t197 -197t271.5 -72.5t271.5 72.5t197 197t72.5 271.5t-72.5 271.5t-197 197t-271.5 72.5t-271.5 -72.5t-197 -197t-72.5 -271.5zM60 717q0 206 101.5 380t275.5 275.5t380 101.5t380 -101.5t275.5 -275.5t101.5 -380t-101.5 -380t-275.5 -275.5
t-380 -101.5t-380 101.5t-275.5 275.5t-101.5 380z" />
    <glyph glyph-name="ordfeminine" unicode="&#xaa;" horiz-adv-x="639" 
d="M334 1305q-104 0 -184 -40l-62 131q109 56 246 56q153 0 214 -65.5t61 -214.5v-366h-168v78q-43 -90 -160 -90q-114 0 -182.5 57.5t-68.5 163.5q0 65 35 112t94.5 70.5t130.5 31.5t151 2q0 41 -25 57.5t-82 16.5zM201 1015q0 -63 80 -63q70 0 115 48t45 106
q-21 4 -61.5 0.5t-80 -10t-69 -28t-29.5 -53.5z" />
    <glyph glyph-name="guillemotleft" unicode="&#xab;" horiz-adv-x="1550" 
d="M785 943l-339 -244l339 -244v-390l-705 548v172l705 548v-390zM1450 943l-339 -244l339 -244v-390l-705 548v172l705 548v-390z" />
    <glyph glyph-name="logicalnot" unicode="&#xac;" horiz-adv-x="1232" 
d="M80 553v289h1072v-616h-333v327h-739z" />
    <glyph glyph-name="uni00AD" unicode="&#xad;" horiz-adv-x="976" 
d="M80 548v252h816v-252h-816z" />
    <glyph glyph-name="registered" unicode="&#xae;" horiz-adv-x="1060" 
d="M477 792h-108v424h214q63 0 102.5 -38.5t39.5 -103.5q0 -47 -24 -78t-60 -44l86 -160h-113l-78 145h-59v-145zM573 1113h-96v-78h96q44 0 44 39t-44 39zM191 994q0 -141 99 -240t240 -99t240 99t99 240t-99 240t-240 99t-240 -99t-99 -240zM60 994q0 194 138 332t332 138
t332 -138t138 -332t-138 -332t-332 -138t-332 138t-138 332z" />
    <glyph glyph-name="overscore" unicode="&#xaf;" horiz-adv-x="994" 
d="M60 1182v252h874v-252h-874z" />
    <glyph glyph-name="degree" unicode="&#xb0;" horiz-adv-x="592" 
d="M10 1188q0 118 84 202t202 84t202 -84t84 -202t-84 -202t-202 -84t-202 84t-84 202zM204 1188q0 -39 26.5 -65.5t65.5 -26.5t65.5 26.5t26.5 65.5t-26.5 65.5t-65.5 26.5t-65.5 -26.5t-26.5 -65.5z" />
    <glyph glyph-name="plusminus" unicode="&#xb1;" horiz-adv-x="1190" 
d="M1110 1056v-289h-366v-371h-298v371h-366v289h366v370h298v-370h366zM1110 289v-289h-1030v289h1030z" />
    <glyph glyph-name="twosuperior" unicode="&#xb2;" horiz-adv-x="533" 
d="M164 1220l-134 70q6 20 21.5 43t42 49.5t71.5 44t99 17.5q109 0 170 -54.5t61 -144.5q0 -18 -2.5 -34t-10 -33t-11.5 -26.5t-18 -28t-17.5 -23t-21.5 -25.5t-20 -23l-96 -99h205v-147h-457v109l230 239q19 20 26.5 29t15.5 26.5t8 35.5q0 24 -16 38t-46 14q-39 0 -64 -24
t-36 -53z" />
    <glyph glyph-name="threesuperior" unicode="&#xb3;" horiz-adv-x="547" 
d="M30 910l127 77q11 -12 26 -22q38 -22 84 -22q80 0 80 56q0 20 -10.5 32.5t-35 18.5t-50.5 7.5t-73 1.5v130q80 0 116.5 13.5t36.5 47.5q0 47 -64 47q-39 0 -69 -22q-16 -12 -23 -22l-127 77q16 31 47 57q71 57 172 57q96 0 165 -45.5t69 -128.5q0 -48 -27 -84.5
t-69 -55.5q50 -16 81 -53.5t31 -97.5q0 -93 -73 -138t-177 -45q-123 0 -192 57q-31 25 -45 57z" />
    <glyph glyph-name="acute" unicode="&#xb4;" horiz-adv-x="704" 
d="M60 1124l251 310h333l-314 -310h-270z" />
    <glyph glyph-name="mu" unicode="&#xb5;" horiz-adv-x="1366" 
d="M683 -30q-82 0 -153 42.5t-102 116.5v-661h-328v1562h328v-514q0 -135 63 -214.5t192 -79.5t192 79.5t63 214.5v514h328v-1030h-328v129q-34 -75 -103.5 -117t-151.5 -42z" />
    <glyph glyph-name="paragraph" unicode="&#xb6;" horiz-adv-x="1603" 
d="M1523 1434v-289h-155v-1145h-333v1145h-71v-1145h-333v457h-49q-122 0 -220 40.5t-158.5 109t-92 155.5t-31.5 184q0 77 19.5 148.5t60.5 133.5t99.5 107.5t141.5 72t181 26.5h941zM631 1145h-49q-87 0 -133 -58t-46 -141q0 -84 46.5 -142t132.5 -58h49v399z" />
    <glyph glyph-name="middot" unicode="&#xb7;" horiz-adv-x="506" 
d="M80 773q0 72 50.5 122.5t122.5 50.5t122.5 -50.5t50.5 -122.5t-50.5 -122.5t-122.5 -50.5t-122.5 50.5t-50.5 122.5z" />
    <glyph glyph-name="cedilla" unicode="&#xb8;" horiz-adv-x="639" 
d="M60 -497l53 127q30 -13 73.5 -21.5t89.5 -8.5t80.5 21t38.5 63q3 22 -8 37.5t-34 22t-48 9.5t-60 0.5t-60.5 -5.5t-57.5 -8l107 333h189l-64 -198q47 -1 87.5 -14t72 -36.5t47.5 -61.5t12 -86q-6 -74 -46 -124.5t-98.5 -71.5t-127.5 -24t-132.5 9.5t-113.5 36.5z" />
    <glyph glyph-name="onesuperior" unicode="&#xb9;" horiz-adv-x="401" 
d="M134 1131l-104 113l216 190h125v-628h-168v385z" />
    <glyph glyph-name="ordmasculine" unicode="&#xba;" horiz-adv-x="705" 
d="M30 1120q0 143 88 233.5t234 90.5q145 0 234 -90.5t89 -233.5t-89 -233.5t-234 -90.5q-146 0 -234 90.5t-88 233.5zM189 1120q0 -78 42.5 -127.5t120.5 -49.5t120.5 49.5t42.5 127.5t-42.5 127.5t-120.5 49.5t-120.5 -49.5t-42.5 -127.5z" />
    <glyph glyph-name="guillemotright" unicode="&#xbb;" horiz-adv-x="1550" 
d="M1104 699l-339 244v390l705 -548v-172l-705 -548v390zM439 699l-339 244v390l705 -548v-172l-705 -548v390z" />
    <glyph glyph-name="onequarter" unicode="&#xbc;" horiz-adv-x="1475" 
d="M1293 0h-176v136h-342v132l359 453h159v-421h102v-164h-102v-136zM996 300h121v152zM204 1088l-124 133l227 213h160v-721h-186v448zM213 0l823 1434h239l-823 -1434h-239z" />
    <glyph glyph-name="onehalf" unicode="&#xbd;" horiz-adv-x="1562" 
d="M1092 471l-161 60q11 36 31 70t53 67t84 53t113 20q126 0 198 -61.5t72 -164.5q0 -75 -33 -130.5t-99 -110.5l-108 -100h239v-174h-530v136l272 249q40 35 56.5 61t16.5 59q0 62 -84 62q-52 0 -80 -29.5t-40 -66.5zM213 0l823 1434h239l-823 -1434h-239zM204 1088
l-124 133l227 213h160v-721h-186v448z" />
    <glyph glyph-name="threequarters" unicode="&#xbe;" horiz-adv-x="1554" 
d="M80 833l149 80q50 -57 145 -57q51 0 76 16t25 53q0 17 -6 29t-19.5 19t-27 11t-36.5 5t-39 1t-43.5 -0.5t-42.5 -0.5v164h12q44 0 67.5 1.5t55.5 7.5t47 22t15 42q0 28 -20 46t-64 18q-46 0 -77 -18t-42 -38l-149 80q81 140 268 140q121 0 195.5 -58.5t74.5 -149.5
q0 -115 -112 -163q129 -36 129 -168q0 -100 -79.5 -161t-207.5 -61q-217 0 -294 140zM292 0l823 1434h239l-823 -1434h-239zM1372 0h-176v136h-342v132l359 453h159v-421h102v-164h-102v-136zM1075 300h121v152z" />
    <glyph glyph-name="questiondown" unicode="&#xbf;" horiz-adv-x="1038" 
d="M791 -136l267 -145q-30 -57 -74 -105.5t-107.5 -92t-154 -68.5t-197.5 -25q-135 0 -241 34t-171.5 94t-99 138t-33.5 170q0 50 11 97.5t39.5 97.5t72 89.5t115.5 70.5t163 44v217h333v-412q-187 -4 -294 -55.5t-107 -148.5q0 -73 50.5 -110t161.5 -37q95 0 156 38.5
t110 108.5zM721 739q0 -72 -50.5 -122.5t-122.5 -50.5t-122.5 50.5t-50.5 122.5t50.5 122.5t122.5 50.5t122.5 -50.5t50.5 -122.5z" />
    <glyph glyph-name="Agrave" unicode="&#xc0;" horiz-adv-x="1536" 
d="M479 281l-110 -281h-359l593 1434h330l593 -1434h-359l-110 281h-578zM768 1014l-179 -454h358zM651 1846l251 -310h-270l-314 310h333z" />
    <glyph glyph-name="Aacute" unicode="&#xc1;" horiz-adv-x="1536" 
d="M479 281l-110 -281h-359l593 1434h330l593 -1434h-359l-110 281h-578zM768 1014l-179 -454h358zM640 1536l251 310h333l-314 -310h-270z" />
    <glyph glyph-name="Acircumflex" unicode="&#xc2;" horiz-adv-x="1536" 
d="M479 281l-110 -281h-359l593 1434h330l593 -1434h-359l-110 281h-578zM768 1014l-179 -454h358zM871 1827l301 -291h-248l-156 109l-156 -109h-248l301 291h206z" />
    <glyph glyph-name="Atilde" unicode="&#xc3;" horiz-adv-x="1536" 
d="M479 281l-110 -281h-359l593 1434h330l593 -1434h-359l-110 281h-578zM768 1014l-179 -454h358zM740 1590q-54 46 -93 46q-36 0 -54 -39q-8 -20 -11 -39h-205q5 78 33 139q65 140 232 140q87 0 155 -54q54 -46 93 -46q36 0 54 39q8 18 11 39h205q-4 -76 -34 -140
q-64 -139 -231 -139q-87 0 -155 54z" />
    <glyph glyph-name="Adieresis" unicode="&#xc4;" horiz-adv-x="1536" 
d="M479 281l-110 -281h-359l593 1434h330l593 -1434h-359l-110 281h-578zM768 1014l-179 -454h358zM358 1708q0 71 50.5 121.5t121.5 50.5t121.5 -50.5t50.5 -121.5t-50.5 -121.5t-121.5 -50.5t-121.5 50.5t-50.5 121.5zM835 1708q0 71 50.5 121.5t121.5 50.5t121.5 -50.5
t50.5 -121.5t-50.5 -121.5t-121.5 -50.5t-121.5 50.5t-50.5 121.5z" />
    <glyph glyph-name="Aring" unicode="&#xc5;" horiz-adv-x="1536" 
d="M479 281l-110 -281h-359l593 1434h330l593 -1434h-359l-110 281h-578zM768 1014l-179 -454h358zM522 1782q0 102 72 174t174 72t174 -72t72 -174t-72 -174t-174 -72t-174 72t-72 174zM684 1782q0 -35 24.5 -59.5t59.5 -24.5t59.5 24.5t24.5 59.5t-24.5 59.5t-59.5 24.5
t-59.5 -24.5t-24.5 -59.5z" />
    <glyph glyph-name="AE" unicode="&#xc6;" horiz-adv-x="2180" 
d="M1357 876h690v-289h-690v-298h743v-289h-1076v306h-438l-202 -306h-374l944 1434h1136v-289h-733v-269zM1024 972l-248 -377h248v377z" />
    <glyph glyph-name="Ccedilla" unicode="&#xc7;" horiz-adv-x="1457" 
d="M569 -497l53 127q30 -13 73.5 -21.5t89.5 -8.5t80.5 21t38.5 63q3 22 -8 37.5t-34 22t-48 9.5t-60 0.5t-60.5 -5.5t-57.5 -8l73 228q-164 19 -291 86.5t-203.5 170t-115.5 227t-39 265.5q0 123 28.5 233t90 206.5t151 166.5t219 110.5t287.5 40.5q201 0 336 -44.5
t245 -138.5l-165 -226q-83 55 -178.5 87.5t-237.5 32.5q-110 0 -194 -35.5t-135.5 -99.5t-77.5 -148t-26 -185t26 -185t77.5 -148t135.5 -99.5t194 -35.5q245 0 416 120l165 -226q-103 -86 -225.5 -131t-295.5 -51l-28 -86q47 -1 87.5 -14t72 -36.5t47.5 -61.5t12 -86
q-6 -74 -46 -124.5t-98.5 -71.5t-127.5 -24t-132.5 9.5t-113.5 36.5z" />
    <glyph glyph-name="Egrave" unicode="&#xc8;" horiz-adv-x="1256" 
d="M433 876h690v-289h-690v-298h743v-289h-1076v1434h1066v-289h-733v-269zM537 1846l251 -310h-270l-314 310h333z" />
    <glyph glyph-name="Eacute" unicode="&#xc9;" horiz-adv-x="1256" 
d="M433 876h690v-289h-690v-298h743v-289h-1076v1434h1066v-289h-733v-269zM508 1536l251 310h333l-314 -310h-270z" />
    <glyph glyph-name="Ecircumflex" unicode="&#xca;" horiz-adv-x="1256" 
d="M433 876h690v-289h-690v-298h743v-289h-1076v1434h1066v-289h-733v-269zM741 1827l301 -291h-248l-156 109l-156 -109h-248l301 291h206z" />
    <glyph glyph-name="Edieresis" unicode="&#xcb;" horiz-adv-x="1256" 
d="M433 876h690v-289h-690v-298h743v-289h-1076v1434h1066v-289h-733v-269zM228 1708q0 71 50.5 121.5t121.5 50.5t121.5 -50.5t50.5 -121.5t-50.5 -121.5t-121.5 -50.5t-121.5 50.5t-50.5 121.5zM705 1708q0 71 50.5 121.5t121.5 50.5t121.5 -50.5t50.5 -121.5
t-50.5 -121.5t-121.5 -50.5t-121.5 50.5t-50.5 121.5z" />
    <glyph glyph-name="Igrave" unicode="&#xcc;" horiz-adv-x="514" 
d="M81 0v1434h333v-1434h-333zM133 1846l251 -310h-270l-314 310h333z" />
    <glyph glyph-name="Iacute" unicode="&#xcd;" horiz-adv-x="547" 
d="M100 0v1434h333v-1434h-333zM133 1536l251 310h333l-314 -310h-270z" />
    <glyph glyph-name="Icircumflex" unicode="&#xce;" horiz-adv-x="708" 
d="M188 0v1434h333v-1434h-333zM457 1827l301 -291h-248l-156 109l-156 -109h-248l301 291h206z" />
    <glyph glyph-name="Idieresis" unicode="&#xcf;" horiz-adv-x="841" 
d="M254 0v1434h333v-1434h-333zM10 1728q0 71 50.5 121.5t121.5 50.5t121.5 -50.5t50.5 -121.5t-50.5 -121.5t-121.5 -50.5t-121.5 50.5t-50.5 121.5zM487 1728q0 71 50.5 121.5t121.5 50.5t121.5 -50.5t50.5 -121.5t-50.5 -121.5t-121.5 -50.5t-121.5 50.5t-50.5 121.5z
" />
    <glyph glyph-name="Eth" unicode="&#xd0;" horiz-adv-x="1613" 
d="M10 573v289h220v572h607q177 0 315 -53.5t225 -150.5t131.5 -226.5t44.5 -286.5t-44.5 -286.5t-131.5 -226.5t-225 -150.5t-315 -53.5h-607v573h-220zM563 573v-284h274q100 0 174 35t116.5 96.5t62.5 135.5t20 161t-20 161t-62.5 135.5t-116.5 96.5t-174 35h-274v-283
h293v-289h-293z" />
    <glyph glyph-name="Ntilde" unicode="&#xd1;" horiz-adv-x="1513" 
d="M100 0v1434h422l558 -956v956h333v-1434h-422l-558 956v-956h-333zM728 1590q-54 46 -93 46q-36 0 -54 -39q-8 -20 -11 -39h-205q5 78 33 139q65 140 232 140q87 0 155 -54q54 -46 93 -46q36 0 54 39q8 18 11 39h205q-4 -76 -34 -140q-64 -139 -231 -139q-87 0 -155 54z
" />
    <glyph glyph-name="Ograve" unicode="&#xd2;" horiz-adv-x="1672" 
d="M836 1474q158 0 287.5 -40.5t219 -110.5t151 -166.5t90 -206.5t28.5 -233t-28.5 -233t-90 -206.5t-151 -166.5t-219 -110.5t-287.5 -40.5t-287.5 40.5t-219 110.5t-151 166.5t-90 206.5t-28.5 233t28.5 233t90 206.5t151 166.5t219 110.5t287.5 40.5zM836 1185
q-110 0 -194 -35.5t-135.5 -99.5t-77.5 -148t-26 -185t26 -185t77.5 -148t135.5 -99.5t194 -35.5t194 35.5t135.5 99.5t77.5 148t26 185t-26 185t-77.5 148t-135.5 99.5t-194 35.5zM731 1845l251 -310h-270l-314 310h333z" />
    <glyph glyph-name="Oacute" unicode="&#xd3;" horiz-adv-x="1672" 
d="M836 1474q158 0 287.5 -40.5t219 -110.5t151 -166.5t90 -206.5t28.5 -233t-28.5 -233t-90 -206.5t-151 -166.5t-219 -110.5t-287.5 -40.5t-287.5 40.5t-219 110.5t-151 166.5t-90 206.5t-28.5 233t28.5 233t90 206.5t151 166.5t219 110.5t287.5 40.5zM836 1185
q-110 0 -194 -35.5t-135.5 -99.5t-77.5 -148t-26 -185t26 -185t77.5 -148t135.5 -99.5t194 -35.5t194 35.5t135.5 99.5t77.5 148t26 185t-26 185t-77.5 148t-135.5 99.5t-194 35.5zM706 1536l251 310h333l-314 -310h-270z" />
    <glyph glyph-name="Ocircumflex" unicode="&#xd4;" horiz-adv-x="1672" 
d="M836 1474q158 0 287.5 -40.5t219 -110.5t151 -166.5t90 -206.5t28.5 -233t-28.5 -233t-90 -206.5t-151 -166.5t-219 -110.5t-287.5 -40.5t-287.5 40.5t-219 110.5t-151 166.5t-90 206.5t-28.5 233t28.5 233t90 206.5t151 166.5t219 110.5t287.5 40.5zM836 1185
q-110 0 -194 -35.5t-135.5 -99.5t-77.5 -148t-26 -185t26 -185t77.5 -148t135.5 -99.5t194 -35.5t194 35.5t135.5 99.5t77.5 148t26 185t-26 185t-77.5 148t-135.5 99.5t-194 35.5zM939 1826l301 -291h-248l-156 109l-156 -109h-248l301 291h206z" />
    <glyph glyph-name="Otilde" unicode="&#xd5;" horiz-adv-x="1672" 
d="M836 1474q158 0 287.5 -40.5t219 -110.5t151 -166.5t90 -206.5t28.5 -233t-28.5 -233t-90 -206.5t-151 -166.5t-219 -110.5t-287.5 -40.5t-287.5 40.5t-219 110.5t-151 166.5t-90 206.5t-28.5 233t28.5 233t90 206.5t151 166.5t219 110.5t287.5 40.5zM836 1185
q-110 0 -194 -35.5t-135.5 -99.5t-77.5 -148t-26 -185t26 -185t77.5 -148t135.5 -99.5t194 -35.5t194 35.5t135.5 99.5t77.5 148t26 185t-26 185t-77.5 148t-135.5 99.5t-194 35.5zM807 1590q-54 46 -93 46q-36 0 -54 -39q-8 -20 -11 -39h-205q5 78 33 139q65 140 232 140
q87 0 155 -54q54 -46 93 -46q36 0 54 39q8 18 11 39h205q-4 -76 -34 -140q-64 -139 -231 -139q-87 0 -155 54z" />
    <glyph glyph-name="Odieresis" unicode="&#xd6;" horiz-adv-x="1672" 
d="M836 1474q158 0 287.5 -40.5t219 -110.5t151 -166.5t90 -206.5t28.5 -233t-28.5 -233t-90 -206.5t-151 -166.5t-219 -110.5t-287.5 -40.5t-287.5 40.5t-219 110.5t-151 166.5t-90 206.5t-28.5 233t28.5 233t90 206.5t151 166.5t219 110.5t287.5 40.5zM836 1185
q-110 0 -194 -35.5t-135.5 -99.5t-77.5 -148t-26 -185t26 -185t77.5 -148t135.5 -99.5t194 -35.5t194 35.5t135.5 99.5t77.5 148t26 185t-26 185t-77.5 148t-135.5 99.5t-194 35.5zM426 1708q0 71 50.5 121.5t121.5 50.5t121.5 -50.5t50.5 -121.5t-50.5 -121.5t-121.5 -50.5
t-121.5 50.5t-50.5 121.5zM903 1708q0 71 50.5 121.5t121.5 50.5t121.5 -50.5t50.5 -121.5t-50.5 -121.5t-121.5 -50.5t-121.5 50.5t-50.5 121.5z" />
    <glyph glyph-name="multiply" unicode="&#xd7;" horiz-adv-x="1148" 
d="M1068 351l-203 -203l-291 290l-291 -290l-203 203l290 290l-290 291l203 204l291 -291l291 291l203 -204l-291 -291z" />
    <glyph glyph-name="Oslash" unicode="&#xd8;" horiz-adv-x="1672" 
d="M836 1474q99 0 193 -17l19 38h328l-71 -146q153 -100 230 -266.5t77 -365.5q0 -123 -28.5 -233t-90 -206.5t-151 -166.5t-219 -110.5t-287.5 -40.5q-103 0 -200 19l-19 -40h-328l73 149q-150 100 -226 265.5t-76 363.5q0 123 28.5 233t90 206.5t151 166.5t219 110.5
t287.5 40.5zM836 249q110 0 194 35.5t135.5 99.5t77.5 148t26 185q0 216 -108 338l-391 -803q32 -3 66 -3zM836 1185q-110 0 -194 -35.5t-135.5 -99.5t-77.5 -148t-26 -185q0 -211 103 -333l389 798q-29 3 -59 3z" />
    <glyph glyph-name="Ugrave" unicode="&#xd9;" horiz-adv-x="1477" 
d="M739 249q90 0 150 25.5t94 79t47.5 124.5t13.5 173v783h333v-783q0 -691 -638 -691q-639 0 -639 691v783h333v-783q0 -102 13.5 -173t47.5 -124.5t94.5 -79t150.5 -25.5zM642 1846l251 -310h-270l-314 310h333z" />
    <glyph glyph-name="Uacute" unicode="&#xda;" horiz-adv-x="1477" 
d="M739 249q90 0 150 25.5t94 79t47.5 124.5t13.5 173v783h333v-783q0 -691 -638 -691q-639 0 -639 691v783h333v-783q0 -102 13.5 -173t47.5 -124.5t94.5 -79t150.5 -25.5zM589 1536l251 310h333l-314 -310h-270z" />
    <glyph glyph-name="Ucircumflex" unicode="&#xdb;" horiz-adv-x="1477" 
d="M739 249q90 0 150 25.5t94 79t47.5 124.5t13.5 173v783h333v-783q0 -691 -638 -691q-639 0 -639 691v783h333v-783q0 -102 13.5 -173t47.5 -124.5t94.5 -79t150.5 -25.5zM841 1827l301 -291h-248l-156 109l-156 -109h-248l301 291h206z" />
    <glyph glyph-name="Udieresis" unicode="&#xdc;" horiz-adv-x="1477" 
d="M739 249q90 0 150 25.5t94 79t47.5 124.5t13.5 173v783h333v-783q0 -691 -638 -691q-639 0 -639 691v783h333v-783q0 -102 13.5 -173t47.5 -124.5t94.5 -79t150.5 -25.5zM328 1698q0 71 50.5 121.5t121.5 50.5t121.5 -50.5t50.5 -121.5t-50.5 -121.5t-121.5 -50.5
t-121.5 50.5t-50.5 121.5zM805 1698q0 71 50.5 121.5t121.5 50.5t121.5 -50.5t50.5 -121.5t-50.5 -121.5t-121.5 -50.5t-121.5 50.5t-50.5 121.5z" />
    <glyph glyph-name="Yacute" unicode="&#xdd;" horiz-adv-x="1464" 
d="M392 1434l340 -542l340 542h382l-555 -858v-576h-334v576l-555 858h382zM579 1536l251 310h333l-314 -310h-270z" />
    <glyph glyph-name="Thorn" unicode="&#xde;" horiz-adv-x="1166" 
d="M100 0v1434h333v-271h208q117 0 207 -34t145.5 -94.5t84 -140.5t28.5 -177t-28.5 -177t-84 -140.5t-145.5 -94.5t-207 -34h-208v-271h-333zM641 874h-208v-314h208q70 0 101 44t31 113t-31 113t-101 44z" />
    <glyph glyph-name="germandbls" unicode="&#xdf;" horiz-adv-x="1372" 
d="M428 861v-861h-328v861q0 117 21.5 211t54.5 155.5t84 107t99.5 70t111.5 38.5t109.5 17.5t103.5 3.5q169 0 297.5 -46t205 -142.5t76.5 -234.5q0 -108 -62.5 -190.5t-152.5 -111.5q114 -32 189 -118.5t75 -211.5q0 -95 -28 -170t-76.5 -125t-118 -83t-149 -47
t-173.5 -14q-151 0 -251 42v260q116 -50 251 -50q116 0 166.5 54t50.5 143q0 103 -66.5 148.5t-173.5 45.5h-165v252h161q95 2 145 49t50 127q0 81 -65.5 126t-185.5 45q-59 0 -101 -13t-79.5 -49t-56.5 -108t-19 -181z" />
    <glyph glyph-name="agrave" unicode="&#xe0;" horiz-adv-x="1194" 
d="M60 319q0 77 28.5 138.5t78 101t117 67.5t146 38t164.5 13t172 -7q0 38 -6 62.5t-24.5 45.5t-56 30.5t-96.5 9.5q-174 0 -328 -65l-109 210q99 50 222 73.5t235 23.5q143 0 239 -26.5t151.5 -82t78 -131t22.5 -185.5v-635h-329v135q-72 -159 -310 -159q-80 0 -149.5 20
t-125.5 60t-88 107.5t-32 155.5zM388 349q0 -56 36 -88.5t111 -32.5q106 0 168 50t62 121v89q-38 1 -85.5 3t-99 -6t-94.5 -21.5t-70.5 -43t-27.5 -71.5zM504 1434l251 -310h-270l-314 310h333z" />
    <glyph glyph-name="aacute" unicode="&#xe1;" horiz-adv-x="1194" 
d="M60 319q0 77 28.5 138.5t78 101t117 67.5t146 38t164.5 13t172 -7q0 38 -6 62.5t-24.5 45.5t-56 30.5t-96.5 9.5q-174 0 -328 -65l-109 210q99 50 222 73.5t235 23.5q143 0 239 -26.5t151.5 -82t78 -131t22.5 -185.5v-635h-329v135q-72 -159 -310 -159q-80 0 -149.5 20
t-125.5 60t-88 107.5t-32 155.5zM388 349q0 -56 36 -88.5t111 -32.5q106 0 168 50t62 121v89q-38 1 -85.5 3t-99 -6t-94.5 -21.5t-70.5 -43t-27.5 -71.5zM476 1124l251 310h333l-314 -310h-270z" />
    <glyph glyph-name="acircumflex" unicode="&#xe2;" horiz-adv-x="1194" 
d="M60 319q0 77 28.5 138.5t78 101t117 67.5t146 38t164.5 13t172 -7q0 38 -6 62.5t-24.5 45.5t-56 30.5t-96.5 9.5q-174 0 -328 -65l-109 210q99 50 222 73.5t235 23.5q143 0 239 -26.5t151.5 -82t78 -131t22.5 -185.5v-635h-329v135q-72 -159 -310 -159q-80 0 -149.5 20
t-125.5 60t-88 107.5t-32 155.5zM388 349q0 -56 36 -88.5t111 -32.5q106 0 168 50t62 121v89q-38 1 -85.5 3t-99 -6t-94.5 -21.5t-70.5 -43t-27.5 -71.5zM724 1434l301 -291h-248l-156 109l-156 -109h-248l301 291h206z" />
    <glyph glyph-name="atilde" unicode="&#xe3;" horiz-adv-x="1194" 
d="M60 319q0 77 28.5 138.5t78 101t117 67.5t146 38t164.5 13t172 -7q0 38 -6 62.5t-24.5 45.5t-56 30.5t-96.5 9.5q-174 0 -328 -65l-109 210q99 50 222 73.5t235 23.5q143 0 239 -26.5t151.5 -82t78 -131t22.5 -185.5v-635h-329v135q-72 -159 -310 -159q-80 0 -149.5 20
t-125.5 60t-88 107.5t-32 155.5zM388 349q0 -56 36 -88.5t111 -32.5q106 0 168 50t62 121v89q-38 1 -85.5 3t-99 -6t-94.5 -21.5t-70.5 -43t-27.5 -71.5zM596 1207q-54 46 -93 46q-36 0 -54 -39q-8 -20 -11 -39h-205q5 78 33 139q65 140 232 140q87 0 155 -54q54 -46 93 -46
q36 0 54 39q8 18 11 39h205q-4 -76 -34 -140q-64 -139 -231 -139q-87 0 -155 54z" />
    <glyph glyph-name="adieresis" unicode="&#xe4;" horiz-adv-x="1194" 
d="M60 319q0 77 28.5 138.5t78 101t117 67.5t146 38t164.5 13t172 -7q0 38 -6 62.5t-24.5 45.5t-56 30.5t-96.5 9.5q-174 0 -328 -65l-109 210q99 50 222 73.5t235 23.5q143 0 239 -26.5t151.5 -82t78 -131t22.5 -185.5v-635h-329v135q-72 -159 -310 -159q-80 0 -149.5 20
t-125.5 60t-88 107.5t-32 155.5zM388 349q0 -56 36 -88.5t111 -32.5q106 0 168 50t62 121v89q-38 1 -85.5 3t-99 -6t-94.5 -21.5t-70.5 -43t-27.5 -71.5zM226 1334q0 71 50.5 121.5t121.5 50.5t121.5 -50.5t50.5 -121.5t-50.5 -121.5t-121.5 -50.5t-121.5 50.5t-50.5 121.5z
M703 1334q0 71 50.5 121.5t121.5 50.5t121.5 -50.5t50.5 -121.5t-50.5 -121.5t-121.5 -50.5t-121.5 50.5t-50.5 121.5z" />
    <glyph glyph-name="aring" unicode="&#xe5;" horiz-adv-x="1194" 
d="M60 319q0 77 28.5 138.5t78 101t117 67.5t146 38t164.5 13t172 -7q0 38 -6 62.5t-24.5 45.5t-56 30.5t-96.5 9.5q-174 0 -328 -65l-109 210q99 50 222 73.5t235 23.5q143 0 239 -26.5t151.5 -82t78 -131t22.5 -185.5v-635h-329v135q-72 -159 -310 -159q-80 0 -149.5 20
t-125.5 60t-88 107.5t-32 155.5zM388 349q0 -56 36 -88.5t111 -32.5q106 0 168 50t62 121v89q-38 1 -85.5 3t-99 -6t-94.5 -21.5t-70.5 -43t-27.5 -71.5zM396 1370q0 102 72 174t174 72t174 -72t72 -174t-72 -174t-174 -72t-174 72t-72 174zM558 1370q0 -35 24.5 -59.5
t59.5 -24.5t59.5 24.5t24.5 59.5t-24.5 59.5t-59.5 24.5t-59.5 -24.5t-24.5 -59.5z" />
    <glyph glyph-name="ae" unicode="&#xe6;" horiz-adv-x="1951" 
d="M1664 306l162 -184q-189 -152 -491 -152q-261 0 -409 135q-192 -129 -471 -129q-80 0 -149.5 20t-125.5 60t-88 107.5t-32 155.5q0 77 28.5 138.5t78 101t117 67.5t146 38t164.5 13t172 -7q0 38 -6 62.5t-24.5 45.5t-56 30.5t-96.5 9.5q-174 0 -328 -65l-109 210
q99 50 222 73.5t235 23.5q263 0 377 -96q141 96 355 96q292 0 436 -176t114 -490h-779q0 -35 11.5 -66t36.5 -58t71 -42.5t110 -15.5q197 0 329 94zM388 349q0 -56 36 -88.5t111 -32.5q106 0 168 50t62 121v89q-38 1 -85.5 3t-99 -6t-94.5 -21.5t-70.5 -43t-27.5 -71.5z
M1107 606h456q0 37 -11 71.5t-35.5 67.5t-71 53t-110.5 20t-110.5 -20t-71 -53t-35.5 -67.5t-11 -71.5z" />
    <glyph glyph-name="ccedilla" unicode="&#xe7;" horiz-adv-x="1153" 
d="M391 -497l53 127q30 -13 73.5 -21.5t89.5 -8.5t80.5 21t38.5 63q3 22 -8 37.5t-34 22t-48 9.5t-60 0.5t-60.5 -5.5t-57.5 -8l77 240q-220 36 -347.5 179t-127.5 356q0 244 165.5 394.5t440.5 150.5q296 0 447 -164l-157 -191q-124 103 -290 103q-129 0 -203.5 -79
t-74.5 -214t74.5 -214t203.5 -79q166 0 290 103l157 -191q-137 -148 -392 -162l-31 -97q47 -1 87.5 -14t72 -36.5t47.5 -61.5t12 -86q-6 -74 -46 -124.5t-98.5 -71.5t-127.5 -24t-132.5 9.5t-113.5 36.5z" />
    <glyph glyph-name="egrave" unicode="&#xe8;" horiz-adv-x="1246" 
d="M959 306l162 -184q-189 -152 -491 -152q-149 0 -262 45t-178.5 122.5t-97.5 172.5t-32 205q0 87 20 165.5t65 148t110 121t161.5 81t213.5 29.5q292 0 436 -176t114 -490h-779q0 -35 11.5 -66t36.5 -58t71 -42.5t110 -15.5q197 0 329 94zM402 606h456q0 37 -11 71.5
t-35.5 67.5t-71 53t-110.5 20t-110.5 -20t-71 -53t-35.5 -67.5t-11 -71.5zM529 1434l251 -310h-270l-314 310h333z" />
    <glyph glyph-name="eacute" unicode="&#xe9;" horiz-adv-x="1246" 
d="M959 306l162 -184q-189 -152 -491 -152q-149 0 -262 45t-178.5 122.5t-97.5 172.5t-32 205q0 87 20 165.5t65 148t110 121t161.5 81t213.5 29.5q292 0 436 -176t114 -490h-779q0 -35 11.5 -66t36.5 -58t71 -42.5t110 -15.5q197 0 329 94zM402 606h456q0 37 -11 71.5
t-35.5 67.5t-71 53t-110.5 20t-110.5 -20t-71 -53t-35.5 -67.5t-11 -71.5zM482 1124l251 310h333l-314 -310h-270z" />
    <glyph glyph-name="ecircumflex" unicode="&#xea;" horiz-adv-x="1246" 
d="M959 306l162 -184q-189 -152 -491 -152q-149 0 -262 45t-178.5 122.5t-97.5 172.5t-32 205q0 87 20 165.5t65 148t110 121t161.5 81t213.5 29.5q292 0 436 -176t114 -490h-779q0 -35 11.5 -66t36.5 -58t71 -42.5t110 -15.5q197 0 329 94zM402 606h456q0 37 -11 71.5
t-35.5 67.5t-71 53t-110.5 20t-110.5 -20t-71 -53t-35.5 -67.5t-11 -71.5zM737 1434l301 -291h-248l-156 109l-156 -109h-248l301 291h206z" />
    <glyph glyph-name="edieresis" unicode="&#xeb;" horiz-adv-x="1246" 
d="M959 306l162 -184q-189 -152 -491 -152q-149 0 -262 45t-178.5 122.5t-97.5 172.5t-32 205q0 87 20 165.5t65 148t110 121t161.5 81t213.5 29.5q292 0 436 -176t114 -490h-779q0 -35 11.5 -66t36.5 -58t71 -42.5t110 -15.5q197 0 329 94zM402 606h456q0 37 -11 71.5
t-35.5 67.5t-71 53t-110.5 20t-110.5 -20t-71 -53t-35.5 -67.5t-11 -71.5zM224 1334q0 71 50.5 121.5t121.5 50.5t121.5 -50.5t50.5 -121.5t-50.5 -121.5t-121.5 -50.5t-121.5 50.5t-50.5 121.5zM701 1334q0 71 50.5 121.5t121.5 50.5t121.5 -50.5t50.5 -121.5t-50.5 -121.5
t-121.5 -50.5t-121.5 50.5t-50.5 121.5z" />
    <glyph glyph-name="igrave" unicode="&#xec;" horiz-adv-x="624" 
d="M196 0v1030h328v-1030h-328zM253 1434l251 -310h-270l-314 310h333z" />
    <glyph glyph-name="iacute" unicode="&#xed;" horiz-adv-x="718" 
d="M100 0v1030h328v-1030h-328zM124 1124l251 310h333l-314 -310h-270z" />
    <glyph glyph-name="icircumflex" unicode="&#xee;" horiz-adv-x="708" 
d="M190 0v1030h328v-1030h-328zM457 1434l301 -291h-248l-156 109l-156 -109h-248l301 291h206z" />
    <glyph glyph-name="idieresis" unicode="&#xef;" horiz-adv-x="781" 
d="M226 0v1030h328v-1030h-328zM-20 1334q0 71 50.5 121.5t121.5 50.5t121.5 -50.5t50.5 -121.5t-50.5 -121.5t-121.5 -50.5t-121.5 50.5t-50.5 121.5zM457 1334q0 71 50.5 121.5t121.5 50.5t121.5 -50.5t50.5 -121.5t-50.5 -121.5t-121.5 -50.5t-121.5 50.5t-50.5 121.5z
" />
    <glyph glyph-name="eth" unicode="&#xf0;" horiz-adv-x="1314" 
d="M599 1095l-127 169l76 57q-81 28 -188 43l76 244q59 -3 154.5 -28.5t194.5 -78.5l164 124l128 -169l-109 -83q221 -207 254 -519q25 -229 -5 -399t-111 -276t-203 -157.5t-287 -51.5q-254 0 -405 145.5t-151 399.5t143 399.5t383 145.5q117 0 202.5 -45.5t135.5 -120.5
q-12 190 -169 318zM924 515q0 130 -70.5 211.5t-197.5 81.5t-197.5 -81.5t-70.5 -211.5t70.5 -211.5t197.5 -81.5t197.5 81.5t70.5 211.5z" />
    <glyph glyph-name="ntilde" unicode="&#xf1;" 
d="M428 534v-534h-328v1030h328v-109q91 139 275 139q247 0 360 -135t113 -391v-534h-328v534q0 135 -48 204.5t-162 69.5t-162 -69.5t-48 -204.5zM610 1207q-54 46 -93 46q-36 0 -54 -39q-8 -20 -11 -39h-205q5 78 33 139q65 140 232 140q87 0 155 -54q54 -46 93 -46
q36 0 54 39q8 18 11 39h205q-4 -76 -34 -140q-64 -139 -231 -139q-87 0 -155 54z" />
    <glyph glyph-name="ograve" unicode="&#xf2;" horiz-adv-x="1332" 
d="M666 -30q-274 0 -440 151t-166 394q0 244 165.5 394.5t440.5 150.5t440.5 -150.5t165.5 -394.5q0 -243 -166 -394t-440 -151zM666 222q134 0 206 81t72 212t-72 212t-206 81t-206 -81t-72 -212t72 -212t206 -81zM556 1434l251 -310h-270l-314 310h333z" />
    <glyph glyph-name="oacute" unicode="&#xf3;" horiz-adv-x="1332" 
d="M666 -30q-274 0 -440 151t-166 394q0 244 165.5 394.5t440.5 150.5t440.5 -150.5t165.5 -394.5q0 -243 -166 -394t-440 -151zM666 222q134 0 206 81t72 212t-72 212t-206 81t-206 -81t-72 -212t72 -212t206 -81zM539 1124l251 310h333l-314 -310h-270z" />
    <glyph glyph-name="ocircumflex" unicode="&#xf4;" horiz-adv-x="1332" 
d="M666 -30q-274 0 -440 151t-166 394q0 244 165.5 394.5t440.5 150.5t440.5 -150.5t165.5 -394.5q0 -243 -166 -394t-440 -151zM666 222q134 0 206 81t72 212t-72 212t-206 81t-206 -81t-72 -212t72 -212t206 -81zM769 1434l301 -291h-248l-156 109l-156 -109h-248l301 291
h206z" />
    <glyph glyph-name="otilde" unicode="&#xf5;" horiz-adv-x="1332" 
d="M666 -30q-274 0 -440 151t-166 394q0 244 165.5 394.5t440.5 150.5t440.5 -150.5t165.5 -394.5q0 -243 -166 -394t-440 -151zM666 222q134 0 206 81t72 212t-72 212t-206 81t-206 -81t-72 -212t72 -212t206 -81zM638 1207q-54 46 -93 46q-36 0 -54 -39q-8 -20 -11 -39
h-205q5 78 33 139q65 140 232 140q87 0 155 -54q54 -46 93 -46q36 0 54 39q8 18 11 39h205q-4 -76 -34 -140q-64 -139 -231 -139q-87 0 -155 54z" />
    <glyph glyph-name="odieresis" unicode="&#xf6;" horiz-adv-x="1332" 
d="M666 -30q-274 0 -440 151t-166 394q0 244 165.5 394.5t440.5 150.5t440.5 -150.5t165.5 -394.5q0 -243 -166 -394t-440 -151zM666 222q134 0 206 81t72 212t-72 212t-206 81t-206 -81t-72 -212t72 -212t206 -81zM256 1314q0 71 50.5 121.5t121.5 50.5t121.5 -50.5
t50.5 -121.5t-50.5 -121.5t-121.5 -50.5t-121.5 50.5t-50.5 121.5zM733 1314q0 71 50.5 121.5t121.5 50.5t121.5 -50.5t50.5 -121.5t-50.5 -121.5t-121.5 -50.5t-121.5 50.5t-50.5 121.5z" />
    <glyph glyph-name="divide" unicode="&#xf7;" horiz-adv-x="1090" 
d="M80 534v289h930v-289h-930zM369 1059q0 72 52 124t124 52t124 -52t52 -124t-52 -124t-124 -52t-124 52t-52 124zM369 298q0 72 52 124t124 52t124 -52t52 -124t-52 -124t-124 -52t-124 52t-52 124z" />
    <glyph glyph-name="oslash" unicode="&#xf8;" horiz-adv-x="1332" 
d="M666 -30q-62 0 -121 9l-19 -40h-282l60 123q-118 72 -181 188.5t-63 264.5q0 244 165.5 394.5t440.5 150.5q63 0 120 -9l20 40h282l-61 -124q118 -72 181.5 -188t63.5 -264q0 -243 -166 -394t-440 -151zM664 222h2q134 0 206 81t72 212q0 107 -49 181zM388 515
q0 -107 48 -181l232 474h-2q-134 0 -206 -81t-72 -212z" />
    <glyph glyph-name="ugrave" unicode="&#xf9;" 
d="M848 496v534h328v-1030h-328v109q-91 -139 -275 -139q-247 0 -360 135t-113 391v534h328v-534q0 -135 48 -204.5t162 -69.5t162 69.5t48 204.5zM541 1434l251 -310h-270l-314 310h333z" />
    <glyph glyph-name="uacute" unicode="&#xfa;" 
d="M848 496v534h328v-1030h-328v109q-91 -139 -275 -139q-247 0 -360 135t-113 391v534h328v-534q0 -135 48 -204.5t162 -69.5t162 69.5t48 204.5zM487 1124l251 310h333l-314 -310h-270z" />
    <glyph glyph-name="ucircumflex" unicode="&#xfb;" 
d="M848 496v534h328v-1030h-328v109q-91 -139 -275 -139q-247 0 -360 135t-113 391v534h328v-534q0 -135 48 -204.5t162 -69.5t162 69.5t48 204.5zM741 1434l301 -291h-248l-156 109l-156 -109h-248l301 291h206z" />
    <glyph glyph-name="udieresis" unicode="&#xfc;" 
d="M848 496v534h328v-1030h-328v109q-91 -139 -275 -139q-247 0 -360 135t-113 391v534h328v-534q0 -135 48 -204.5t162 -69.5t162 69.5t48 204.5zM229 1334q0 71 50.5 121.5t121.5 50.5t121.5 -50.5t50.5 -121.5t-50.5 -121.5t-121.5 -50.5t-121.5 50.5t-50.5 121.5z
M706 1334q0 71 50.5 121.5t121.5 50.5t121.5 -50.5t50.5 -121.5t-50.5 -121.5t-121.5 -50.5t-121.5 50.5t-50.5 121.5z" />
    <glyph glyph-name="yacute" unicode="&#xfd;" horiz-adv-x="1196" 
d="M352 1030l246 -672l246 672h342l-441 -1030l-123 -289q-25 -57 -52 -97.5t-67 -75.5t-96.5 -52.5t-130.5 -17.5q-143 0 -237 50l101 223q58 -21 112 -21q43 0 72 27.5t54 86.5l73 166l-441 1030h342zM447 1124l251 310h333l-314 -310h-270z" />
    <glyph glyph-name="thorn" unicode="&#xfe;" horiz-adv-x="1352" 
d="M1292 515q0 -254 -143.5 -399.5t-382.5 -145.5q-117 0 -203 45.5t-135 120.5v-668h-328v2048h328v-622q50 75 135.5 120.5t202.5 45.5q239 0 382.5 -145.5t143.5 -399.5zM964 515q0 130 -70.5 211.5t-197.5 81.5t-197.5 -81.5t-70.5 -211.5t70.5 -211.5t197.5 -81.5
t197.5 81.5t70.5 211.5z" />
    <glyph glyph-name="ydieresis" unicode="&#xff;" horiz-adv-x="1196" 
d="M352 1030l246 -672l246 672h342l-441 -1030l-123 -289q-25 -57 -52 -97.5t-67 -75.5t-96.5 -52.5t-130.5 -17.5q-143 0 -237 50l101 223q58 -21 112 -21q43 0 72 27.5t54 86.5l73 166l-441 1030h342zM188 1334q0 71 50.5 121.5t121.5 50.5t121.5 -50.5t50.5 -121.5
t-50.5 -121.5t-121.5 -50.5t-121.5 50.5t-50.5 121.5zM665 1334q0 71 50.5 121.5t121.5 50.5t121.5 -50.5t50.5 -121.5t-50.5 -121.5t-121.5 -50.5t-121.5 50.5t-50.5 121.5z" />
    <glyph glyph-name="Amacron" unicode="&#x100;" horiz-adv-x="1536" 
d="M479 281l-110 -281h-359l593 1434h330l593 -1434h-359l-110 281h-578zM768 1014l-179 -454h358zM332 1536v252h874v-252h-874z" />
    <glyph glyph-name="amacron" unicode="&#x101;" horiz-adv-x="1194" 
d="M60 319q0 77 28.5 138.5t78 101t117 67.5t146 38t164.5 13t172 -7q0 38 -6 62.5t-24.5 45.5t-56 30.5t-96.5 9.5q-174 0 -328 -65l-109 210q99 50 222 73.5t235 23.5q143 0 239 -26.5t151.5 -82t78 -131t22.5 -185.5v-635h-329v135q-72 -159 -310 -159q-80 0 -149.5 20
t-125.5 60t-88 107.5t-32 155.5zM388 349q0 -56 36 -88.5t111 -32.5q106 0 168 50t62 121v89q-38 1 -85.5 3t-99 -6t-94.5 -21.5t-70.5 -43t-27.5 -71.5zM196 1182v252h874v-252h-874z" />
    <glyph glyph-name="Abreve" unicode="&#x102;" horiz-adv-x="1536" 
d="M479 281l-110 -281h-359l593 1434h330l593 -1434h-359l-110 281h-578zM768 1014l-179 -454h358zM768 1556q-89 0 -160 24.5t-114 65t-67.5 85t-32.5 91.5h192q39 -98 182 -98t182 98h192q-8 -47 -32.5 -91.5t-67.5 -85t-114 -65t-160 -24.5z" />
    <glyph glyph-name="abreve" unicode="&#x103;" horiz-adv-x="1194" 
d="M60 319q0 77 28.5 138.5t78 101t117 67.5t146 38t164.5 13t172 -7q0 38 -6 62.5t-24.5 45.5t-56 30.5t-96.5 9.5q-174 0 -328 -65l-109 210q99 50 222 73.5t235 23.5q143 0 239 -26.5t151.5 -82t78 -131t22.5 -185.5v-635h-329v135q-72 -159 -310 -159q-80 0 -149.5 20
t-125.5 60t-88 107.5t-32 155.5zM388 349q0 -56 36 -88.5t111 -32.5q106 0 168 50t62 121v89q-38 1 -85.5 3t-99 -6t-94.5 -21.5t-70.5 -43t-27.5 -71.5zM637 1168q-89 0 -160 24.5t-114 65t-67.5 85t-32.5 91.5h192q39 -98 182 -98t182 98h192q-8 -47 -32.5 -91.5
t-67.5 -85t-114 -65t-160 -24.5z" />
    <glyph glyph-name="Aogonek" unicode="&#x104;" horiz-adv-x="1588" 
d="M933 1434l593 -1434q-36 -10 -65 -30q-65 -45 -65 -111q0 -68 91 -96q42 -13 91 -14v-247q-57 0 -110 6.5t-111.5 26t-101 49.5t-70.5 81.5t-28 117.5q0 23 4 44.5t10.5 39t15.5 33t19 27.5t21 23t21 18t20 13.5t16.5 10t11.5 6.5l6 2h-135l-110 281h-578l-110 -281h-359
l593 1434h330zM768 1014l-179 -454h358z" />
    <glyph glyph-name="aogonek" unicode="&#x105;" horiz-adv-x="1246" 
d="M1094 635v-635q-36 -10 -65 -30q-65 -45 -65 -111q0 -68 91 -96q42 -13 91 -14v-247q-57 0 -110 6.5t-111.5 26t-101 49.5t-70.5 81.5t-28 117.5q0 23 4 44.5t10.5 39t15.5 33t19 27.5t21 23t21 18t20 13.5t16.5 10t11.5 6.5l6 2h-105v135q-72 -159 -310 -159
q-80 0 -149.5 20t-125.5 60t-88 107.5t-32 155.5q0 77 28.5 138.5t78 101t117 67.5t146 38t164.5 13t172 -7q0 38 -6 62.5t-24.5 45.5t-56 30.5t-96.5 9.5q-174 0 -328 -65l-109 210q99 50 222 73.5t235 23.5q143 0 239 -26.5t151.5 -82t78 -131t22.5 -185.5zM388 349
q0 -56 36 -88.5t111 -32.5q106 0 168 50t62 121v89q-38 1 -85.5 3t-99 -6t-94.5 -21.5t-70.5 -43t-27.5 -71.5z" />
    <glyph glyph-name="Cacute" unicode="&#x106;" horiz-adv-x="1457" 
d="M60 717q0 123 28.5 233t90 206.5t151 166.5t219 110.5t287.5 40.5q201 0 336 -44.5t245 -138.5l-165 -226q-83 55 -178.5 87.5t-237.5 32.5q-110 0 -194 -35.5t-135.5 -99.5t-77.5 -148t-26 -185t26 -185t77.5 -148t135.5 -99.5t194 -35.5q245 0 416 120l165 -226
q-110 -94 -245 -138.5t-336 -44.5q-158 0 -287.5 40.5t-219 110.5t-151 166.5t-90 206.5t-28.5 233zM714 1536l251 310h333l-314 -310h-270z" />
    <glyph glyph-name="cacute" unicode="&#x107;" horiz-adv-x="1153" 
d="M388 515q0 -135 74.5 -214t203.5 -79q166 0 290 103l157 -191q-151 -164 -447 -164q-275 0 -440.5 150.5t-165.5 394.5t165.5 394.5t440.5 150.5q296 0 447 -164l-157 -191q-124 103 -290 103q-129 0 -203.5 -79t-74.5 -214zM521 1124l251 310h333l-314 -310h-270z" />
    <glyph glyph-name="Ccircumflex" unicode="&#x108;" horiz-adv-x="1457" 
d="M929 1827l301 -291h-248l-156 109l-156 -109h-248l301 291h206zM60 717q0 123 28.5 233t90 206.5t151 166.5t219 110.5t287.5 40.5q201 0 336 -44.5t245 -138.5l-165 -226q-83 55 -178.5 87.5t-237.5 32.5q-110 0 -194 -35.5t-135.5 -99.5t-77.5 -148t-26 -185t26 -185
t77.5 -148t135.5 -99.5t194 -35.5q245 0 416 120l165 -226q-110 -94 -245 -138.5t-336 -44.5q-158 0 -287.5 40.5t-219 110.5t-151 166.5t-90 206.5t-28.5 233z" />
    <glyph glyph-name="ccircumflex" unicode="&#x109;" horiz-adv-x="1153" 
d="M388 515q0 -135 74.5 -214t203.5 -79q166 0 290 103l157 -191q-151 -164 -447 -164q-275 0 -440.5 150.5t-165.5 394.5t165.5 394.5t440.5 150.5q296 0 447 -164l-157 -191q-124 103 -290 103q-129 0 -203.5 -79t-74.5 -214zM742 1434l301 -291h-248l-156 109l-156 -109
h-248l301 291h206z" />
    <glyph glyph-name="Cdotaccent" unicode="&#x10a;" horiz-adv-x="1457" 
d="M60 717q0 123 28.5 233t90 206.5t151 166.5t219 110.5t287.5 40.5q201 0 336 -44.5t245 -138.5l-165 -226q-83 55 -178.5 87.5t-237.5 32.5q-110 0 -194 -35.5t-135.5 -99.5t-77.5 -148t-26 -185t26 -185t77.5 -148t135.5 -99.5t194 -35.5q245 0 416 120l165 -226
q-110 -94 -245 -138.5t-336 -44.5q-158 0 -287.5 40.5t-219 110.5t-151 166.5t-90 206.5t-28.5 233zM667 1708q0 71 50.5 121.5t121.5 50.5t121.5 -50.5t50.5 -121.5t-50.5 -121.5t-121.5 -50.5t-121.5 50.5t-50.5 121.5z" />
    <glyph glyph-name="cdotaccent" unicode="&#x10b;" horiz-adv-x="1153" 
d="M388 515q0 -135 74.5 -214t203.5 -79q166 0 290 103l157 -191q-151 -164 -447 -164q-275 0 -440.5 150.5t-165.5 394.5t165.5 394.5t440.5 150.5q296 0 447 -164l-157 -191q-124 103 -290 103q-129 0 -203.5 -79t-74.5 -214zM484 1334q0 71 50.5 121.5t121.5 50.5
t121.5 -50.5t50.5 -121.5t-50.5 -121.5t-121.5 -50.5t-121.5 50.5t-50.5 121.5z" />
    <glyph glyph-name="Ccaron" unicode="&#x10c;" horiz-adv-x="1457" 
d="M60 717q0 123 28.5 233t90 206.5t151 166.5t219 110.5t287.5 40.5q201 0 336 -44.5t245 -138.5l-165 -226q-83 55 -178.5 87.5t-237.5 32.5q-110 0 -194 -35.5t-135.5 -99.5t-77.5 -148t-26 -185t26 -185t77.5 -148t135.5 -99.5t194 -35.5q245 0 416 120l165 -226
q-110 -94 -245 -138.5t-336 -44.5q-158 0 -287.5 40.5t-219 110.5t-151 166.5t-90 206.5t-28.5 233zM1243 1827l-301 -291h-206l-301 291h248l156 -109l156 109h248z" />
    <glyph glyph-name="ccaron" unicode="&#x10d;" horiz-adv-x="1153" 
d="M388 515q0 -135 74.5 -214t203.5 -79q166 0 290 103l157 -191q-151 -164 -447 -164q-275 0 -440.5 150.5t-165.5 394.5t165.5 394.5t440.5 150.5q296 0 447 -164l-157 -191q-124 103 -290 103q-129 0 -203.5 -79t-74.5 -214zM1062 1434l-301 -291h-206l-301 291h248
l156 -109l156 109h248z" />
    <glyph glyph-name="Dcaron" unicode="&#x10e;" horiz-adv-x="1483" 
d="M1423 717q0 -157 -44.5 -286.5t-131.5 -226.5t-225 -150.5t-315 -53.5h-607v1434h607q177 0 315 -53.5t225 -150.5t131.5 -226.5t44.5 -286.5zM433 1145v-856h274q100 0 174 35t116.5 96.5t62.5 135.5t20 161t-20 161t-62.5 135.5t-116.5 96.5t-174 35h-274zM1010 1827
l-301 -291h-206l-301 291h248l156 -109l156 109h248z" />
    <glyph glyph-name="dcaron" unicode="&#x10f;" horiz-adv-x="1550" 
d="M60 515q0 252 146 398.5t380 146.5q117 0 202.5 -45.5t135.5 -120.5v622h328v-1516h-328v136q-49 -75 -135 -120.5t-203 -45.5q-234 0 -380 146.5t-146 398.5zM388 515q0 -130 70.5 -211.5t197.5 -81.5t197.5 81.5t70.5 211.5t-70.5 211.5t-197.5 81.5t-197.5 -81.5
t-70.5 -211.5zM1290 974l211 542h319l-249 -542h-281z" />
    <glyph glyph-name="Dcroat" unicode="&#x110;" horiz-adv-x="1613" 
d="M10 573v289h220v572h607q177 0 315 -53.5t225 -150.5t131.5 -226.5t44.5 -286.5t-44.5 -286.5t-131.5 -226.5t-225 -150.5t-315 -53.5h-607v573h-220zM563 573v-284h274q100 0 174 35t116.5 96.5t62.5 135.5t20 161t-20 161t-62.5 135.5t-116.5 96.5t-174 35h-274v-283
h293v-289h-293z" />
    <glyph glyph-name="dslash" unicode="&#x111;" horiz-adv-x="1449" 
d="M60 515q0 252 146 398.5t380 146.5q117 0 202.5 -45.5t135.5 -120.5v227h-312v252h312v143h328v-143h217v-252h-217v-1121h-328v136q-49 -75 -135 -120.5t-203 -45.5q-234 0 -380 146.5t-146 398.5zM388 515q0 -130 70.5 -211.5t197.5 -81.5t197.5 81.5t70.5 211.5
t-70.5 211.5t-197.5 81.5t-197.5 -81.5t-70.5 -211.5z" />
    <glyph glyph-name="Emacron" unicode="&#x112;" horiz-adv-x="1256" 
d="M433 876h690v-289h-690v-298h743v-289h-1076v1434h1066v-289h-733v-269zM201 1536v252h874v-252h-874z" />
    <glyph glyph-name="emacron" unicode="&#x113;" horiz-adv-x="1246" 
d="M959 306l162 -184q-189 -152 -491 -152q-149 0 -262 45t-178.5 122.5t-97.5 172.5t-32 205q0 87 20 165.5t65 148t110 121t161.5 81t213.5 29.5q292 0 436 -176t114 -490h-779q0 -35 11.5 -66t36.5 -58t71 -42.5t110 -15.5q197 0 329 94zM402 606h456q0 37 -11 71.5
t-35.5 67.5t-71 53t-110.5 20t-110.5 -20t-71 -53t-35.5 -67.5t-11 -71.5zM197 1182v252h874v-252h-874z" />
    <glyph glyph-name="Ebreve" unicode="&#x114;" horiz-adv-x="1256" 
d="M433 876h690v-289h-690v-298h743v-289h-1076v1434h1066v-289h-733v-269zM638 1536q-89 0 -160 24.5t-114 65t-67.5 85t-32.5 91.5h192q39 -98 182 -98t182 98h192q-8 -47 -32.5 -91.5t-67.5 -85t-114 -65t-160 -24.5z" />
    <glyph glyph-name="ebreve" unicode="&#x115;" horiz-adv-x="1246" 
d="M959 306l162 -184q-189 -152 -491 -152q-149 0 -262 45t-178.5 122.5t-97.5 172.5t-32 205q0 87 20 165.5t65 148t110 121t161.5 81t213.5 29.5q292 0 436 -176t114 -490h-779q0 -35 11.5 -66t36.5 -58t71 -42.5t110 -15.5q197 0 329 94zM402 606h456q0 37 -11 71.5
t-35.5 67.5t-71 53t-110.5 20t-110.5 -20t-71 -53t-35.5 -67.5t-11 -71.5zM634 1168q-89 0 -160 24.5t-114 65t-67.5 85t-32.5 91.5h192q39 -98 182 -98t182 98h192q-8 -47 -32.5 -91.5t-67.5 -85t-114 -65t-160 -24.5z" />
    <glyph glyph-name="Edotaccent" unicode="&#x116;" horiz-adv-x="1256" 
d="M433 876h690v-289h-690v-298h743v-289h-1076v1434h1066v-289h-733v-269zM466 1708q0 71 50.5 121.5t121.5 50.5t121.5 -50.5t50.5 -121.5t-50.5 -121.5t-121.5 -50.5t-121.5 50.5t-50.5 121.5z" />
    <glyph glyph-name="edotaccent" unicode="&#x117;" horiz-adv-x="1246" 
d="M959 306l162 -184q-189 -152 -491 -152q-149 0 -262 45t-178.5 122.5t-97.5 172.5t-32 205q0 87 20 165.5t65 148t110 121t161.5 81t213.5 29.5q292 0 436 -176t114 -490h-779q0 -35 11.5 -66t36.5 -58t71 -42.5t110 -15.5q197 0 329 94zM402 606h456q0 37 -11 71.5
t-35.5 67.5t-71 53t-110.5 20t-110.5 -20t-71 -53t-35.5 -67.5t-11 -71.5zM462 1334q0 71 50.5 121.5t121.5 50.5t121.5 -50.5t50.5 -121.5t-50.5 -121.5t-121.5 -50.5t-121.5 50.5t-50.5 121.5z" />
    <glyph glyph-name="Eogonek" unicode="&#x118;" horiz-adv-x="1308" 
d="M1176 289v-289q-36 -10 -65 -30q-65 -45 -65 -111q0 -68 91 -96q42 -13 91 -14v-247q-57 0 -110 6.5t-111.5 26t-101 49.5t-70.5 81.5t-28 117.5q0 23 4 44.5t10.5 39t15.5 33t19 27.5t21 23t21 18t20 13.5t16.5 10t11.5 6.5l6 2h-852v1434h1066v-289h-733v-269h690v-289
h-690v-298h743z" />
    <glyph glyph-name="eogonek" unicode="&#x119;" horiz-adv-x="1246" 
d="M959 306l162 -184q-108 -88 -252 -124q-15 -4 -31.5 -12.5t-39.5 -24.5t-37.5 -43t-14.5 -59q0 -68 91 -96q42 -13 91 -14v-247q-57 0 -110 6.5t-111.5 26t-101 49.5t-70.5 81.5t-28 117.5q0 119 94 188q-141 4 -248.5 50.5t-169.5 123.5t-92.5 170t-30.5 200
q0 87 20 165.5t65 148t110 121t161.5 81t213.5 29.5q292 0 436 -176t114 -490h-779q0 -35 11.5 -66t36.5 -58t71 -42.5t110 -15.5q197 0 329 94zM402 606h456q0 37 -11 71.5t-35.5 67.5t-71 53t-110.5 20t-110.5 -20t-71 -53t-35.5 -67.5t-11 -71.5z" />
    <glyph glyph-name="Ecaron" unicode="&#x11a;" horiz-adv-x="1256" 
d="M433 876h690v-289h-690v-298h743v-289h-1076v1434h1066v-289h-733v-269zM1042 1827l-301 -291h-206l-301 291h248l156 -109l156 109h248z" />
    <glyph glyph-name="ecaron" unicode="&#x11b;" horiz-adv-x="1246" 
d="M959 306l162 -184q-189 -152 -491 -152q-149 0 -262 45t-178.5 122.5t-97.5 172.5t-32 205q0 87 20 165.5t65 148t110 121t161.5 81t213.5 29.5q292 0 436 -176t114 -490h-779q0 -35 11.5 -66t36.5 -58t71 -42.5t110 -15.5q197 0 329 94zM402 606h456q0 37 -11 71.5
t-35.5 67.5t-71 53t-110.5 20t-110.5 -20t-71 -53t-35.5 -67.5t-11 -71.5zM1038 1434l-301 -291h-206l-301 291h248l156 -109l156 109h248z" />
    <glyph glyph-name="Gcircumflex" unicode="&#x11c;" horiz-adv-x="1507" 
d="M836 249q165 0 273 55v263h-277v279h586v-716q-203 -170 -582 -170q-158 0 -287.5 40.5t-219 110.5t-151 166.5t-90 206.5t-28.5 233t28.5 233t90 206.5t151 166.5t219 110.5t287.5 40.5q165 0 312 -39.5t279 -143.5l-170 -222q-173 116 -421 116q-110 0 -194 -35.5
t-135.5 -99.5t-77.5 -148t-26 -185t26 -185t77.5 -148t135.5 -99.5t194 -35.5zM934 1827l301 -291h-248l-156 109l-156 -109h-248l301 291h206z" />
    <glyph glyph-name="gcircumflex" unicode="&#x11d;" horiz-adv-x="1353" 
d="M924 1030h328v-1030q0 -122 -36.5 -217t-96.5 -153t-144.5 -95.5t-172 -52t-187.5 -14.5q-284 0 -489 116l125 228q169 -92 364 -92q142 0 225.5 69.5t83.5 210.5v136q-49 -75 -135 -120.5t-203 -45.5q-234 0 -380 146.5t-146 398.5t146 398.5t380 146.5
q117 0 202.5 -45.5t135.5 -120.5v136zM388 515q0 -130 70.5 -211.5t197.5 -81.5t197.5 81.5t70.5 211.5t-70.5 211.5t-197.5 81.5t-197.5 -81.5t-70.5 -211.5zM759 1434l301 -291h-248l-156 109l-156 -109h-248l301 291h206z" />
    <glyph glyph-name="Gbreve" unicode="&#x11e;" horiz-adv-x="1507" 
d="M836 249q165 0 273 55v263h-277v279h586v-716q-203 -170 -582 -170q-158 0 -287.5 40.5t-219 110.5t-151 166.5t-90 206.5t-28.5 233t28.5 233t90 206.5t151 166.5t219 110.5t287.5 40.5q165 0 312 -39.5t279 -143.5l-170 -222q-173 116 -421 116q-110 0 -194 -35.5
t-135.5 -99.5t-77.5 -148t-26 -185t26 -185t77.5 -148t135.5 -99.5t194 -35.5zM832 1556q-89 0 -160 24.5t-114 65t-67.5 85t-32.5 91.5h192q39 -98 182 -98t182 98h192q-8 -47 -32.5 -91.5t-67.5 -85t-114 -65t-160 -24.5z" />
    <glyph glyph-name="gbreve" unicode="&#x11f;" horiz-adv-x="1353" 
d="M924 1030h328v-1030q0 -122 -36.5 -217t-96.5 -153t-144.5 -95.5t-172 -52t-187.5 -14.5q-284 0 -489 116l125 228q169 -92 364 -92q142 0 225.5 69.5t83.5 210.5v136q-49 -75 -135 -120.5t-203 -45.5q-234 0 -380 146.5t-146 398.5t146 398.5t380 146.5
q117 0 202.5 -45.5t135.5 -120.5v136zM388 515q0 -130 70.5 -211.5t197.5 -81.5t197.5 81.5t70.5 211.5t-70.5 211.5t-197.5 81.5t-197.5 -81.5t-70.5 -211.5zM656 1168q-89 0 -160 24.5t-114 65t-67.5 85t-32.5 91.5h192q39 -98 182 -98t182 98h192q-8 -47 -32.5 -91.5
t-67.5 -85t-114 -65t-160 -24.5z" />
    <glyph glyph-name="Gdotaccent" unicode="&#x120;" horiz-adv-x="1507" 
d="M836 249q165 0 273 55v263h-277v279h586v-716q-203 -170 -582 -170q-158 0 -287.5 40.5t-219 110.5t-151 166.5t-90 206.5t-28.5 233t28.5 233t90 206.5t151 166.5t219 110.5t287.5 40.5q165 0 312 -39.5t279 -143.5l-170 -222q-173 116 -421 116q-110 0 -194 -35.5
t-135.5 -99.5t-77.5 -148t-26 -185t26 -185t77.5 -148t135.5 -99.5t194 -35.5zM669 1708q0 71 50.5 121.5t121.5 50.5t121.5 -50.5t50.5 -121.5t-50.5 -121.5t-121.5 -50.5t-121.5 50.5t-50.5 121.5z" />
    <glyph glyph-name="gdotaccent" unicode="&#x121;" horiz-adv-x="1353" 
d="M924 1030h328v-1030q0 -122 -36.5 -217t-96.5 -153t-144.5 -95.5t-172 -52t-187.5 -14.5q-284 0 -489 116l125 228q169 -92 364 -92q142 0 225.5 69.5t83.5 210.5v136q-49 -75 -135 -120.5t-203 -45.5q-234 0 -380 146.5t-146 398.5t146 398.5t380 146.5
q117 0 202.5 -45.5t135.5 -120.5v136zM388 515q0 -130 70.5 -211.5t197.5 -81.5t197.5 81.5t70.5 211.5t-70.5 211.5t-197.5 81.5t-197.5 -81.5t-70.5 -211.5zM484 1334q0 71 50.5 121.5t121.5 50.5t121.5 -50.5t50.5 -121.5t-50.5 -121.5t-121.5 -50.5t-121.5 50.5
t-50.5 121.5z" />
    <glyph glyph-name="Gcommaaccent" unicode="&#x122;" horiz-adv-x="1507" 
d="M836 249q165 0 273 55v263h-277v279h586v-716q-203 -170 -582 -170q-158 0 -287.5 40.5t-219 110.5t-151 166.5t-90 206.5t-28.5 233t28.5 233t90 206.5t151 166.5t219 110.5t287.5 40.5q165 0 312 -39.5t279 -143.5l-170 -222q-173 116 -421 116q-110 0 -194 -35.5
t-135.5 -99.5t-77.5 -148t-26 -185t26 -185t77.5 -148t135.5 -99.5t194 -35.5zM528 -532l153 424h299l-191 -424h-261z" />
    <glyph glyph-name="gcommaaccent" unicode="&#x123;" horiz-adv-x="1353" 
d="M924 1030h328v-1030q0 -122 -36.5 -217t-96.5 -153t-144.5 -95.5t-172 -52t-187.5 -14.5q-284 0 -489 116l125 228q169 -92 364 -92q142 0 225.5 69.5t83.5 210.5v136q-49 -75 -135 -120.5t-203 -45.5q-234 0 -380 146.5t-146 398.5t146 398.5t380 146.5
q117 0 202.5 -45.5t135.5 -120.5v136zM388 515q0 -130 70.5 -211.5t197.5 -81.5t197.5 81.5t70.5 211.5t-70.5 211.5t-197.5 81.5t-197.5 -81.5t-70.5 -211.5zM946 1556l-153 -424h-299l191 424h261z" />
    <glyph glyph-name="Hcircumflex" unicode="&#x124;" horiz-adv-x="1491" 
d="M1058 876v558h333v-1434h-333v587h-625v-587h-333v1434h333v-558h625zM848 1827l301 -291h-248l-156 109l-156 -109h-248l301 291h206z" />
    <glyph glyph-name="hcircumflex" unicode="&#x125;" 
d="M428 534v-534h-328v1516h328v-595q91 139 275 139q247 0 360 -135t113 -391v-534h-328v534q0 135 -48 204.5t-162 69.5t-162 -69.5t-48 -204.5zM741 1827l301 -291h-248l-156 109l-156 -109h-248l301 291h206z" />
    <glyph glyph-name="Hbar" unicode="&#x126;" horiz-adv-x="1739" 
d="M40 1030v238h184v166h333v-166h625v166h333v-166h184v-238h-184v-1030h-333v587h-625v-587h-333v1030h-184zM557 876h625v154h-625v-154z" />
    <glyph glyph-name="hbar" unicode="&#x127;" horiz-adv-x="1373" 
d="M525 534v-534h-328v1121h-217v252h217v143h328v-143h312v-252h-312v-200q91 139 275 139q247 0 360 -135t113 -391v-534h-328v534q0 135 -48 204.5t-162 69.5t-162 -69.5t-48 -204.5z" />
    <glyph glyph-name="Itilde" unicode="&#x128;" horiz-adv-x="623" 
d="M145 0v1434h333v-1434h-333zM283 1590q-54 46 -93 46q-36 0 -54 -39q-8 -20 -11 -39h-205q5 78 33 139q65 140 232 140q87 0 155 -54q54 -46 93 -46q36 0 54 39q8 18 11 39h205q-4 -76 -34 -140q-64 -139 -231 -139q-87 0 -155 54z" />
    <glyph glyph-name="itilde" unicode="&#x129;" horiz-adv-x="643" 
d="M293 1207q-54 46 -93 46q-36 0 -54 -39q-8 -20 -11 -39h-205q5 78 33 139q65 140 232 140q87 0 155 -54q54 -46 93 -46q36 0 54 39q8 18 11 39h205q-4 -76 -34 -140q-64 -139 -231 -139q-87 0 -155 54zM157 0v1030h328v-1030h-328z" />
    <glyph glyph-name="uni012A" unicode="&#x12a;" horiz-adv-x="774" 
d="M221 0v1434h333v-1434h-333zM-50 1536v252h874v-252h-874z" />
    <glyph glyph-name="imacron" unicode="&#x12b;" horiz-adv-x="674" 
d="M173 0v1030h328v-1030h-328zM-100 1182v252h874v-252h-874z" />
    <glyph glyph-name="Ibreve" unicode="&#x12c;" horiz-adv-x="588" 
d="M128 0v1434h333v-1434h-333zM294 1556q-89 0 -160 24.5t-114 65t-67.5 85t-32.5 91.5h192q39 -98 182 -98t182 98h192q-8 -47 -32.5 -91.5t-67.5 -85t-114 -65t-160 -24.5z" />
    <glyph glyph-name="uni012D" unicode="&#x12d;" horiz-adv-x="648" 
d="M160 0v1030h328v-1030h-328zM324 1168q-89 0 -160 24.5t-114 65t-67.5 85t-32.5 91.5h192q39 -98 182 -98t182 98h192q-8 -47 -32.5 -91.5t-67.5 -85t-114 -65t-160 -24.5z" />
    <glyph glyph-name="Iogonek" unicode="&#x12e;" horiz-adv-x="621" 
d="M469 1434v-1434q-36 -10 -65 -30q-65 -45 -65 -111q0 -68 91 -96q42 -13 91 -14v-247q-57 0 -110 6.5t-111.5 26t-101 49.5t-70.5 81.5t-28 117.5q0 23 4 44.5t10.5 39t15.5 33t19 27.5t21 23t21 18t20 13.5t16.5 10t12.5 6.5l5 2h-109v1434h333z" />
    <glyph glyph-name="iogonek" unicode="&#x12f;" horiz-adv-x="621" 
d="M469 1030v-1030q-36 -10 -65 -30q-65 -45 -65 -111q0 -68 91 -96q42 -13 91 -14v-247q-57 0 -110 6.5t-111.5 26t-101 49.5t-70.5 81.5t-28 117.5q0 23 4 44.5t10.5 39t15.5 33t19 27.5t21 23t21 18t20 13.5t16.5 10t12.5 6.5l5 2h-103v1030h327zM133 1334
q0 71 50.5 121.5t121.5 50.5t121.5 -50.5t50.5 -121.5t-50.5 -121.5t-121.5 -50.5t-121.5 50.5t-50.5 121.5z" />
    <glyph glyph-name="Idot" unicode="&#x130;" horiz-adv-x="544" 
d="M106 0v1434h333v-1434h-333zM100 1708q0 71 50.5 121.5t121.5 50.5t121.5 -50.5t50.5 -121.5t-50.5 -121.5t-121.5 -50.5t-121.5 50.5t-50.5 121.5z" />
    <glyph glyph-name="dotlessi" unicode="&#x131;" horiz-adv-x="528" 
d="M100 0v1030h328v-1030h-328z" />
    <glyph glyph-name="IJ" unicode="&#x132;" horiz-adv-x="1656" 
d="M100 0v1434h333v-1434h-333zM502 318l308 85q33 -75 83.5 -114.5t138.5 -39.5q103 0 147 56t44 175v954h333v-954q0 -520 -524 -520q-122 0 -215.5 27t-154.5 78t-98.5 112t-61.5 141z" />
    <glyph glyph-name="ij" unicode="&#x133;" horiz-adv-x="1124" 
d="M109 0v1030h327v-1030h-327zM100 1334q0 71 50.5 121.5t121.5 50.5t121.5 -50.5t50.5 -121.5t-50.5 -121.5t-121.5 -50.5t-121.5 50.5t-50.5 121.5zM680 1334q0 71 50.5 121.5t121.5 50.5t121.5 -50.5t50.5 -121.5t-50.5 -121.5t-121.5 -50.5t-121.5 50.5t-50.5 121.5z
M364 -488l82 229q58 -21 119 -21q30 0 52 9.5t35 29t20.5 37.5t11 48.5t4 47.5t0.5 48v1090h328v-1090q0 -118 -22 -203t-71.5 -146.5t-133.5 -92t-204 -30.5q-139 0 -221 44z" />
    <glyph glyph-name="Jcircumflex" unicode="&#x134;" horiz-adv-x="1196" 
d="M40 318l308 85q33 -75 83.5 -114.5t138.5 -39.5q103 0 147 56t44 175v954h333v-954q0 -520 -524 -520q-122 0 -215.5 27t-154.5 78t-98.5 112t-61.5 141zM1035 1827l301 -291h-248l-156 109l-156 -109h-248l301 291h206z" />
    <glyph glyph-name="jcircumflex" unicode="&#x135;" horiz-adv-x="705" 
d="M454 1434l301 -291h-248l-156 109l-156 -109h-248l301 291h206zM-140 -488l82 229q58 -21 119 -21q30 0 52 9.5t35 29t20.5 37.5t11 48.5t4 47.5t0.5 48v1090h328v-1090q0 -118 -22 -203t-71.5 -146.5t-133.5 -92t-204 -30.5q-139 0 -221 44z" />
    <glyph glyph-name="Kcommaaccent" unicode="&#x136;" horiz-adv-x="1441" 
d="M433 852l571 582h407l-610 -621l630 -813h-395l-454 587l-149 -153v-434h-333v1434h333v-582zM418 -532l153 424h299l-191 -424h-261z" />
    <glyph glyph-name="kcommaaccent" unicode="&#x137;" horiz-adv-x="1244" 
d="M428 677l391 353h415l-481 -434l481 -596h-385l-318 394l-103 -92v-302h-328v1516h328v-839zM328 -532l153 424h299l-191 -424h-261z" />
    <glyph glyph-name="kgreenlandic" unicode="&#x138;" horiz-adv-x="1414" 
d="M1317 1434v-315q-127 0 -253 -73t-313 -230q89 -49 177.5 -122.5t176 -174t166 -234.5t133.5 -285h-366q-210 441 -513 609l-92 -80v-529h-333v1434h333v-511q45 39 111.5 101t113 104t110 94.5t120.5 86.5t125.5 65t144.5 46t159 14z" />
    <glyph glyph-name="Lacute" unicode="&#x139;" horiz-adv-x="1191" 
d="M433 1434v-1145h698v-289h-1031v1434h333zM130 1536l251 310h333l-314 -310h-270z" />
    <glyph glyph-name="lacute" unicode="&#x13a;" horiz-adv-x="540" 
d="M100 390v1126h328v-1096v-36t1.5 -33t4.5 -33t8.5 -26t14 -22t21.5 -12.5t30 -5.5h39v-252h-106q-97 0 -166 30t-102 67t-50.5 100.5t-20 99t-2.5 93.5zM126 1596l251 310h333l-314 -310h-270z" />
    <glyph glyph-name="Lcommaaccent" unicode="&#x13b;" horiz-adv-x="1191" 
d="M433 1434v-1145h698v-289h-1031v1434h333zM328 -532l153 424h299l-191 -424h-261z" />
    <glyph glyph-name="lcommaaccent" unicode="&#x13c;" horiz-adv-x="639" 
d="M132 390v1126h328v-1096v-36t1.5 -33t4.5 -33t8.5 -26t14 -22t21.5 -12.5t30 -5.5h39v-252h-106q-97 0 -166 30t-102 67t-50.5 100.5t-20 99t-2.5 93.5zM100 -532l153 424h299l-191 -424h-261z" />
    <glyph glyph-name="Lcaron" unicode="&#x13d;" horiz-adv-x="1191" 
d="M433 1434v-1145h698v-289h-1031v1434h333zM508 892l211 542h319l-249 -542h-281z" />
    <glyph glyph-name="lcaron" unicode="&#x13e;" horiz-adv-x="991" 
d="M100 390v1126h328v-1096v-36t1.5 -33t4.5 -33t8.5 -26t14 -22t21.5 -12.5t30 -5.5h39v-252h-106q-97 0 -166 30t-102 67t-50.5 100.5t-20 99t-2.5 93.5zM481 974l211 542h319l-249 -542h-281z" />
    <glyph glyph-name="Ldot" unicode="&#x13f;" horiz-adv-x="1191" 
d="M433 1434v-1145h698v-289h-1031v1434h333zM620 773q0 72 50.5 122.5t122.5 50.5t122.5 -50.5t50.5 -122.5t-50.5 -122.5t-122.5 -50.5t-122.5 50.5t-50.5 122.5z" />
    <glyph glyph-name="ldot" unicode="&#x140;" horiz-adv-x="902" 
d="M100 390v1126h328v-1096v-36t1.5 -33t4.5 -33t8.5 -26t14 -22t21.5 -12.5t30 -5.5h39v-252h-106q-97 0 -166 30t-102 67t-50.5 100.5t-20 99t-2.5 93.5zM516 773q0 72 50.5 122.5t122.5 50.5t122.5 -50.5t50.5 -122.5t-50.5 -122.5t-122.5 -50.5t-122.5 50.5t-50.5 122.5
z" />
    <glyph glyph-name="Lslash" unicode="&#x141;" horiz-adv-x="1322" 
d="M564 704v-415h698v-289h-1031v514l-221 -126v289l221 126v631h333v-441l221 126v-289z" />
    <glyph glyph-name="lslash" unicode="&#x142;" horiz-adv-x="795" 
d="M10 445v289l223 125v657h328v-474l224 126v-289l-224 -126v-333v-36t1.5 -33t4.5 -33t8.5 -26t14 -22t21.5 -12.5t30 -5.5h39v-252h-106q-97 0 -166 30t-102 67t-50.5 100.5t-20 99t-2.5 93.5v180z" />
    <glyph glyph-name="Nacute" unicode="&#x143;" horiz-adv-x="1573" 
d="M130 0v1434h422l558 -956v956h333v-1434h-422l-558 956v-956h-333zM611 1536l251 310h333l-314 -310h-270z" />
    <glyph glyph-name="nacute" unicode="&#x144;" 
d="M428 534v-534h-328v1030h328v-109q91 139 275 139q247 0 360 -135t113 -391v-534h-328v534q0 135 -48 204.5t-162 69.5t-162 -69.5t-48 -204.5zM471 1124l251 310h333l-314 -310h-270z" />
    <glyph glyph-name="Ncommaaccent" unicode="&#x145;" horiz-adv-x="1513" 
d="M100 0v1434h422l558 -956v956h333v-1434h-422l-558 956v-956h-333zM468 -532l153 424h299l-191 -424h-261z" />
    <glyph glyph-name="ncommaaccent" unicode="&#x146;" 
d="M428 534v-534h-328v1030h328v-109q91 139 275 139q247 0 360 -135t113 -391v-534h-328v534q0 135 -48 204.5t-162 69.5t-162 -69.5t-48 -204.5zM340 -532l153 424h299l-191 -424h-261z" />
    <glyph glyph-name="Ncaron" unicode="&#x147;" horiz-adv-x="1573" 
d="M130 0v1434h422l558 -956v956h333v-1434h-422l-558 956v-956h-333zM1190 1827l-301 -291h-206l-301 291h248l156 -109l156 109h248z" />
    <glyph glyph-name="ncaron" unicode="&#x148;" 
d="M428 534v-534h-328v1030h328v-109q91 139 275 139q247 0 360 -135t113 -391v-534h-328v534q0 135 -48 204.5t-162 69.5t-162 -69.5t-48 -204.5zM1042 1434l-301 -291h-206l-301 291h248l156 -109l156 109h248z" />
    <glyph glyph-name="napostrophe" unicode="&#x149;" horiz-adv-x="1613" 
d="M765 534v-534h-328v1030h328v-109q91 139 275 139q247 0 360 -135t113 -391v-534h-328v534q0 135 -48 204.5t-162 69.5t-162 -69.5t-48 -204.5zM100 1010l153 424h299l-191 -424h-261z" />
    <glyph glyph-name="Eng" unicode="&#x14a;" horiz-adv-x="1513" 
d="M100 0v1434h422l558 -956v956h333v-1434q0 -269 -126.5 -400.5t-357.5 -131.5q-154 0 -256 49t-174 167l238 167q40 -47 83 -70.5t109 -23.5q86 0 118.5 59t32.5 184h-89l-558 956v-956h-333z" />
    <glyph glyph-name="eng" unicode="&#x14b;" 
d="M524 -488l82 229q58 -21 119 -21q30 0 52 9.5t35 29t20.5 37.5t11 48.5t4 47.5t0.5 48v594q0 135 -48 204.5t-162 69.5t-162 -69.5t-48 -204.5v-534h-328v1030h328v-109q91 139 275 139q247 0 360 -135t113 -391v-594q0 -118 -22 -203t-71.5 -146.5t-133.5 -92
t-204 -30.5q-139 0 -221 44z" />
    <glyph glyph-name="Omacron" unicode="&#x14c;" horiz-adv-x="1672" 
d="M836 1474q158 0 287.5 -40.5t219 -110.5t151 -166.5t90 -206.5t28.5 -233t-28.5 -233t-90 -206.5t-151 -166.5t-219 -110.5t-287.5 -40.5t-287.5 40.5t-219 110.5t-151 166.5t-90 206.5t-28.5 233t28.5 233t90 206.5t151 166.5t219 110.5t287.5 40.5zM836 1185
q-110 0 -194 -35.5t-135.5 -99.5t-77.5 -148t-26 -185t26 -185t77.5 -148t135.5 -99.5t194 -35.5t194 35.5t135.5 99.5t77.5 148t26 185t-26 185t-77.5 148t-135.5 99.5t-194 35.5zM399 1537v252h874v-252h-874z" />
    <glyph glyph-name="omacron" unicode="&#x14d;" horiz-adv-x="1332" 
d="M666 -30q-274 0 -440 151t-166 394q0 244 165.5 394.5t440.5 150.5t440.5 -150.5t165.5 -394.5q0 -243 -166 -394t-440 -151zM666 222q134 0 206 81t72 212t-72 212t-206 81t-206 -81t-72 -212t72 -212t206 -81zM229 1182v252h874v-252h-874z" />
    <glyph glyph-name="Obreve" unicode="&#x14e;" horiz-adv-x="1672" 
d="M836 1474q158 0 287.5 -40.5t219 -110.5t151 -166.5t90 -206.5t28.5 -233t-28.5 -233t-90 -206.5t-151 -166.5t-219 -110.5t-287.5 -40.5t-287.5 40.5t-219 110.5t-151 166.5t-90 206.5t-28.5 233t28.5 233t90 206.5t151 166.5t219 110.5t287.5 40.5zM836 1185
q-110 0 -194 -35.5t-135.5 -99.5t-77.5 -148t-26 -185t26 -185t77.5 -148t135.5 -99.5t194 -35.5t194 35.5t135.5 99.5t77.5 148t26 185t-26 185t-77.5 148t-135.5 99.5t-194 35.5zM836 1536q-89 0 -160 24.5t-114 65t-67.5 85t-32.5 91.5h192q39 -98 182 -98t182 98h192
q-8 -47 -32.5 -91.5t-67.5 -85t-114 -65t-160 -24.5z" />
    <glyph glyph-name="obreve" unicode="&#x14f;" horiz-adv-x="1332" 
d="M666 -30q-274 0 -440 151t-166 394q0 244 165.5 394.5t440.5 150.5t440.5 -150.5t165.5 -394.5q0 -243 -166 -394t-440 -151zM666 222q134 0 206 81t72 212t-72 212t-206 81t-206 -81t-72 -212t72 -212t206 -81zM666 1168q-89 0 -160 24.5t-114 65t-67.5 85t-32.5 91.5
h192q39 -98 182 -98t182 98h192q-8 -47 -32.5 -91.5t-67.5 -85t-114 -65t-160 -24.5z" />
    <glyph glyph-name="Ohungarumlaut" unicode="&#x150;" horiz-adv-x="1672" 
d="M836 1474q158 0 287.5 -40.5t219 -110.5t151 -166.5t90 -206.5t28.5 -233t-28.5 -233t-90 -206.5t-151 -166.5t-219 -110.5t-287.5 -40.5t-287.5 40.5t-219 110.5t-151 166.5t-90 206.5t-28.5 233t28.5 233t90 206.5t151 166.5t219 110.5t287.5 40.5zM836 1185
q-110 0 -194 -35.5t-135.5 -99.5t-77.5 -148t-26 -185t26 -185t77.5 -148t135.5 -99.5t194 -35.5t194 35.5t135.5 99.5t77.5 148t26 185t-26 185t-77.5 148t-135.5 99.5t-194 35.5zM559 1536l91 342h269l-149 -342h-211zM903 1536l91 342h269l-149 -342h-211z" />
    <glyph glyph-name="ohungarumlaut" unicode="&#x151;" horiz-adv-x="1332" 
d="M666 -30q-274 0 -440 151t-166 394q0 244 165.5 394.5t440.5 150.5t440.5 -150.5t165.5 -394.5q0 -243 -166 -394t-440 -151zM666 222q134 0 206 81t72 212t-72 212t-206 81t-206 -81t-72 -212t72 -212t206 -81zM401 1174l91 342h269l-149 -342h-211zM745 1174l91 342
h269l-149 -342h-211z" />
    <glyph glyph-name="OE" unicode="&#x152;" horiz-adv-x="2278" 
d="M1122 1434h1066v-289h-733v-269h690v-289h-690v-298h743v-289h-1076q-134 -40 -286 -40q-158 0 -287.5 40.5t-219 110.5t-151 166.5t-90 206.5t-28.5 233t28.5 233t90 206.5t151 166.5t219 110.5t287.5 40.5q152 0 286 -40zM836 1185q-110 0 -194 -35.5t-135.5 -99.5
t-77.5 -148t-26 -185t26 -185t77.5 -148t135.5 -99.5t194 -35.5q178 0 286 92v752q-108 92 -286 92z" />
    <glyph glyph-name="oe" unicode="&#x153;" horiz-adv-x="2130" 
d="M1843 306l162 -184q-189 -152 -491 -152q-268 0 -417 143q-163 -143 -431 -143q-274 0 -440 151t-166 394q0 244 165.5 394.5t440.5 150.5q268 0 433 -145q153 145 415 145q292 0 436 -176t114 -490h-779q0 -35 11.5 -66t36.5 -58t71 -42.5t110 -15.5q197 0 329 94z
M666 222q134 0 206 81t72 212t-72 212t-206 81t-206 -81t-72 -212t72 -212t206 -81zM1286 606h456q0 37 -11 71.5t-35.5 67.5t-71 53t-110.5 20t-110.5 -20t-71 -53t-35.5 -67.5t-11 -71.5z" />
    <glyph glyph-name="Racute" unicode="&#x154;" horiz-adv-x="1380" 
d="M433 0h-333v1434h642q142 0 251.5 -38.5t177 -106t101.5 -153.5t34 -187q0 -81 -23 -149.5t-64.5 -118t-90 -84t-108.5 -60.5l300 -537h-357l-276 494h-254v-494zM742 1145h-309v-392h309q121 0 174 54.5t53 141.5t-53 141.5t-174 54.5zM494 1536l251 310h333l-314 -310
h-270z" />
    <glyph glyph-name="racute" unicode="&#x155;" horiz-adv-x="958" 
d="M948 1012l-144 -248q-69 44 -166 44q-114 0 -162 -69.5t-48 -204.5v-534h-328v1030h328v-109q91 139 275 139q144 0 245 -48zM363 1124l251 310h333l-314 -310h-270z" />
    <glyph glyph-name="Rcommaaccent" unicode="&#x156;" horiz-adv-x="1380" 
d="M433 0h-333v1434h642q142 0 251.5 -38.5t177 -106t101.5 -153.5t34 -187q0 -81 -23 -149.5t-64.5 -118t-90 -84t-108.5 -60.5l300 -537h-357l-276 494h-254v-494zM742 1145h-309v-392h309q121 0 174 54.5t53 141.5t-53 141.5t-174 54.5zM383 -532l153 424h299l-191 -424
h-261z" />
    <glyph glyph-name="rcommaaccent" unicode="&#x157;" horiz-adv-x="980" 
d="M970 1012l-144 -248q-69 44 -166 44q-114 0 -162 -69.5t-48 -204.5v-534h-328v1030h328v-109q91 139 275 139q144 0 245 -48zM-20 -532l153 424h299l-191 -424h-261z" />
    <glyph glyph-name="Rcaron" unicode="&#x158;" horiz-adv-x="1380" 
d="M433 0h-333v1434h642q142 0 251.5 -38.5t177 -106t101.5 -153.5t34 -187q0 -81 -23 -149.5t-64.5 -118t-90 -84t-108.5 -60.5l300 -537h-357l-276 494h-254v-494zM742 1145h-309v-392h309q121 0 174 54.5t53 141.5t-53 141.5t-174 54.5zM1048 1827l-301 -291h-206
l-301 291h248l156 -109l156 109h248z" />
    <glyph glyph-name="rcaron" unicode="&#x159;" horiz-adv-x="962" 
d="M952 1012l-144 -248q-69 44 -166 44q-114 0 -162 -69.5t-48 -204.5v-534h-328v1030h328v-109q91 139 275 139q144 0 245 -48zM908 1434l-301 -291h-206l-301 291h248l156 -109l156 109h248z" />
    <glyph glyph-name="Sacute" unicode="&#x15a;" horiz-adv-x="1296" 
d="M1198 1330l-162 -235q-181 90 -394 90q-109 0 -164 -36t-55 -103q0 -69 65 -109.5t202 -68.5q142 -30 242.5 -68.5t175.5 -94t111.5 -131.5t36.5 -176q0 -218 -163 -328t-451 -110q-380 0 -602 172l162 235q188 -118 440 -118q146 0 211.5 38t65.5 111q0 68 -67 105
t-225 69q-279 59 -410 177.5t-131 296.5q0 68 18 129t59.5 116.5t104.5 95.5t158.5 63.5t215.5 23.5q342 0 556 -144zM512 1536l251 310h333l-314 -310h-270z" />
    <glyph glyph-name="sacute" unicode="&#x15b;" horiz-adv-x="1064" 
d="M973 953l-124 -211q-152 66 -312 66q-126 0 -126 -72q0 -35 42 -55t121 -34q111 -22 188 -48t139 -66t92.5 -99t30.5 -138q0 -86 -40 -151t-109.5 -102t-154 -55t-183.5 -18q-327 0 -497 135l124 211q168 -94 373 -94q79 0 119 16t40 58t-37.5 60.5t-138.5 38.5
q-223 42 -330 125t-107 216q0 156 119.5 240t334.5 84q259 0 436 -107zM388 1124l251 310h333l-314 -310h-270z" />
    <glyph glyph-name="Scircumflex" unicode="&#x15c;" horiz-adv-x="1296" 
d="M1198 1330l-162 -235q-181 90 -394 90q-109 0 -164 -36t-55 -103q0 -69 65 -109.5t202 -68.5q142 -30 242.5 -68.5t175.5 -94t111.5 -131.5t36.5 -176q0 -218 -163 -328t-451 -110q-380 0 -602 172l162 235q188 -118 440 -118q146 0 211.5 38t65.5 111q0 68 -67 105
t-225 69q-279 59 -410 177.5t-131 296.5q0 68 18 129t59.5 116.5t104.5 95.5t158.5 63.5t215.5 23.5q342 0 556 -144zM767 1827l301 -291h-248l-156 109l-156 -109h-248l301 291h206z" />
    <glyph glyph-name="scircumflex" unicode="&#x15d;" horiz-adv-x="1064" 
d="M973 953l-124 -211q-152 66 -312 66q-126 0 -126 -72q0 -35 42 -55t121 -34q111 -22 188 -48t139 -66t92.5 -99t30.5 -138q0 -86 -40 -151t-109.5 -102t-154 -55t-183.5 -18q-327 0 -497 135l124 211q168 -94 373 -94q79 0 119 16t40 58t-37.5 60.5t-138.5 38.5
q-223 42 -330 125t-107 216q0 156 119.5 240t334.5 84q259 0 436 -107zM651 1434l301 -291h-248l-156 109l-156 -109h-248l301 291h206z" />
    <glyph glyph-name="Scedilla" unicode="&#x15e;" horiz-adv-x="1296" 
d="M395 -497l53 127q30 -13 73.5 -21.5t89.5 -8.5t80.5 21t38.5 63q3 22 -8 37.5t-34 22t-48 9.5t-60 0.5t-60.5 -5.5t-57.5 -8l71 224q-300 19 -493 168l162 235q188 -118 440 -118q146 0 211.5 38t65.5 111q0 68 -67 105t-225 69q-279 59 -410 177.5t-131 296.5
q0 68 18 129t59.5 116.5t104.5 95.5t158.5 63.5t215.5 23.5q342 0 556 -144l-162 -235q-181 90 -394 90q-109 0 -164 -36t-55 -103q0 -69 65 -109.5t202 -68.5q142 -30 242.5 -68.5t175.5 -94t111.5 -131.5t36.5 -176q0 -202 -141 -311t-393 -124l-28 -88q47 -1 87.5 -14
t72 -36.5t47.5 -61.5t12 -86q-6 -74 -46 -124.5t-98.5 -71.5t-127.5 -24t-132.5 9.5t-113.5 36.5z" />
    <glyph glyph-name="scedilla" unicode="&#x15f;" horiz-adv-x="1064" 
d="M279 -497l53 127q30 -13 73.5 -21.5t89.5 -8.5t80.5 21t38.5 63q3 22 -8 37.5t-34 22t-48 9.5t-60 0.5t-60.5 -5.5t-57.5 -8l75 235q-246 19 -381 130l124 211q168 -94 373 -94q79 0 119 16t40 58t-37.5 60.5t-138.5 38.5q-223 42 -330 125t-107 216q0 156 119.5 240
t334.5 84q259 0 436 -107l-124 -211q-152 66 -312 66q-126 0 -126 -72q0 -35 42 -55t121 -34q111 -22 188 -48t139 -66t92.5 -99t30.5 -138q0 -63 -22 -115t-59.5 -88t-91 -61.5t-113.5 -39.5t-129 -19l-31 -98q47 -1 87.5 -14t72 -36.5t47.5 -61.5t12 -86
q-6 -74 -46 -124.5t-98.5 -71.5t-127.5 -24t-132.5 9.5t-113.5 36.5z" />
    <glyph glyph-name="Scaron" unicode="&#x160;" horiz-adv-x="1396" 
d="M1238 1330l-162 -235q-181 90 -394 90q-109 0 -164 -36t-55 -103q0 -69 65 -109.5t202 -68.5q142 -30 242.5 -68.5t175.5 -94t111.5 -131.5t36.5 -176q0 -218 -163 -328t-451 -110q-380 0 -602 172l162 235q188 -118 440 -118q146 0 211.5 38t65.5 111q0 68 -67 105
t-225 69q-279 59 -410 177.5t-131 296.5q0 68 18 129t59.5 116.5t104.5 95.5t158.5 63.5t215.5 23.5q342 0 556 -144zM1087 1827l-301 -291h-206l-301 291h248l156 -109l156 109h248z" />
    <glyph glyph-name="scaron" unicode="&#x161;" horiz-adv-x="1064" 
d="M973 953l-124 -211q-152 66 -312 66q-126 0 -126 -72q0 -35 42 -55t121 -34q111 -22 188 -48t139 -66t92.5 -99t30.5 -138q0 -86 -40 -151t-109.5 -102t-154 -55t-183.5 -18q-327 0 -497 135l124 211q168 -94 373 -94q79 0 119 16t40 58t-37.5 60.5t-138.5 38.5
q-223 42 -330 125t-107 216q0 156 119.5 240t334.5 84q259 0 436 -107zM936 1434l-301 -291h-206l-301 291h248l156 -109l156 109h248z" />
    <glyph glyph-name="Tcommaaccent" unicode="&#x162;" horiz-adv-x="1365" 
d="M40 1434h1285v-289h-476v-1145h-333v1145h-476v289zM378 -532l153 424h299l-191 -424h-261z" />
    <glyph glyph-name="tcommaaccent" unicode="&#x163;" horiz-adv-x="941" 
d="M40 778v252h194v299h328v-299h290v-252h-290v-350q0 -45 4 -77t16.5 -64t39 -48.5t66.5 -16.5q70 0 143 25l70 -234q-107 -43 -233 -43q-125 0 -209.5 28t-134 88t-70 142t-20.5 200v350h-194zM297 -532l153 424h299l-191 -424h-261z" />
    <glyph glyph-name="Tcaron" unicode="&#x164;" horiz-adv-x="1445" 
d="M80 1434h1285v-289h-476v-1145h-333v1145h-476v289zM1126 1827l-301 -291h-206l-301 291h248l156 -109l156 109h248z" />
    <glyph glyph-name="tcaron" unicode="&#x165;" horiz-adv-x="1467" 
d="M40 778v252h194v299h328v-299h290v-252h-290v-350q0 -45 4 -77t16.5 -64t39 -48.5t66.5 -16.5q70 0 143 25l70 -234q-107 -43 -233 -43q-125 0 -209.5 28t-134 88t-70 142t-20.5 200v350h-194zM897 892l211 542h319l-249 -542h-281z" />
    <glyph glyph-name="Tbar" unicode="&#x166;" horiz-adv-x="1365" 
d="M233 701v289h283v155h-476v289h1285v-289h-476v-155h283v-289h-283v-701h-333v701h-283z" />
    <glyph glyph-name="tbar" unicode="&#x167;" horiz-adv-x="941" 
d="M40 419v252h194v107h-194v252h194v299h328v-299h290v-252h-290v-107h290v-252h-290q0 -43 4.5 -74.5t17 -61t39 -45.5t65.5 -16q70 0 143 25l70 -234q-107 -43 -233 -43q-124 0 -208 27.5t-133.5 86t-70.5 139t-22 196.5h-194z" />
    <glyph glyph-name="Utilde" unicode="&#x168;" horiz-adv-x="1477" 
d="M739 249q90 0 150 25.5t94 79t47.5 124.5t13.5 173v783h333v-783q0 -691 -638 -691q-639 0 -639 691v783h333v-783q0 -102 13.5 -173t47.5 -124.5t94.5 -79t150.5 -25.5zM710 1590q-54 46 -93 46q-36 0 -54 -39q-8 -20 -11 -39h-205q5 78 33 139q65 140 232 140
q87 0 155 -54q54 -46 93 -46q36 0 54 39q8 18 11 39h205q-4 -76 -34 -140q-64 -139 -231 -139q-87 0 -155 54z" />
    <glyph glyph-name="utilde" unicode="&#x169;" 
d="M848 496v534h328v-1030h-328v109q-91 -139 -275 -139q-247 0 -360 135t-113 391v534h328v-534q0 -135 48 -204.5t162 -69.5t162 69.5t48 204.5zM610 1207q-54 46 -93 46q-36 0 -54 -39q-8 -20 -11 -39h-205q5 78 33 139q65 140 232 140q87 0 155 -54q54 -46 93 -46
q36 0 54 39q8 18 11 39h205q-4 -76 -34 -140q-64 -139 -231 -139q-87 0 -155 54z" />
    <glyph glyph-name="Umacron" unicode="&#x16a;" horiz-adv-x="1477" 
d="M739 249q90 0 150 25.5t94 79t47.5 124.5t13.5 173v783h333v-783q0 -691 -638 -691q-639 0 -639 691v783h333v-783q0 -102 13.5 -173t47.5 -124.5t94.5 -79t150.5 -25.5zM301 1536v252h874v-252h-874z" />
    <glyph glyph-name="umacron" unicode="&#x16b;" 
d="M848 496v534h328v-1030h-328v109q-91 -139 -275 -139q-247 0 -360 135t-113 391v534h328v-534q0 -135 48 -204.5t162 -69.5t162 69.5t48 204.5zM200 1182v252h874v-252h-874z" />
    <glyph glyph-name="Ubreve" unicode="&#x16c;" horiz-adv-x="1477" 
d="M739 249q90 0 150 25.5t94 79t47.5 124.5t13.5 173v783h333v-783q0 -691 -638 -691q-639 0 -639 691v783h333v-783q0 -102 13.5 -173t47.5 -124.5t94.5 -79t150.5 -25.5zM738 1556q-89 0 -160 24.5t-114 65t-67.5 85t-32.5 91.5h192q39 -98 182 -98t182 98h192
q-8 -47 -32.5 -91.5t-67.5 -85t-114 -65t-160 -24.5z" />
    <glyph glyph-name="ubreve" unicode="&#x16d;" 
d="M848 496v534h328v-1030h-328v109q-91 -139 -275 -139q-247 0 -360 135t-113 391v534h328v-534q0 -135 48 -204.5t162 -69.5t162 69.5t48 204.5zM638 1168q-89 0 -160 24.5t-114 65t-67.5 85t-32.5 91.5h192q39 -98 182 -98t182 98h192q-8 -47 -32.5 -91.5t-67.5 -85
t-114 -65t-160 -24.5z" />
    <glyph glyph-name="Uring" unicode="&#x16e;" horiz-adv-x="1477" 
d="M739 249q90 0 150 25.5t94 79t47.5 124.5t13.5 173v783h333v-783q0 -691 -638 -691q-639 0 -639 691v783h333v-783q0 -102 13.5 -173t47.5 -124.5t94.5 -79t150.5 -25.5zM492 1782q0 102 72 174t174 72t174 -72t72 -174t-72 -174t-174 -72t-174 72t-72 174zM654 1782
q0 -35 24.5 -59.5t59.5 -24.5t59.5 24.5t24.5 59.5t-24.5 59.5t-59.5 24.5t-59.5 -24.5t-24.5 -59.5z" />
    <glyph glyph-name="uring" unicode="&#x16f;" 
d="M848 496v534h328v-1030h-328v109q-91 -139 -275 -139q-247 0 -360 135t-113 391v534h328v-534q0 -135 48 -204.5t162 -69.5t162 69.5t48 204.5zM392 1370q0 102 72 174t174 72t174 -72t72 -174t-72 -174t-174 -72t-174 72t-72 174zM554 1370q0 -35 24.5 -59.5t59.5 -24.5
t59.5 24.5t24.5 59.5t-24.5 59.5t-59.5 24.5t-59.5 -24.5t-24.5 -59.5z" />
    <glyph glyph-name="Uhungarumlaut" unicode="&#x170;" horiz-adv-x="1477" 
d="M739 249q90 0 150 25.5t94 79t47.5 124.5t13.5 173v783h333v-783q0 -691 -638 -691q-639 0 -639 691v783h333v-783q0 -102 13.5 -173t47.5 -124.5t94.5 -79t150.5 -25.5zM455 1536l91 342h269l-149 -342h-211zM799 1536l91 342h269l-149 -342h-211z" />
    <glyph glyph-name="uhungarumlaut" unicode="&#x171;" 
d="M848 496v534h328v-1030h-328v109q-91 -139 -275 -139q-247 0 -360 135t-113 391v534h328v-534q0 -135 48 -204.5t162 -69.5t162 69.5t48 204.5zM358 1174l91 342h269l-149 -342h-211zM702 1174l91 342h269l-149 -342h-211z" />
    <glyph glyph-name="Uogonek" unicode="&#x172;" horiz-adv-x="1477" 
d="M739 249q90 0 150 25.5t94 79t47.5 124.5t13.5 173v783h333v-783q0 -537 -388 -657q-17 -6 -33 -15.5t-35.5 -25.5t-31.5 -40.5t-12 -53.5q0 -68 91 -96q42 -13 91 -14v-247q-57 0 -110 6.5t-111.5 26t-101 49.5t-70.5 81.5t-28 117.5q0 113 82 178q-620 11 -620 690v783
h333v-783q0 -102 13.5 -173t47.5 -124.5t94.5 -79t150.5 -25.5z" />
    <glyph glyph-name="uogonek" unicode="&#x173;" horiz-adv-x="1328" 
d="M1176 1030v-1030q-36 -10 -65 -30q-65 -45 -65 -111q0 -68 91 -96q42 -13 91 -14v-247q-57 0 -110 6.5t-111.5 26t-101 49.5t-70.5 81.5t-28 117.5q0 23 4 44.5t10.5 39t15.5 33t19 27.5t21 23t21 18t20 13.5t16.5 10t11.5 6.5l6 2h-104v109q-91 -139 -275 -139
q-247 0 -360 135t-113 391v534h328v-534q0 -135 48 -204.5t162 -69.5t162 69.5t48 204.5v534h328z" />
    <glyph glyph-name="Wcircumflex" unicode="&#x174;" horiz-adv-x="2028" 
d="M619 550l253 884h284l253 -884l251 884h358l-437 -1434h-323l-244 838l-244 -838h-323l-437 1434h358zM1117 1827l301 -291h-248l-156 109l-156 -109h-248l301 291h206z" />
    <glyph glyph-name="wcircumflex" unicode="&#x175;" horiz-adv-x="1644" 
d="M1007 0l-185 583l-185 -583h-288l-339 1030h318l176 -635l201 635h234l201 -635l176 635h318l-339 -1030h-288zM925 1434l301 -291h-248l-156 109l-156 -109h-248l301 291h206z" />
    <glyph glyph-name="Ycircumflex" unicode="&#x176;" horiz-adv-x="1464" 
d="M392 1434l340 -542l340 542h382l-555 -858v-576h-334v576l-555 858h382zM835 1827l301 -291h-248l-156 109l-156 -109h-248l301 291h206z" />
    <glyph glyph-name="ycircumflex" unicode="&#x177;" horiz-adv-x="1196" 
d="M352 1030l246 -672l246 672h342l-441 -1030l-123 -289q-25 -57 -52 -97.5t-67 -75.5t-96.5 -52.5t-130.5 -17.5q-143 0 -237 50l101 223q58 -21 112 -21q43 0 72 27.5t54 86.5l73 166l-441 1030h342zM701 1434l301 -291h-248l-156 109l-156 -109h-248l301 291h206z" />
    <glyph glyph-name="Ydieresis" unicode="&#x178;" horiz-adv-x="1464" 
d="M392 1434l340 -542l340 542h382l-555 -858v-576h-334v576l-555 858h382zM322 1708q0 71 50.5 121.5t121.5 50.5t121.5 -50.5t50.5 -121.5t-50.5 -121.5t-121.5 -50.5t-121.5 50.5t-50.5 121.5zM799 1708q0 71 50.5 121.5t121.5 50.5t121.5 -50.5t50.5 -121.5
t-50.5 -121.5t-121.5 -50.5t-121.5 50.5t-50.5 121.5z" />
    <glyph glyph-name="Zacute" unicode="&#x179;" horiz-adv-x="1221" 
d="M535 289h676v-289h-1151v176l677 969h-637v289h1111v-176zM489 1536l251 310h333l-314 -310h-270z" />
    <glyph glyph-name="zacute" unicode="&#x17a;" horiz-adv-x="1085" 
d="M80 0v149l496 629h-467v252h896v-150l-496 -628h496v-252h-925zM385 1124l251 310h333l-314 -310h-270z" />
    <glyph glyph-name="Zdotaccent" unicode="&#x17b;" horiz-adv-x="1311" 
d="M555 289h676v-289h-1151v176l677 969h-637v289h1111v-176zM482 1698q0 71 50.5 121.5t121.5 50.5t121.5 -50.5t50.5 -121.5t-50.5 -121.5t-121.5 -50.5t-121.5 50.5t-50.5 121.5z" />
    <glyph glyph-name="zdotaccent" unicode="&#x17c;" horiz-adv-x="1085" 
d="M370 1334q0 71 50.5 121.5t121.5 50.5t121.5 -50.5t50.5 -121.5t-50.5 -121.5t-121.5 -50.5t-121.5 50.5t-50.5 121.5zM80 0v149l496 629h-467v252h896v-150l-496 -628h496v-252h-925z" />
    <glyph glyph-name="Zcaron" unicode="&#x17d;" horiz-adv-x="1311" 
d="M555 289h676v-289h-1151v176l677 969h-637v289h1111v-176zM1059 1826l-301 -291h-206l-301 291h248l156 -109l156 109h248z" />
    <glyph glyph-name="zcaron" unicode="&#x17e;" horiz-adv-x="1085" 
d="M80 0v149l496 629h-467v252h896v-150l-496 -628h496v-252h-925zM946 1434l-301 -291h-206l-301 291h248l156 -109l156 109h248z" />
    <glyph glyph-name="longs" unicode="&#x17f;" horiz-adv-x="941" 
d="M714 1294q-33 0 -56 -5.5t-38.5 -21.5t-24 -33t-13 -51.5t-5.5 -65.5t-1 -87v-1030h-328v778h-188v252h188q1 65 5.5 115.5t16 106t30.5 97t51.5 80.5t76 63.5t106 39t140.5 14.5q142 0 257 -44l-85 -229q-71 21 -132 21z" />
    <glyph glyph-name="uni0180" unicode="&#x180;" horiz-adv-x="1489" 
d="M1429 515q0 -252 -146 -398.5t-380 -146.5q-117 0 -203 45.5t-135 120.5v-136h-328v1121h-227v252h227v143h328v-143h302v-252h-302v-227q50 75 135.5 120.5t202.5 45.5q234 0 380 -146.5t146 -398.5zM1101 515q0 130 -70.5 211.5t-197.5 81.5t-197.5 -81.5t-70.5 -211.5
t70.5 -211.5t197.5 -81.5t197.5 81.5t70.5 211.5z" />
    <glyph glyph-name="uni0181" unicode="&#x181;" horiz-adv-x="1855" 
d="M1216 0h-693v1155h-74q-20 0 -36 -5.5t-33.5 -21.5t-27 -52.5t-9.5 -91.5h-333q0 74 11 136t30 105t45 78.5t55.5 56.5t61.5 37.5t63.5 22t61 11t54 3.5t42.5 0h15h751q544 0 544 -383q0 -109 -70 -190t-175 -102q142 -30 219 -115.5t77 -213.5q0 -65 -16 -123
t-57.5 -115.5t-105 -99t-166.5 -67t-234 -25.5zM856 278h352q139 0 193 39t54 123q0 85 -54 123.5t-193 38.5h-352v-324zM856 871h352q200 0 200 142t-200 142h-352v-284z" />
    <glyph glyph-name="uni0182" unicode="&#x182;" horiz-adv-x="1271" 
d="M100 1434h982v-289h-649v-240h286q124 0 219.5 -35t154.5 -98t88.5 -145t29.5 -180t-29.5 -178.5t-88.5 -141t-154.5 -94t-219.5 -33.5h-619v1434zM433 289h286q86 0 122.5 39t36.5 119q0 82 -37 125t-122 43h-286v-326z" />
    <glyph glyph-name="uni0183" unicode="&#x183;" horiz-adv-x="1352" 
d="M1292 515q0 -252 -146 -398.5t-380 -146.5q-117 0 -203 45.5t-135 120.5v-136h-328v1434h1038v-252h-710v-288q50 75 135.5 120.5t202.5 45.5q234 0 380 -146.5t146 -398.5zM964 515q0 130 -70.5 211.5t-197.5 81.5t-197.5 -81.5t-70.5 -211.5t70.5 -211.5t197.5 -81.5
t197.5 81.5t70.5 211.5z" />
    <glyph glyph-name="uni0184" unicode="&#x184;" horiz-adv-x="1256" 
d="M1196 504q0 -68 -14 -136t-53 -141.5t-98 -129t-157.5 -91.5t-224.5 -36t-225 36t-158.5 91.5t-98 129t-53 141.5t-14.5 136v1012h333v-529q92 48 216 48q126 0 224.5 -35.5t157.5 -90.5t98 -128t53 -140.5t14 -136.5zM863 504q0 105 -52 173.5t-162 68.5
q-111 0 -162.5 -68.5t-51.5 -173.5q0 -50 11.5 -92.5t36 -77.5t67 -55t99.5 -20q109 0 161.5 70t52.5 175z" />
    <glyph glyph-name="uni0185" unicode="&#x185;" horiz-adv-x="1352" 
d="M1292 515q0 -257 -149.5 -401t-416.5 -144q-143 0 -252.5 35t-179.5 95t-114 148.5t-62 187t-18 218.5v862h328v-622q50 75 135.5 120.5t202.5 45.5q234 0 380 -146.5t146 -398.5zM428 515q0 -130 70.5 -211.5t197.5 -81.5t197.5 81.5t70.5 211.5t-70.5 211.5
t-197.5 81.5t-197.5 -81.5t-70.5 -211.5z" />
    <glyph glyph-name="uni0186" unicode="&#x186;" horiz-adv-x="1457" 
d="M1397 717q0 -123 -28.5 -233t-90 -206.5t-151 -166.5t-219 -110.5t-287.5 -40.5q-201 0 -336 44.5t-245 138.5l165 226q171 -120 416 -120q110 0 194 35.5t135.5 99.5t77.5 148t26 185t-26 185t-77.5 148t-135.5 99.5t-194 35.5q-142 0 -237.5 -32.5t-178.5 -87.5
l-165 226q110 94 245 138.5t336 44.5q158 0 287.5 -40.5t219 -110.5t151 -166.5t90 -206.5t28.5 -233z" />
    <glyph glyph-name="uni0187" unicode="&#x187;" horiz-adv-x="1516" 
d="M403 717q0 -101 26 -185t77.5 -148t135.5 -99.5t194 -35.5q245 0 416 120l165 -226q-110 -94 -245 -138.5t-336 -44.5q-158 0 -287.5 40.5t-219 110.5t-151 166.5t-90 206.5t-28.5 233t28.5 233t90 206.5t151 166.5t219 110.5t287.5 40.5q142 0 256 -31q2 64 22 118.5
t62 102.5t119 76t181 28v-276q-59 0 -84 -19.5t-25 -60.5v-383q-235 156 -531 156q-110 0 -194 -35.5t-135.5 -99.5t-77.5 -148t-26 -185z" />
    <glyph glyph-name="uni0188" unicode="&#x188;" horiz-adv-x="1201" 
d="M388 515q0 -135 74.5 -214t203.5 -79q166 0 290 103l157 -191q-151 -164 -447 -164q-275 0 -440.5 150.5t-165.5 394.5t165.5 394.5t440.5 150.5q48 0 111 -7q11 161 104.5 236.5t279.5 75.5v-279q-51 0 -77 -21t-26 -73v-298q-170 114 -392 114q-129 0 -203.5 -79
t-74.5 -214z" />
    <glyph glyph-name="uni0189" unicode="&#x189;" horiz-adv-x="1613" 
d="M10 573v289h220v572h607q177 0 315 -53.5t225 -150.5t131.5 -226.5t44.5 -286.5t-44.5 -286.5t-131.5 -226.5t-225 -150.5t-315 -53.5h-607v573h-220zM563 573v-284h274q100 0 174 35t116.5 96.5t62.5 135.5t20 161t-20 161t-62.5 135.5t-116.5 96.5t-174 35h-274v-283
h293v-289h-293z" />
    <glyph glyph-name="uni018A" unicode="&#x18a;" horiz-adv-x="1906" 
d="M1846 717q0 -157 -44.5 -286.5t-131.5 -226.5t-225 -150.5t-315 -53.5h-607v1155h-74q-20 0 -36 -5.5t-33.5 -21.5t-27 -52.5t-9.5 -91.5h-333q0 74 11 136t30 105t45 78.5t55.5 56.5t61.5 37.5t63.5 22t61 11t54 3.5t42.5 0h15h681q177 0 315 -53.5t225 -150.5
t131.5 -226.5t44.5 -286.5zM856 1145v-856h274q100 0 174 35t116.5 96.5t62.5 135.5t20 161t-20 161t-62.5 135.5t-116.5 96.5t-174 35h-274z" />
    <glyph glyph-name="uni018B" unicode="&#x18b;" horiz-adv-x="1271" 
d="M189 1434h982v-1434h-619q-124 0 -219.5 33.5t-154.5 94t-88.5 141t-29.5 178.5t29.5 180t88.5 145t154.5 98t219.5 35h286v240h-649v289zM552 289h286v326h-286q-85 0 -122 -43t-37 -125q0 -80 36.5 -119t122.5 -39z" />
    <glyph glyph-name="uni018C" unicode="&#x18c;" horiz-adv-x="1352" 
d="M60 515q0 252 146 398.5t380 146.5q117 0 202.5 -45.5t135.5 -120.5v288h-710v252h1038v-1434h-328v136q-49 -75 -135 -120.5t-203 -45.5q-234 0 -380 146.5t-146 398.5zM388 515q0 -130 70.5 -211.5t197.5 -81.5t197.5 81.5t70.5 211.5t-70.5 211.5t-197.5 81.5
t-197.5 -81.5t-70.5 -211.5z" />
    <glyph glyph-name="uni018D" unicode="&#x18d;" horiz-adv-x="1332" 
d="M801 -19l330 -308v-205h-932v253h453l-442 414q-150 148 -150 380q0 244 165.5 394.5t440.5 150.5t440.5 -150.5t165.5 -394.5q0 -211 -126.5 -354.5t-344.5 -179.5zM666 222q134 0 206 81t72 212t-72 212t-206 81t-206 -81t-72 -212t72 -212t206 -81z" />
    <glyph glyph-name="uni018E" unicode="&#x18e;" horiz-adv-x="1256" 
d="M133 876h690v269h-733v289h1066v-1434h-1076v289h743v298h-690v289z" />
    <glyph glyph-name="uni018F" unicode="&#x18f;" horiz-adv-x="1562" 
d="M782 1185q-159 0 -270 -37t-213 -110l-152 237q114 93 263.5 146t371.5 53q219 0 383 -97t250.5 -268t86.5 -392q0 -166 -49 -305t-140 -239.5t-227 -156.5t-304 -56q-345 0 -538 238.5t-183 665.5h1108q-20 153 -124.5 237t-262.5 84zM1169 575h-775q20 -156 122 -241
t266 -85t265.5 84.5t121.5 241.5z" />
    <glyph glyph-name="uni0190" unicode="&#x190;" horiz-adv-x="1273" 
d="M978 365l235 -181q-72 -96 -208 -160t-349 -64q-127 0 -229.5 25.5t-169.5 68t-112.5 100t-65 119.5t-19.5 129q0 237 218 343q-81 45 -130.5 125.5t-49.5 173.5q0 83 33 157.5t98 136.5t175.5 99t251.5 37q87 0 166 -16.5t134.5 -40.5t103.5 -56t75 -58.5t48 -52.5
l-235 -181q-116 116 -296 116q-106 0 -163.5 -43.5t-57.5 -107.5q0 -83 89.5 -119.5t309.5 -36.5v-279q-173 0 -266 -16.5t-132 -53.5t-39 -107q0 -82 69 -127.5t194 -45.5q117 0 190 31t132 85z" />
    <glyph glyph-name="uni0191" unicode="&#x191;" horiz-adv-x="1273" 
d="M460 856h690v-289h-690v-567q0 -63 -3 -109.5t-14 -105.5t-30.5 -101t-55.5 -85.5t-85.5 -70t-124 -43.5t-167.5 -17v279q91 0 119 55.5t28 197.5v1434h1066v-289h-733v-289z" />
    <glyph glyph-name="florin" unicode="&#x192;" horiz-adv-x="1200" 
d="M740 741l-169 -891q-6 -32 -11.5 -54.5t-21.5 -65.5t-35 -74.5t-54.5 -69t-78 -61.5t-106.5 -40.5t-140 -16.5h-234l54 288h186q33 0 56 11.5t34.5 35t15.5 36.5t9 39l162 863h-263l55 289h253l17 84q6 32 11.5 54t21.5 65.5t35 74.5t54 69t78 62t107 40.5t140 16.5h234
l-54 -288h-186q-33 0 -56 -11.5t-34.5 -35t-15.5 -36.5t-9 -39l-12 -56h275l-55 -289h-263z" />
    <glyph glyph-name="uni0193" unicode="&#x193;" horiz-adv-x="1549" 
d="M836 249q165 0 273 55v263h-277v279h586v-716q-203 -170 -582 -170q-158 0 -287.5 40.5t-219 110.5t-151 166.5t-90 206.5t-28.5 233t28.5 233t90 206.5t151 166.5t219 110.5t287.5 40.5q174 0 313 -40q45 326 420 326v-281q-41 0 -69.5 -13t-42.5 -29.5t-21 -45.5
t-8 -45.5t-1 -45.5v-9l-170 -222q-173 116 -421 116q-110 0 -194 -35.5t-135.5 -99.5t-77.5 -148t-26 -185t26 -185t77.5 -148t135.5 -99.5t194 -35.5z" />
    <glyph glyph-name="uni0194" unicode="&#x194;" horiz-adv-x="1578" 
d="M789 -532q-61 0 -114 14.5t-98.5 44.5t-72 83.5t-26.5 124.5q0 146 117 265l-585 1434h330l449 -1158l449 1158h330l-585 -1434q117 -119 117 -265q0 -71 -26.5 -124.5t-72 -83.5t-98.5 -44.5t-114 -14.5zM789 -346q54 0 54 81q0 73 -54 124q-54 -51 -54 -124
q0 -81 54 -81z" />
    <glyph glyph-name="uni0195" unicode="&#x195;" horiz-adv-x="2024" 
d="M1386 -30q-151 0 -257 35.5t-167 105.5t-87.5 163.5t-26.5 221.5v38q0 135 -48 204.5t-162 69.5t-162 -69.5t-48 -204.5v-534h-328v1516h328v-595q91 139 275 139q247 0 360 -135t113 -391v-38q0 -135 48 -204.5t162 -69.5t162 69.5t48 204.5v534h328v-534
q0 -128 -26.5 -221.5t-87.5 -163.5t-167 -105.5t-257 -35.5z" />
    <glyph glyph-name="uni0196" unicode="&#x196;" horiz-adv-x="612" 
d="M100 390v1126h333v-1096v-36t1.5 -33t4.5 -33t8.5 -26t14 -22t21.5 -12.5t30 -5.5h39v-252h-106q-70 0 -126 15.5t-92 38t-61.5 59t-38 67.5t-19.5 75.5t-8 70t-1 64.5z" />
    <glyph glyph-name="uni0197" unicode="&#x197;" horiz-adv-x="855" 
d="M60 618v289h201v527h333v-527h201v-289h-201v-618h-333v618h-201z" />
    <glyph glyph-name="uni0198" unicode="&#x198;" horiz-adv-x="1441" 
d="M433 852l571 582h407l-610 -621l630 -813h-395l-454 587l-149 -153v-434h-333v977q0 45 3 81.5t14 86t30.5 87.5t55.5 77.5t85.5 65.5t124 42.5t167.5 16.5v-279q-88 0 -117.5 -44t-29.5 -127v-132z" />
    <glyph glyph-name="uni0199" unicode="&#x199;" horiz-adv-x="1244" 
d="M752 1502l-82 -229q-58 21 -119 21q-30 0 -52 -9.5t-35 -29t-20.5 -37.5t-11 -48.5t-4 -47.5t-0.5 -48v-397l391 353h415l-481 -434l481 -596h-385l-318 394l-103 -92v-302h-328v1074q0 118 22 203t71.5 146.5t133.5 92t204 30.5q139 0 221 -44z" />
    <glyph glyph-name="uni019A" unicode="&#x19a;" horiz-adv-x="720" 
d="M10 742v252h186v522h328v-522h186v-252h-186v-322v-36t1.5 -33t4.5 -33t8.5 -26t14 -22t21.5 -12.5t30 -5.5h39v-252h-106q-97 0 -166 30t-102 67t-50.5 100.5t-20 99t-2.5 93.5v352h-186z" />
    <glyph glyph-name="uni019B" unicode="&#x19b;" horiz-adv-x="1256" 
d="M628 672l-246 -672h-342l441 1030l-9 20l-206 -94l-105 229l195 90q-38 35 -84 35q-57 0 -103 -29l-100 231q96 50 227 50q84 0 147 -22.5t101 -57.5t70 -89l183 84l105 -229l-184 -85l57 -133l441 -1030h-342z" />
    <glyph glyph-name="uni019C" unicode="&#x19c;" horiz-adv-x="1983" 
d="M1883 1434v-1434h-332v71q-23 -46 -88.5 -73.5t-138.5 -27.5q-114 0 -200 52t-133 135q-42 -78 -150.5 -132.5t-241.5 -54.5q-237 0 -368 148t-131 447v869h333v-869q0 -161 45.5 -233.5t150.5 -72.5t150.5 73t45.5 233v869h333v-869q0 -161 45.5 -233.5t150.5 -72.5
t150.5 73t45.5 233v869h333z" />
    <glyph glyph-name="uni019D" unicode="&#x19d;" horiz-adv-x="1540" 
d="M127 0v1434h422l558 -956v956h333v-1434h-422l-558 956v-956q0 -63 -3 -109.5t-14 -105.5t-30.5 -101t-55.5 -85.5t-85.5 -70t-124 -43.5t-167.5 -17v279q91 0 119 55.5t28 197.5z" />
    <glyph glyph-name="uni019E" unicode="&#x19e;" 
d="M428 534v-534h-328v1030h328v-109q91 139 275 139q247 0 360 -135t113 -391v-1066h-328v1066q0 135 -48 204.5t-162 69.5t-162 -69.5t-48 -204.5z" />
    <glyph glyph-name="uni019F" unicode="&#x19f;" horiz-adv-x="1672" 
d="M836 1474q158 0 287.5 -40.5t219 -110.5t151 -166.5t90 -206.5t28.5 -233t-28.5 -233t-90 -206.5t-151 -166.5t-219 -110.5t-287.5 -40.5t-287.5 40.5t-219 110.5t-151 166.5t-90 206.5t-28.5 233t28.5 233t90 206.5t151 166.5t219 110.5t287.5 40.5zM836 249
q176 0 280.5 87t137.5 237h-836q33 -150 137.5 -237t280.5 -87zM836 1185q-176 0 -280 -87t-138 -236h836q-34 149 -138 236t-280 87z" />
    <glyph glyph-name="Ohorn" unicode="&#x1a0;" horiz-adv-x="1717" 
d="M836 1474q216 0 378 -75q64 19 102.5 73.5t38.5 141.5h302q0 -302 -199 -406q154 -201 154 -491q0 -123 -28.5 -233t-90 -206.5t-151 -166.5t-219 -110.5t-287.5 -40.5t-287.5 40.5t-219 110.5t-151 166.5t-90 206.5t-28.5 233t28.5 233t90 206.5t151 166.5t219 110.5
t287.5 40.5zM836 1185q-110 0 -194 -35.5t-135.5 -99.5t-77.5 -148t-26 -185t26 -185t77.5 -148t135.5 -99.5t194 -35.5t194 35.5t135.5 99.5t77.5 148t26 185t-26 185t-77.5 148t-135.5 99.5t-194 35.5z" />
    <glyph glyph-name="ohorn" unicode="&#x1a1;" horiz-adv-x="1373" 
d="M666 -30q-274 0 -440 151t-166 394q0 244 165.5 394.5t440.5 150.5q159 0 282 -52q57 16 89.5 67t32.5 134h293q0 -279 -186 -379q95 -135 95 -315q0 -243 -166 -394t-440 -151zM666 222q134 0 206 81t72 212t-72 212t-206 81t-206 -81t-72 -212t72 -212t206 -81z" />
    <glyph glyph-name="uni01A2" unicode="&#x1a2;" horiz-adv-x="2287" 
d="M836 1474q295 0 493 -142q151 142 374 142q110 0 197.5 -30t152.5 -91.5t99.5 -162.5t34.5 -236v-954h-333v954q0 110 -38.5 170.5t-112.5 60.5q-107 0 -179 -80q88 -170 88 -388q0 -123 -28.5 -233t-90 -206.5t-151 -166.5t-219 -110.5t-287.5 -40.5t-287.5 40.5
t-219 110.5t-151 166.5t-90 206.5t-28.5 233t28.5 233t90 206.5t151 166.5t219 110.5t287.5 40.5zM836 1185q-110 0 -194 -35.5t-135.5 -99.5t-77.5 -148t-26 -185t26 -185t77.5 -148t135.5 -99.5t194 -35.5t194 35.5t135.5 99.5t77.5 148t26 185t-26 185t-77.5 148
t-135.5 99.5t-194 35.5z" />
    <glyph glyph-name="uni01A3" unicode="&#x1a3;" horiz-adv-x="1899" 
d="M666 -30q-274 0 -440 151t-166 394q0 244 165.5 394.5t440.5 150.5q212 0 361 -92q69 46 152 64t149 18q135 0 227 -30t145.5 -92.5t76 -146.5t22.5 -203v-1110h-328v1110q0 54 -5.5 89.5t-22 67.5t-50 47.5t-85.5 15.5q-53 0 -97 -24q61 -119 61 -259q0 -243 -166 -394
t-440 -151zM666 222q134 0 206 81t72 212t-72 212t-206 81t-206 -81t-72 -212t72 -212t206 -81z" />
    <glyph glyph-name="uni01A4" unicode="&#x1a4;" horiz-adv-x="1821" 
d="M856 0h-333v1155h-74q-20 0 -36 -5.5t-33.5 -21.5t-27 -52.5t-9.5 -91.5h-333q0 74 11 136t30 105t45 78.5t55.5 56.5t61.5 37.5t63.5 22t61 11t54 3.5t42.5 0h15h716q268 0 422 -132t154 -370t-154 -370t-422 -132h-309v-430zM1165 1145h-309v-426h309q119 0 179 55
t60 158t-60 158t-179 55z" />
    <glyph glyph-name="uni01A5" unicode="&#x1a5;" horiz-adv-x="1414" 
d="M1292 515q0 -252 -146 -398.5t-380 -146.5q-117 0 -203 45.5t-135 120.5v-668h-328v1562h328v-136q50 75 135.5 120.5t202.5 45.5q86 0 171 -24q19 57 50.5 105t80 90t122 66t164.5 24v-289q-79 0 -127 -40t-55 -108q120 -145 120 -369zM964 515q0 130 -70.5 211.5
t-197.5 81.5t-197.5 -81.5t-70.5 -211.5t70.5 -211.5t197.5 -81.5t197.5 81.5t70.5 211.5z" />
    <glyph glyph-name="uni01A6" unicode="&#x1a6;" horiz-adv-x="1380" 
d="M433 0h-333v1434h333v-211h309q142 0 251.5 -38.5t177 -106t101.5 -153.5t34 -187q0 -81 -23 -149.5t-64.5 -118t-90 -84t-108.5 -60.5l300 -537h-357l-276 494h-254v-283zM742 934h-309v-392h309q121 0 174 54.5t53 141.5t-53 141.5t-174 54.5z" />
    <glyph glyph-name="uni01A7" unicode="&#x1a7;" horiz-adv-x="1296" 
d="M260 1095l-162 235q214 144 556 144q120 0 215.5 -23.5t158.5 -63.5t104.5 -95.5t59.5 -116.5t18 -129q0 -178 -131 -296.5t-410 -177.5q-158 -32 -225 -69t-67 -105q0 -73 65.5 -111t211.5 -38q252 0 440 118l162 -235q-223 -172 -602 -172q-288 0 -451 110t-163 328
q0 100 36.5 176t111.5 131.5t175.5 94t242.5 68.5q137 28 202 68.5t65 109.5q0 67 -55 103t-164 36q-213 0 -394 -90z" />
    <glyph glyph-name="uni01A8" unicode="&#x1a8;" horiz-adv-x="1064" 
d="M215 742l-124 211q177 107 436 107q215 0 334.5 -84t119.5 -240q0 -133 -107 -216t-330 -125q-101 -20 -138.5 -38.5t-37.5 -60.5q0 -41 39.5 -57.5t119.5 -16.5q205 0 373 94l124 -211q-170 -135 -497 -135q-99 0 -183.5 18t-154 55t-109.5 102t-40 151q0 79 30.5 138
t92.5 99t139 66.5t188 47.5q79 14 121 34t42 55q0 72 -126 72q-160 0 -312 -66z" />
    <glyph glyph-name="uni01A9" unicode="&#x1a9;" horiz-adv-x="1236" 
d="M80 1434h1066v-289h-627l312 -428l-313 -428h638v-289h-1076v196l376 521l-376 522v195z" />
    <glyph glyph-name="uni01AA" unicode="&#x1aa;" horiz-adv-x="754" 
d="M60 1278q0 106 75.5 182t181.5 76t182 -76t76 -182v-858v-36t1.5 -33t4.5 -33t8.5 -26t14 -22t21.5 -12.5t30 -5.5h39v-252h-106q-97 0 -166 30t-102 67t-50.5 100.5t-20 99t-2.5 93.5v640q-82 24 -134.5 92.5t-52.5 155.5zM260 1278q0 -23 17 -40t40 -17t40 17t17 40
t-17 40t-40 17t-40 -17t-17 -40z" />
    <glyph glyph-name="uni01AB" unicode="&#x1ab;" horiz-adv-x="938" 
d="M40 778v252h194v299h328v-299h290v-252h-290v-350q0 -45 4 -77t16.5 -64t39 -48.5t66.5 -16.5q89 0 209 41v-241v-9q0 -53 -1 -82t-9.5 -83t-24 -87t-47.5 -74.5t-78 -65t-117.5 -40t-162.5 -16.5v259q85 0 120 33.5t35 114.5q-108 6 -182 37.5t-117 90.5t-61 138
t-18 190v350h-194z" />
    <glyph glyph-name="uni01AC" unicode="&#x1ac;" horiz-adv-x="1435" 
d="M459 1434h936v-289h-476v-1145h-333v1145h-127q-43 0 -64.5 -28.5t-21.5 -92.5h-333q0 66 12 121.5t30.5 95t47 71.5t55.5 51.5t63.5 34t62.5 21t60 10.5t50 4.5t38 0.5z" />
    <glyph glyph-name="uni01AD" unicode="&#x1ad;" horiz-adv-x="941" 
d="M40 778v252h194q0 46 2.5 79t13 78t29 77t54 66t84 55.5t122.5 35t167 13.5v-252q-89 0 -116.5 -36t-27.5 -116h290v-252h-290v-350q0 -45 4 -77t16.5 -64t39 -48.5t66.5 -16.5q70 0 143 25l70 -234q-107 -43 -233 -43q-125 0 -209.5 28t-134 88t-70 142t-20.5 200v350
h-194z" />
    <glyph glyph-name="uni01AE" unicode="&#x1ae;" horiz-adv-x="1325" 
d="M40 1434h1245v-289h-456v-1145q0 -83 29.5 -127t117.5 -44v-279q-93 0 -167.5 16.5t-124 42.5t-85.5 65t-55.5 77t-30.5 86t-14 84t-3 79v1145h-456v289z" />
    <glyph glyph-name="Uhorn" unicode="&#x1af;" horiz-adv-x="1604" 
d="M739 249q90 0 150 25.5t94 79t47.5 124.5t13.5 173v783h216q11 0 25.5 2.5t38 12t42 25t32 45.5t13.5 69h313q0 -229 -174 -339q-76 -48 -173 -63v-535q0 -691 -638 -691q-639 0 -639 691v783h333v-783q0 -102 13.5 -173t47.5 -124.5t94.5 -79t150.5 -25.5z" />
    <glyph glyph-name="uhorn" unicode="&#x1b0;" horiz-adv-x="1570" 
d="M848 496v534h328q36 1 65 17q66 34 66 123h283q0 -76 -17.5 -139t-45 -104.5t-66.5 -73.5t-76 -49t-80 -28t-71.5 -14.5t-57.5 -4.5v-757h-328v109q-91 -139 -275 -139q-247 0 -360 135t-113 391v534h328v-534q0 -135 48 -204.5t162 -69.5t162 69.5t48 204.5z" />
    <glyph glyph-name="uni01B1" unicode="&#x1b1;" horiz-adv-x="1762" 
d="M881 249q207 0 327.5 105.5t120.5 284.5q0 330 -379 526v269h643v-289h-314q172 -70 277.5 -205.5t105.5 -320.5q0 -144 -54.5 -266t-154.5 -209t-247 -135.5t-325 -48.5t-325 48.5t-247 135.5t-154.5 209t-54.5 266q0 185 105.5 320.5t277.5 205.5h-314v289h643v-269
q-379 -196 -379 -526q0 -179 120.5 -284.5t327.5 -105.5z" />
    <glyph glyph-name="uni01B2" unicode="&#x1b2;" horiz-adv-x="1331" 
d="M369 1434l379 -1014q102 199 169.5 376t67.5 249q0 48 -27 67t-90 19v303q224 14 338.5 -70t114.5 -260q0 -147 -111 -434t-317 -670h-320l-563 1434h359z" />
    <glyph glyph-name="uni01B3" unicode="&#x1b3;" horiz-adv-x="1419" 
d="M520 576l-286 442q-39 58 -83.5 76t-140.5 18v322q93 6 166.5 -5t120.5 -30t87.5 -55.5t63 -68.5t51.5 -82l188 -301l340 542h382l-555 -858v-576h-334v576z" />
    <glyph glyph-name="uni01B4" unicode="&#x1b4;" horiz-adv-x="1206" 
d="M598 358l134 366q21 58 37 92t52 80t80.5 71.5t120 44t174.5 18.5v-302q-87 0 -126.5 -30t-67.5 -98l-257 -600l-123 -289q-25 -57 -52 -97.5t-67 -75.5t-96.5 -52.5t-130.5 -17.5q-143 0 -237 50l101 223q58 -21 112 -21q43 0 72 27.5t54 86.5l73 166l-441 1030h342z
" />
    <glyph glyph-name="uni01B5" unicode="&#x1b5;" horiz-adv-x="1311" 
d="M555 289h676v-289h-1151v176l275 394h-134v289h336l200 286h-637v289h1111v-176l-279 -399h131v-289h-332z" />
    <glyph glyph-name="uni01B6" unicode="&#x1b6;" horiz-adv-x="1085" 
d="M80 0v149l197 250h-95v252h294l100 127h-467v252h896v-150l-181 -229h95v-252h-294l-116 -147h496v-252h-925z" />
    <glyph glyph-name="uni01B7" unicode="&#x1b7;" horiz-adv-x="1281" 
d="M60 195l214 198q47 -43 85.5 -68t105.5 -45t151 -20q272 0 272 205q0 61 -29.5 101.5t-92 63.5t-145 32t-201.5 9v226l274 248h-530v289h979v-252l-310 -289q58 -9 109.5 -27t104 -52t90 -80t61 -115t23.5 -154q0 -221 -156 -358t-449 -137q-113 0 -206.5 19.5t-159 54.5
t-109 70.5t-81.5 80.5z" />
    <glyph glyph-name="uni01B8" unicode="&#x1b8;" horiz-adv-x="1281" 
d="M1007 393l214 -198q-38 -45 -81.5 -80.5t-109.5 -70.5t-159 -54.5t-206 -19.5q-293 0 -449 137t-156 358q0 85 23.5 154t61 115t90 80t104 52t109.5 27l-310 289v252h979v-289h-530l274 -248v-226q-119 0 -201.5 -9t-145 -32t-92 -63.5t-29.5 -101.5q0 -205 272 -205
q84 0 151 20t105.5 45t85.5 68z" />
    <glyph glyph-name="uni01B9" unicode="&#x1b9;" horiz-adv-x="1236" 
d="M1037 -153l139 -211q-30 -27 -72.5 -53.5t-104 -54t-145.5 -44t-176 -16.5q-285 0 -451.5 129t-166.5 363q0 95 30 174.5t75.5 131.5t107.5 91.5t119 60.5t117 33l-373 391v188h962v-252h-562l334 -344v-196q-250 0 -366 -62.5t-116 -215.5q0 -110 72.5 -175t217.5 -65
q108 0 202.5 38.5t156.5 88.5z" />
    <glyph glyph-name="uni01BA" unicode="&#x1ba;" horiz-adv-x="1174" 
d="M496 -432q-72 0 -99 -21.5t-27 -57.5q0 -97 175 -97q90 0 145 20v-272q-46 -20 -145 -20q-102 0 -185 18.5t-152.5 60t-108.5 116t-39 177.5q0 149 111.5 238.5t324.5 89.5q154 0 222 44.5t68 155.5q0 137 -114 187.5t-368 50.5v196l334 324h-562v252h962v-188l-373 -371
q62 -12 117 -30.5t118.5 -54.5t108.5 -83t75 -120.5t30 -162.5q0 -224 -164 -338t-454 -114z" />
    <glyph glyph-name="uni01BB" unicode="&#x1bb;" horiz-adv-x="1242" 
d="M248 486v289h412l28 27q72 71 103.5 120.5t31.5 97.5q0 74 -48 119.5t-141 45.5q-56 0 -100.5 -17.5t-74.5 -50.5t-47 -60.5t-35 -67.5l-297 100q17 53 43.5 102.5t73 102.5t105 91.5t145 63.5t187.5 25q235 0 378.5 -115.5t143.5 -338.5q0 -126 -85 -245h68v-289h-340
l-201 -197h564v-289h-1064v226l266 260h-116z" />
    <glyph glyph-name="uni01BC" unicode="&#x1bc;" horiz-adv-x="1367" 
d="M1201 1434v-289h-623l-13 -227q65 13 154 13q588 0 588 -480q0 -84 -21 -156.5t-66.5 -135t-113.5 -106t-166.5 -68.5t-220.5 -25q-206 0 -337.5 48t-224.5 136l212 219q138 -114 350 -114q118 0 186.5 49t68.5 153q0 201 -255 201q-173 0 -356 -52q-76 -21 -155 -52
l36 597h-184v289h1141z" />
    <glyph glyph-name="uni01BD" unicode="&#x1bd;" horiz-adv-x="1043" 
d="M930 1030v-252h-445l-8 -103q160 8 276.5 -25t183 -114t66.5 -204q0 -167 -124.5 -259.5t-346.5 -92.5q-276 0 -442 113l147 220q134 -81 295 -81q143 0 143 100q0 95 -143 95q-221 0 -393 -54l30 405h-129v252h890z" />
    <glyph glyph-name="uni01BE" unicode="&#x1be;" horiz-adv-x="1198" 
d="M60 260l267 145q49 -70 110 -108.5t156 -38.5q111 0 161.5 37t50.5 110q0 97 -107 148.5t-294 55.5v195h-142v191h142v35h333v-35h141v-191h-141q91 -13 163 -44t115.5 -70.5t72 -89.5t39.5 -97.5t11 -97.5q0 -92 -33.5 -170t-99 -138t-171.5 -94t-241 -34
q-107 0 -197.5 25t-154 68.5t-107.5 92t-74 105.5z" />
    <glyph glyph-name="uni01BF" unicode="&#x1bf;" horiz-adv-x="1140" 
d="M100 -532v1562h312v-74q64 104 220 104q212 0 330 -117t118 -320q0 -108 -41 -204t-107 -165t-152.5 -123t-175 -85.5t-176.5 -45.5v-532h-328zM602 808q-174 0 -174 -230v-363q53 13 105.5 42t103.5 76.5t83 123t32 166.5q0 185 -150 185z" />
    <glyph glyph-name="uni01C0" unicode="&#x1c0;" horiz-adv-x="533" 
d="M100 0v1434h333v-1434h-333z" />
    <glyph glyph-name="uni01C1" unicode="&#x1c1;" horiz-adv-x="993" 
d="M560 0v1434h333v-1434h-333zM100 0v1434h333v-1434h-333z" />
    <glyph glyph-name="uni01C2" unicode="&#x1c2;" horiz-adv-x="1017" 
d="M80 383v289h262v114h-262v289h262v359h333v-359h262v-289h-262v-114h262v-289h-262v-383h-333v383h-262z" />
    <glyph glyph-name="uni01C3" unicode="&#x1c3;" horiz-adv-x="546" 
d="M147 422l-40 1012h333l-40 -1012h-253zM100 163q0 72 50.5 122.5t122.5 50.5t122.5 -50.5t50.5 -122.5t-50.5 -122.5t-122.5 -50.5t-122.5 50.5t-50.5 122.5z" />
    <glyph glyph-name="uni01C4" unicode="&#x1c4;" horiz-adv-x="2654" 
d="M1898 289h676v-289h-1151v176l677 969h-637v289h1111v-176zM1423 717q0 -157 -44.5 -286.5t-131.5 -226.5t-225 -150.5t-315 -53.5h-607v1434h607q177 0 315 -53.5t225 -150.5t131.5 -226.5t44.5 -286.5zM433 1145v-856h274q100 0 174 35t116.5 96.5t62.5 135.5t20 161
t-20 161t-62.5 135.5t-116.5 96.5t-174 35h-274z" />
    <glyph glyph-name="uni01C5" unicode="&#x1c5;" horiz-adv-x="2503" 
d="M1423 717q0 -157 -44.5 -286.5t-131.5 -226.5t-225 -150.5t-315 -53.5h-607v1434h607q177 0 315 -53.5t225 -150.5t131.5 -226.5t44.5 -286.5zM433 1145v-856h274q100 0 174 35t116.5 96.5t62.5 135.5t20 161t-20 161t-62.5 135.5t-116.5 96.5t-174 35h-274zM1498 0v149
l496 629h-467v252h896v-150l-496 -628h496v-252h-925z" />
    <glyph glyph-name="uni01C6" unicode="&#x1c6;" horiz-adv-x="2389" 
d="M60 515q0 252 146 398.5t380 146.5q117 0 202.5 -45.5t135.5 -120.5v622h328v-1516h-328v136q-49 -75 -135 -120.5t-203 -45.5q-234 0 -380 146.5t-146 398.5zM388 515q0 -130 70.5 -211.5t197.5 -81.5t197.5 81.5t70.5 211.5t-70.5 211.5t-197.5 81.5t-197.5 -81.5
t-70.5 -211.5zM1384 0v149l496 629h-467v252h896v-150l-496 -628h496v-252h-925z" />
    <glyph glyph-name="uni01C7" unicode="&#x1c7;" horiz-adv-x="2360" 
d="M433 1434v-1145h698v-289h-1031v1434h333zM1206 318l308 85q33 -75 83.5 -114.5t138.5 -39.5q103 0 147 56t44 175v954h333v-954q0 -520 -524 -520q-122 0 -215.5 27t-154.5 78t-98.5 112t-61.5 141z" />
    <glyph glyph-name="uni01C8" unicode="&#x1c8;" horiz-adv-x="1758" 
d="M433 1434v-1145h698v-289h-1031v1434h333zM1314 1334q0 71 50.5 121.5t121.5 50.5t121.5 -50.5t50.5 -121.5t-50.5 -121.5t-121.5 -50.5t-121.5 50.5t-50.5 121.5zM998 -488l82 229q58 -21 119 -21q30 0 52 9.5t35 29t20.5 37.5t11 48.5t4 47.5t0.5 48v1090h328v-1090
q0 -118 -22 -203t-71.5 -146.5t-133.5 -92t-204 -30.5q-139 0 -221 44z" />
    <glyph glyph-name="uni01C9" unicode="&#x1c9;" horiz-adv-x="1188" 
d="M100 390v1126h328v-1096v-36t1.5 -33t4.5 -33t8.5 -26t14 -22t21.5 -12.5t30 -5.5h39v-252h-106q-97 0 -166 30t-102 67t-50.5 100.5t-20 99t-2.5 93.5zM744 1334q0 71 50.5 121.5t121.5 50.5t121.5 -50.5t50.5 -121.5t-50.5 -121.5t-121.5 -50.5t-121.5 50.5
t-50.5 121.5zM428 -488l82 229q58 -21 119 -21q30 0 52 9.5t35 29t20.5 37.5t11 48.5t4 47.5t0.5 48v1090h328v-1090q0 -118 -22 -203t-71.5 -146.5t-133.5 -92t-204 -30.5q-139 0 -221 44z" />
    <glyph glyph-name="uni01CA" unicode="&#x1ca;" horiz-adv-x="2644" 
d="M100 0v1434h422l558 -956v956h333v-1434h-422l-558 956v-956h-333zM1490 318l308 85q33 -75 83.5 -114.5t138.5 -39.5q103 0 147 56t44 175v954h333v-954q0 -520 -524 -520q-122 0 -215.5 27t-154.5 78t-98.5 112t-61.5 141z" />
    <glyph glyph-name="uni01CB" unicode="&#x1cb;" horiz-adv-x="2110" 
d="M100 0v1434h422l558 -956v956h333v-1434h-422l-558 956v-956h-333zM1666 1334q0 71 50.5 121.5t121.5 50.5t121.5 -50.5t50.5 -121.5t-50.5 -121.5t-121.5 -50.5t-121.5 50.5t-50.5 121.5zM1350 -488l82 229q58 -21 119 -21q30 0 52 9.5t35 29t20.5 37.5t11 48.5t4 47.5
t0.5 48v1090h328v-1090q0 -118 -22 -203t-71.5 -146.5t-133.5 -92t-204 -30.5q-139 0 -221 44z" />
    <glyph glyph-name="uni01CC" unicode="&#x1cc;" horiz-adv-x="1810" 
d="M428 534v-534h-328v1030h328v-109q91 139 275 139q247 0 360 -135t113 -391v-534h-328v534q0 135 -48 204.5t-162 69.5t-162 -69.5t-48 -204.5zM1366 1334q0 71 50.5 121.5t121.5 50.5t121.5 -50.5t50.5 -121.5t-50.5 -121.5t-121.5 -50.5t-121.5 50.5t-50.5 121.5z
M1050 -488l82 229q58 -21 119 -21q30 0 52 9.5t35 29t20.5 37.5t11 48.5t4 47.5t0.5 48v1090h328v-1090q0 -118 -22 -203t-71.5 -146.5t-133.5 -92t-204 -30.5q-139 0 -221 44z" />
    <glyph glyph-name="uni01CD" unicode="&#x1cd;" horiz-adv-x="1536" 
d="M479 281l-110 -281h-359l593 1434h330l593 -1434h-359l-110 281h-578zM768 1014l-179 -454h358zM1172 1827l-301 -291h-206l-301 291h248l156 -109l156 109h248z" />
    <glyph glyph-name="uni01CE" unicode="&#x1ce;" horiz-adv-x="1194" 
d="M60 319q0 77 28.5 138.5t78 101t117 67.5t146 38t164.5 13t172 -7q0 38 -6 62.5t-24.5 45.5t-56 30.5t-96.5 9.5q-174 0 -328 -65l-109 210q99 50 222 73.5t235 23.5q143 0 239 -26.5t151.5 -82t78 -131t22.5 -185.5v-635h-329v135q-72 -159 -310 -159q-80 0 -149.5 20
t-125.5 60t-88 107.5t-32 155.5zM388 349q0 -56 36 -88.5t111 -32.5q106 0 168 50t62 121v89q-38 1 -85.5 3t-99 -6t-94.5 -21.5t-70.5 -43t-27.5 -71.5zM1042 1434l-301 -291h-206l-301 291h248l156 -109l156 109h248z" />
    <glyph glyph-name="uni01CF" unicode="&#x1cf;" horiz-adv-x="768" 
d="M218 0v1434h333v-1434h-333zM788 1827l-301 -291h-206l-301 291h248l156 -109l156 109h248z" />
    <glyph glyph-name="uni01D0" unicode="&#x1d0;" horiz-adv-x="708" 
d="M190 0v1030h328v-1030h-328zM758 1434l-301 -291h-206l-301 291h248l156 -109l156 109h248z" />
    <glyph glyph-name="uni01D1" unicode="&#x1d1;" horiz-adv-x="1672" 
d="M836 1474q158 0 287.5 -40.5t219 -110.5t151 -166.5t90 -206.5t28.5 -233t-28.5 -233t-90 -206.5t-151 -166.5t-219 -110.5t-287.5 -40.5t-287.5 40.5t-219 110.5t-151 166.5t-90 206.5t-28.5 233t28.5 233t90 206.5t151 166.5t219 110.5t287.5 40.5zM836 1185
q-110 0 -194 -35.5t-135.5 -99.5t-77.5 -148t-26 -185t26 -185t77.5 -148t135.5 -99.5t194 -35.5t194 35.5t135.5 99.5t77.5 148t26 185t-26 185t-77.5 148t-135.5 99.5t-194 35.5zM1241 1827l-301 -291h-206l-301 291h248l156 -109l156 109h248z" />
    <glyph glyph-name="uni01D2" unicode="&#x1d2;" horiz-adv-x="1332" 
d="M666 -30q-274 0 -440 151t-166 394q0 244 165.5 394.5t440.5 150.5t440.5 -150.5t165.5 -394.5q0 -243 -166 -394t-440 -151zM666 222q134 0 206 81t72 212t-72 212t-206 81t-206 -81t-72 -212t72 -212t206 -81zM1070 1434l-301 -291h-206l-301 291h248l156 -109l156 109
h248z" />
    <glyph glyph-name="uni01D3" unicode="&#x1d3;" horiz-adv-x="1477" 
d="M739 249q90 0 150 25.5t94 79t47.5 124.5t13.5 173v783h333v-783q0 -691 -638 -691q-639 0 -639 691v783h333v-783q0 -102 13.5 -173t47.5 -124.5t94.5 -79t150.5 -25.5zM1142 1827l-301 -291h-206l-301 291h248l156 -109l156 109h248z" />
    <glyph glyph-name="uni01D4" unicode="&#x1d4;" 
d="M848 496v534h328v-1030h-328v109q-91 -139 -275 -139q-247 0 -360 135t-113 391v534h328v-534q0 -135 48 -204.5t162 -69.5t162 69.5t48 204.5zM1043 1434l-301 -291h-206l-301 291h248l156 -109l156 109h248z" />
    <glyph glyph-name="uni01D5" unicode="&#x1d5;" horiz-adv-x="1477" 
d="M739 249q90 0 150 25.5t94 79t47.5 124.5t13.5 173v783h333v-783q0 -691 -638 -691q-639 0 -639 691v783h333v-783q0 -102 13.5 -173t47.5 -124.5t94.5 -79t150.5 -25.5zM329 1708q0 71 50.5 121.5t121.5 50.5t121.5 -50.5t50.5 -121.5t-50.5 -121.5t-121.5 -50.5
t-121.5 50.5t-50.5 121.5zM806 1708q0 71 50.5 121.5t121.5 50.5t121.5 -50.5t50.5 -121.5t-50.5 -121.5t-121.5 -50.5t-121.5 50.5t-50.5 121.5zM302 1940v252h874v-252h-874z" />
    <glyph glyph-name="uni01D6" unicode="&#x1d6;" 
d="M848 496v534h328v-1030h-328v109q-91 -139 -275 -139q-247 0 -360 135t-113 391v534h328v-534q0 -135 48 -204.5t162 -69.5t162 69.5t48 204.5zM228 1334q0 71 50.5 121.5t121.5 50.5t121.5 -50.5t50.5 -121.5t-50.5 -121.5t-121.5 -50.5t-121.5 50.5t-50.5 121.5z
M705 1334q0 71 50.5 121.5t121.5 50.5t121.5 -50.5t50.5 -121.5t-50.5 -121.5t-121.5 -50.5t-121.5 50.5t-50.5 121.5zM201 1566v252h874v-252h-874z" />
    <glyph glyph-name="uni01D7" unicode="&#x1d7;" horiz-adv-x="1477" 
d="M739 249q90 0 150 25.5t94 79t47.5 124.5t13.5 173v783h333v-783q0 -691 -638 -691q-639 0 -639 691v783h333v-783q0 -102 13.5 -173t47.5 -124.5t94.5 -79t150.5 -25.5zM327 1708q0 71 50.5 121.5t121.5 50.5t121.5 -50.5t50.5 -121.5t-50.5 -121.5t-121.5 -50.5
t-121.5 50.5t-50.5 121.5zM804 1708q0 71 50.5 121.5t121.5 50.5t121.5 -50.5t50.5 -121.5t-50.5 -121.5t-121.5 -50.5t-121.5 50.5t-50.5 121.5zM597 1920l251 310h333l-314 -310h-270z" />
    <glyph glyph-name="uni01D8" unicode="&#x1d8;" 
d="M848 496v534h328v-1030h-328v109q-91 -139 -275 -139q-247 0 -360 135t-113 391v534h328v-534q0 -135 48 -204.5t162 -69.5t162 69.5t48 204.5zM228 1334q0 71 50.5 121.5t121.5 50.5t121.5 -50.5t50.5 -121.5t-50.5 -121.5t-121.5 -50.5t-121.5 50.5t-50.5 121.5z
M705 1334q0 71 50.5 121.5t121.5 50.5t121.5 -50.5t50.5 -121.5t-50.5 -121.5t-121.5 -50.5t-121.5 50.5t-50.5 121.5zM498 1546l251 310h333l-314 -310h-270z" />
    <glyph glyph-name="uni01D9" unicode="&#x1d9;" horiz-adv-x="1477" 
d="M739 249q90 0 150 25.5t94 79t47.5 124.5t13.5 173v783h333v-783q0 -691 -638 -691q-639 0 -639 691v783h333v-783q0 -102 13.5 -173t47.5 -124.5t94.5 -79t150.5 -25.5zM328 1708q0 71 50.5 121.5t121.5 50.5t121.5 -50.5t50.5 -121.5t-50.5 -121.5t-121.5 -50.5
t-121.5 50.5t-50.5 121.5zM805 1708q0 71 50.5 121.5t121.5 50.5t121.5 -50.5t50.5 -121.5t-50.5 -121.5t-121.5 -50.5t-121.5 50.5t-50.5 121.5z" />
    <glyph glyph-name="uni01DA" unicode="&#x1da;" 
d="M848 496v534h328v-1030h-328v109q-91 -139 -275 -139q-247 0 -360 135t-113 391v534h328v-534q0 -135 48 -204.5t162 -69.5t162 69.5t48 204.5zM228 1334q0 71 50.5 121.5t121.5 50.5t121.5 -50.5t50.5 -121.5t-50.5 -121.5t-121.5 -50.5t-121.5 50.5t-50.5 121.5z
M705 1334q0 71 50.5 121.5t121.5 50.5t121.5 -50.5t50.5 -121.5t-50.5 -121.5t-121.5 -50.5t-121.5 50.5t-50.5 121.5z" />
    <glyph glyph-name="uni01DB" unicode="&#x1db;" horiz-adv-x="1477" 
d="M739 249q90 0 150 25.5t94 79t47.5 124.5t13.5 173v783h333v-783q0 -691 -638 -691q-639 0 -639 691v783h333v-783q0 -102 13.5 -173t47.5 -124.5t94.5 -79t150.5 -25.5zM328 1708q0 71 50.5 121.5t121.5 50.5t121.5 -50.5t50.5 -121.5t-50.5 -121.5t-121.5 -50.5
t-121.5 50.5t-50.5 121.5zM805 1708q0 71 50.5 121.5t121.5 50.5t121.5 -50.5t50.5 -121.5t-50.5 -121.5t-121.5 -50.5t-121.5 50.5t-50.5 121.5zM640 2230l251 -310h-270l-314 310h333z" />
    <glyph glyph-name="uni01DC" unicode="&#x1dc;" 
d="M848 496v534h328v-1030h-328v109q-91 -139 -275 -139q-247 0 -360 135t-113 391v534h328v-534q0 -135 48 -204.5t162 -69.5t162 69.5t48 204.5zM228 1334q0 71 50.5 121.5t121.5 50.5t121.5 -50.5t50.5 -121.5t-50.5 -121.5t-121.5 -50.5t-121.5 50.5t-50.5 121.5z
M705 1334q0 71 50.5 121.5t121.5 50.5t121.5 -50.5t50.5 -121.5t-50.5 -121.5t-121.5 -50.5t-121.5 50.5t-50.5 121.5zM540 1856l251 -310h-270l-314 310h333z" />
    <glyph glyph-name="uni01DD" unicode="&#x1dd;" horiz-adv-x="1246" 
d="M287 724l-162 184q189 152 491 152q149 0 262 -45t178.5 -122.5t97.5 -172.5t32 -205t-33.5 -205.5t-99.5 -172.5t-178.5 -122t-258.5 -45q-292 0 -436 176t-114 490h779q0 35 -11.5 66t-36.5 58t-71 42.5t-110 15.5q-187 0 -329 -94zM844 424h-456q0 -37 11 -71.5
t35.5 -67.5t71 -53t110.5 -20t110.5 20t71 53t35.5 67.5t11 71.5z" />
    <glyph glyph-name="uni01DE" unicode="&#x1de;" horiz-adv-x="1536" 
d="M479 281l-110 -281h-359l593 1434h330l593 -1434h-359l-110 281h-578zM768 1014l-179 -454h358zM358 1708q0 71 50.5 121.5t121.5 50.5t121.5 -50.5t50.5 -121.5t-50.5 -121.5t-121.5 -50.5t-121.5 50.5t-50.5 121.5zM835 1708q0 71 50.5 121.5t121.5 50.5t121.5 -50.5
t50.5 -121.5t-50.5 -121.5t-121.5 -50.5t-121.5 50.5t-50.5 121.5zM331 1940v252h874v-252h-874z" />
    <glyph glyph-name="uni01DF" unicode="&#x1df;" horiz-adv-x="1194" 
d="M60 319q0 77 28.5 138.5t78 101t117 67.5t146 38t164.5 13t172 -7q0 38 -6 62.5t-24.5 45.5t-56 30.5t-96.5 9.5q-174 0 -328 -65l-109 210q99 50 222 73.5t235 23.5q143 0 239 -26.5t151.5 -82t78 -131t22.5 -185.5v-635h-329v135q-72 -159 -310 -159q-80 0 -149.5 20
t-125.5 60t-88 107.5t-32 155.5zM388 349q0 -56 36 -88.5t111 -32.5q106 0 168 50t62 121v89q-38 1 -85.5 3t-99 -6t-94.5 -21.5t-70.5 -43t-27.5 -71.5zM211 1334q0 71 50.5 121.5t121.5 50.5t121.5 -50.5t50.5 -121.5t-50.5 -121.5t-121.5 -50.5t-121.5 50.5t-50.5 121.5z
M688 1334q0 71 50.5 121.5t121.5 50.5t121.5 -50.5t50.5 -121.5t-50.5 -121.5t-121.5 -50.5t-121.5 50.5t-50.5 121.5zM184 1566v252h874v-252h-874z" />
    <glyph glyph-name="uni01E0" unicode="&#x1e0;" horiz-adv-x="1536" 
d="M479 281l-110 -281h-359l593 1434h330l593 -1434h-359l-110 281h-578zM768 1014l-179 -454h358zM596 1708q0 71 50.5 121.5t121.5 50.5t121.5 -50.5t50.5 -121.5t-50.5 -121.5t-121.5 -50.5t-121.5 50.5t-50.5 121.5zM332 1940v252h874v-252h-874z" />
    <glyph glyph-name="uni01E1" unicode="&#x1e1;" horiz-adv-x="1194" 
d="M60 319q0 77 28.5 138.5t78 101t117 67.5t146 38t164.5 13t172 -7q0 38 -6 62.5t-24.5 45.5t-56 30.5t-96.5 9.5q-174 0 -328 -65l-109 210q99 50 222 73.5t235 23.5q143 0 239 -26.5t151.5 -82t78 -131t22.5 -185.5v-635h-329v135q-72 -159 -310 -159q-80 0 -149.5 20
t-125.5 60t-88 107.5t-32 155.5zM388 349q0 -56 36 -88.5t111 -32.5q106 0 168 50t62 121v89q-38 1 -85.5 3t-99 -6t-94.5 -21.5t-70.5 -43t-27.5 -71.5zM454 1334q0 71 50.5 121.5t121.5 50.5t121.5 -50.5t50.5 -121.5t-50.5 -121.5t-121.5 -50.5t-121.5 50.5t-50.5 121.5z
M190 1566v252h874v-252h-874z" />
    <glyph glyph-name="uni01E2" unicode="&#x1e2;" horiz-adv-x="2180" 
d="M1357 876h690v-289h-690v-298h743v-289h-1076v306h-438l-202 -306h-374l944 1434h1136v-289h-733v-269zM1024 972l-248 -377h248v377zM958 1535v252h874v-252h-874z" />
    <glyph glyph-name="uni01E3" unicode="&#x1e3;" horiz-adv-x="1951" 
d="M1664 306l162 -184q-189 -152 -491 -152q-261 0 -409 135q-192 -129 -471 -129q-80 0 -149.5 20t-125.5 60t-88 107.5t-32 155.5q0 77 28.5 138.5t78 101t117 67.5t146 38t164.5 13t172 -7q0 38 -6 62.5t-24.5 45.5t-56 30.5t-96.5 9.5q-174 0 -328 -65l-109 210
q99 50 222 73.5t235 23.5q263 0 377 -96q141 96 355 96q292 0 436 -176t114 -490h-779q0 -35 11.5 -66t36.5 -58t71 -42.5t110 -15.5q197 0 329 94zM388 349q0 -56 36 -88.5t111 -32.5q106 0 168 50t62 121v89q-38 1 -85.5 3t-99 -6t-94.5 -21.5t-70.5 -43t-27.5 -71.5z
M1107 606h456q0 37 -11 71.5t-35.5 67.5t-71 53t-110.5 20t-110.5 -20t-71 -53t-35.5 -67.5t-11 -71.5zM552 1182v252h874v-252h-874z" />
    <glyph glyph-name="uni01E4" unicode="&#x1e4;" horiz-adv-x="1614" 
d="M836 249q165 0 273 55h-277v219h277v44h-277v279h586v-323h156v-219h-156v-174q-203 -170 -582 -170q-158 0 -287.5 40.5t-219 110.5t-151 166.5t-90 206.5t-28.5 233t28.5 233t90 206.5t151 166.5t219 110.5t287.5 40.5q165 0 312 -39.5t279 -143.5l-170 -222
q-173 116 -421 116q-110 0 -194 -35.5t-135.5 -99.5t-77.5 -148t-26 -185t26 -185t77.5 -148t135.5 -99.5t194 -35.5z" />
    <glyph glyph-name="uni01E5" unicode="&#x1e5;" horiz-adv-x="1331" 
d="M683 -241v205h239q2 24 2 36v136q-49 -75 -135 -120.5t-203 -45.5q-234 0 -380 146.5t-146 398.5t146 398.5t380 146.5q117 0 202.5 -45.5t135.5 -120.5v136h328v-1030q0 -6 -0.5 -18t-0.5 -18h130v-205h-175q-37 -81 -100 -139.5t-143.5 -90.5t-165.5 -46.5t-182 -14.5
q-284 0 -489 116l125 228q169 -92 364 -92q106 0 181 39h-113zM388 515q0 -130 70.5 -211.5t197.5 -81.5t197.5 81.5t70.5 211.5t-70.5 211.5t-197.5 81.5t-197.5 -81.5t-70.5 -211.5z" />
    <glyph glyph-name="Gcaron" unicode="&#x1e6;" horiz-adv-x="1507" 
d="M836 249q165 0 273 55v263h-277v279h586v-716q-203 -170 -582 -170q-158 0 -287.5 40.5t-219 110.5t-151 166.5t-90 206.5t-28.5 233t28.5 233t90 206.5t151 166.5t219 110.5t287.5 40.5q165 0 312 -39.5t279 -143.5l-170 -222q-173 116 -421 116q-110 0 -194 -35.5
t-135.5 -99.5t-77.5 -148t-26 -185t26 -185t77.5 -148t135.5 -99.5t194 -35.5zM1254 1827l-301 -291h-206l-301 291h248l156 -109l156 109h248z" />
    <glyph glyph-name="gcaron" unicode="&#x1e7;" horiz-adv-x="1353" 
d="M924 1030h328v-1030q0 -122 -36.5 -217t-96.5 -153t-144.5 -95.5t-172 -52t-187.5 -14.5q-284 0 -489 116l125 228q169 -92 364 -92q142 0 225.5 69.5t83.5 210.5v136q-49 -75 -135 -120.5t-203 -45.5q-234 0 -380 146.5t-146 398.5t146 398.5t380 146.5
q117 0 202.5 -45.5t135.5 -120.5v136zM388 515q0 -130 70.5 -211.5t197.5 -81.5t197.5 81.5t70.5 211.5t-70.5 211.5t-197.5 81.5t-197.5 -81.5t-70.5 -211.5zM1060 1434l-301 -291h-206l-301 291h248l156 -109l156 109h248z" />
    <glyph glyph-name="uni01E8" unicode="&#x1e8;" horiz-adv-x="1441" 
d="M433 852l571 582h407l-610 -621l630 -813h-395l-454 587l-149 -153v-434h-333v1434h333v-582zM1096 1827l-301 -291h-206l-301 291h248l156 -109l156 109h248z" />
    <glyph glyph-name="uni01E9" unicode="&#x1e9;" horiz-adv-x="1244" 
d="M428 677l391 353h415l-481 -434l481 -596h-385l-318 394l-103 -92v-302h-328v1516h328v-839zM991 1827l-301 -291h-206l-301 291h248l156 -109l156 109h248z" />
    <glyph glyph-name="uni01EA" unicode="&#x1ea;" horiz-adv-x="1672" 
d="M836 1474q158 0 287.5 -40.5t219 -110.5t151 -166.5t90 -206.5t28.5 -233q0 -124 -30 -236t-90 -207.5t-157 -167.5t-223 -109q-119 -45 -119 -138q0 -68 91 -96q42 -13 91 -14v-247q-57 0 -110 6.5t-111.5 26t-101 49.5t-70.5 81.5t-28 117.5q0 112 81 177
q-157 0 -287 40.5t-219.5 110.5t-150.5 166.5t-89.5 206.5t-28.5 233t28.5 233t90 206.5t151 166.5t219 110.5t287.5 40.5zM836 1185q-110 0 -194 -35.5t-135.5 -99.5t-77.5 -148t-26 -185t26 -185t77.5 -148t135.5 -99.5t194 -35.5t194 35.5t135.5 99.5t77.5 148t26 185
t-26 185t-77.5 148t-135.5 99.5t-194 35.5z" />
    <glyph glyph-name="uni01EB" unicode="&#x1eb;" horiz-adv-x="1332" 
d="M884 0h1q-36 -10 -65 -30q-65 -45 -65 -111q0 -68 91 -96q42 -13 91 -14v-247q-57 0 -110 6.5t-111.5 26t-101 49.5t-70.5 81.5t-28 117.5q0 118 96 189q-251 16 -401.5 164.5t-150.5 378.5q0 244 165.5 394.5t440.5 150.5t440.5 -150.5t165.5 -394.5q0 -190 -103 -325.5
t-285 -189.5zM666 222q134 0 206 81t72 212t-72 212t-206 81t-206 -81t-72 -212t72 -212t206 -81z" />
    <glyph glyph-name="uni01EC" unicode="&#x1ec;" horiz-adv-x="1672" 
d="M836 1474q158 0 287.5 -40.5t219 -110.5t151 -166.5t90 -206.5t28.5 -233q0 -124 -30 -236t-90 -207.5t-157 -167.5t-223 -109q-119 -45 -119 -138q0 -68 91 -96q42 -13 91 -14v-247q-57 0 -110 6.5t-111.5 26t-101 49.5t-70.5 81.5t-28 117.5q0 112 81 177
q-157 0 -287 40.5t-219.5 110.5t-150.5 166.5t-89.5 206.5t-28.5 233t28.5 233t90 206.5t151 166.5t219 110.5t287.5 40.5zM836 1185q-110 0 -194 -35.5t-135.5 -99.5t-77.5 -148t-26 -185t26 -185t77.5 -148t135.5 -99.5t194 -35.5t194 35.5t135.5 99.5t77.5 148t26 185
t-26 185t-77.5 148t-135.5 99.5t-194 35.5zM399 1536v252h874v-252h-874z" />
    <glyph glyph-name="uni01ED" unicode="&#x1ed;" horiz-adv-x="1332" 
d="M884 0h1q-36 -10 -65 -30q-65 -45 -65 -111q0 -68 91 -96q42 -13 91 -14v-247q-57 0 -110 6.5t-111.5 26t-101 49.5t-70.5 81.5t-28 117.5q0 118 96 189q-251 16 -401.5 164.5t-150.5 378.5q0 244 165.5 394.5t440.5 150.5t440.5 -150.5t165.5 -394.5q0 -190 -103 -325.5
t-285 -189.5zM666 222q134 0 206 81t72 212t-72 212t-206 81t-206 -81t-72 -212t72 -212t206 -81zM230 1182v252h874v-252h-874z" />
    <glyph glyph-name="uni01EE" unicode="&#x1ee;" horiz-adv-x="1281" 
d="M60 195l214 198q47 -43 85.5 -68t105.5 -45t151 -20q272 0 272 205q0 61 -29.5 101.5t-92 63.5t-145 32t-201.5 9v226l274 248h-530v289h979v-252l-310 -289q58 -9 109.5 -27t104 -52t90 -80t61 -115t23.5 -154q0 -221 -156 -358t-449 -137q-113 0 -206.5 19.5t-159 54.5
t-109 70.5t-81.5 80.5zM1047 1827l-301 -291h-206l-301 291h248l156 -109l156 109h248z" />
    <glyph glyph-name="uni01EF" unicode="&#x1ef;" horiz-adv-x="1236" 
d="M60 -364l139 211q62 -50 156.5 -88.5t202.5 -38.5q145 0 217.5 65t72.5 175q0 153 -116 215.5t-366 62.5v196l334 344h-562v252h962v-188l-373 -391q60 -12 116.5 -33t119 -60.5t108 -91.5t75.5 -131.5t30 -174.5q0 -234 -166.5 -363t-451.5 -129q-172 0 -302 52.5
t-196 115.5zM1022 1434l-301 -291h-206l-301 291h248l156 -109l156 109h248z" />
    <glyph glyph-name="uni01F0" unicode="&#x1f0;" horiz-adv-x="692" 
d="M-140 -488l82 229q58 -21 119 -21q30 0 52 9.5t35 29t20.5 37.5t11 48.5t4 47.5t0.5 48v1090h328v-1090q0 -118 -22 -203t-71.5 -146.5t-133.5 -92t-204 -30.5q-139 0 -221 44zM752 1434l-301 -291h-206l-301 291h248l156 -109l156 109h248z" />
    <glyph glyph-name="uni01F1" unicode="&#x1f1;" horiz-adv-x="2654" 
d="M1423 717q0 -157 -44.5 -286.5t-131.5 -226.5t-225 -150.5t-315 -53.5h-607v1434h607q177 0 315 -53.5t225 -150.5t131.5 -226.5t44.5 -286.5zM433 1145v-856h274q100 0 174 35t116.5 96.5t62.5 135.5t20 161t-20 161t-62.5 135.5t-116.5 96.5t-174 35h-274zM1898 289
h676v-289h-1151v176l677 969h-637v289h1111v-176z" />
    <glyph glyph-name="uni01F2" unicode="&#x1f2;" horiz-adv-x="2496" 
d="M1423 717q0 -157 -44.5 -286.5t-131.5 -226.5t-225 -150.5t-315 -53.5h-607v1434h607q177 0 315 -53.5t225 -150.5t131.5 -226.5t44.5 -286.5zM433 1145v-856h274q100 0 174 35t116.5 96.5t62.5 135.5t20 161t-20 161t-62.5 135.5t-116.5 96.5t-174 35h-274zM1491 0v149
l496 629h-467v252h896v-150l-496 -628h496v-252h-925z" />
    <glyph glyph-name="uni01F3" unicode="&#x1f3;" horiz-adv-x="2360" 
d="M60 515q0 252 146 398.5t380 146.5q117 0 202.5 -45.5t135.5 -120.5v622h328v-1516h-328v136q-49 -75 -135 -120.5t-203 -45.5q-234 0 -380 146.5t-146 398.5zM388 515q0 -130 70.5 -211.5t197.5 -81.5t197.5 81.5t70.5 211.5t-70.5 211.5t-197.5 81.5t-197.5 -81.5
t-70.5 -211.5zM1355 0v149l496 629h-467v252h896v-150l-496 -628h496v-252h-925z" />
    <glyph glyph-name="uni01F4" unicode="&#x1f4;" horiz-adv-x="1507" 
d="M836 249q165 0 273 55v263h-277v279h586v-716q-203 -170 -582 -170q-158 0 -287.5 40.5t-219 110.5t-151 166.5t-90 206.5t-28.5 233t28.5 233t90 206.5t151 166.5t219 110.5t287.5 40.5q165 0 312 -39.5t279 -143.5l-170 -222q-173 116 -421 116q-110 0 -194 -35.5
t-135.5 -99.5t-77.5 -148t-26 -185t26 -185t77.5 -148t135.5 -99.5t194 -35.5zM698 1536l251 310h333l-314 -310h-270z" />
    <glyph glyph-name="uni01F5" unicode="&#x1f5;" horiz-adv-x="1353" 
d="M924 1030h328v-1030q0 -122 -36.5 -217t-96.5 -153t-144.5 -95.5t-172 -52t-187.5 -14.5q-284 0 -489 116l125 228q169 -92 364 -92q142 0 225.5 69.5t83.5 210.5v136q-49 -75 -135 -120.5t-203 -45.5q-234 0 -380 146.5t-146 398.5t146 398.5t380 146.5
q117 0 202.5 -45.5t135.5 -120.5v136zM388 515q0 -130 70.5 -211.5t197.5 -81.5t197.5 81.5t70.5 211.5t-70.5 211.5t-197.5 81.5t-197.5 -81.5t-70.5 -211.5zM465 1124l251 310h333l-314 -310h-270z" />
    <glyph glyph-name="uni01F6" unicode="&#x1f6;" horiz-adv-x="2239" 
d="M1058 876v558h333v-938q0 -135 48 -204.5t162 -69.5t162 69.5t48 204.5v534h328v-534q0 -128 -26.5 -221.5t-87.5 -163.5t-167 -105.5t-257 -35.5q-123 0 -216.5 23.5t-155 66.5t-100 109.5t-55 145.5t-16.5 181v91h-625v-587h-333v1434h333v-558h625z" />
    <glyph glyph-name="uni01F7" unicode="&#x1f7;" horiz-adv-x="1222" 
d="M100 0v1434h333v-83q40 62 109.5 97.5t151.5 35.5q224 0 346 -123t122 -348q0 -120 -46.5 -221t-119.5 -169.5t-171.5 -120.5t-195 -79.5t-196.5 -40.5v-382h-333zM634 1195q-87 0 -144 -58.5t-57 -192.5v-340q80 10 150 41t126 80.5t88 123.5t32 164q0 88 -49.5 135
t-145.5 47z" />
    <glyph glyph-name="uni01F8" unicode="&#x1f8;" horiz-adv-x="1513" 
d="M100 0v1434h422l558 -956v956h333v-1434h-422l-558 956v-956h-333zM663 1846l251 -310h-270l-314 310h333z" />
    <glyph glyph-name="uni01F9" unicode="&#x1f9;" 
d="M428 534v-534h-328v1030h328v-109q91 139 275 139q247 0 360 -135t113 -391v-534h-328v534q0 135 -48 204.5t-162 69.5t-162 -69.5t-48 -204.5zM554 1434l251 -310h-270l-314 310h333z" />
    <glyph glyph-name="Aringacute" unicode="&#x1fa;" horiz-adv-x="1536" 
d="M522 1782q0 83 49 148l202 249h333l-198 -195q49 -35 77.5 -87.5t28.5 -114.5q0 -102 -72 -174t-174 -72t-174 72t-72 174zM684 1782q0 -35 24.5 -59.5t59.5 -24.5t59.5 24.5t24.5 59.5t-24.5 59.5t-59.5 24.5t-59.5 -24.5t-24.5 -59.5zM479 281l-110 -281h-359l593 1434
h330l593 -1434h-359l-110 281h-578zM768 1014l-179 -454h358z" />
    <glyph glyph-name="aringacute" unicode="&#x1fb;" horiz-adv-x="1194" 
d="M387 1370q0 83 49 148l202 249h333l-198 -195q49 -35 77.5 -87.5t28.5 -114.5q0 -102 -72 -174t-174 -72t-174 72t-72 174zM549 1370q0 -35 24.5 -59.5t59.5 -24.5t59.5 24.5t24.5 59.5t-24.5 59.5t-59.5 24.5t-59.5 -24.5t-24.5 -59.5zM60 319q0 77 28.5 138.5t78 101
t117 67.5t146 38t164.5 13t172 -7q0 38 -6 62.5t-24.5 45.5t-56 30.5t-96.5 9.5q-174 0 -328 -65l-109 210q99 50 222 73.5t235 23.5q143 0 239 -26.5t151.5 -82t78 -131t22.5 -185.5v-635h-329v135q-72 -159 -310 -159q-80 0 -149.5 20t-125.5 60t-88 107.5t-32 155.5z
M388 349q0 -56 36 -88.5t111 -32.5q106 0 168 50t62 121v89q-38 1 -85.5 3t-99 -6t-94.5 -21.5t-70.5 -43t-27.5 -71.5z" />
    <glyph glyph-name="AEacute" unicode="&#x1fc;" horiz-adv-x="2180" 
d="M1357 876h690v-289h-690v-298h743v-289h-1076v306h-438l-202 -306h-374l944 1434h1136v-289h-733v-269zM1024 972l-248 -377h248v377zM1017 1536l251 310h333l-314 -310h-270z" />
    <glyph glyph-name="aeacute" unicode="&#x1fd;" horiz-adv-x="1951" 
d="M1664 306l162 -184q-189 -152 -491 -152q-261 0 -409 135q-192 -129 -471 -129q-80 0 -149.5 20t-125.5 60t-88 107.5t-32 155.5q0 77 28.5 138.5t78 101t117 67.5t146 38t164.5 13t172 -7q0 38 -6 62.5t-24.5 45.5t-56 30.5t-96.5 9.5q-174 0 -328 -65l-109 210
q99 50 222 73.5t235 23.5q263 0 377 -96q141 96 355 96q292 0 436 -176t114 -490h-779q0 -35 11.5 -66t36.5 -58t71 -42.5t110 -15.5q197 0 329 94zM388 349q0 -56 36 -88.5t111 -32.5q106 0 168 50t62 121v89q-38 1 -85.5 3t-99 -6t-94.5 -21.5t-70.5 -43t-27.5 -71.5z
M1107 606h456q0 37 -11 71.5t-35.5 67.5t-71 53t-110.5 20t-110.5 -20t-71 -53t-35.5 -67.5t-11 -71.5zM851 1124l251 310h333l-314 -310h-270z" />
    <glyph glyph-name="Oslashacute" unicode="&#x1fe;" horiz-adv-x="1672" 
d="M692 1536l251 310h333l-314 -310h-270zM836 1474q99 0 193 -17l19 38h328l-71 -146q153 -100 230 -266.5t77 -365.5q0 -123 -28.5 -233t-90 -206.5t-151 -166.5t-219 -110.5t-287.5 -40.5q-103 0 -200 19l-19 -40h-328l73 149q-150 100 -226 265.5t-76 363.5
q0 123 28.5 233t90 206.5t151 166.5t219 110.5t287.5 40.5zM836 249q110 0 194 35.5t135.5 99.5t77.5 148t26 185q0 216 -108 338l-391 -803q32 -3 66 -3zM836 1185q-110 0 -194 -35.5t-135.5 -99.5t-77.5 -148t-26 -185q0 -211 103 -333l389 798q-29 3 -59 3z" />
    <glyph glyph-name="oslashacute" unicode="&#x1ff;" horiz-adv-x="1332" 
d="M666 -30q-62 0 -121 9l-19 -40h-282l60 123q-118 72 -181 188.5t-63 264.5q0 244 165.5 394.5t440.5 150.5q63 0 120 -9l20 40h282l-61 -124q118 -72 181.5 -188t63.5 -264q0 -243 -166 -394t-440 -151zM664 222h2q134 0 206 81t72 212q0 107 -49 181zM388 515
q0 -107 48 -181l232 474h-2q-134 0 -206 -81t-72 -212zM462 1124l251 310h333l-314 -310h-270z" />
    <glyph glyph-name="uni0200" unicode="&#x200;" horiz-adv-x="1536" 
d="M479 281l-110 -281h-359l593 1434h330l593 -1434h-359l-110 281h-578zM768 1014l-179 -454h358zM491 1536l91 342h269l-149 -342h-211zM835 1536l91 342h269l-149 -342h-211z" />
    <glyph glyph-name="uni0201" unicode="&#x201;" horiz-adv-x="1194" 
d="M60 319q0 77 28.5 138.5t78 101t117 67.5t146 38t164.5 13t172 -7q0 38 -6 62.5t-24.5 45.5t-56 30.5t-96.5 9.5q-174 0 -328 -65l-109 210q99 50 222 73.5t235 23.5q143 0 239 -26.5t151.5 -82t78 -131t22.5 -185.5v-635h-329v135q-72 -159 -310 -159q-80 0 -149.5 20
t-125.5 60t-88 107.5t-32 155.5zM388 349q0 -56 36 -88.5t111 -32.5q106 0 168 50t62 121v89q-38 1 -85.5 3t-99 -6t-94.5 -21.5t-70.5 -43t-27.5 -71.5zM354 1174l91 342h269l-149 -342h-211zM698 1174l91 342h269l-149 -342h-211z" />
    <glyph glyph-name="uni0202" unicode="&#x202;" horiz-adv-x="1536" 
d="M479 281l-110 -281h-359l593 1434h330l593 -1434h-359l-110 281h-578zM768 1014l-179 -454h358zM768 1802q89 0 160 -24.5t114 -65t67.5 -85t32.5 -91.5h-192q-39 98 -182 98t-182 -98h-192q8 47 32.5 91.5t67.5 85t114 65t160 24.5z" />
    <glyph glyph-name="uni0203" unicode="&#x203;" horiz-adv-x="1194" 
d="M60 319q0 77 28.5 138.5t78 101t117 67.5t146 38t164.5 13t172 -7q0 38 -6 62.5t-24.5 45.5t-56 30.5t-96.5 9.5q-174 0 -328 -65l-109 210q99 50 222 73.5t235 23.5q143 0 239 -26.5t151.5 -82t78 -131t22.5 -185.5v-635h-329v135q-72 -159 -310 -159q-80 0 -149.5 20
t-125.5 60t-88 107.5t-32 155.5zM388 349q0 -56 36 -88.5t111 -32.5q106 0 168 50t62 121v89q-38 1 -85.5 3t-99 -6t-94.5 -21.5t-70.5 -43t-27.5 -71.5zM636 1434q89 0 160 -24.5t114 -65t67.5 -85t32.5 -91.5h-192q-39 98 -182 98t-182 -98h-192q8 47 32.5 91.5t67.5 85
t114 65t160 24.5z" />
    <glyph glyph-name="uni0204" unicode="&#x204;" horiz-adv-x="1256" 
d="M433 876h690v-289h-690v-298h743v-289h-1076v1434h1066v-289h-733v-269zM357 1536l91 342h269l-149 -342h-211zM701 1536l91 342h269l-149 -342h-211z" />
    <glyph glyph-name="uni0205" unicode="&#x205;" horiz-adv-x="1246" 
d="M959 306l162 -184q-189 -152 -491 -152q-149 0 -262 45t-178.5 122.5t-97.5 172.5t-32 205q0 87 20 165.5t65 148t110 121t161.5 81t213.5 29.5q292 0 436 -176t114 -490h-779q0 -35 11.5 -66t36.5 -58t71 -42.5t110 -15.5q197 0 329 94zM402 606h456q0 37 -11 71.5
t-35.5 67.5t-71 53t-110.5 20t-110.5 -20t-71 -53t-35.5 -67.5t-11 -71.5zM351 1174l91 342h269l-149 -342h-211zM695 1174l91 342h269l-149 -342h-211z" />
    <glyph glyph-name="uni0206" unicode="&#x206;" horiz-adv-x="1256" 
d="M433 876h690v-289h-690v-298h743v-289h-1076v1434h1066v-289h-733v-269zM638 1802q89 0 160 -24.5t114 -65t67.5 -85t32.5 -91.5h-192q-39 98 -182 98t-182 -98h-192q8 47 32.5 91.5t67.5 85t114 65t160 24.5z" />
    <glyph glyph-name="uni0207" unicode="&#x207;" horiz-adv-x="1246" 
d="M959 306l162 -184q-189 -152 -491 -152q-149 0 -262 45t-178.5 122.5t-97.5 172.5t-32 205q0 87 20 165.5t65 148t110 121t161.5 81t213.5 29.5q292 0 436 -176t114 -490h-779q0 -35 11.5 -66t36.5 -58t71 -42.5t110 -15.5q197 0 329 94zM402 606h456q0 37 -11 71.5
t-35.5 67.5t-71 53t-110.5 20t-110.5 -20t-71 -53t-35.5 -67.5t-11 -71.5zM633 1434q89 0 160 -24.5t114 -65t67.5 -85t32.5 -91.5h-192q-39 98 -182 98t-182 -98h-192q8 47 32.5 91.5t67.5 85t114 65t160 24.5z" />
    <glyph glyph-name="uni0208" unicode="&#x208;" horiz-adv-x="624" 
d="M143 0v1434h333v-1434h-333zM40 1536l91 342h269l-149 -342h-211zM384 1536l91 342h269l-149 -342h-211z" />
    <glyph glyph-name="uni0209" unicode="&#x209;" horiz-adv-x="624" 
d="M156 0v1030h328v-1030h-328zM40 1174l91 342h269l-149 -342h-211zM384 1174l91 342h269l-149 -342h-211z" />
    <glyph glyph-name="uni020A" unicode="&#x20a;" horiz-adv-x="648" 
d="M158 0v1434h333v-1434h-333zM324 1802q89 0 160 -24.5t114 -65t67.5 -85t32.5 -91.5h-192q-39 98 -182 98t-182 -98h-192q8 47 32.5 91.5t67.5 85t114 65t160 24.5z" />
    <glyph glyph-name="uni020B" unicode="&#x20b;" horiz-adv-x="648" 
d="M160 0v1030h328v-1030h-328zM324 1434q89 0 160 -24.5t114 -65t67.5 -85t32.5 -91.5h-192q-39 98 -182 98t-182 -98h-192q8 47 32.5 91.5t67.5 85t114 65t160 24.5z" />
    <glyph glyph-name="uni020C" unicode="&#x20c;" horiz-adv-x="1672" 
d="M836 1474q158 0 287.5 -40.5t219 -110.5t151 -166.5t90 -206.5t28.5 -233t-28.5 -233t-90 -206.5t-151 -166.5t-219 -110.5t-287.5 -40.5t-287.5 40.5t-219 110.5t-151 166.5t-90 206.5t-28.5 233t28.5 233t90 206.5t151 166.5t219 110.5t287.5 40.5zM836 1185
q-110 0 -194 -35.5t-135.5 -99.5t-77.5 -148t-26 -185t26 -185t77.5 -148t135.5 -99.5t194 -35.5t194 35.5t135.5 99.5t77.5 148t26 185t-26 185t-77.5 148t-135.5 99.5t-194 35.5zM559 1536l91 342h269l-149 -342h-211zM903 1536l91 342h269l-149 -342h-211z" />
    <glyph glyph-name="uni020D" unicode="&#x20d;" horiz-adv-x="1332" 
d="M666 -30q-274 0 -440 151t-166 394q0 244 165.5 394.5t440.5 150.5t440.5 -150.5t165.5 -394.5q0 -243 -166 -394t-440 -151zM666 222q134 0 206 81t72 212t-72 212t-206 81t-206 -81t-72 -212t72 -212t206 -81zM399 1174l91 342h269l-149 -342h-211zM743 1174l91 342
h269l-149 -342h-211z" />
    <glyph glyph-name="uni020E" unicode="&#x20e;" horiz-adv-x="1672" 
d="M836 1474q158 0 287.5 -40.5t219 -110.5t151 -166.5t90 -206.5t28.5 -233t-28.5 -233t-90 -206.5t-151 -166.5t-219 -110.5t-287.5 -40.5t-287.5 40.5t-219 110.5t-151 166.5t-90 206.5t-28.5 233t28.5 233t90 206.5t151 166.5t219 110.5t287.5 40.5zM836 1185
q-110 0 -194 -35.5t-135.5 -99.5t-77.5 -148t-26 -185t26 -185t77.5 -148t135.5 -99.5t194 -35.5t194 35.5t135.5 99.5t77.5 148t26 185t-26 185t-77.5 148t-135.5 99.5t-194 35.5zM836 1802q89 0 160 -24.5t114 -65t67.5 -85t32.5 -91.5h-192q-39 98 -182 98t-182 -98h-192
q8 47 32.5 91.5t67.5 85t114 65t160 24.5z" />
    <glyph glyph-name="uni020F" unicode="&#x20f;" horiz-adv-x="1332" 
d="M666 -30q-274 0 -440 151t-166 394q0 244 165.5 394.5t440.5 150.5t440.5 -150.5t165.5 -394.5q0 -243 -166 -394t-440 -151zM666 222q134 0 206 81t72 212t-72 212t-206 81t-206 -81t-72 -212t72 -212t206 -81zM666 1434q89 0 160 -24.5t114 -65t67.5 -85t32.5 -91.5
h-192q-39 98 -182 98t-182 -98h-192q8 47 32.5 91.5t67.5 85t114 65t160 24.5z" />
    <glyph glyph-name="uni0210" unicode="&#x210;" horiz-adv-x="1380" 
d="M433 0h-333v1434h642q142 0 251.5 -38.5t177 -106t101.5 -153.5t34 -187q0 -81 -23 -149.5t-64.5 -118t-90 -84t-108.5 -60.5l300 -537h-357l-276 494h-254v-494zM742 1145h-309v-392h309q121 0 174 54.5t53 141.5t-53 141.5t-174 54.5zM360 1536l91 342h269l-149 -342
h-211zM704 1536l91 342h269l-149 -342h-211z" />
    <glyph glyph-name="uni0211" unicode="&#x211;" horiz-adv-x="958" 
d="M948 1012l-144 -248q-69 44 -166 44q-114 0 -162 -69.5t-48 -204.5v-534h-328v1030h328v-109q91 139 275 139q144 0 245 -48zM226 1174l91 342h269l-149 -342h-211zM570 1174l91 342h269l-149 -342h-211z" />
    <glyph glyph-name="uni0212" unicode="&#x212;" horiz-adv-x="1380" 
d="M433 0h-333v1434h642q142 0 251.5 -38.5t177 -106t101.5 -153.5t34 -187q0 -81 -23 -149.5t-64.5 -118t-90 -84t-108.5 -60.5l300 -537h-357l-276 494h-254v-494zM742 1145h-309v-392h309q121 0 174 54.5t53 141.5t-53 141.5t-174 54.5zM653 1802q89 0 160 -24.5t114 -65
t67.5 -85t32.5 -91.5h-192q-39 98 -182 98t-182 -98h-192q8 47 32.5 91.5t67.5 85t114 65t160 24.5z" />
    <glyph glyph-name="uni0213" unicode="&#x213;" horiz-adv-x="958" 
d="M948 1012l-144 -248q-69 44 -166 44q-114 0 -162 -69.5t-48 -204.5v-534h-328v1030h328v-109q91 139 275 139q144 0 245 -48zM501 1434q89 0 160 -24.5t114 -65t67.5 -85t32.5 -91.5h-192q-39 98 -182 98t-182 -98h-192q8 47 32.5 91.5t67.5 85t114 65t160 24.5z" />
    <glyph glyph-name="uni0214" unicode="&#x214;" horiz-adv-x="1477" 
d="M739 249q90 0 150 25.5t94 79t47.5 124.5t13.5 173v783h333v-783q0 -691 -638 -691q-639 0 -639 691v783h333v-783q0 -102 13.5 -173t47.5 -124.5t94.5 -79t150.5 -25.5zM453 1535l91 342h269l-149 -342h-211zM797 1535l91 342h269l-149 -342h-211z" />
    <glyph glyph-name="uni0215" unicode="&#x215;" 
d="M848 496v534h328v-1030h-328v109q-91 -139 -275 -139q-247 0 -360 135t-113 391v534h328v-534q0 -135 48 -204.5t162 -69.5t162 69.5t48 204.5zM350 1174l91 342h269l-149 -342h-211zM694 1174l91 342h269l-149 -342h-211z" />
    <glyph glyph-name="uni0216" unicode="&#x216;" horiz-adv-x="1477" 
d="M739 249q90 0 150 25.5t94 79t47.5 124.5t13.5 173v783h333v-783q0 -691 -638 -691q-639 0 -639 691v783h333v-783q0 -102 13.5 -173t47.5 -124.5t94.5 -79t150.5 -25.5zM738 1802q89 0 160 -24.5t114 -65t67.5 -85t32.5 -91.5h-192q-39 98 -182 98t-182 -98h-192
q8 47 32.5 91.5t67.5 85t114 65t160 24.5z" />
    <glyph glyph-name="uni0217" unicode="&#x217;" 
d="M848 496v534h328v-1030h-328v109q-91 -139 -275 -139q-247 0 -360 135t-113 391v534h328v-534q0 -135 48 -204.5t162 -69.5t162 69.5t48 204.5zM638 1434q89 0 160 -24.5t114 -65t67.5 -85t32.5 -91.5h-192q-39 98 -182 98t-182 -98h-192q8 47 32.5 91.5t67.5 85t114 65
t160 24.5z" />
    <glyph glyph-name="Scommaaccent" unicode="&#x218;" horiz-adv-x="1296" 
d="M1198 1330l-162 -235q-181 90 -394 90q-109 0 -164 -36t-55 -103q0 -69 65 -109.5t202 -68.5q142 -30 242.5 -68.5t175.5 -94t111.5 -131.5t36.5 -176q0 -218 -163 -328t-451 -110q-380 0 -602 172l162 235q188 -118 440 -118q146 0 211.5 38t65.5 111q0 68 -67 105
t-225 69q-279 59 -410 177.5t-131 296.5q0 68 18 129t59.5 116.5t104.5 95.5t158.5 63.5t215.5 23.5q342 0 556 -144zM343 -532l153 424h299l-191 -424h-261z" />
    <glyph glyph-name="scommaaccent" unicode="&#x219;" horiz-adv-x="1064" 
d="M973 953l-124 -211q-152 66 -312 66q-126 0 -126 -72q0 -35 42 -55t121 -34q111 -22 188 -48t139 -66t92.5 -99t30.5 -138q0 -86 -40 -151t-109.5 -102t-154 -55t-183.5 -18q-327 0 -497 135l124 211q168 -94 373 -94q79 0 119 16t40 58t-37.5 60.5t-138.5 38.5
q-223 42 -330 125t-107 216q0 156 119.5 240t334.5 84q259 0 436 -107zM230 -532l153 424h299l-191 -424h-261z" />
    <glyph glyph-name="uni021A" unicode="&#x21a;" horiz-adv-x="1365" 
d="M40 1434h1285v-289h-476v-1145h-333v1145h-476v289zM379 -532l153 424h299l-191 -424h-261z" />
    <glyph glyph-name="uni021B" unicode="&#x21b;" horiz-adv-x="941" 
d="M40 778v252h194v299h328v-299h290v-252h-290v-350q0 -45 4 -77t16.5 -64t39 -48.5t66.5 -16.5q70 0 143 25l70 -234q-107 -43 -233 -43q-125 0 -209.5 28t-134 88t-70 142t-20.5 200v350h-194zM288 -532l153 424h299l-191 -424h-261z" />
    <glyph glyph-name="uni021C" unicode="&#x21c;" horiz-adv-x="1185" 
d="M180 -212l-29 289q321 6 481 74.5t160 222.5q0 116 -85 154.5t-292 23.5l-21 289q76 10 130 20.5t105 26.5t81.5 36.5t48.5 49.5t18 67q0 56 -44.5 95t-131.5 39q-99 0 -175 -50t-111 -133l-255 149q54 112 143 186.5t187.5 105.5t209.5 31q224 0 367 -109t143 -284
q0 -71 -18 -127t-52.5 -95.5t-73 -66t-91.5 -49.5q123 -35 186.5 -119t63.5 -233q0 -105 -33 -192.5t-87.5 -147.5t-133 -106.5t-160.5 -73.5t-179 -44t-180.5 -23t-171.5 -6z" />
    <glyph glyph-name="uni021D" unicode="&#x21d;" horiz-adv-x="1048" 
d="M129 -291l-24 252q88 7 154 15.5t133 21t112.5 30.5t82 42t54.5 57.5t18 75.5q0 25 -8 43t-20 29.5t-35 18.5t-42.5 10t-54.5 2.5t-59 -1.5t-66 -4q-7 0 -10.5 -0.5t-9 -1t-10.5 -0.5l-16 252q17 3 56 6.5t69 6.5t67 13t62 24t42 40.5t17 62.5q0 40 -30.5 67t-97.5 27
q-70 0 -138 -38.5t-107 -92.5l-208 156q64 97 181 162t271 65q227 0 342 -92t115 -231q0 -94 -51.5 -158t-127.5 -94q87 -27 141 -95.5t56 -162.5q1 -85 -28 -156.5t-78 -122.5t-118 -91.5t-145 -66t-162.5 -42t-166 -23t-160.5 -6.5z" />
    <glyph glyph-name="uni021E" unicode="&#x21e;" horiz-adv-x="1491" 
d="M1058 876v558h333v-1434h-333v587h-625v-587h-333v1434h333v-558h625zM1149 1827l-301 -291h-206l-301 291h248l156 -109l156 109h248z" />
    <glyph glyph-name="uni021F" unicode="&#x21f;" 
d="M428 534v-534h-328v1516h328v-595q91 139 275 139q247 0 360 -135t113 -391v-534h-328v534q0 135 -48 204.5t-162 69.5t-162 -69.5t-48 -204.5zM1043 1827l-301 -291h-206l-301 291h248l156 -109l156 109h248z" />
    <glyph glyph-name="uni0220" unicode="&#x220;" 
d="M428 938v-938h-328v1434h328v-109q91 139 275 139q247 0 360 -135t113 -391v-1470h-328v1470q0 135 -48 204.5t-162 69.5t-162 -69.5t-48 -204.5z" />
    <glyph glyph-name="uni0221" unicode="&#x221;" horiz-adv-x="1467" 
d="M60 515q0 252 146 398.5t380 146.5q117 0 202.5 -45.5t135.5 -120.5v622h328v-1381q38 23 112 23q147 0 235 -66.5t88 -194.5q0 -76 -27 -135t-74.5 -93.5t-106 -52t-126.5 -17.5q-159 0 -244 65q-11 -13 -46 -66q-16 -26 -25 -40l-227 157q21 36 39 65q44 71 86 121
q-12 38 -12 159v76q-49 -75 -135 -120.5t-203 -45.5q-234 0 -380 146.5t-146 398.5zM388 515q0 -130 70.5 -211.5t197.5 -81.5t197.5 81.5t70.5 211.5t-70.5 211.5t-197.5 81.5t-197.5 -81.5t-70.5 -211.5zM1333 -174q30 0 54.5 18.5t24.5 46.5q0 21 -15.5 30.5t-34.5 9.5
q-66 0 -98 -59q2 -20 21.5 -33t47.5 -13z" />
    <glyph glyph-name="uni0222" unicode="&#x222;" horiz-adv-x="1286" 
d="M643 -30q-259 0 -421 131t-162 351q0 115 57 218t162 164q-66 43 -115.5 133.5t-49.5 191.5q0 215 145 389l304 -139q-96 -108 -96 -250q0 -108 46 -166.5t130 -58.5t130 58.5t46 166.5q0 142 -96 250l304 139q145 -174 145 -389q0 -101 -49.5 -191.5t-115.5 -133.5
q105 -61 162 -164t57 -218q0 -146 -74.5 -256t-206.5 -168t-302 -58zM643 259q105 0 167.5 50t62.5 143t-62.5 143t-167.5 50t-167.5 -50t-62.5 -143t62.5 -143t167.5 -50z" />
    <glyph glyph-name="uni0223" unicode="&#x223;" horiz-adv-x="1082" 
d="M541 749q58 0 89 39.5t31 101.5q0 61 -16.5 105t-52.5 88l263 122q69 -58 101.5 -140t32.5 -165q0 -73 -32 -139.5t-90 -114.5q76 -49 115.5 -123.5t39.5 -158.5t-27.5 -150.5t-73.5 -109.5t-109.5 -71.5t-130 -40.5t-140.5 -12t-140.5 12t-130 40.5t-109.5 71.5
t-73.5 109.5t-27.5 150.5t39.5 158.5t115.5 123.5q-58 48 -90 114.5t-32 139.5q0 83 32.5 165t101.5 140l263 -122q-36 -44 -52.5 -88t-16.5 -105q0 -62 31 -101.5t89 -39.5zM541 496q-69 0 -111 -34.5t-42 -97.5t42 -97.5t111 -34.5t111 34.5t42 97.5t-42 97.5t-111 34.5z
" />
    <glyph glyph-name="uni0224" unicode="&#x224;" horiz-adv-x="1363" 
d="M555 289h676v-289q-36 -10 -65 -30q-65 -45 -65 -111q0 -68 91 -96q42 -13 91 -14v-247q-57 0 -110 6.5t-111.5 26t-101 49.5t-70.5 81.5t-28 117.5q0 23 4 44.5t10.5 39t15.5 33t19 27.5t21 23t21 18t20 13.5t16.5 10t12.5 6.5l5 2h-927v176l677 969h-637v289h1111v-176
z" />
    <glyph glyph-name="uni0225" unicode="&#x225;" horiz-adv-x="1137" 
d="M1005 252v-252q-36 -10 -65 -30q-65 -45 -65 -111q0 -68 91 -96q42 -13 91 -14v-247q-57 0 -110 6.5t-111.5 26t-101 49.5t-70.5 81.5t-28 117.5q0 23 4 44.5t10.5 39t15.5 33t19 27.5t21 23t21 18t20 13.5t16.5 10t12.5 6.5l5 2h-701v149l496 629h-467v252h896v-150
l-496 -628h496z" />
    <glyph glyph-name="uni0226" unicode="&#x226;" horiz-adv-x="1536" 
d="M479 281l-110 -281h-359l593 1434h330l593 -1434h-359l-110 281h-578zM768 1014l-179 -454h358zM596 1708q0 71 50.5 121.5t121.5 50.5t121.5 -50.5t50.5 -121.5t-50.5 -121.5t-121.5 -50.5t-121.5 50.5t-50.5 121.5z" />
    <glyph glyph-name="uni0227" unicode="&#x227;" horiz-adv-x="1194" 
d="M60 319q0 77 28.5 138.5t78 101t117 67.5t146 38t164.5 13t172 -7q0 38 -6 62.5t-24.5 45.5t-56 30.5t-96.5 9.5q-174 0 -328 -65l-109 210q99 50 222 73.5t235 23.5q143 0 239 -26.5t151.5 -82t78 -131t22.5 -185.5v-635h-329v135q-72 -159 -310 -159q-80 0 -149.5 20
t-125.5 60t-88 107.5t-32 155.5zM388 349q0 -56 36 -88.5t111 -32.5q106 0 168 50t62 121v89q-38 1 -85.5 3t-99 -6t-94.5 -21.5t-70.5 -43t-27.5 -71.5zM463 1334q0 71 50.5 121.5t121.5 50.5t121.5 -50.5t50.5 -121.5t-50.5 -121.5t-121.5 -50.5t-121.5 50.5t-50.5 121.5z
" />
    <glyph glyph-name="uni0228" unicode="&#x228;" horiz-adv-x="1256" 
d="M402 -497l53 127q30 -13 73.5 -21.5t89.5 -8.5t80.5 21t38.5 63q3 22 -8 37.5t-34 22t-48 9.5t-60 0.5t-60.5 -5.5t-57.5 -8l83 260h-452v1434h1066v-289h-733v-269h690v-289h-690v-298h743v-289h-435l-40 -125q47 -1 87.5 -14t72 -36.5t47.5 -61.5t12 -86
q-6 -74 -46 -124.5t-98.5 -71.5t-127.5 -24t-132.5 9.5t-113.5 36.5z" />
    <glyph glyph-name="uni0229" unicode="&#x229;" horiz-adv-x="1246" 
d="M383 -497l53 127q30 -13 73.5 -21.5t89.5 -8.5t80.5 21t38.5 63q3 22 -8 37.5t-34 22t-48 9.5t-60 0.5t-60.5 -5.5t-57.5 -8l76 236q-98 12 -177 47t-132.5 86t-89 117.5t-51.5 138t-16 150.5q0 87 20 165.5t65 148t110 121t161.5 81t213.5 29.5q292 0 436 -176t114 -490
h-779q0 -35 11.5 -66t36.5 -58t71 -42.5t110 -15.5q197 0 329 94l162 -184q-157 -129 -408 -149l-31 -98q47 -1 87.5 -14t72 -36.5t47.5 -61.5t12 -86q-6 -74 -46 -124.5t-98.5 -71.5t-127.5 -24t-132.5 9.5t-113.5 36.5zM402 606h456q0 37 -11 71.5t-35.5 67.5t-71 53
t-110.5 20t-110.5 -20t-71 -53t-35.5 -67.5t-11 -71.5z" />
    <glyph glyph-name="uni022A" unicode="&#x22a;" horiz-adv-x="1672" 
d="M836 1474q158 0 287.5 -40.5t219 -110.5t151 -166.5t90 -206.5t28.5 -233t-28.5 -233t-90 -206.5t-151 -166.5t-219 -110.5t-287.5 -40.5t-287.5 40.5t-219 110.5t-151 166.5t-90 206.5t-28.5 233t28.5 233t90 206.5t151 166.5t219 110.5t287.5 40.5zM836 1185
q-110 0 -194 -35.5t-135.5 -99.5t-77.5 -148t-26 -185t26 -185t77.5 -148t135.5 -99.5t194 -35.5t194 35.5t135.5 99.5t77.5 148t26 185t-26 185t-77.5 148t-135.5 99.5t-194 35.5zM426 1708q0 71 50.5 121.5t121.5 50.5t121.5 -50.5t50.5 -121.5t-50.5 -121.5t-121.5 -50.5
t-121.5 50.5t-50.5 121.5zM903 1708q0 71 50.5 121.5t121.5 50.5t121.5 -50.5t50.5 -121.5t-50.5 -121.5t-121.5 -50.5t-121.5 50.5t-50.5 121.5zM399 1940v252h874v-252h-874z" />
    <glyph glyph-name="uni022B" unicode="&#x22b;" horiz-adv-x="1332" 
d="M666 -30q-274 0 -440 151t-166 394q0 244 165.5 394.5t440.5 150.5t440.5 -150.5t165.5 -394.5q0 -243 -166 -394t-440 -151zM666 222q134 0 206 81t72 212t-72 212t-206 81t-206 -81t-72 -212t72 -212t206 -81zM256 1334q0 71 50.5 121.5t121.5 50.5t121.5 -50.5
t50.5 -121.5t-50.5 -121.5t-121.5 -50.5t-121.5 50.5t-50.5 121.5zM733 1334q0 71 50.5 121.5t121.5 50.5t121.5 -50.5t50.5 -121.5t-50.5 -121.5t-121.5 -50.5t-121.5 50.5t-50.5 121.5zM229 1566v252h874v-252h-874z" />
    <glyph glyph-name="uni022C" unicode="&#x22c;" horiz-adv-x="1672" 
d="M836 1474q158 0 287.5 -40.5t219 -110.5t151 -166.5t90 -206.5t28.5 -233t-28.5 -233t-90 -206.5t-151 -166.5t-219 -110.5t-287.5 -40.5t-287.5 40.5t-219 110.5t-151 166.5t-90 206.5t-28.5 233t28.5 233t90 206.5t151 166.5t219 110.5t287.5 40.5zM836 1185
q-110 0 -194 -35.5t-135.5 -99.5t-77.5 -148t-26 -185t26 -185t77.5 -148t135.5 -99.5t194 -35.5t194 35.5t135.5 99.5t77.5 148t26 185t-26 185t-77.5 148t-135.5 99.5t-194 35.5zM808 1590q-54 46 -93 46q-36 0 -54 -39q-8 -20 -11 -39h-205q5 78 33 139q65 140 232 140
q87 0 155 -54q54 -46 93 -46q36 0 54 39q8 18 11 39h205q-4 -76 -34 -140q-64 -139 -231 -139q-87 0 -155 54zM399 1877v252h874v-252h-874z" />
    <glyph glyph-name="uni022D" unicode="&#x22d;" horiz-adv-x="1332" 
d="M666 -30q-274 0 -440 151t-166 394q0 244 165.5 394.5t440.5 150.5t440.5 -150.5t165.5 -394.5q0 -243 -166 -394t-440 -151zM666 222q134 0 206 81t72 212t-72 212t-206 81t-206 -81t-72 -212t72 -212t206 -81zM638 1207q-54 46 -93 46q-36 0 -54 -39q-8 -20 -11 -39
h-205q5 78 33 139q65 140 232 140q87 0 155 -54q54 -46 93 -46q36 0 54 39q8 18 11 39h205q-4 -76 -34 -140q-64 -139 -231 -139q-87 0 -155 54zM229 1494v252h874v-252h-874z" />
    <glyph glyph-name="uni022E" unicode="&#x22e;" horiz-adv-x="1672" 
d="M836 1474q158 0 287.5 -40.5t219 -110.5t151 -166.5t90 -206.5t28.5 -233t-28.5 -233t-90 -206.5t-151 -166.5t-219 -110.5t-287.5 -40.5t-287.5 40.5t-219 110.5t-151 166.5t-90 206.5t-28.5 233t28.5 233t90 206.5t151 166.5t219 110.5t287.5 40.5zM836 1185
q-110 0 -194 -35.5t-135.5 -99.5t-77.5 -148t-26 -185t26 -185t77.5 -148t135.5 -99.5t194 -35.5t194 35.5t135.5 99.5t77.5 148t26 185t-26 185t-77.5 148t-135.5 99.5t-194 35.5zM663 1708q0 71 50.5 121.5t121.5 50.5t121.5 -50.5t50.5 -121.5t-50.5 -121.5t-121.5 -50.5
t-121.5 50.5t-50.5 121.5z" />
    <glyph glyph-name="uni022F" unicode="&#x22f;" horiz-adv-x="1332" 
d="M666 -30q-274 0 -440 151t-166 394q0 244 165.5 394.5t440.5 150.5t440.5 -150.5t165.5 -394.5q0 -243 -166 -394t-440 -151zM666 222q134 0 206 81t72 212t-72 212t-206 81t-206 -81t-72 -212t72 -212t206 -81zM494 1334q0 71 50.5 121.5t121.5 50.5t121.5 -50.5
t50.5 -121.5t-50.5 -121.5t-121.5 -50.5t-121.5 50.5t-50.5 121.5z" />
    <glyph glyph-name="uni0230" unicode="&#x230;" horiz-adv-x="1672" 
d="M836 1474q158 0 287.5 -40.5t219 -110.5t151 -166.5t90 -206.5t28.5 -233t-28.5 -233t-90 -206.5t-151 -166.5t-219 -110.5t-287.5 -40.5t-287.5 40.5t-219 110.5t-151 166.5t-90 206.5t-28.5 233t28.5 233t90 206.5t151 166.5t219 110.5t287.5 40.5zM836 1185
q-110 0 -194 -35.5t-135.5 -99.5t-77.5 -148t-26 -185t26 -185t77.5 -148t135.5 -99.5t194 -35.5t194 35.5t135.5 99.5t77.5 148t26 185t-26 185t-77.5 148t-135.5 99.5t-194 35.5zM665 1708q0 71 50.5 121.5t121.5 50.5t121.5 -50.5t50.5 -121.5t-50.5 -121.5t-121.5 -50.5
t-121.5 50.5t-50.5 121.5zM400 1940v252h874v-252h-874z" />
    <glyph glyph-name="uni0231" unicode="&#x231;" horiz-adv-x="1332" 
d="M666 -30q-274 0 -440 151t-166 394q0 244 165.5 394.5t440.5 150.5t440.5 -150.5t165.5 -394.5q0 -243 -166 -394t-440 -151zM666 222q134 0 206 81t72 212t-72 212t-206 81t-206 -81t-72 -212t72 -212t206 -81zM494 1334q0 71 50.5 121.5t121.5 50.5t121.5 -50.5
t50.5 -121.5t-50.5 -121.5t-121.5 -50.5t-121.5 50.5t-50.5 121.5zM229 1566v252h874v-252h-874z" />
    <glyph glyph-name="uni0232" unicode="&#x232;" horiz-adv-x="1464" 
d="M392 1434l340 -542l340 542h382l-555 -858v-576h-334v576l-555 858h382zM295 1556v252h874v-252h-874z" />
    <glyph glyph-name="uni0233" unicode="&#x233;" horiz-adv-x="1196" 
d="M352 1030l246 -672l246 672h342l-441 -1030l-123 -289q-25 -57 -52 -97.5t-67 -75.5t-96.5 -52.5t-130.5 -17.5q-143 0 -237 50l101 223q58 -21 112 -21q43 0 72 27.5t54 86.5l73 166l-441 1030h342zM161 1182v252h874v-252h-874z" />
    <glyph glyph-name="uni0234" unicode="&#x234;" horiz-adv-x="986" 
d="M213 1516h328v-1010q38 23 112 23q147 0 235 -66.5t88 -194.5q0 -76 -27 -135t-74.5 -93.5t-106 -52t-126.5 -17.5q-159 0 -244 65q-11 -13 -46 -66q-16 -26 -25 -40l-227 157q21 36 39 65q44 71 86 121q-12 38 -12 159v1085zM622 197q30 0 54.5 18.5t24.5 46.5
q0 21 -15.5 30.5t-34.5 9.5q-66 0 -98 -59q2 -20 21.5 -33t47.5 -13z" />
    <glyph glyph-name="uni0235" unicode="&#x235;" horiz-adv-x="1371" 
d="M428 534v-534h-328v1030h328v-109q91 139 275 139q247 0 360 -135t113 -391v-399q38 23 112 23q147 0 235 -66.5t88 -194.5q0 -76 -27 -135t-74.5 -93.5t-106 -52t-126.5 -17.5q-159 0 -244 65q-11 -13 -46 -66q-16 -26 -25 -40l-227 157q21 36 39 65q44 71 86 121
q-12 38 -12 159v474q0 135 -48 204.5t-162 69.5t-162 -69.5t-48 -204.5zM1257 -174q30 0 54.5 18.5t24.5 46.5q0 21 -15.5 30.5t-34.5 9.5q-66 0 -98 -59q2 -20 21.5 -33t47.5 -13z" />
    <glyph glyph-name="uni0236" unicode="&#x236;" horiz-adv-x="1037" 
d="M234 431v347h-194v252h194v299h328v-299h290v-252h-290v-272q38 23 112 23q147 0 235 -66.5t88 -194.5q0 -76 -27 -135t-74.5 -93.5t-106 -52t-126.5 -17.5q-159 0 -244 65q-11 -13 -46 -66q-16 -26 -25 -40l-227 157q21 36 39 65q44 71 86 121q-12 38 -12 159zM643 197
q30 0 54.5 18.5t24.5 46.5q0 21 -15.5 30.5t-34.5 9.5q-66 0 -98 -59q2 -20 21.5 -33t47.5 -13z" />
    <glyph glyph-name="uni0237" unicode="&#x237;" horiz-adv-x="552" 
d="M-200 -488l82 229q58 -21 119 -21q30 0 52 9.5t35 29t20.5 37.5t11 48.5t4 47.5t0.5 48v1090h328v-1090q0 -118 -22 -203t-71.5 -146.5t-133.5 -92t-204 -30.5q-139 0 -221 44z" />
    <glyph glyph-name="uni0238" unicode="&#x238;" horiz-adv-x="2176" 
d="M2116 515q0 -252 -146 -398.5t-380 -146.5q-117 0 -203 45.5t-135 120.5v-136h-328v136q-49 -75 -135 -120.5t-203 -45.5q-234 0 -380 146.5t-146 398.5t146 398.5t380 146.5q117 0 202.5 -45.5t135.5 -120.5v622h328v-622q50 75 135.5 120.5t202.5 45.5
q234 0 380 -146.5t146 -398.5zM388 515q0 -130 70.5 -211.5t197.5 -81.5t197.5 81.5t70.5 211.5t-70.5 211.5t-197.5 81.5t-197.5 -81.5t-70.5 -211.5zM1788 515q0 130 -70.5 211.5t-197.5 81.5t-197.5 -81.5t-70.5 -211.5t70.5 -211.5t197.5 -81.5t197.5 81.5t70.5 211.5z
" />
    <glyph glyph-name="uni0239" unicode="&#x239;" horiz-adv-x="2176" 
d="M2116 515q0 -252 -146 -398.5t-380 -146.5q-117 0 -203 45.5t-135 120.5v-668h-328v668q-49 -75 -135 -120.5t-203 -45.5q-234 0 -380 146.5t-146 398.5t146 398.5t380 146.5q117 0 202.5 -45.5t135.5 -120.5v136h328v-136q50 75 135.5 120.5t202.5 45.5
q234 0 380 -146.5t146 -398.5zM388 515q0 -130 70.5 -211.5t197.5 -81.5t197.5 81.5t70.5 211.5t-70.5 211.5t-197.5 81.5t-197.5 -81.5t-70.5 -211.5zM1788 515q0 130 -70.5 211.5t-197.5 81.5t-197.5 -81.5t-70.5 -211.5t70.5 -211.5t197.5 -81.5t197.5 81.5t70.5 211.5z
" />
    <glyph glyph-name="uni023A" unicode="&#x23a;" horiz-adv-x="1536" 
d="M479 281l-110 -281h-359l593 1434h330l14 -35l103 256h305l-253 -630l424 -1025h-359l-110 281h-253l-210 -523h-305l210 523h-20zM768 1014l-179 -454h22l169 422zM916 560h31l-16 39z" />
    <glyph glyph-name="uni023B" unicode="&#x23b;" horiz-adv-x="1457" 
d="M60 717q0 123 28.5 233t90 206.5t151 166.5t219 110.5t287.5 40.5q28 0 78 -2l74 183h305l-95 -235q121 -45 219 -129l-165 -226q-77 53 -163 82l-357 -889q48 -9 104 -9q245 0 416 120l165 -226q-110 -94 -245 -138.5t-336 -44.5q-117 0 -215 22l-89 -224h-305l133 331
q-149 101 -224.5 266t-75.5 362zM403 717q0 -192 85 -309l311 776q-101 -6 -178 -44t-124 -101t-70.5 -144t-23.5 -178z" />
    <glyph glyph-name="uni023C" unicode="&#x23c;" horiz-adv-x="1153" 
d="M708 1059l44 109h289l-67 -169q79 -39 139 -103l-157 -191q-35 28 -78 52l-213 -535h1q166 0 290 103l157 -191q-151 -164 -447 -164q-51 0 -99 6l-52 -131h-289l85 213q-121 72 -186 189t-65 268q0 244 165.5 394.5t440.5 150.5q8 0 21 -0.5t21 -0.5zM388 515
q0 -95 39 -165l180 453q-103 -18 -161 -94t-58 -194z" />
    <glyph glyph-name="uni023D" unicode="&#x23d;" horiz-adv-x="1361" 
d="M603 619v-330h698v-289h-1031v619h-290v289h290v526h333v-526h290v-289h-290z" />
    <glyph glyph-name="uni023E" unicode="&#x23e;" horiz-adv-x="1335" 
d="M1151 1434h174v-289h-290l-186 -465v-680h-273l-97 -242h-305l342 852v535h-476v289h806l89 221h305z" />
    <glyph glyph-name="uni023F" unicode="&#x23f;" horiz-adv-x="1068" 
d="M977 953l-124 -211q-152 66 -312 66q-126 0 -126 -72q0 -35 42 -55t121 -34q111 -22 188 -48t139 -66t92.5 -99t30.5 -138q0 -86 -40 -151t-109.5 -102t-154 -55t-183.5 -18q-127 0 -233 21q9 -93 65 -150.5t162 -57.5q177 0 301 129l185 -177q-80 -95 -203.5 -151
t-282.5 -56q-137 1 -239.5 48t-159.5 127.5t-80.5 182.5t-11.5 219l124 211q168 -94 373 -94q79 0 119 16t40 58t-37.5 60.5t-138.5 38.5q-223 42 -330 125t-107 216q0 156 119.5 240t334.5 84q259 0 436 -107z" />
    <glyph glyph-name="uni0240" unicode="&#x240;" horiz-adv-x="1142" 
d="M80 0v149l496 629h-467v252h896v-150l-496 -628h496v-252h-656q9 -97 64 -157t163 -60q177 0 301 129l185 -176q-80 -95 -204 -151.5t-282 -56.5q-162 1 -274 64t-165 166.5t-57 241.5z" />
    <glyph glyph-name="uni0241" unicode="&#x241;" horiz-adv-x="1198" 
d="M327 1038l-267 145q30 57 74 105.5t107.5 92t154 68.5t197.5 25q135 0 241 -34t171.5 -94t99 -138t33.5 -170q0 -50 -11 -97.5t-39.5 -97.5t-72 -89.5t-115.5 -70.5t-163 -44v-639h-333v834q186 2 293.5 55t107.5 149q0 73 -50.5 110t-161.5 37q-95 0 -156 -38.5
t-110 -108.5z" />
    <glyph glyph-name="uni0242" unicode="&#x242;" horiz-adv-x="1198" 
d="M327 624l-267 145q30 57 74 105.5t107.5 92t154 68.5t197.5 25q135 0 241 -34t171.5 -94t99 -138t33.5 -170q0 -50 -11 -97.5t-39.5 -97.5t-72 -89.5t-115.5 -70.5t-163 -44v-757h-333v952q186 2 293.5 55t107.5 149q0 73 -50.5 110t-161.5 37q-95 0 -156 -38.5
t-110 -108.5z" />
    <glyph glyph-name="uni0243" unicode="&#x243;" horiz-adv-x="1522" 
d="M-20 323v238h210v873h677q544 0 544 -383q0 -109 -70 -190t-175 -102q142 -30 219 -115.5t77 -213.5q0 -65 -16 -123t-57.5 -115.5t-105 -99t-166.5 -67t-234 -25.5h-693v323h-210zM523 871h352q200 0 200 142t-200 142h-352v-284zM523 278h352q139 0 193 39t54 123
q0 85 -54 123.5t-193 38.5h-352v-41h210v-238h-210v-45z" />
    <glyph glyph-name="uni0244" unicode="&#x244;" horiz-adv-x="1755" 
d="M40 646v289h199v499h333v-499h611v499h333v-499h199v-289h-199q-5 -686 -638 -686q-168 0 -292 48t-199.5 139t-111.5 215t-36 284h-199zM878 249q172 0 238.5 96.5t66.5 300.5h-611q0 -101 14 -171t48 -122.5t94.5 -78t149.5 -25.5z" />
    <glyph glyph-name="uni0245" unicode="&#x245;" horiz-adv-x="1536" 
d="M1167 0l-399 1014l-399 -1014h-359l593 1434h330l593 -1434h-359z" />
    <glyph glyph-name="uni0246" unicode="&#x246;" horiz-adv-x="1280" 
d="M887 876h236v-289h-352l-119 -298h524v-289h-640l-97 -242h-305l97 242h-131v1434h706l89 221h305l-89 -221h55v-289h-171zM433 1145v-269h149l108 269h-257zM433 587v-84l33 84h-33z" />
    <glyph glyph-name="uni0247" unicode="&#x247;" horiz-adv-x="1245" 
d="M959 306l162 -184q-189 -152 -491 -152q-34 0 -66 3l-50 -128h-289l79 200q-123 70 -183.5 194.5t-60.5 275.5q0 87 20 165.5t65 148t110 121t161.5 81t213.5 29.5q44 0 76 -4l45 112h289l-77 -193q126 -81 181.5 -228t35.5 -353h-448l-72 -181q164 6 299 93zM402 606
h125l84 211q-58 -3 -101 -23.5t-65.5 -53t-32.5 -65.5t-10 -69zM414 321l29 73h-42q0 -41 13 -73zM816 606h42q0 36 -12 75z" />
    <glyph glyph-name="uni0248" unicode="&#x248;" horiz-adv-x="1440" 
d="M40 176l238 167q40 -47 83 -70.5t109 -23.5q85 0 118 57.5t33 173.5v211h-250v289h250v165h-476v289h1285v-289h-476v-165h250v-289h-250v-211q0 -135 -34.5 -236t-99.5 -162.5t-152.5 -91.5t-197.5 -30q-154 0 -256 49t-174 167z" />
    <glyph glyph-name="uni0249" unicode="&#x249;" horiz-adv-x="746" 
d="M-100 -488l82 229q58 -21 119 -21q30 0 52 9.5t35 29t20.5 37.5t11 48.5t4 47.5t0.5 48v589h-214v252h214v249h328v-249h214v-252h-214v-589q0 -118 -22 -203t-71.5 -146.5t-133.5 -92t-204 -30.5q-139 0 -221 44zM216 1334q0 71 50.5 121.5t121.5 50.5t121.5 -50.5
t50.5 -121.5t-50.5 -121.5t-121.5 -50.5t-121.5 50.5t-50.5 121.5z" />
    <glyph glyph-name="uni024A" unicode="&#x24a;" horiz-adv-x="1736" 
d="M836 1474q158 0 287.5 -40.5t219 -110.5t151 -166.5t90 -206.5t28.5 -233v-637q0 -31 0.5 -48t4 -47.5t11 -48.5t20.5 -37.5t35 -29t52 -9.5q61 0 119 21l82 -229q-82 -44 -221 -44q-233 0 -331 114.5t-100 348.5q-183 -111 -448 -111q-158 0 -287.5 40.5t-219 110.5
t-151 166.5t-90 206.5t-28.5 233t28.5 233t90 206.5t151 166.5t219 110.5t287.5 40.5zM836 1185q-110 0 -194 -35.5t-135.5 -99.5t-77.5 -148t-26 -185t26 -185t77.5 -148t135.5 -99.5t194 -35.5t194 35.5t135.5 99.5t77.5 148t26 185t-26 185t-77.5 148t-135.5 99.5
t-194 35.5z" />
    <glyph glyph-name="uni024B" unicode="&#x24b;" horiz-adv-x="1376" 
d="M924 1030h328v-1090q0 -31 0.5 -48t4 -47.5t11 -48.5t20.5 -37.5t35 -29t52 -9.5q61 0 119 21l82 -229q-82 -44 -221 -44q-120 0 -204 30.5t-133.5 92t-71.5 146.5t-22 203v196q-49 -75 -135 -120.5t-203 -45.5q-234 0 -380 146.5t-146 398.5t146 398.5t380 146.5
q117 0 202.5 -45.5t135.5 -120.5v136zM388 515q0 -130 70.5 -211.5t197.5 -81.5t197.5 81.5t70.5 211.5t-70.5 211.5t-197.5 81.5t-197.5 -81.5t-70.5 -211.5z" />
    <glyph glyph-name="uni024C" unicode="&#x24c;" horiz-adv-x="1510" 
d="M-20 494v259h250v681h642q142 0 251.5 -38.5t177 -106t101.5 -153.5t34 -187q0 -81 -23 -149.5t-64.5 -118t-90 -84t-108.5 -60.5l300 -537h-357l-276 494h-254v-494h-333v494h-250zM872 1145h-309v-392h309q121 0 174 54.5t53 141.5t-53 141.5t-174 54.5z" />
    <glyph glyph-name="uni024D" unicode="&#x24d;" horiz-adv-x="1075" 
d="M-20 330v252h237v448h328v-109q91 139 275 139q144 0 245 -48l-144 -248q-69 44 -166 44q-104 0 -152 -57t-57 -169h237v-252h-238v-330h-328v330h-237z" />
    <glyph glyph-name="uni024E" unicode="&#x24e;" horiz-adv-x="1464" 
d="M68 966v249h83l-141 219h382l137 -219h405l138 219h382l-142 -219h84v-249h-245l-252 -390v-576h-334v576l-253 390h-244zM685 966l47 -74l46 74h-93z" />
    <glyph glyph-name="uni024F" unicode="&#x24f;" horiz-adv-x="1312" 
d="M10 437v252h204l-146 341h342l125 -341h242l125 341h342l-146 -341h204v-252h-312l-187 -437l-123 -289q-25 -57 -52 -97.5t-67 -75.5t-96.5 -52.5t-130.5 -17.5q-143 0 -237 50l101 223q58 -21 112 -21q43 0 72 27.5t54 86.5l73 166l-187 437h-312zM627 437l29 -79
l29 79h-58z" />
    <glyph glyph-name="uni0250" unicode="&#x250;" horiz-adv-x="1194" 
d="M1134 711q0 -77 -28.5 -138.5t-78 -101t-117 -67.5t-146 -38t-164.5 -13t-172 7q0 -38 6 -62.5t24.5 -45.5t56 -30.5t96.5 -9.5q174 0 328 65l109 -210q-99 -50 -222 -73.5t-235 -23.5q-143 0 -239 26.5t-151.5 82t-78 131t-22.5 185.5v635h329v-135q71 159 310 159
q80 0 149.5 -20t125.5 -60t88 -107.5t32 -155.5zM806 681q0 56 -36 88.5t-111 32.5q-106 0 -168 -50t-62 -121v-89q38 -2 85.5 -4t99 6.5t94.5 22.5t70.5 43.5t27.5 70.5z" />
    <glyph glyph-name="uni0251" unicode="&#x251;" horiz-adv-x="1352" 
d="M924 1030h328v-1030h-328v136q-49 -75 -135 -120.5t-203 -45.5q-234 0 -380 146.5t-146 398.5t146 398.5t380 146.5q117 0 202.5 -45.5t135.5 -120.5v136zM388 515q0 -130 70.5 -211.5t197.5 -81.5t197.5 81.5t70.5 211.5t-70.5 211.5t-197.5 81.5t-197.5 -81.5
t-70.5 -211.5z" />
    <glyph glyph-name="uni0252" unicode="&#x252;" horiz-adv-x="1352" 
d="M100 1030h328v-136q50 75 135.5 120.5t202.5 45.5q234 0 380 -146.5t146 -398.5t-146 -398.5t-380 -146.5q-117 0 -203 45.5t-135 120.5v-136h-328v1030zM964 515q0 130 -70.5 211.5t-197.5 81.5t-197.5 -81.5t-70.5 -211.5t70.5 -211.5t197.5 -81.5t197.5 81.5
t70.5 211.5z" />
    <glyph glyph-name="uni0253" unicode="&#x253;" horiz-adv-x="1352" 
d="M100 0v1074q0 118 22 203t71.5 146.5t133.5 92t204 30.5q139 0 221 -44l-82 -229q-58 21 -119 21q-30 0 -52 -9.5t-35 -29t-20.5 -37.5t-11 -48.5t-4 -47.5t-0.5 -48v-180q50 75 135.5 120.5t202.5 45.5q234 0 380 -146.5t146 -398.5t-146 -398.5t-380 -146.5
q-117 0 -203 45.5t-135 120.5v-136h-328zM964 515q0 130 -70.5 211.5t-197.5 81.5t-197.5 -81.5t-70.5 -211.5t70.5 -211.5t197.5 -81.5t197.5 81.5t70.5 211.5z" />
    <glyph glyph-name="uni0254" unicode="&#x254;" horiz-adv-x="1153" 
d="M765 515q0 135 -74.5 214t-203.5 79q-166 0 -290 -103l-157 191q151 164 447 164q275 0 440.5 -150.5t165.5 -394.5t-165.5 -394.5t-440.5 -150.5q-296 0 -447 164l157 191q124 -103 290 -103q129 0 203.5 79t74.5 214z" />
    <glyph glyph-name="uni0255" unicode="&#x255;" horiz-adv-x="1215" 
d="M388 515q0 -182 126 -255q-17 51 -17 115q0 149 93.5 236.5t248.5 87.5q59 0 116 -19t105.5 -55.5t78 -96.5t29.5 -134q0 -62 -16 -116t-42.5 -92.5t-54 -65.5t-59.5 -47q48 -34 119 -73q51 -27 60 -31l-169 -191q-40 21 -103 59q-111 66 -190 135q-129 -11 -247 22
t-208.5 102t-144 178t-53.5 241q0 244 165.5 394.5t440.5 150.5q296 0 447 -164l-157 -191q-124 103 -290 103q-129 0 -203.5 -79t-74.5 -214zM912 394q0 40 -19 63.5t-56 23.5q-39 0 -59.5 -29.5t-20.5 -76.5q0 -36 13 -71t34 -56q46 19 77 55.5t31 90.5z" />
    <glyph glyph-name="uni0256" unicode="&#x256;" horiz-adv-x="1356" 
d="M924 1516h328v-1576q0 -31 0.5 -48t4 -47.5t11 -48.5t20.5 -37.5t35 -29t52 -9.5q61 0 119 21l82 -229q-82 -44 -221 -44q-120 0 -204 30.5t-133.5 92t-71.5 146.5t-22 203v196q-49 -75 -135 -120.5t-203 -45.5q-234 0 -380 146.5t-146 398.5t146 398.5t380 146.5
q117 0 202.5 -45.5t135.5 -120.5v622zM388 515q0 -130 70.5 -211.5t197.5 -81.5t197.5 81.5t70.5 211.5t-70.5 211.5t-197.5 81.5t-197.5 -81.5t-70.5 -211.5z" />
    <glyph glyph-name="uni0257" unicode="&#x257;" horiz-adv-x="1406" 
d="M924 894v180q0 118 22 203t71.5 146.5t133.5 92t204 30.5q139 0 221 -44l-82 -229q-58 21 -119 21q-30 0 -52 -9.5t-35 -29t-20.5 -37.5t-11 -48.5t-4 -47.5t-0.5 -48v-1074h-328v136q-49 -75 -135 -120.5t-203 -45.5q-234 0 -380 146.5t-146 398.5t146 398.5t380 146.5
q117 0 202.5 -45.5t135.5 -120.5zM388 515q0 -130 70.5 -211.5t197.5 -81.5t197.5 81.5t70.5 211.5t-70.5 211.5t-197.5 81.5t-197.5 -81.5t-70.5 -211.5z" />
    <glyph glyph-name="uni0258" unicode="&#x258;" horiz-adv-x="1246" 
d="M125 122l162 184q132 -94 329 -94q64 0 110 15.5t71 42.5t36.5 58t11.5 66h-779q-30 314 114 490t436 176q117 0 213.5 -29.5t161.5 -81t110 -121t65 -148t20 -165.5t-19 -165t-63 -148t-108.5 -121t-162 -81t-217.5 -30q-302 0 -491 152zM388 606h456q0 37 -11 71.5
t-35.5 67.5t-71 53t-110.5 20t-110.5 -20t-71 -53t-35.5 -67.5t-11 -71.5z" />
    <glyph glyph-name="uni0259" unicode="&#x259;" horiz-adv-x="1246" 
d="M287 724l-162 184q189 152 491 152q149 0 262 -45t178.5 -122.5t97.5 -172.5t32 -205t-33.5 -205.5t-99.5 -172.5t-178.5 -122t-258.5 -45q-292 0 -436 176t-114 490h779q0 35 -11.5 66t-36.5 58t-71 42.5t-110 15.5q-187 0 -329 -94zM844 424h-456q0 -37 11 -71.5
t35.5 -67.5t71 -53t110.5 -20t110.5 20t71 53t35.5 67.5t11 71.5z" />
    <glyph glyph-name="uni025A" unicode="&#x25a;" horiz-adv-x="1573" 
d="M571 818q-177 0 -299 -104l-174 171q161 175 473 175q207 0 340.5 -86.5t194.5 -229.5l369 60q-2 -7 -9 -27q-18 -49 -26 -80t-11 -79t31 -67t103 -7v-272q-106 -5 -183 20q-78 23 -126.5 79.5t-40.5 155.5l-62 -10v-2q0 -105 -33 -200.5t-97.5 -173.5t-173 -124.5
t-246.5 -46.5q-261 0 -404.5 153.5t-135.5 452.5l749 120q-5 17 -19 35.5t-40.5 39t-73.5 34t-106 13.5zM840 467l-457 -73q0 -25 11 -54t34.5 -59t68.5 -49.5t104 -19.5q67 0 116 24t74.5 63.5t37 81t11.5 86.5z" />
    <glyph glyph-name="uni025B" unicode="&#x25b;" horiz-adv-x="1086" 
d="M848 295l178 -186q-153 -139 -455 -139q-511 0 -511 330q0 76 49.5 137.5t124.5 86.5q-71 30 -108 90.5t-37 122.5q0 88 40 153t110.5 101t152.5 52.5t179 16.5q133 0 242.5 -38t182.5 -101l-178 -186q-97 73 -247 73q-152 0 -152 -81q0 -29 12.5 -45t51.5 -26
t95.5 -12.5t160.5 -2.5v-252q-205 0 -277 -14.5t-72 -64.5q0 -47 42.5 -67.5t138.5 -20.5q164 0 277 73z" />
    <glyph glyph-name="uni025C" unicode="&#x25c;" horiz-adv-x="1086" 
d="M60 109l178 186q113 -73 277 -73q96 0 138.5 20.5t42.5 67.5q0 50 -72 64.5t-277 14.5v252q104 0 160.5 2.5t95.5 12.5t51.5 26t12.5 45q0 81 -152 81q-150 0 -247 -73l-178 186q73 63 182.5 101t242.5 38q97 0 179 -16.5t152.5 -52.5t110.5 -101t40 -153
q0 -62 -37 -122.5t-108 -90.5q75 -25 124.5 -86.5t49.5 -137.5q0 -330 -511 -330q-302 0 -455 139z" />
    <glyph glyph-name="uni025D" unicode="&#x25d;" horiz-adv-x="1361" 
d="M60 109l178 186q113 -73 277 -73q96 0 138.5 20.5t42.5 67.5q0 50 -72 64.5t-277 14.5v252q104 0 160.5 2.5t95.5 12.5t51.5 26t12.5 45q0 81 -152 81q-150 0 -247 -73l-178 186q73 63 182.5 101t242.5 38q72 0 136 -8.5t124 -29t105 -52t75.5 -80.5t38.5 -111l329 53
q-32 -88 -38 -111q-38 -159 94 -150q15 1 32 4v-272q-106 -5 -183 20q-78 23 -126.5 79.5t-40.5 154.5l-208 -34q74 -25 123.5 -86t49.5 -137q0 -330 -511 -330q-302 0 -455 139z" />
    <glyph glyph-name="uni025E" unicode="&#x25e;" horiz-adv-x="1183" 
d="M60 515q0 250 148 397.5t436 147.5q123 0 222.5 -34.5t161 -104.5t61.5 -165q0 -90 -52.5 -151t-114.5 -75q99 -20 150 -82t51 -159q0 -161 -124.5 -240t-354.5 -79q-288 0 -436 147.5t-148 397.5zM389 515q0 -153 61.5 -223.5t193.5 -70.5q47 0 79.5 9.5t46.5 24.5
t19 28t5 26q0 49 -56.5 67t-203.5 18v251q126 0 176 21t50 70q0 73 -116 73q-132 0 -193.5 -70.5t-61.5 -223.5z" />
    <glyph glyph-name="uni025F" unicode="&#x25f;" horiz-adv-x="625" 
d="M-210 -488l82 229q58 -21 119 -21q30 0 52 9.5t35 29t20.5 37.5t11 48.5t4 47.5t0.5 48v60h-174v252h174v778h328v-778h173v-252h-173v-60q0 -118 -22 -203t-71.5 -146.5t-133.5 -92t-204 -30.5q-139 0 -221 44z" />
    <glyph glyph-name="uni0260" unicode="&#x260;" horiz-adv-x="1376" 
d="M1252 1074v-1074q0 -122 -36.5 -217t-96.5 -153t-144.5 -95.5t-172 -52t-187.5 -14.5q-284 0 -489 116l125 228q169 -92 364 -92q142 0 225.5 69.5t83.5 210.5v136q-49 -75 -135 -120.5t-203 -45.5q-234 0 -380 146.5t-146 398.5t146 398.5t380 146.5q117 0 202.5 -45.5
t135.5 -120.5v180q0 118 22 203t71.5 146.5t133.5 92t204 30.5q139 0 221 -44l-82 -229q-58 21 -119 21q-30 0 -52 -9.5t-35 -29t-20.5 -37.5t-11 -48.5t-4 -47.5t-0.5 -48zM388 515q0 -130 70.5 -211.5t197.5 -81.5t197.5 81.5t70.5 211.5t-70.5 211.5t-197.5 81.5
t-197.5 -81.5t-70.5 -211.5z" />
    <glyph glyph-name="uni0261" unicode="&#x261;" horiz-adv-x="1353" 
d="M924 1030h328v-1030q0 -122 -36.5 -217t-96.5 -153t-144.5 -95.5t-172 -52t-187.5 -14.5q-284 0 -489 116l125 228q169 -92 364 -92q142 0 225.5 69.5t83.5 210.5v136q-49 -75 -135 -120.5t-203 -45.5q-234 0 -380 146.5t-146 398.5t146 398.5t380 146.5
q117 0 202.5 -45.5t135.5 -120.5v136zM388 515q0 -130 70.5 -211.5t197.5 -81.5t197.5 81.5t70.5 211.5t-70.5 211.5t-197.5 81.5t-197.5 -81.5t-70.5 -211.5z" />
    <glyph glyph-name="uni0262" unicode="&#x262;" horiz-adv-x="1202" 
d="M685 388v242h436v-512q-177 -148 -455 -148q-275 0 -440.5 144t-165.5 397t166 401t440 148q276 0 456 -135l-129 -198q-137 81 -327 81q-129 0 -203.5 -74.5t-74.5 -222.5q0 -147 74 -218t204 -71q125 0 204 42v124h-185z" />
    <glyph glyph-name="uni0263" unicode="&#x263;" horiz-adv-x="1428" 
d="M714 -572q-153 0 -238.5 78.5t-85.5 219.5q0 121 113 274l-493 1030h328l376 -827l376 827h328l-493 -1030q113 -153 113 -274q0 -141 -85.5 -219.5t-238.5 -78.5zM714 -348q32 0 50 19.5t18 54.5q0 61 -68 134q-68 -73 -68 -134q0 -35 18 -54.5t50 -19.5z" />
    <glyph glyph-name="uni0264" unicode="&#x264;" horiz-adv-x="1352" 
d="M676 -146q-326 0 -326 261q0 51 27 105t68 96l-435 714h337l329 -573l329 573h337l-435 -714q41 -42 68 -96t27 -105q0 -261 -326 -261zM676 66q26 0 36.5 19t10.5 40q0 42 -47 85q-47 -43 -47 -85q0 -21 10.5 -40t36.5 -19z" />
    <glyph glyph-name="uni0265" unicode="&#x265;" 
d="M848 496v534h328v-1562h-328v641q-91 -139 -275 -139q-247 0 -360 135t-113 391v534h328v-534q0 -135 48 -204.5t162 -69.5t162 69.5t48 204.5z" />
    <glyph glyph-name="uni0266" unicode="&#x266;" 
d="M752 1502l-82 -229q-58 21 -119 21q-30 0 -52 -9.5t-35 -29t-20.5 -37.5t-11 -48.5t-4 -47.5t-0.5 -48v-153q91 139 275 139q247 0 360 -135t113 -391v-534h-328v534q0 135 -48 204.5t-162 69.5t-162 -69.5t-48 -204.5v-534h-328v1074q0 118 22 203t71.5 146.5t133.5 92
t204 30.5q139 0 221 -44z" />
    <glyph glyph-name="uni0267" unicode="&#x267;" 
d="M524 -488l82 229q58 -21 119 -21q30 0 52 9.5t35 29t20.5 37.5t11 48.5t4 47.5t0.5 48v594q0 135 -48 204.5t-162 69.5t-162 -69.5t-48 -204.5v-534h-328v1074q0 118 22 203t71.5 146.5t133.5 92t204 30.5q139 0 221 -44l-82 -229q-58 21 -119 21q-30 0 -52 -9.5t-35 -29
t-20.5 -37.5t-11 -48.5t-4 -47.5t-0.5 -48v-153q91 139 275 139q247 0 360 -135t113 -391v-594q0 -118 -22 -203t-71.5 -146.5t-133.5 -92t-204 -30.5q-139 0 -221 44z" />
    <glyph glyph-name="uni0268" unicode="&#x268;" horiz-adv-x="801" 
d="M10 484v252h227v294h327v-294h227v-252h-227v-484h-327v484h-227zM228 1334q0 71 50.5 121.5t121.5 50.5t121.5 -50.5t50.5 -121.5t-50.5 -121.5t-121.5 -50.5t-121.5 50.5t-50.5 121.5z" />
    <glyph glyph-name="uni0269" unicode="&#x269;" horiz-adv-x="612" 
d="M100 390v640h333v-610v-36t1.5 -33t4.5 -33t8.5 -26t14 -22t21.5 -12.5t30 -5.5h39v-252h-106q-70 0 -126 15.5t-92 38t-61.5 59t-38 67.5t-19.5 75.5t-8 70t-1 64.5z" />
    <glyph glyph-name="uni026A" unicode="&#x26a;" horiz-adv-x="533" 
d="M100 0v1030h333v-1030h-333z" />
    <glyph glyph-name="uni026B" unicode="&#x26b;" horiz-adv-x="803" 
d="M238 1056v460h328v-537q12 15 18 37q2 8 4 20h205q-5 -73 -29 -129q-59 -134 -198 -148v-339v-36t1.5 -33t4.5 -33t8.5 -26t14 -22t21.5 -12.5t30 -5.5h39v-252h-106q-97 0 -166 30t-102 67t-50.5 100.5t-20 99t-2.5 93.5v447q-13 -14 -19 -38q-2 -6 -4 -20h-205
q3 69 29 129q57 132 199 148z" />
    <glyph glyph-name="uni026C" unicode="&#x26c;" horiz-adv-x="876" 
d="M377 1107v409h328v-759h161v-249h-161v-88v-36t1.5 -33t4.5 -33t8.5 -26t14 -22t21.5 -12.5t30 -5.5h39v-252h-106q-97 0 -166 30t-102 67t-50.5 100.5t-20 99t-2.5 93.5v118h-21q-141 0 -228.5 85.5t-87.5 222.5q0 134 88.5 212.5t248.5 78.5zM377 757v121
q-84 0 -84 -62q0 -25 16 -42t47 -17h21z" />
    <glyph glyph-name="uni026D" unicode="&#x26d;" horiz-adv-x="552" 
d="M670 -259l82 -229q-83 -44 -221 -44q-120 0 -204 30.5t-133.5 92t-71.5 146.5t-22 203v1576h328v-1576q0 -31 0.5 -48t4 -47.5t11 -48.5t20.5 -37.5t35 -29t52 -9.5q61 0 119 21z" />
    <glyph glyph-name="uni026E" unicode="&#x26e;" horiz-adv-x="1526" 
d="M350 -364l139 211q62 -50 156.5 -88.5t202.5 -38.5q145 0 217.5 65t72.5 175q0 153 -116 215.5t-366 62.5v196l334 344h-562v-358v-36t1.5 -33t4.5 -33t8.5 -26t14 -22t21.5 -12.5t30 -5.5h39v-252h-106q-97 0 -166 30t-102 67t-50.5 100.5t-20 99t-2.5 93.5v1126h328
v-486h962v-188l-373 -391q60 -12 116.5 -33t119 -60.5t108 -91.5t75.5 -131.5t30 -174.5q0 -234 -166.5 -363t-451.5 -129q-172 0 -302 52.5t-196 115.5z" />
    <glyph glyph-name="uni026F" unicode="&#x26f;" horiz-adv-x="1836" 
d="M1736 1030v-1030h-328v106q-20 -43 -48.5 -71.5t-62.5 -41.5t-64 -18t-67 -5q-248 0 -349 186q-86 -186 -305 -186q-204 0 -308 126.5t-104 349.5v584h328v-584q0 -224 163 -224t163 224v584h328v-584q0 -224 163 -224t163 224v584h328z" />
    <glyph glyph-name="uni0270" unicode="&#x270;" horiz-adv-x="1836" 
d="M1736 1030v-1562h-328v638q-20 -43 -48.5 -71.5t-62.5 -41.5t-64 -18t-67 -5q-248 0 -349 186q-86 -186 -305 -186q-204 0 -308 126.5t-104 349.5v584h328v-584q0 -224 163 -224t163 224v584h328v-584q0 -224 163 -224t163 224v584h328z" />
    <glyph glyph-name="uni0271" unicode="&#x271;" horiz-adv-x="1836" 
d="M100 0v1030h328v-106q20 43 48 71.5t62 41.5t64.5 18t67.5 5q248 0 349 -186q86 186 305 186q204 0 308 -126.5t104 -349.5v-1116h-328v1116q0 224 -163 224t-163 -224v-584h-328v584q0 224 -163 224t-163 -224v-584h-328z" />
    <glyph glyph-name="uni0272" unicode="&#x272;" horiz-adv-x="1300" 
d="M-200 -488l82 229q58 -21 119 -21q30 0 52 9.5t35 29t20.5 37.5t11 48.5t4 47.5t0.5 48v1090h328v-109q91 139 275 139q247 0 360 -135t113 -391v-534h-328v534q0 135 -48 204.5t-162 69.5t-162 -69.5t-48 -204.5v-594q0 -118 -22 -203t-71.5 -146.5t-133.5 -92
t-204 -30.5q-139 0 -221 44z" />
    <glyph glyph-name="uni0273" unicode="&#x273;" horiz-adv-x="1300" 
d="M1418 -259l82 -229q-82 -44 -221 -44q-120 0 -204 30.5t-133.5 92t-71.5 146.5t-22 203v594q0 135 -48 204.5t-162 69.5t-162 -69.5t-48 -204.5v-534h-328v1030h328v-109q91 139 275 139q247 0 360 -135t113 -391v-594q0 -31 0.5 -48t4 -47.5t11 -48.5t20.5 -37.5t35 -29
t52 -9.5q61 0 119 21z" />
    <glyph glyph-name="uni0274" unicode="&#x274;" horiz-adv-x="1222" 
d="M458 1030l336 -535v535h328v-1030h-358l-336 535v-535h-328v1030h358z" />
    <glyph glyph-name="uni0275" unicode="&#x275;" horiz-adv-x="1332" 
d="M666 -30q-274 0 -440 151t-166 394q0 244 165.5 394.5t440.5 150.5t440.5 -150.5t165.5 -394.5q0 -243 -166 -394t-440 -151zM666 808q-98 0 -163 -44.5t-94 -122.5h514q-29 78 -94.5 122.5t-162.5 44.5zM666 222q97 0 162.5 44.5t94.5 122.5h-514q29 -78 94 -122.5
t163 -44.5z" />
    <glyph glyph-name="uni0276" unicode="&#x276;" horiz-adv-x="1746" 
d="M886 1030h800v-252h-472v-126h449v-252h-449v-148h472v-252h-800q-101 -30 -220 -30q-275 0 -440.5 150.5t-165.5 394.5t165.5 394.5t440.5 150.5q119 0 220 -30zM388 515q0 -131 72 -212t206 -81q144 0 220 99v388q-76 99 -220 99q-134 0 -206 -81t-72 -212z" />
    <glyph glyph-name="uni0277" unicode="&#x277;" horiz-adv-x="1628" 
d="M60 471q0 126 40.5 227t109.5 168t166 111t205.5 63.5t232.5 19.5t232.5 -19.5t205.5 -63.5t166 -111t109.5 -168t40.5 -227q0 -253 -115 -377t-332 -124q-126 0 -203 62t-104 166q-27 -104 -104 -166t-203 -62q-217 0 -332 124t-115 377zM1238 471q0 176 -105.5 256.5
t-318.5 80.5t-318.5 -80.5t-105.5 -256.5q0 -50 6.5 -91.5t21 -78.5t42.5 -58t67 -21q76 0 103.5 104.5t27.5 309.5h312q0 -100 5 -169.5t19 -128t40.5 -87.5t66.5 -29q39 0 67 21t42.5 58t21 78.5t6.5 91.5z" />
    <glyph glyph-name="uni0278" unicode="&#x278;" horiz-adv-x="1584" 
d="M60 515q0 124 46.5 227t125.5 170t180.5 105.5t214.5 42.5v456h330v-456q113 -4 214.5 -42.5t180.5 -105.5t125.5 -170t46.5 -227t-46.5 -227t-125.5 -170t-180.5 -105.5t-214.5 -42.5v-502h-330v502q-113 4 -214.5 42.5t-180.5 105.5t-125.5 170t-46.5 227zM1194 515
q0 134 -66 210.5t-171 82.5v-586q105 6 171 82.5t66 210.5zM390 515q0 -134 66 -210.5t171 -82.5v586q-105 -6 -171 -82.5t-66 -210.5z" />
    <glyph glyph-name="uni0279" unicode="&#x279;" horiz-adv-x="988" 
d="M40 18l144 248q69 -44 166 -44q114 0 162 69.5t48 204.5v534h328v-1030h-328v109q-91 -139 -275 -139q-144 0 -245 48z" />
    <glyph glyph-name="uni027A" unicode="&#x27a;" horiz-adv-x="988" 
d="M40 18l144 248q69 -44 166 -44q114 0 162 69.5t48 204.5v1020h328v-1516h-328v109q-91 -139 -275 -139q-144 0 -245 48z" />
    <glyph glyph-name="uni027B" unicode="&#x27b;" horiz-adv-x="1012" 
d="M1130 -259l82 -229q-82 -44 -221 -44q-120 0 -204 30.5t-133.5 92t-71.5 146.5t-22 203v169q-91 -139 -275 -139q-144 0 -245 48l144 248q69 -44 166 -44q114 0 162 69.5t48 204.5v534h328v-1090q0 -31 0.5 -48t4 -47.5t11 -48.5t20.5 -37.5t35 -29t52 -9.5q61 0 119 21z
" />
    <glyph glyph-name="uni027C" unicode="&#x27c;" horiz-adv-x="958" 
d="M948 1012l-144 -248q-69 44 -166 44q-114 0 -162 -69.5t-48 -204.5v-1066h-328v1562h328v-109q91 139 275 139q144 0 245 -48z" />
    <glyph glyph-name="uni027D" unicode="&#x27d;" horiz-adv-x="958" 
d="M948 1012l-144 -248q-69 44 -166 44q-114 0 -162 -69.5t-48 -204.5v-650q0 -46 13 -67t44 -21q58 0 114 56l119 -212q-44 -61 -121 -92.5t-143 -31.5q-354 0 -354 388v1126h328v-109q91 139 275 139q144 0 245 -48z" />
    <glyph glyph-name="uni027E" unicode="&#x27e;" horiz-adv-x="923" 
d="M913 1023l-132 -285q-51 20 -110 20q-113 0 -178 -63t-65 -159v-536h-328v536q0 238 148.5 381t422.5 143q133 0 242 -37z" />
    <glyph glyph-name="uni027F" unicode="&#x27f;" horiz-adv-x="953" 
d="M172 738l-132 285q109 37 242 37q274 0 422.5 -143t148.5 -381v-1068h-328v1068q0 96 -65 159t-178 63q-59 0 -110 -20z" />
    <glyph glyph-name="uni0280" unicode="&#x280;" horiz-adv-x="1158" 
d="M430 0h-330v1030h532q199 0 318.5 -95.5t119.5 -251.5q0 -122 -63 -203t-147 -112l258 -368h-359l-230 329h-99v-329zM632 778h-202v-230h202q49 0 78.5 30t29.5 85t-29.5 85t-78.5 30z" />
    <glyph glyph-name="uni0281" unicode="&#x281;" horiz-adv-x="1158" 
d="M100 1030h330v-329h99l230 329h359l-258 -368q84 -31 147 -112t63 -203q0 -156 -119.5 -251.5t-318.5 -95.5h-532v1030zM430 252h202q49 0 78.5 30t29.5 85t-29.5 85t-78.5 30h-202v-230z" />
    <glyph glyph-name="uni0282" unicode="&#x282;" horiz-adv-x="1021" 
d="M930 953l-124 -211q-152 66 -312 66q-126 0 -126 -72q0 -35 42 -55t121 -34q111 -22 188 -48t139 -66t92.5 -99t30.5 -138q0 -86 -40 -151t-109.5 -102t-154 -55t-183.5 -18q-85 0 -180 17v-191q0 -46 13 -67t44 -21q58 0 114 56l119 -172q-44 -61 -121 -92.5t-143 -31.5
q-159 0 -228.5 84.5t-69.5 263.5v510q121 -56 241 -80t211 -24q79 0 119 16t40 58t-37.5 60.5t-138.5 38.5q-223 42 -330 125t-107 216q0 156 119.5 240t334.5 84q259 0 436 -107z" />
    <glyph glyph-name="uni0283" unicode="&#x283;" horiz-adv-x="696" 
d="M-140 -488l82 229q58 -21 119 -21q30 0 52 9.5t35 29t20.5 37.5t11 48.5t4 47.5t0.5 48v1134q0 118 22 203t71.5 146.5t133.5 92t204 30.5q139 0 221 -44l-82 -229q-58 21 -119 21q-30 0 -52 -9.5t-35 -29t-20.5 -37.5t-11 -48.5t-4 -47.5t-0.5 -48v-1134
q0 -118 -22 -203t-71.5 -146.5t-133.5 -92t-204 -30.5q-139 0 -221 44z" />
    <glyph glyph-name="uni0284" unicode="&#x284;" horiz-adv-x="736" 
d="M-120 -488l82 229q58 -21 119 -21q30 0 52 9.5t35 29t20.5 37.5t11 48.5t4 47.5t0.5 48v60h-229v289h229v785q0 118 22 203t71.5 146.5t133.5 92t204 30.5q139 0 221 -44l-82 -229q-58 21 -119 21q-30 0 -52 -9.5t-35 -29t-20.5 -37.5t-11 -48.5t-4 -47.5t-0.5 -48v-785
h228v-289h-228v-60q0 -118 -22 -203t-71.5 -146.5t-133.5 -92t-204 -30.5q-139 0 -221 44z" />
    <glyph glyph-name="uni0285" unicode="&#x285;" horiz-adv-x="726" 
d="M844 -259l82 -229q-82 -44 -221 -44q-120 0 -204 30.5t-133.5 92t-71.5 146.5t-22 203v648q0 31 -0.5 48t-4 47.5t-11 48.5t-20.5 37.5t-35 29t-52 9.5q-61 0 -119 -21l-82 229q82 44 221 44q120 0 204 -30.5t133.5 -92t71.5 -146.5t22 -203v-648q0 -31 0.5 -48t4 -47.5
t11 -48.5t20.5 -37.5t35 -29t52 -9.5q61 0 119 21z" />
    <glyph glyph-name="uni0286" unicode="&#x286;" horiz-adv-x="926" 
d="M805 1502l-82 -229q-58 21 -119 21q-30 0 -52 -9.5t-35 -29t-20.5 -37.5t-11 -48.5t-4 -47.5t-0.5 -48v-568q38 23 112 23q147 0 235 -66.5t88 -194.5q0 -76 -27 -135t-74.5 -93.5t-106 -52t-126.5 -17.5q-159 0 -244 65q-11 -13 -46 -66q-16 -26 -25 -40l-227 157
q21 36 39 65q44 71 86 121q-12 38 -12 159v643q0 118 22 203t71.5 146.5t133.5 92t204 30.5q138 0 221 -44zM562 197q30 0 54.5 18.5t24.5 46.5q0 21 -15.5 30.5t-34.5 9.5q-66 0 -98 -59q2 -20 21.5 -33t47.5 -13z" />
    </font>
</defs>
</svg>
