<?xml version="1.0" standalone="no"?>
<!DOCTYPE svg PUBLIC "-//W3C//DTD SVG 20010904//EN"
 "http://www.w3.org/TR/2001/REC-SVG-20010904/DTD/svg10.dtd">
<svg version="1.0" xmlns="http://www.w3.org/2000/svg"
 width="100.000000pt" height="100.000000pt" viewBox="0 0 100.000000 100.000000"
 preserveAspectRatio="xMidYMid meet">
<metadata>
Created by potrace 1.14, written by Peter Selinger 2001-2017
</metadata>
<g transform="translate(0.000000,100.000000) scale(0.100000,-0.100000)"
fill="#000000" stroke="none">
<path d="M390 763 c-28 -10 -64 -36 -96 -68 -63 -65 -89 -137 -82 -229 19
-237 307 -350 480 -188 75 70 93 110 93 212 0 76 -3 91 -30 139 -36 65 -92
115 -153 135 -57 20 -153 19 -212 -1z m232 -35 c23 -13 43 -30 43 -38 0 -8 4
-21 8 -27 6 -9 2 -13 -12 -13 -12 0 -21 4 -21 10 0 5 -7 7 -15 4 -8 -4 -15
-10 -15 -16 0 -5 4 -7 9 -3 5 3 12 1 16 -4 3 -5 -2 -14 -11 -19 -9 -5 -15 -15
-12 -23 2 -7 -4 -22 -14 -33 -35 -38 -16 -100 29 -96 10 1 23 2 29 1 11 -1 27
-40 29 -71 0 -8 4 -30 9 -48 10 -41 -8 -63 -79 -100 -182 -92 -406 67 -382
271 7 51 16 72 24 49 3 -6 9 -10 14 -7 5 4 6 -2 2 -11 -4 -11 -3 -15 5 -10 6
3 13 -2 17 -13 3 -10 18 -21 33 -25 45 -10 65 -31 53 -54 -8 -16 -6 -25 13
-45 16 -17 26 -43 30 -79 4 -34 14 -60 27 -73 l21 -20 -7 32 c-4 22 -3 33 5
33 6 0 18 16 26 35 8 19 18 35 22 35 10 0 32 57 24 64 -3 3 -12 6 -21 6 -9 0
-27 12 -40 25 -22 24 -42 30 -88 26 -14 -1 -24 6 -28 18 -3 11 -12 18 -20 15
-7 -3 -15 -1 -18 3 -10 16 10 35 33 31 16 -2 35 10 66 41 28 27 49 41 59 37
10 -3 15 1 15 14 0 27 -38 37 -55 14 -11 -16 -15 -16 -30 -4 -16 13 -14 16 21
31 31 13 40 13 44 3 3 -9 10 -10 20 -4 8 5 11 12 7 16 -11 12 -77 14 -77 4 0
-6 -7 -10 -15 -10 -8 0 -15 5 -15 10 0 6 -7 10 -16 10 -8 0 -12 -4 -9 -10 4
-6 -1 -7 -11 -3 -15 5 -14 7 2 16 77 44 182 46 256 5z m-209 -121 c-5 -8 -8
-7 -11 1 -2 7 -8 10 -13 7 -5 -4 -6 1 -3 10 5 12 10 13 20 4 8 -6 11 -16 7
-22z m294 -3 c3 -9 9 -11 12 -6 3 5 14 1 25 -9 18 -17 17 -18 -23 -17 -23 0
-41 4 -41 9 0 5 -10 9 -21 9 -16 0 -19 3 -11 13 15 18 52 19 59 1z"/>
</g>
</svg>
